solid RatHeadPhones_FinalModel_Jan2015
facet normal -2.7867972257954966e-17 -1.0163933081745584e-16 -1.0
  outer loop
    vertex 241.2267284224419 108.93233859564332 17.098775087280067
    vertex 246.92672842244193 114.13449519412927 17.098775087280067
    vertex 247.44671979976712 108.93233859564323 17.098775087280067
  endloop
endfacet
facet normal -2.7867972257954966e-17 -1.0163933081745584e-16 -1.0
  outer loop
    vertex 246.92672842244193 114.13449519412927 17.098775087280067
    vertex 241.2267284224419 108.93233859564332 17.098775087280067
    vertex 241.7467197997671 114.13449519412929 17.098775087280067
  endloop
endfacet
facet normal -0.9984603532054125 1.3613471156906529e-15 0.05547001962252295
  outer loop
    vertex 239.8367241111045 107.0323385956433 8.89877508728007
    vertex 240.33672411110453 115.03233859564328 17.898775087280054
    vertex 239.8367241111045 115.53233859564321 8.89877508728007
  endloop
endfacet
facet normal -0.9984603532054125 1.3613471156906529e-15 0.05547001962252295
  outer loop
    vertex 240.33672411110453 115.03233859564328 17.898775087280054
    vertex 239.8367241111045 107.0323385956433 8.89877508728007
    vertex 240.33672411110453 107.0323385956433 17.898775087280054
  endloop
endfacet
facet normal -0.0 0.0 -1.0
  outer loop
    vertex 233.33672411110453 107.03233859564322 17.898775087280054
    vertex 240.33672411110453 115.03233859564328 17.898775087280054
    vertex 240.33672411110453 107.0323385956433 17.898775087280054
  endloop
endfacet
facet normal -0.0 0.0 -1.0
  outer loop
    vertex 240.33672411110453 115.03233859564328 17.898775087280054
    vertex 233.33672411110453 107.03233859564322 17.898775087280054
    vertex 233.33672411110453 115.03233859564327 17.898775087280054
  endloop
endfacet
facet normal -0.0 0.0 -1.0
  outer loop
    vertex 248.33672411110445 107.03233859564321 17.898775087280054
    vertex 255.3367241111045 115.03233859564321 17.898775087280054
    vertex 255.3367241111045 107.03233859564322 17.898775087280054
  endloop
endfacet
facet normal -0.0 0.0 -1.0
  outer loop
    vertex 255.3367241111045 115.03233859564321 17.898775087280054
    vertex 248.33672411110445 107.03233859564321 17.898775087280054
    vertex 248.3367241111045 115.03233859564321 17.898775087280054
  endloop
endfacet
facet normal -1.0 1.0824674490095276e-15 0.0
  outer loop
    vertex 233.33672411110453 107.03233859564322 17.898775087280054
    vertex 233.33672411110453 115.03233859564327 19.898775087280065
    vertex 233.33672411110453 115.03233859564327 17.898775087280054
  endloop
endfacet
facet normal -1.0 1.0824674490095276e-15 0.0
  outer loop
    vertex 233.33672411110453 115.03233859564327 19.898775087280065
    vertex 233.33672411110453 107.03233859564322 17.898775087280054
    vertex 233.33672411110453 107.03233859564322 19.898775087280065
  endloop
endfacet
facet normal 0.9984603532054125 -1.36568505401619e-15 0.055470019622522876
  outer loop
    vertex 248.3367241111045 115.03233859564321 17.898775087280054
    vertex 248.83672411110447 107.0323385956433 8.89877508728007
    vertex 248.83672411110447 115.53233859564321 8.89877508728007
  endloop
endfacet
facet normal 0.9984603532054125 -1.36568505401619e-15 0.055470019622522876
  outer loop
    vertex 248.83672411110447 107.0323385956433 8.89877508728007
    vertex 248.3367241111045 115.03233859564321 17.898775087280054
    vertex 248.33672411110445 107.03233859564321 17.898775087280054
  endloop
endfacet
facet normal 1.0 -1.0824674490095276e-15 0.0
  outer loop
    vertex 255.3367241111045 107.03233859564322 19.898775087280065
    vertex 255.3367241111045 115.03233859564321 17.898775087280054
    vertex 255.3367241111045 115.03233859564321 19.898775087280065
  endloop
endfacet
facet normal 1.0 -1.0824674490095276e-15 0.0
  outer loop
    vertex 255.3367241111045 115.03233859564321 17.898775087280054
    vertex 255.3367241111045 107.03233859564322 19.898775087280065
    vertex 255.3367241111045 107.03233859564322 17.898775087280054
  endloop
endfacet
facet normal 0.0 0.0 1.0
  outer loop
    vertex 255.3367241111045 115.03233859564321 19.898775087280065
    vertex 252.7856128505381 111.42056716329705 19.898775087280065
    vertex 252.8367241111047 111.03233859564327 19.898775087280065
  endloop
endfacet
facet normal 0.0 0.0 1.0
  outer loop
    vertex 252.7856128505381 111.42056716329705 19.898775087280065
    vertex 255.3367241111045 115.03233859564321 19.898775087280065
    vertex 252.63576221678116 111.78233859564328 19.898775087280065
  endloop
endfacet
facet normal 0.0 0.0 1.0
  outer loop
    vertex 252.63576221678116 111.78233859564328 19.898775087280065
    vertex 255.3367241111045 115.03233859564321 19.898775087280065
    vertex 252.39738428288433 112.0929987674231 19.898775087280065
  endloop
endfacet
facet normal 0.0 0.0 1.0
  outer loop
    vertex 252.39738428288433 112.0929987674231 19.898775087280065
    vertex 255.3367241111045 115.03233859564321 19.898775087280065
    vertex 252.08672411110456 112.33137670131993 19.898775087280065
  endloop
endfacet
facet normal 0.0 0.0 1.0
  outer loop
    vertex 252.08672411110456 112.33137670131993 19.898775087280065
    vertex 255.3367241111045 115.03233859564321 19.898775087280065
    vertex 246.33672411110456 115.03233859564324 19.898775087280065
  endloop
endfacet
facet normal 0.0 0.0 1.0
  outer loop
    vertex 252.08672411110456 112.33137670131993 19.898775087280065
    vertex 246.33672411110456 115.03233859564324 19.898775087280065
    vertex 251.72495267875834 112.4812273350769 19.898775087280065
  endloop
endfacet
facet normal 0.0 0.0 1.0
  outer loop
    vertex 251.72495267875834 112.4812273350769 19.898775087280065
    vertex 246.33672411110456 115.03233859564324 19.898775087280065
    vertex 251.33672411110453 112.53233859564328 19.898775087280065
  endloop
endfacet
facet normal 0.0 0.0 1.0
  outer loop
    vertex 251.33672411110453 112.53233859564328 19.898775087280065
    vertex 246.33672411110456 115.03233859564324 19.898775087280065
    vertex 250.94849554345078 112.48122733507687 19.898775087280065
  endloop
endfacet
facet normal 0.0 0.0 1.0
  outer loop
    vertex 250.94849554345078 112.48122733507687 19.898775087280065
    vertex 246.33672411110456 115.03233859564324 19.898775087280065
    vertex 250.58672411110453 112.33137670131993 19.898775087280065
  endloop
endfacet
facet normal 0.0 0.0 1.0
  outer loop
    vertex 250.58672411110453 112.33137670131993 19.898775087280065
    vertex 246.33672411110456 115.03233859564324 19.898775087280065
    vertex 250.2760639393247 112.0929987674231 19.898775087280065
  endloop
endfacet
facet normal 0.0 0.0 1.0
  outer loop
    vertex 250.2760639393247 112.0929987674231 19.898775087280065
    vertex 246.33672411110456 115.03233859564324 19.898775087280065
    vertex 250.03768600542787 111.78233859564328 19.898775087280065
  endloop
endfacet
facet normal 0.0 0.0 1.0
  outer loop
    vertex 250.03768600542787 111.78233859564328 19.898775087280065
    vertex 246.33672411110456 115.03233859564324 19.898775087280065
    vertex 249.8878353716709 111.42056716329705 19.898775087280065
  endloop
endfacet
facet normal 0.0 0.0 1.0
  outer loop
    vertex 249.8878353716709 111.42056716329705 19.898775087280065
    vertex 246.33672411110456 115.03233859564324 19.898775087280065
    vertex 249.8367241111047 111.03233859564327 19.898775087280065
  endloop
endfacet
facet normal 0.0 0.0 1.0
  outer loop
    vertex 249.8367241111047 111.03233859564327 19.898775087280065
    vertex 246.33672411110456 115.03233859564324 19.898775087280065
    vertex 246.33672411110464 111.03233859564322 19.898775087280065
  endloop
endfacet
facet normal 0.0 0.0 1.0
  outer loop
    vertex 242.3367241111045 115.03233859564328 19.898775087280065
    vertex 238.78561285053812 111.4205671632971 19.898775087280065
    vertex 238.83672411110473 111.03233859564331 19.898775087280065
  endloop
endfacet
facet normal 0.0 0.0 1.0
  outer loop
    vertex 238.78561285053812 111.4205671632971 19.898775087280065
    vertex 242.3367241111045 115.03233859564328 19.898775087280065
    vertex 238.63576221678125 111.7823385956433 19.898775087280065
  endloop
endfacet
facet normal 0.0 0.0 1.0
  outer loop
    vertex 238.63576221678125 111.7823385956433 19.898775087280065
    vertex 242.3367241111045 115.03233859564328 19.898775087280065
    vertex 238.39738428288442 112.09299876742314 19.898775087280065
  endloop
endfacet
facet normal 0.0 0.0 1.0
  outer loop
    vertex 238.39738428288442 112.09299876742314 19.898775087280065
    vertex 242.3367241111045 115.03233859564328 19.898775087280065
    vertex 238.0867241111046 112.33137670131997 19.898775087280065
  endloop
endfacet
facet normal 0.0 0.0 1.0
  outer loop
    vertex 238.0867241111046 112.33137670131997 19.898775087280065
    vertex 242.3367241111045 115.03233859564328 19.898775087280065
    vertex 233.33672411110453 115.03233859564327 19.898775087280065
  endloop
endfacet
facet normal 0.0 0.0 1.0
  outer loop
    vertex 238.0867241111046 112.33137670131997 19.898775087280065
    vertex 233.33672411110453 115.03233859564327 19.898775087280065
    vertex 237.72495267875837 112.48122733507682 19.898775087280065
  endloop
endfacet
facet normal 0.0 0.0 1.0
  outer loop
    vertex 237.72495267875837 112.48122733507682 19.898775087280065
    vertex 233.33672411110453 115.03233859564327 19.898775087280065
    vertex 237.33672411110456 112.53233859564322 19.898775087280065
  endloop
endfacet
facet normal 0.0 0.0 1.0
  outer loop
    vertex 237.33672411110456 112.53233859564322 19.898775087280065
    vertex 233.33672411110453 115.03233859564327 19.898775087280065
    vertex 236.9484955434508 112.48122733507682 19.898775087280065
  endloop
endfacet
facet normal 0.0 0.0 1.0
  outer loop
    vertex 236.9484955434508 112.48122733507682 19.898775087280065
    vertex 233.33672411110453 115.03233859564327 19.898775087280065
    vertex 236.58672411110462 112.33137670131987 19.898775087280065
  endloop
endfacet
facet normal 0.0 0.0 1.0
  outer loop
    vertex 236.58672411110462 112.33137670131987 19.898775087280065
    vertex 233.33672411110453 115.03233859564327 19.898775087280065
    vertex 236.27606393932476 112.09299876742307 19.898775087280065
  endloop
endfacet
facet normal 0.0 0.0 1.0
  outer loop
    vertex 236.27606393932476 112.09299876742307 19.898775087280065
    vertex 233.33672411110453 115.03233859564327 19.898775087280065
    vertex 236.03768600542793 111.78233859564325 19.898775087280065
  endloop
endfacet
facet normal 0.0 0.0 1.0
  outer loop
    vertex 236.03768600542793 111.78233859564325 19.898775087280065
    vertex 233.33672411110453 115.03233859564327 19.898775087280065
    vertex 235.88783537167097 111.42056716329705 19.898775087280065
  endloop
endfacet
facet normal 0.0 0.0 1.0
  outer loop
    vertex 235.88783537167097 111.42056716329705 19.898775087280065
    vertex 233.33672411110453 115.03233859564327 19.898775087280065
    vertex 235.83672411110473 111.03233859564325 19.898775087280065
  endloop
endfacet
facet normal 0.0 0.0 1.0
  outer loop
    vertex 255.3367241111045 107.03233859564322 19.898775087280065
    vertex 251.72495267875829 109.58344985620968 19.898775087280065
    vertex 233.33672411110453 107.03233859564322 19.898775087280065
  endloop
endfacet
facet normal 0.0 0.0 1.0
  outer loop
    vertex 251.72495267875829 109.58344985620968 19.898775087280065
    vertex 255.3367241111045 107.03233859564322 19.898775087280065
    vertex 252.0867241111045 109.73330048996662 19.898775087280065
  endloop
endfacet
facet normal 0.0 0.0 1.0
  outer loop
    vertex 252.0867241111045 109.73330048996662 19.898775087280065
    vertex 255.3367241111045 107.03233859564322 19.898775087280065
    vertex 252.39738428288433 109.97167842386345 19.898775087280065
  endloop
endfacet
facet normal 0.0 0.0 1.0
  outer loop
    vertex 252.39738428288433 109.97167842386345 19.898775087280065
    vertex 255.3367241111045 107.03233859564322 19.898775087280065
    vertex 252.6357622167814 110.28233859564328 19.898775087280065
  endloop
endfacet
facet normal 0.0 0.0 1.0
  outer loop
    vertex 252.6357622167814 110.28233859564328 19.898775087280065
    vertex 255.3367241111045 107.03233859564322 19.898775087280065
    vertex 255.3367241111045 115.03233859564321 19.898775087280065
  endloop
endfacet
facet normal 0.0 0.0 1.0
  outer loop
    vertex 252.6357622167814 110.28233859564328 19.898775087280065
    vertex 255.3367241111045 115.03233859564321 19.898775087280065
    vertex 252.78561285053829 110.64411002798948 19.898775087280065
  endloop
endfacet
facet normal 0.0 0.0 1.0
  outer loop
    vertex 252.78561285053829 110.64411002798948 19.898775087280065
    vertex 255.3367241111045 115.03233859564321 19.898775087280065
    vertex 252.8367241111047 111.03233859564327 19.898775087280065
  endloop
endfacet
facet normal 0.0 0.0 1.0
  outer loop
    vertex 233.33672411110453 107.03233859564322 19.898775087280065
    vertex 251.72495267875829 109.58344985620968 19.898775087280065
    vertex 251.3367241111045 109.5323385956433 19.898775087280065
  endloop
endfacet
facet normal 0.0 0.0 1.0
  outer loop
    vertex 233.33672411110453 107.03233859564322 19.898775087280065
    vertex 251.3367241111045 109.5323385956433 19.898775087280065
    vertex 250.9484955434507 109.58344985620967 19.898775087280065
  endloop
endfacet
facet normal 0.0 0.0 1.0
  outer loop
    vertex 233.33672411110453 107.03233859564322 19.898775087280065
    vertex 250.9484955434507 109.58344985620967 19.898775087280065
    vertex 250.5867241111045 109.73330048996662 19.898775087280065
  endloop
endfacet
facet normal 0.0 0.0 1.0
  outer loop
    vertex 233.33672411110453 107.03233859564322 19.898775087280065
    vertex 250.5867241111045 109.73330048996662 19.898775087280065
    vertex 250.2760639393247 109.97167842386345 19.898775087280065
  endloop
endfacet
facet normal 0.0 0.0 1.0
  outer loop
    vertex 233.33672411110453 107.03233859564322 19.898775087280065
    vertex 250.2760639393247 109.97167842386345 19.898775087280065
    vertex 250.03768600542804 110.28233859564325 19.898775087280065
  endloop
endfacet
facet normal 0.0 0.0 1.0
  outer loop
    vertex 233.33672411110453 107.03233859564322 19.898775087280065
    vertex 250.03768600542804 110.28233859564325 19.898775087280065
    vertex 249.8878353716711 110.64411002798948 19.898775087280065
  endloop
endfacet
facet normal 0.0 0.0 1.0
  outer loop
    vertex 233.33672411110453 107.03233859564322 19.898775087280065
    vertex 249.8878353716711 110.64411002798948 19.898775087280065
    vertex 249.8367241111047 111.03233859564327 19.898775087280065
  endloop
endfacet
facet normal 0.0 0.0 1.0
  outer loop
    vertex 233.33672411110453 107.03233859564322 19.898775087280065
    vertex 249.8367241111047 111.03233859564327 19.898775087280065
    vertex 246.33672411110464 111.03233859564322 19.898775087280065
  endloop
endfacet
facet normal 0.0 0.0 1.0
  outer loop
    vertex 233.33672411110453 107.03233859564322 19.898775087280065
    vertex 246.33672411110464 111.03233859564322 19.898775087280065
    vertex 242.33672411110464 111.0323385956433 19.898775087280065
  endloop
endfacet
facet normal 0.0 0.0 1.0
  outer loop
    vertex 233.33672411110453 107.03233859564322 19.898775087280065
    vertex 242.33672411110464 111.0323385956433 19.898775087280065
    vertex 238.08672411110453 109.73330048996667 19.898775087280065
  endloop
endfacet
facet normal 0.0 0.0 1.0
  outer loop
    vertex 238.08672411110453 109.73330048996667 19.898775087280065
    vertex 242.33672411110464 111.0323385956433 19.898775087280065
    vertex 238.39738428288436 109.9716784238635 19.898775087280065
  endloop
endfacet
facet normal 0.0 0.0 1.0
  outer loop
    vertex 238.39738428288436 109.9716784238635 19.898775087280065
    vertex 242.33672411110464 111.0323385956433 19.898775087280065
    vertex 242.3367241111045 115.03233859564328 19.898775087280065
  endloop
endfacet
facet normal 0.0 0.0 1.0
  outer loop
    vertex 238.39738428288436 109.9716784238635 19.898775087280065
    vertex 242.3367241111045 115.03233859564328 19.898775087280065
    vertex 238.6357622167812 110.28233859564331 19.898775087280065
  endloop
endfacet
facet normal 0.0 0.0 1.0
  outer loop
    vertex 238.6357622167812 110.28233859564331 19.898775087280065
    vertex 242.3367241111045 115.03233859564328 19.898775087280065
    vertex 238.7856128505383 110.64411002798954 19.898775087280065
  endloop
endfacet
facet normal 0.0 0.0 1.0
  outer loop
    vertex 238.7856128505383 110.64411002798954 19.898775087280065
    vertex 242.3367241111045 115.03233859564328 19.898775087280065
    vertex 238.83672411110473 111.03233859564331 19.898775087280065
  endloop
endfacet
facet normal 0.0 0.0 1.0
  outer loop
    vertex 233.33672411110453 107.03233859564322 19.898775087280065
    vertex 238.08672411110453 109.73330048996667 19.898775087280065
    vertex 237.7249526787583 109.58344985620963 19.898775087280065
  endloop
endfacet
facet normal 0.0 0.0 1.0
  outer loop
    vertex 233.33672411110453 107.03233859564322 19.898775087280065
    vertex 237.7249526787583 109.58344985620963 19.898775087280065
    vertex 237.33672411110453 109.53233859564322 19.898775087280065
  endloop
endfacet
facet normal 0.0 0.0 1.0
  outer loop
    vertex 233.33672411110453 107.03233859564322 19.898775087280065
    vertex 237.33672411110453 109.53233859564322 19.898775087280065
    vertex 236.94849554345078 109.58344985620963 19.898775087280065
  endloop
endfacet
facet normal 0.0 0.0 1.0
  outer loop
    vertex 233.33672411110453 107.03233859564322 19.898775087280065
    vertex 236.94849554345078 109.58344985620963 19.898775087280065
    vertex 236.5867241111045 109.73330048996657 19.898775087280065
  endloop
endfacet
facet normal 0.0 0.0 1.0
  outer loop
    vertex 233.33672411110453 107.03233859564322 19.898775087280065
    vertex 236.5867241111045 109.73330048996657 19.898775087280065
    vertex 236.27606393932473 109.97167842386345 19.898775087280065
  endloop
endfacet
facet normal 0.0 0.0 1.0
  outer loop
    vertex 233.33672411110453 107.03233859564322 19.898775087280065
    vertex 236.27606393932473 109.97167842386345 19.898775087280065
    vertex 236.03768600542784 110.28233859564325 19.898775087280065
  endloop
endfacet
facet normal 0.0 0.0 1.0
  outer loop
    vertex 233.33672411110453 107.03233859564322 19.898775087280065
    vertex 236.03768600542784 110.28233859564325 19.898775087280065
    vertex 235.8878353716711 110.64411002798947 19.898775087280065
  endloop
endfacet
facet normal 0.0 0.0 1.0
  outer loop
    vertex 233.33672411110453 107.03233859564322 19.898775087280065
    vertex 235.8878353716711 110.64411002798947 19.898775087280065
    vertex 235.83672411110473 111.03233859564325 19.898775087280065
  endloop
endfacet
facet normal 0.0 0.0 1.0
  outer loop
    vertex 233.33672411110453 107.03233859564322 19.898775087280065
    vertex 235.83672411110473 111.03233859564325 19.898775087280065
    vertex 233.33672411110453 115.03233859564327 19.898775087280065
  endloop
endfacet
facet normal 0.0 0.0 1.0
  outer loop
    vertex 252.7856128505381 111.42056716329705 30.898775087280015
    vertex 252.78561285053829 110.64411002798948 30.898775087280015
    vertex 252.8367241111047 111.03233859564327 30.898775087280015
  endloop
endfacet
facet normal 0.0 0.0 1.0
  outer loop
    vertex 252.78561285053829 110.64411002798948 30.898775087280015
    vertex 252.7856128505381 111.42056716329705 30.898775087280015
    vertex 252.6357622167814 110.28233859564328 30.898775087280015
  endloop
endfacet
facet normal 0.0 0.0 1.0
  outer loop
    vertex 252.6357622167814 110.28233859564328 30.898775087280015
    vertex 252.7856128505381 111.42056716329705 30.898775087280015
    vertex 252.63576221678116 111.78233859564328 30.898775087280015
  endloop
endfacet
facet normal 0.0 0.0 1.0
  outer loop
    vertex 252.6357622167814 110.28233859564328 30.898775087280015
    vertex 252.63576221678116 111.78233859564328 30.898775087280015
    vertex 252.39738428288433 109.97167842386345 30.898775087280015
  endloop
endfacet
facet normal 0.0 0.0 1.0
  outer loop
    vertex 252.39738428288433 109.97167842386345 30.898775087280015
    vertex 252.63576221678116 111.78233859564328 30.898775087280015
    vertex 252.39738428288433 112.0929987674231 30.898775087280015
  endloop
endfacet
facet normal 0.0 0.0 1.0
  outer loop
    vertex 252.39738428288433 109.97167842386345 30.898775087280015
    vertex 252.39738428288433 112.0929987674231 30.898775087280015
    vertex 252.08672411110456 112.33137670131993 30.898775087280015
  endloop
endfacet
facet normal 0.0 0.0 1.0
  outer loop
    vertex 252.39738428288433 109.97167842386345 30.898775087280015
    vertex 252.08672411110456 112.33137670131993 30.898775087280015
    vertex 252.0867241111045 109.73330048996662 30.898775087280015
  endloop
endfacet
facet normal 0.0 0.0 1.0
  outer loop
    vertex 252.0867241111045 109.73330048996662 30.898775087280015
    vertex 252.08672411110456 112.33137670131993 30.898775087280015
    vertex 251.72495267875834 112.4812273350769 30.898775087280015
  endloop
endfacet
facet normal 0.0 0.0 1.0
  outer loop
    vertex 252.0867241111045 109.73330048996662 30.898775087280015
    vertex 251.72495267875834 112.4812273350769 30.898775087280015
    vertex 251.72495267875829 109.58344985620968 30.898775087280015
  endloop
endfacet
facet normal 0.0 0.0 1.0
  outer loop
    vertex 251.72495267875829 109.58344985620968 30.898775087280015
    vertex 251.72495267875834 112.4812273350769 30.898775087280015
    vertex 251.33672411110453 112.53233859564328 30.898775087280015
  endloop
endfacet
facet normal 0.0 0.0 1.0
  outer loop
    vertex 251.72495267875829 109.58344985620968 30.898775087280015
    vertex 251.33672411110453 112.53233859564328 30.898775087280015
    vertex 251.3367241111045 109.5323385956433 30.898775087280015
  endloop
endfacet
facet normal 0.0 0.0 1.0
  outer loop
    vertex 251.3367241111045 109.5323385956433 30.898775087280015
    vertex 251.33672411110453 112.53233859564328 30.898775087280015
    vertex 250.94849554345078 112.48122733507687 30.898775087280015
  endloop
endfacet
facet normal 0.0 0.0 1.0
  outer loop
    vertex 251.3367241111045 109.5323385956433 30.898775087280015
    vertex 250.94849554345078 112.48122733507687 30.898775087280015
    vertex 250.9484955434507 109.58344985620967 30.898775087280015
  endloop
endfacet
facet normal 0.0 0.0 1.0
  outer loop
    vertex 250.9484955434507 109.58344985620967 30.898775087280015
    vertex 250.94849554345078 112.48122733507687 30.898775087280015
    vertex 250.58672411110453 112.33137670131993 30.898775087280015
  endloop
endfacet
facet normal 0.0 0.0 1.0
  outer loop
    vertex 250.9484955434507 109.58344985620967 30.898775087280015
    vertex 250.58672411110453 112.33137670131993 30.898775087280015
    vertex 250.5867241111045 109.73330048996662 30.898775087280015
  endloop
endfacet
facet normal 0.0 0.0 1.0
  outer loop
    vertex 250.5867241111045 109.73330048996662 30.898775087280015
    vertex 250.58672411110453 112.33137670131993 30.898775087280015
    vertex 250.2760639393247 112.0929987674231 30.898775087280015
  endloop
endfacet
facet normal 0.0 0.0 1.0
  outer loop
    vertex 250.5867241111045 109.73330048996662 30.898775087280015
    vertex 250.2760639393247 112.0929987674231 30.898775087280015
    vertex 250.2760639393247 109.97167842386345 30.898775087280015
  endloop
endfacet
facet normal 0.0 0.0 1.0
  outer loop
    vertex 250.2760639393247 109.97167842386345 30.898775087280015
    vertex 250.2760639393247 112.0929987674231 30.898775087280015
    vertex 250.03768600542787 111.78233859564328 30.898775087280015
  endloop
endfacet
facet normal 0.0 0.0 1.0
  outer loop
    vertex 250.2760639393247 109.97167842386345 30.898775087280015
    vertex 250.03768600542787 111.78233859564328 30.898775087280015
    vertex 250.03768600542804 110.28233859564325 30.898775087280015
  endloop
endfacet
facet normal 0.0 0.0 1.0
  outer loop
    vertex 250.03768600542804 110.28233859564325 30.898775087280015
    vertex 250.03768600542787 111.78233859564328 30.898775087280015
    vertex 249.8878353716711 110.64411002798948 30.898775087280015
  endloop
endfacet
facet normal 0.0 0.0 1.0
  outer loop
    vertex 249.8878353716711 110.64411002798948 30.898775087280015
    vertex 250.03768600542787 111.78233859564328 30.898775087280015
    vertex 249.8878353716709 111.42056716329705 30.898775087280015
  endloop
endfacet
facet normal 0.0 0.0 1.0
  outer loop
    vertex 249.8878353716711 110.64411002798948 30.898775087280015
    vertex 249.8878353716709 111.42056716329705 30.898775087280015
    vertex 249.8367241111047 111.03233859564327 30.898775087280015
  endloop
endfacet
facet normal 6.215731555525281e-15 -1.0 0.0
  outer loop
    vertex 251.3367241111045 109.5323385956433 30.898775087280015
    vertex 250.9484955434507 109.58344985620967 19.898775087280065
    vertex 251.3367241111045 109.5323385956433 19.898775087280065
  endloop
endfacet
facet normal -0.2588190451025129 -0.9659258262890704 0.0
  outer loop
    vertex 250.9484955434507 109.58344985620967 19.898775087280065
    vertex 251.3367241111045 109.5323385956433 30.898775087280015
    vertex 250.9484955434507 109.58344985620967 30.898775087280015
  endloop
endfacet
facet normal 0.2588190451025215 -0.9659258262890682 0.0
  outer loop
    vertex 251.72495267875829 109.58344985620968 30.898775087280015
    vertex 251.3367241111045 109.5323385956433 19.898775087280065
    vertex 251.72495267875829 109.58344985620968 19.898775087280065
  endloop
endfacet
facet normal 6.215731555525281e-15 -1.0 0.0
  outer loop
    vertex 251.3367241111045 109.5323385956433 19.898775087280065
    vertex 251.72495267875829 109.58344985620968 30.898775087280015
    vertex 251.3367241111045 109.5323385956433 30.898775087280015
  endloop
endfacet
facet normal 0.4999999999999993 -0.8660254037844393 0.0
  outer loop
    vertex 252.0867241111045 109.73330048996662 30.898775087280015
    vertex 251.72495267875829 109.58344985620968 19.898775087280065
    vertex 252.0867241111045 109.73330048996662 19.898775087280065
  endloop
endfacet
facet normal 0.2588190451025215 -0.9659258262890682 0.0
  outer loop
    vertex 251.72495267875829 109.58344985620968 19.898775087280065
    vertex 252.0867241111045 109.73330048996662 30.898775087280015
    vertex 251.72495267875829 109.58344985620968 30.898775087280015
  endloop
endfacet
facet normal 0.707106781186546 -0.7071067811865491 0.0
  outer loop
    vertex 252.39738428288433 109.97167842386345 30.898775087280015
    vertex 252.0867241111045 109.73330048996662 19.898775087280065
    vertex 252.39738428288433 109.97167842386345 19.898775087280065
  endloop
endfacet
facet normal 0.4999999999999993 -0.8660254037844393 0.0
  outer loop
    vertex 252.0867241111045 109.73330048996662 19.898775087280065
    vertex 252.39738428288433 109.97167842386345 30.898775087280015
    vertex 252.0867241111045 109.73330048996662 30.898775087280015
  endloop
endfacet
facet normal 0.707106781186546 -0.7071067811865491 0.0
  outer loop
    vertex 252.39738428288433 109.97167842386345 30.898775087280015
    vertex 252.6357622167814 110.28233859564328 19.898775087280065
    vertex 252.6357622167814 110.28233859564328 30.898775087280015
  endloop
endfacet
facet normal 0.8660254037844397 -0.4999999999999982 0.0
  outer loop
    vertex 252.6357622167814 110.28233859564328 19.898775087280065
    vertex 252.39738428288433 109.97167842386345 30.898775087280015
    vertex 252.39738428288433 109.97167842386345 19.898775087280065
  endloop
endfacet
facet normal 0.8660254037844397 -0.4999999999999982 0.0
  outer loop
    vertex 252.6357622167814 110.28233859564328 30.898775087280015
    vertex 252.78561285053829 110.64411002798948 19.898775087280065
    vertex 252.78561285053829 110.64411002798948 30.898775087280015
  endloop
endfacet
facet normal 0.965925826289068 -0.2588190451025218 0.0
  outer loop
    vertex 252.78561285053829 110.64411002798948 19.898775087280065
    vertex 252.6357622167814 110.28233859564328 30.898775087280015
    vertex 252.6357622167814 110.28233859564328 19.898775087280065
  endloop
endfacet
facet normal 0.965925826289068 -0.2588190451025218 0.0
  outer loop
    vertex 252.78561285053829 110.64411002798948 30.898775087280015
    vertex 252.8367241111047 111.03233859564327 19.898775087280065
    vertex 252.8367241111047 111.03233859564327 30.898775087280015
  endloop
endfacet
facet normal 1.0 9.49265607197969e-16 0.0
  outer loop
    vertex 252.8367241111047 111.03233859564327 19.898775087280065
    vertex 252.78561285053829 110.64411002798948 30.898775087280015
    vertex 252.78561285053829 110.64411002798948 19.898775087280065
  endloop
endfacet
facet normal 1.0 9.49265607197969e-16 0.0
  outer loop
    vertex 252.8367241111047 111.03233859564327 30.898775087280015
    vertex 252.7856128505381 111.42056716329705 19.898775087280065
    vertex 252.7856128505381 111.42056716329705 30.898775087280015
  endloop
endfacet
facet normal 0.9659258262890669 0.25881904510252646 0.0
  outer loop
    vertex 252.7856128505381 111.42056716329705 19.898775087280065
    vertex 252.8367241111047 111.03233859564327 30.898775087280015
    vertex 252.8367241111047 111.03233859564327 19.898775087280065
  endloop
endfacet
facet normal 0.9659258262890669 0.25881904510252646 0.0
  outer loop
    vertex 252.7856128505381 111.42056716329705 30.898775087280015
    vertex 252.63576221678116 111.78233859564328 19.898775087280065
    vertex 252.63576221678116 111.78233859564328 30.898775087280015
  endloop
endfacet
facet normal 0.8660254037844377 0.5000000000000018 0.0
  outer loop
    vertex 252.63576221678116 111.78233859564328 19.898775087280065
    vertex 252.7856128505381 111.42056716329705 30.898775087280015
    vertex 252.7856128505381 111.42056716329705 19.898775087280065
  endloop
endfacet
facet normal 0.8660254037844377 0.5000000000000018 0.0
  outer loop
    vertex 252.63576221678116 111.78233859564328 30.898775087280015
    vertex 252.39738428288433 112.0929987674231 19.898775087280065
    vertex 252.39738428288433 112.0929987674231 30.898775087280015
  endloop
endfacet
facet normal 0.7071067811865491 0.707106781186546 0.0
  outer loop
    vertex 252.39738428288433 112.0929987674231 19.898775087280065
    vertex 252.63576221678116 111.78233859564328 30.898775087280015
    vertex 252.63576221678116 111.78233859564328 19.898775087280065
  endloop
endfacet
facet normal 0.5000000000000034 0.8660254037844367 0.0
  outer loop
    vertex 252.08672411110456 112.33137670131993 30.898775087280015
    vertex 252.39738428288433 112.0929987674231 19.898775087280065
    vertex 252.08672411110456 112.33137670131993 19.898775087280065
  endloop
endfacet
facet normal 0.7071067811865491 0.707106781186546 0.0
  outer loop
    vertex 252.39738428288433 112.0929987674231 19.898775087280065
    vertex 252.08672411110456 112.33137670131993 30.898775087280015
    vertex 252.39738428288433 112.0929987674231 30.898775087280015
  endloop
endfacet
facet normal 0.2588190451025196 0.9659258262890686 0.0
  outer loop
    vertex 251.72495267875834 112.4812273350769 30.898775087280015
    vertex 252.08672411110456 112.33137670131993 19.898775087280065
    vertex 251.72495267875834 112.4812273350769 19.898775087280065
  endloop
endfacet
facet normal 0.5000000000000034 0.8660254037844367 0.0
  outer loop
    vertex 252.08672411110456 112.33137670131993 19.898775087280065
    vertex 251.72495267875834 112.4812273350769 30.898775087280015
    vertex 252.08672411110456 112.33137670131993 30.898775087280015
  endloop
endfacet
facet normal -7.142486984672567e-15 1.0 0.0
  outer loop
    vertex 251.33672411110453 112.53233859564328 30.898775087280015
    vertex 251.72495267875834 112.4812273350769 19.898775087280065
    vertex 251.33672411110453 112.53233859564328 19.898775087280065
  endloop
endfacet
facet normal 0.2588190451025196 0.9659258262890686 0.0
  outer loop
    vertex 251.72495267875834 112.4812273350769 19.898775087280065
    vertex 251.33672411110453 112.53233859564328 30.898775087280015
    vertex 251.72495267875834 112.4812273350769 30.898775087280015
  endloop
endfacet
facet normal -0.25881904510252646 0.9659258262890669 0.0
  outer loop
    vertex 250.94849554345078 112.48122733507687 30.898775087280015
    vertex 251.33672411110453 112.53233859564328 19.898775087280065
    vertex 250.94849554345078 112.48122733507687 19.898775087280065
  endloop
endfacet
facet normal -7.142486984672567e-15 1.0 0.0
  outer loop
    vertex 251.33672411110453 112.53233859564328 19.898775087280065
    vertex 250.94849554345078 112.48122733507687 30.898775087280015
    vertex 251.33672411110453 112.53233859564328 30.898775087280015
  endloop
endfacet
facet normal -0.4999999999999972 0.8660254037844403 0.0
  outer loop
    vertex 250.58672411110453 112.33137670131993 30.898775087280015
    vertex 250.94849554345078 112.48122733507687 19.898775087280065
    vertex 250.58672411110453 112.33137670131993 19.898775087280065
  endloop
endfacet
facet normal -0.25881904510252646 0.9659258262890669 0.0
  outer loop
    vertex 250.94849554345078 112.48122733507687 19.898775087280065
    vertex 250.58672411110453 112.33137670131993 30.898775087280015
    vertex 250.94849554345078 112.48122733507687 30.898775087280015
  endloop
endfacet
facet normal -0.7071067811865424 0.7071067811865527 0.0
  outer loop
    vertex 250.2760639393247 112.0929987674231 30.898775087280015
    vertex 250.58672411110453 112.33137670131993 19.898775087280065
    vertex 250.2760639393247 112.0929987674231 19.898775087280065
  endloop
endfacet
facet normal -0.4999999999999972 0.8660254037844403 0.0
  outer loop
    vertex 250.58672411110453 112.33137670131993 19.898775087280065
    vertex 250.2760639393247 112.0929987674231 30.898775087280015
    vertex 250.58672411110453 112.33137670131993 30.898775087280015
  endloop
endfacet
facet normal -0.8660254037844393 0.4999999999999989 0.0
  outer loop
    vertex 250.03768600542787 111.78233859564328 19.898775087280065
    vertex 250.2760639393247 112.0929987674231 30.898775087280015
    vertex 250.2760639393247 112.0929987674231 19.898775087280065
  endloop
endfacet
facet normal -0.7071067811865424 0.7071067811865527 0.0
  outer loop
    vertex 250.2760639393247 112.0929987674231 30.898775087280015
    vertex 250.03768600542787 111.78233859564328 19.898775087280065
    vertex 250.03768600542787 111.78233859564328 30.898775087280015
  endloop
endfacet
facet normal -0.9659258262890685 0.2588190451025205 0.0
  outer loop
    vertex 249.8878353716709 111.42056716329705 19.898775087280065
    vertex 250.03768600542787 111.78233859564328 30.898775087280015
    vertex 250.03768600542787 111.78233859564328 19.898775087280065
  endloop
endfacet
facet normal -0.8660254037844393 0.4999999999999989 0.0
  outer loop
    vertex 250.03768600542787 111.78233859564328 30.898775087280015
    vertex 249.8878353716709 111.42056716329705 19.898775087280065
    vertex 249.8878353716709 111.42056716329705 30.898775087280015
  endloop
endfacet
facet normal -1.0 -9.49265607197969e-16 0.0
  outer loop
    vertex 249.8367241111047 111.03233859564327 19.898775087280065
    vertex 249.8878353716709 111.42056716329705 30.898775087280015
    vertex 249.8878353716709 111.42056716329705 19.898775087280065
  endloop
endfacet
facet normal -0.9659258262890685 0.2588190451025205 0.0
  outer loop
    vertex 249.8878353716709 111.42056716329705 30.898775087280015
    vertex 249.8367241111047 111.03233859564327 19.898775087280065
    vertex 249.8367241111047 111.03233859564327 30.898775087280015
  endloop
endfacet
facet normal -0.9659258262890672 -0.2588190451025251 0.0
  outer loop
    vertex 249.8878353716711 110.64411002798948 19.898775087280065
    vertex 249.8367241111047 111.03233859564327 30.898775087280015
    vertex 249.8367241111047 111.03233859564327 19.898775087280065
  endloop
endfacet
facet normal -1.0 -9.49265607197969e-16 0.0
  outer loop
    vertex 249.8367241111047 111.03233859564327 30.898775087280015
    vertex 249.8878353716711 110.64411002798948 19.898775087280065
    vertex 249.8878353716711 110.64411002798948 30.898775087280015
  endloop
endfacet
facet normal -0.8660254037844373 -0.5000000000000024 0.0
  outer loop
    vertex 250.03768600542804 110.28233859564325 19.898775087280065
    vertex 249.8878353716711 110.64411002798948 30.898775087280015
    vertex 249.8878353716711 110.64411002798948 19.898775087280065
  endloop
endfacet
facet normal -0.9659258262890672 -0.2588190451025251 0.0
  outer loop
    vertex 249.8878353716711 110.64411002798948 30.898775087280015
    vertex 250.03768600542804 110.28233859564325 19.898775087280065
    vertex 250.03768600542804 110.28233859564325 30.898775087280015
  endloop
endfacet
facet normal -0.7071067811865495 -0.7071067811865457 0.0
  outer loop
    vertex 250.2760639393247 109.97167842386345 19.898775087280065
    vertex 250.03768600542804 110.28233859564325 30.898775087280015
    vertex 250.03768600542804 110.28233859564325 19.898775087280065
  endloop
endfacet
facet normal -0.8660254037844373 -0.5000000000000024 0.0
  outer loop
    vertex 250.03768600542804 110.28233859564325 30.898775087280015
    vertex 250.2760639393247 109.97167842386345 19.898775087280065
    vertex 250.2760639393247 109.97167842386345 30.898775087280015
  endloop
endfacet
facet normal -0.500000000000003 -0.8660254037844369 0.0
  outer loop
    vertex 250.5867241111045 109.73330048996662 30.898775087280015
    vertex 250.2760639393247 109.97167842386345 19.898775087280065
    vertex 250.5867241111045 109.73330048996662 19.898775087280065
  endloop
endfacet
facet normal -0.7071067811865495 -0.7071067811865457 0.0
  outer loop
    vertex 250.2760639393247 109.97167842386345 19.898775087280065
    vertex 250.5867241111045 109.73330048996662 30.898775087280015
    vertex 250.2760639393247 109.97167842386345 30.898775087280015
  endloop
endfacet
facet normal -0.2588190451025129 -0.9659258262890704 0.0
  outer loop
    vertex 250.9484955434507 109.58344985620967 30.898775087280015
    vertex 250.5867241111045 109.73330048996662 19.898775087280065
    vertex 250.9484955434507 109.58344985620967 19.898775087280065
  endloop
endfacet
facet normal -0.500000000000003 -0.8660254037844369 0.0
  outer loop
    vertex 250.5867241111045 109.73330048996662 19.898775087280065
    vertex 250.9484955434507 109.58344985620967 30.898775087280015
    vertex 250.5867241111045 109.73330048996662 30.898775087280015
  endloop
endfacet
facet normal 0.0 0.0 1.0
  outer loop
    vertex 238.78561285053812 111.4205671632971 30.898775087280015
    vertex 238.7856128505383 110.64411002798954 30.898775087280015
    vertex 238.83672411110473 111.03233859564331 30.898775087280015
  endloop
endfacet
facet normal 0.0 0.0 1.0
  outer loop
    vertex 238.7856128505383 110.64411002798954 30.898775087280015
    vertex 238.78561285053812 111.4205671632971 30.898775087280015
    vertex 238.6357622167812 110.28233859564331 30.898775087280015
  endloop
endfacet
facet normal 0.0 0.0 1.0
  outer loop
    vertex 238.6357622167812 110.28233859564331 30.898775087280015
    vertex 238.78561285053812 111.4205671632971 30.898775087280015
    vertex 238.63576221678125 111.7823385956433 30.898775087280015
  endloop
endfacet
facet normal 0.0 0.0 1.0
  outer loop
    vertex 238.6357622167812 110.28233859564331 30.898775087280015
    vertex 238.63576221678125 111.7823385956433 30.898775087280015
    vertex 238.39738428288442 112.09299876742314 30.898775087280015
  endloop
endfacet
facet normal 0.0 0.0 1.0
  outer loop
    vertex 238.6357622167812 110.28233859564331 30.898775087280015
    vertex 238.39738428288442 112.09299876742314 30.898775087280015
    vertex 238.39738428288436 109.9716784238635 30.898775087280015
  endloop
endfacet
facet normal 0.0 0.0 1.0
  outer loop
    vertex 238.39738428288436 109.9716784238635 30.898775087280015
    vertex 238.39738428288442 112.09299876742314 30.898775087280015
    vertex 238.0867241111046 112.33137670131997 30.898775087280015
  endloop
endfacet
facet normal 0.0 0.0 1.0
  outer loop
    vertex 238.39738428288436 109.9716784238635 30.898775087280015
    vertex 238.0867241111046 112.33137670131997 30.898775087280015
    vertex 238.08672411110453 109.73330048996667 30.898775087280015
  endloop
endfacet
facet normal 0.0 0.0 1.0
  outer loop
    vertex 238.08672411110453 109.73330048996667 30.898775087280015
    vertex 238.0867241111046 112.33137670131997 30.898775087280015
    vertex 237.72495267875837 112.48122733507682 30.898775087280015
  endloop
endfacet
facet normal 0.0 0.0 1.0
  outer loop
    vertex 238.08672411110453 109.73330048996667 30.898775087280015
    vertex 237.72495267875837 112.48122733507682 30.898775087280015
    vertex 237.7249526787583 109.58344985620963 30.898775087280015
  endloop
endfacet
facet normal 0.0 0.0 1.0
  outer loop
    vertex 237.7249526787583 109.58344985620963 30.898775087280015
    vertex 237.72495267875837 112.48122733507682 30.898775087280015
    vertex 237.33672411110456 112.53233859564322 30.898775087280015
  endloop
endfacet
facet normal 0.0 0.0 1.0
  outer loop
    vertex 237.7249526787583 109.58344985620963 30.898775087280015
    vertex 237.33672411110456 112.53233859564322 30.898775087280015
    vertex 237.33672411110453 109.53233859564322 30.898775087280015
  endloop
endfacet
facet normal 0.0 0.0 1.0
  outer loop
    vertex 237.33672411110453 109.53233859564322 30.898775087280015
    vertex 237.33672411110456 112.53233859564322 30.898775087280015
    vertex 236.9484955434508 112.48122733507682 30.898775087280015
  endloop
endfacet
facet normal 0.0 0.0 1.0
  outer loop
    vertex 237.33672411110453 109.53233859564322 30.898775087280015
    vertex 236.9484955434508 112.48122733507682 30.898775087280015
    vertex 236.94849554345078 109.58344985620963 30.898775087280015
  endloop
endfacet
facet normal 0.0 0.0 1.0
  outer loop
    vertex 236.94849554345078 109.58344985620963 30.898775087280015
    vertex 236.9484955434508 112.48122733507682 30.898775087280015
    vertex 236.58672411110462 112.33137670131987 30.898775087280015
  endloop
endfacet
facet normal 0.0 0.0 1.0
  outer loop
    vertex 236.94849554345078 109.58344985620963 30.898775087280015
    vertex 236.58672411110462 112.33137670131987 30.898775087280015
    vertex 236.5867241111045 109.73330048996657 30.898775087280015
  endloop
endfacet
facet normal 0.0 0.0 1.0
  outer loop
    vertex 236.5867241111045 109.73330048996657 30.898775087280015
    vertex 236.58672411110462 112.33137670131987 30.898775087280015
    vertex 236.27606393932476 112.09299876742307 30.898775087280015
  endloop
endfacet
facet normal 0.0 0.0 1.0
  outer loop
    vertex 236.5867241111045 109.73330048996657 30.898775087280015
    vertex 236.27606393932476 112.09299876742307 30.898775087280015
    vertex 236.27606393932473 109.97167842386345 30.898775087280015
  endloop
endfacet
facet normal 0.0 0.0 1.0
  outer loop
    vertex 236.27606393932473 109.97167842386345 30.898775087280015
    vertex 236.27606393932476 112.09299876742307 30.898775087280015
    vertex 236.03768600542793 111.78233859564325 30.898775087280015
  endloop
endfacet
facet normal 0.0 0.0 1.0
  outer loop
    vertex 236.27606393932473 109.97167842386345 30.898775087280015
    vertex 236.03768600542793 111.78233859564325 30.898775087280015
    vertex 236.03768600542784 110.28233859564325 30.898775087280015
  endloop
endfacet
facet normal 0.0 0.0 1.0
  outer loop
    vertex 236.03768600542784 110.28233859564325 30.898775087280015
    vertex 236.03768600542793 111.78233859564325 30.898775087280015
    vertex 235.88783537167097 111.42056716329705 30.898775087280015
  endloop
endfacet
facet normal 0.0 0.0 1.0
  outer loop
    vertex 236.03768600542784 110.28233859564325 30.898775087280015
    vertex 235.88783537167097 111.42056716329705 30.898775087280015
    vertex 235.8878353716711 110.64411002798947 30.898775087280015
  endloop
endfacet
facet normal 0.0 0.0 1.0
  outer loop
    vertex 235.8878353716711 110.64411002798947 30.898775087280015
    vertex 235.88783537167097 111.42056716329705 30.898775087280015
    vertex 235.83672411110473 111.03233859564325 30.898775087280015
  endloop
endfacet
facet normal 9.492656071979666e-16 -1.0 0.0
  outer loop
    vertex 237.33672411110453 109.53233859564322 30.898775087280015
    vertex 236.94849554345078 109.58344985620963 19.898775087280065
    vertex 237.33672411110453 109.53233859564322 19.898775087280065
  endloop
endfacet
facet normal -0.2588190451025215 -0.9659258262890681 0.0
  outer loop
    vertex 236.94849554345078 109.58344985620963 19.898775087280065
    vertex 237.33672411110453 109.53233859564322 30.898775087280015
    vertex 236.94849554345078 109.58344985620963 30.898775087280015
  endloop
endfacet
facet normal 0.2588190451025262 -0.9659258262890669 0.0
  outer loop
    vertex 237.7249526787583 109.58344985620963 30.898775087280015
    vertex 237.33672411110453 109.53233859564322 19.898775087280065
    vertex 237.7249526787583 109.58344985620963 19.898775087280065
  endloop
endfacet
facet normal 9.492656071979666e-16 -1.0 0.0
  outer loop
    vertex 237.33672411110453 109.53233859564322 19.898775087280065
    vertex 237.7249526787583 109.58344985620963 30.898775087280015
    vertex 237.33672411110453 109.53233859564322 30.898775087280015
  endloop
endfacet
facet normal 0.5000000000000039 -0.8660254037844365 0.0
  outer loop
    vertex 238.08672411110453 109.73330048996667 30.898775087280015
    vertex 237.7249526787583 109.58344985620963 19.898775087280065
    vertex 238.08672411110453 109.73330048996667 19.898775087280065
  endloop
endfacet
facet normal 0.2588190451025262 -0.9659258262890669 0.0
  outer loop
    vertex 237.7249526787583 109.58344985620963 19.898775087280065
    vertex 238.08672411110453 109.73330048996667 30.898775087280015
    vertex 237.7249526787583 109.58344985620963 30.898775087280015
  endloop
endfacet
facet normal 0.7071067811865512 -0.7071067811865439 0.0
  outer loop
    vertex 238.39738428288436 109.9716784238635 30.898775087280015
    vertex 238.08672411110453 109.73330048996667 19.898775087280065
    vertex 238.39738428288436 109.9716784238635 19.898775087280065
  endloop
endfacet
facet normal 0.5000000000000039 -0.8660254037844365 0.0
  outer loop
    vertex 238.08672411110453 109.73330048996667 19.898775087280065
    vertex 238.39738428288436 109.9716784238635 30.898775087280015
    vertex 238.08672411110453 109.73330048996667 30.898775087280015
  endloop
endfacet
facet normal 0.7071067811865512 -0.7071067811865439 0.0
  outer loop
    vertex 238.39738428288436 109.9716784238635 30.898775087280015
    vertex 238.6357622167812 110.28233859564331 19.898775087280065
    vertex 238.6357622167812 110.28233859564331 30.898775087280015
  endloop
endfacet
facet normal 0.8660254037844375 -0.5000000000000024 0.0
  outer loop
    vertex 238.6357622167812 110.28233859564331 19.898775087280065
    vertex 238.39738428288436 109.9716784238635 30.898775087280015
    vertex 238.39738428288436 109.9716784238635 19.898775087280065
  endloop
endfacet
facet normal 0.8660254037844375 -0.5000000000000024 0.0
  outer loop
    vertex 238.6357622167812 110.28233859564331 30.898775087280015
    vertex 238.7856128505383 110.64411002798954 19.898775087280065
    vertex 238.7856128505383 110.64411002798954 30.898775087280015
  endloop
endfacet
facet normal 0.965925826289067 -0.258819045102526 0.0
  outer loop
    vertex 238.7856128505383 110.64411002798954 19.898775087280065
    vertex 238.6357622167812 110.28233859564331 30.898775087280015
    vertex 238.6357622167812 110.28233859564331 19.898775087280065
  endloop
endfacet
facet normal 0.965925826289067 -0.258819045102526 0.0
  outer loop
    vertex 238.7856128505383 110.64411002798954 30.898775087280015
    vertex 238.83672411110473 111.03233859564331 19.898775087280065
    vertex 238.83672411110473 111.03233859564331 30.898775087280015
  endloop
endfacet
facet normal 1.0 7.142486984672567e-15 0.0
  outer loop
    vertex 238.83672411110473 111.03233859564331 19.898775087280065
    vertex 238.7856128505383 110.64411002798954 30.898775087280015
    vertex 238.7856128505383 110.64411002798954 19.898775087280065
  endloop
endfacet
facet normal 1.0 7.142486984672567e-15 0.0
  outer loop
    vertex 238.83672411110473 111.03233859564331 30.898775087280015
    vertex 238.78561285053812 111.4205671632971 19.898775087280065
    vertex 238.78561285053812 111.4205671632971 30.898775087280015
  endloop
endfacet
facet normal 0.9659258262890686 0.25881904510252 0.0
  outer loop
    vertex 238.78561285053812 111.4205671632971 19.898775087280065
    vertex 238.83672411110473 111.03233859564331 30.898775087280015
    vertex 238.83672411110473 111.03233859564331 19.898775087280065
  endloop
endfacet
facet normal 0.9659258262890686 0.25881904510252 0.0
  outer loop
    vertex 238.78561285053812 111.4205671632971 30.898775087280015
    vertex 238.63576221678125 111.7823385956433 19.898775087280065
    vertex 238.63576221678125 111.7823385956433 30.898775087280015
  endloop
endfacet
facet normal 0.866025403784441 0.49999999999999584 0.0
  outer loop
    vertex 238.63576221678125 111.7823385956433 19.898775087280065
    vertex 238.78561285053812 111.4205671632971 30.898775087280015
    vertex 238.78561285053812 111.4205671632971 19.898775087280065
  endloop
endfacet
facet normal 0.866025403784441 0.49999999999999584 0.0
  outer loop
    vertex 238.63576221678125 111.7823385956433 30.898775087280015
    vertex 238.39738428288442 112.09299876742314 19.898775087280065
    vertex 238.39738428288442 112.09299876742314 30.898775087280015
  endloop
endfacet
facet normal 0.7071067811865522 0.7071067811865428 0.0
  outer loop
    vertex 238.39738428288442 112.09299876742314 19.898775087280065
    vertex 238.63576221678125 111.7823385956433 30.898775087280015
    vertex 238.63576221678125 111.7823385956433 19.898775087280065
  endloop
endfacet
facet normal 0.5000000000000017 0.8660254037844379 0.0
  outer loop
    vertex 238.0867241111046 112.33137670131997 30.898775087280015
    vertex 238.39738428288442 112.09299876742314 19.898775087280065
    vertex 238.0867241111046 112.33137670131997 19.898775087280065
  endloop
endfacet
facet normal 0.7071067811865522 0.7071067811865428 0.0
  outer loop
    vertex 238.39738428288442 112.09299876742314 19.898775087280065
    vertex 238.0867241111046 112.33137670131997 30.898775087280015
    vertex 238.39738428288442 112.09299876742314 30.898775087280015
  endloop
endfacet
facet normal 0.2588190451025166 0.9659258262890695 0.0
  outer loop
    vertex 237.72495267875837 112.48122733507682 30.898775087280015
    vertex 238.0867241111046 112.33137670131997 19.898775087280065
    vertex 237.72495267875837 112.48122733507682 19.898775087280065
  endloop
endfacet
facet normal 0.5000000000000017 0.8660254037844379 0.0
  outer loop
    vertex 238.0867241111046 112.33137670131997 19.898775087280065
    vertex 237.72495267875837 112.48122733507682 30.898775087280015
    vertex 238.0867241111046 112.33137670131997 30.898775087280015
  endloop
endfacet
facet normal 1.884467339617749e-15 1.0 0.0
  outer loop
    vertex 237.33672411110456 112.53233859564322 30.898775087280015
    vertex 237.72495267875837 112.48122733507682 19.898775087280065
    vertex 237.33672411110456 112.53233859564322 19.898775087280065
  endloop
endfacet
facet normal 0.2588190451025166 0.9659258262890695 0.0
  outer loop
    vertex 237.72495267875837 112.48122733507682 19.898775087280065
    vertex 237.33672411110456 112.53233859564322 30.898775087280015
    vertex 237.72495267875837 112.48122733507682 30.898775087280015
  endloop
endfacet
facet normal -0.2588190451025233 0.9659258262890678 0.0
  outer loop
    vertex 236.9484955434508 112.48122733507682 30.898775087280015
    vertex 237.33672411110456 112.53233859564322 19.898775087280065
    vertex 236.9484955434508 112.48122733507682 19.898775087280065
  endloop
endfacet
facet normal 1.884467339617749e-15 1.0 0.0
  outer loop
    vertex 237.33672411110456 112.53233859564322 19.898775087280065
    vertex 236.9484955434508 112.48122733507682 30.898775087280015
    vertex 237.33672411110456 112.53233859564322 30.898775087280015
  endloop
endfacet
facet normal -0.49999999999999667 0.8660254037844407 0.0
  outer loop
    vertex 236.58672411110462 112.33137670131987 30.898775087280015
    vertex 236.9484955434508 112.48122733507682 19.898775087280065
    vertex 236.58672411110462 112.33137670131987 19.898775087280065
  endloop
endfacet
facet normal -0.2588190451025233 0.9659258262890678 0.0
  outer loop
    vertex 236.9484955434508 112.48122733507682 19.898775087280065
    vertex 236.58672411110462 112.33137670131987 30.898775087280015
    vertex 236.9484955434508 112.48122733507682 30.898775087280015
  endloop
endfacet
facet normal -0.7071067811865435 0.7071067811865517 0.0
  outer loop
    vertex 236.27606393932476 112.09299876742307 30.898775087280015
    vertex 236.58672411110462 112.33137670131987 19.898775087280065
    vertex 236.27606393932476 112.09299876742307 19.898775087280065
  endloop
endfacet
facet normal -0.49999999999999667 0.8660254037844407 0.0
  outer loop
    vertex 236.58672411110462 112.33137670131987 19.898775087280065
    vertex 236.27606393932476 112.09299876742307 30.898775087280015
    vertex 236.58672411110462 112.33137670131987 30.898775087280015
  endloop
endfacet
facet normal -0.8660254037844377 0.500000000000002 0.0
  outer loop
    vertex 236.03768600542793 111.78233859564325 19.898775087280065
    vertex 236.27606393932476 112.09299876742307 30.898775087280015
    vertex 236.27606393932476 112.09299876742307 19.898775087280065
  endloop
endfacet
facet normal -0.7071067811865435 0.7071067811865517 0.0
  outer loop
    vertex 236.27606393932476 112.09299876742307 30.898775087280015
    vertex 236.03768600542793 111.78233859564325 19.898775087280065
    vertex 236.03768600542793 111.78233859564325 30.898775087280015
  endloop
endfacet
facet normal -0.9659258262890662 0.2588190451025286 0.0
  outer loop
    vertex 235.88783537167097 111.42056716329705 19.898775087280065
    vertex 236.03768600542793 111.78233859564325 30.898775087280015
    vertex 236.03768600542793 111.78233859564325 19.898775087280065
  endloop
endfacet
facet normal -0.8660254037844377 0.500000000000002 0.0
  outer loop
    vertex 236.03768600542793 111.78233859564325 30.898775087280015
    vertex 235.88783537167097 111.42056716329705 19.898775087280065
    vertex 235.88783537167097 111.42056716329705 30.898775087280015
  endloop
endfacet
facet normal -1.0 4.2231516362510716e-18 0.0
  outer loop
    vertex 235.83672411110473 111.03233859564325 19.898775087280065
    vertex 235.88783537167097 111.42056716329705 30.898775087280015
    vertex 235.88783537167097 111.42056716329705 19.898775087280065
  endloop
endfacet
facet normal -0.9659258262890662 0.2588190451025286 0.0
  outer loop
    vertex 235.88783537167097 111.42056716329705 30.898775087280015
    vertex 235.83672411110473 111.03233859564325 19.898775087280065
    vertex 235.83672411110473 111.03233859564325 30.898775087280015
  endloop
endfacet
facet normal -0.9659258262890686 -0.2588190451025195 0.0
  outer loop
    vertex 235.8878353716711 110.64411002798947 19.898775087280065
    vertex 235.83672411110473 111.03233859564325 30.898775087280015
    vertex 235.83672411110473 111.03233859564325 19.898775087280065
  endloop
endfacet
facet normal -1.0 4.2231516362510716e-18 0.0
  outer loop
    vertex 235.83672411110473 111.03233859564325 30.898775087280015
    vertex 235.8878353716711 110.64411002798947 19.898775087280065
    vertex 235.8878353716711 110.64411002798947 30.898775087280015
  endloop
endfacet
facet normal -0.86602540378444 -0.4999999999999978 0.0
  outer loop
    vertex 236.03768600542784 110.28233859564325 19.898775087280065
    vertex 235.8878353716711 110.64411002798947 30.898775087280015
    vertex 235.8878353716711 110.64411002798947 19.898775087280065
  endloop
endfacet
facet normal -0.9659258262890686 -0.2588190451025195 0.0
  outer loop
    vertex 235.8878353716711 110.64411002798947 30.898775087280015
    vertex 236.03768600542784 110.28233859564325 19.898775087280065
    vertex 236.03768600542784 110.28233859564325 30.898775087280015
  endloop
endfacet
facet normal -0.7071067811865485 -0.7071067811865467 0.0
  outer loop
    vertex 236.27606393932473 109.97167842386345 19.898775087280065
    vertex 236.03768600542784 110.28233859564325 30.898775087280015
    vertex 236.03768600542784 110.28233859564325 19.898775087280065
  endloop
endfacet
facet normal -0.86602540378444 -0.4999999999999978 0.0
  outer loop
    vertex 236.03768600542784 110.28233859564325 30.898775087280015
    vertex 236.27606393932473 109.97167842386345 19.898775087280065
    vertex 236.27606393932473 109.97167842386345 30.898775087280015
  endloop
endfacet
facet normal -0.5000000000000041 -0.8660254037844364 0.0
  outer loop
    vertex 236.5867241111045 109.73330048996657 30.898775087280015
    vertex 236.27606393932473 109.97167842386345 19.898775087280065
    vertex 236.5867241111045 109.73330048996657 19.898775087280065
  endloop
endfacet
facet normal -0.7071067811865485 -0.7071067811865467 0.0
  outer loop
    vertex 236.27606393932473 109.97167842386345 19.898775087280065
    vertex 236.5867241111045 109.73330048996657 30.898775087280015
    vertex 236.27606393932473 109.97167842386345 30.898775087280015
  endloop
endfacet
facet normal -0.2588190451025215 -0.9659258262890681 0.0
  outer loop
    vertex 236.94849554345078 109.58344985620963 30.898775087280015
    vertex 236.5867241111045 109.73330048996657 19.898775087280065
    vertex 236.94849554345078 109.58344985620963 19.898775087280065
  endloop
endfacet
facet normal -0.5000000000000041 -0.8660254037844364 0.0
  outer loop
    vertex 236.5867241111045 109.73330048996657 19.898775087280065
    vertex 236.94849554345078 109.58344985620963 30.898775087280015
    vertex 236.5867241111045 109.73330048996657 30.898775087280015
  endloop
endfacet
facet normal -0.9901981451588635 -0.09897712373284791 -0.0985452297248267
  outer loop
    vertex 247.44671979976712 108.93233859564323 11.89877508728007
    vertex 246.92672842244193 114.13449519412927 17.098775087280067
    vertex 246.92672842244193 114.13449519412927 11.89877508728007
  endloop
endfacet
facet normal -0.9950414367879571 -0.09946124408511182 -2.4699953710936167e-17
  outer loop
    vertex 246.92672842244193 114.13449519412927 17.098775087280067
    vertex 247.44671979976712 108.93233859564323 11.89877508728007
    vertex 247.44671979976712 108.93233859564323 17.098775087280067
  endloop
endfacet
facet normal -3.2663650058849607e-15 -1.0 -1.0846024932876532e-15
  outer loop
    vertex 246.92672842244193 114.13449519412927 17.098775087280067
    vertex 244.3367241111045 114.13449519412927 11.898775087280073
    vertex 246.92672842244193 114.13449519412927 11.89877508728007
  endloop
endfacet
facet normal -3.211536936303916e-15 -0.9974683594629793 -0.07111168589080683
  outer loop
    vertex 244.3367241111045 114.13449519412927 11.898775087280073
    vertex 241.7467197997671 114.13449519412929 17.098775087280067
    vertex 241.7467197997671 114.13449519412931 11.89877508728007
  endloop
endfacet
facet normal -3.2663650058849607e-15 -1.0 -1.0846024932876532e-15
  outer loop
    vertex 241.7467197997671 114.13449519412929 17.098775087280067
    vertex 244.3367241111045 114.13449519412927 11.898775087280073
    vertex 246.92672842244193 114.13449519412927 17.098775087280067
  endloop
endfacet
facet normal 0.9950414367879569 -0.09946124408511502 -1.3173308645833043e-16
  outer loop
    vertex 241.7467197997671 114.13449519412929 17.098775087280067
    vertex 241.2267284224419 108.9323385956433 11.89877508728007
    vertex 241.7467197997671 114.13449519412931 11.89877508728007
  endloop
endfacet
facet normal 0.9901981451588606 -0.09897712373285349 -0.09854522972485034
  outer loop
    vertex 241.2267284224419 108.9323385956433 11.89877508728007
    vertex 241.7467197997671 114.13449519412929 17.098775087280067
    vertex 241.2267284224419 108.93233859564332 17.098775087280067
  endloop
endfacet
facet normal -2.8406783700682054e-15 -0.9852960989697179 -0.17085548675724782
  outer loop
    vertex 242.8367241111045 114.65471085397786 8.898775087280073
    vertex 241.7467197997671 114.13449519412931 11.89877508728007
    vertex 241.2287189374996 114.65471085397786 8.89877508728007
  endloop
endfacet
facet normal -3.0539036041977173e-15 -0.9959320199786947 -0.09010777758416252
  outer loop
    vertex 241.7467197997671 114.13449519412931 11.89877508728007
    vertex 242.8367241111045 114.65471085397786 8.898775087280073
    vertex 244.3367241111045 114.13449519412927 11.898775087280073
  endloop
endfacet
facet normal 0.9902926601519867 -0.09898657115730579 -0.09758127883780603
  outer loop
    vertex 241.7467197997671 114.13449519412931 11.89877508728007
    vertex 240.60472928470926 108.41212293579468 8.89877508728007
    vertex 241.2287189374996 114.65471085397786 8.89877508728007
  endloop
endfacet
facet normal 0.9777215519316103 -0.09773000231816321 -0.18576709486702778
  outer loop
    vertex 240.60472928470926 108.41212293579468 8.89877508728007
    vertex 241.7467197997671 114.13449519412931 11.89877508728007
    vertex 241.2267284224419 108.9323385956433 11.89877508728007
  endloop
endfacet
facet normal -0.9777215519316196 -0.09773000231815598 -0.18576709486698365
  outer loop
    vertex 248.06871893749954 108.41212293579459 8.89877508728007
    vertex 246.92672842244193 114.13449519412927 11.89877508728007
    vertex 247.4447292847093 114.65471085397783 8.89877508728007
  endloop
endfacet
facet normal -0.9902926601519895 -0.09898657115730025 -0.09758127883778281
  outer loop
    vertex 246.92672842244193 114.13449519412927 11.89877508728007
    vertex 248.06871893749954 108.41212293579459 8.89877508728007
    vertex 247.44671979976712 108.93233859564323 11.89877508728007
  endloop
endfacet
facet normal 1.0 7.0499162063697425e-15 2.2711139456761587e-15
  outer loop
    vertex 246.3367241111046 111.03233859564322 34.79877508728006
    vertex 246.33672411110464 111.03233859564322 19.898775087280065
    vertex 246.33672411110456 115.03233859564324 19.898775087280065
  endloop
endfacet
facet normal 1.0 7.0499162063697425e-15 2.2711139456761587e-15
  outer loop
    vertex 246.33672411110464 111.03233859564322 19.898775087280065
    vertex 246.3367241111046 111.03233859564322 34.79877508728006
    vertex 246.3367241111045 107.03233859564322 34.79877508728006
  endloop
endfacet
facet normal 1.0471238966136917e-15 0.9658032583214321 0.25927604250239783
  outer loop
    vertex 242.33672411110462 111.0323385956433 34.79877508728006
    vertex 246.33672411110456 115.03233859564324 19.898775087280065
    vertex 242.3367241111045 115.03233859564328 19.898775087280065
  endloop
endfacet
facet normal 1.7544695685203655e-15 0.9962004738664687 0.08708970012707207
  outer loop
    vertex 246.33672411110456 115.03233859564324 19.898775087280065
    vertex 242.33672411110462 111.0323385956433 34.79877508728006
    vertex 246.3367241111046 111.03233859564322 34.79877508728006
  endloop
endfacet
facet normal 2.088066784787377e-15 1.0 -2.819966482547894e-15
  outer loop
    vertex 233.33672411110453 115.03233859564327 19.898775087280065
    vertex 240.33672411110453 115.03233859564328 17.898775087280054
    vertex 233.33672411110453 115.03233859564327 17.898775087280054
  endloop
endfacet
facet normal 1.9752116545683106e-15 0.9998208805455688 0.01892635266192321
  outer loop
    vertex 240.33672411110453 115.03233859564328 17.898775087280054
    vertex 233.33672411110453 115.03233859564327 19.898775087280065
    vertex 248.3367241111045 115.03233859564321 17.898775087280054
  endloop
endfacet
facet normal 1.9752116545683114e-15 0.9998208805455688 0.018926352661923152
  outer loop
    vertex 248.3367241111045 115.03233859564321 17.898775087280054
    vertex 233.33672411110453 115.03233859564327 19.898775087280065
    vertex 255.3367241111045 115.03233859564321 17.898775087280054
  endloop
endfacet
facet normal 2.088066784787377e-15 1.0 -2.819966482547894e-15
  outer loop
    vertex 255.3367241111045 115.03233859564321 17.898775087280054
    vertex 233.33672411110453 115.03233859564327 19.898775087280065
    vertex 255.3367241111045 115.03233859564321 19.898775087280065
  endloop
endfacet
facet normal 2.088066784787377e-15 1.0 -2.819966482547894e-15
  outer loop
    vertex 255.3367241111045 115.03233859564321 19.898775087280065
    vertex 233.33672411110453 115.03233859564327 19.898775087280065
    vertex 242.3367241111045 115.03233859564328 19.898775087280065
  endloop
endfacet
facet normal 2.088066784787377e-15 1.0 -2.819966482547894e-15
  outer loop
    vertex 255.3367241111045 115.03233859564321 19.898775087280065
    vertex 242.3367241111045 115.03233859564328 19.898775087280065
    vertex 246.33672411110456 115.03233859564324 19.898775087280065
  endloop
endfacet
facet normal 0.0 0.0 1.0
  outer loop
    vertex 242.33672411110462 111.0323385956433 34.79877508728006
    vertex 246.3367241111045 107.03233859564322 34.79877508728006
    vertex 246.3367241111046 111.03233859564322 34.79877508728006
  endloop
endfacet
facet normal 0.0 0.0 1.0
  outer loop
    vertex 246.3367241111045 107.03233859564322 34.79877508728006
    vertex 242.33672411110462 111.0323385956433 34.79877508728006
    vertex 242.33672411110456 107.0323385956433 34.79877508728006
  endloop
endfacet
facet normal -1.0 -7.049916206369747e-15 -2.2711139456761595e-15
  outer loop
    vertex 242.33672411110464 111.0323385956433 19.898775087280065
    vertex 242.33672411110462 111.0323385956433 34.79877508728006
    vertex 242.3367241111045 115.03233859564328 19.898775087280065
  endloop
endfacet
facet normal -1.0 -7.049916206369747e-15 -2.2711139456761595e-15
  outer loop
    vertex 242.33672411110462 111.0323385956433 34.79877508728006
    vertex 242.33672411110464 111.0323385956433 19.898775087280065
    vertex 242.33672411110456 107.0323385956433 34.79877508728006
  endloop
endfacet
facet normal -1.3511276085337945e-15 -0.9658032583214321 -0.25927604250239783
  outer loop
    vertex 246.3367241111045 107.03233859564322 34.79877508728006
    vertex 242.33672411110464 111.0323385956433 19.898775087280065
    vertex 246.33672411110464 111.03233859564322 19.898775087280065
  endloop
endfacet
facet normal -1.3511276085337945e-15 -0.9658032583214321 -0.25927604250239783
  outer loop
    vertex 242.33672411110464 111.0323385956433 19.898775087280065
    vertex 246.3367241111045 107.03233859564322 34.79877508728006
    vertex 242.33672411110456 107.0323385956433 34.79877508728006
  endloop
endfacet
facet normal 3.6729761462691046e-16 1.1602550089950072e-16 -1.0
  outer loop
    vertex 242.8367241111045 107.0323385956433 8.89877508728007
    vertex 240.60472928470926 108.41212293579468 8.89877508728007
    vertex 242.8367241111045 108.41212293579461 8.89877508728007
  endloop
endfacet
facet normal 3.6729761462691046e-16 1.1602550089950072e-16 -1.0
  outer loop
    vertex 240.60472928470926 108.41212293579468 8.89877508728007
    vertex 242.8367241111045 107.0323385956433 8.89877508728007
    vertex 239.8367241111045 107.0323385956433 8.89877508728007
  endloop
endfacet
facet normal 3.6729761462691046e-16 1.1602550089950072e-16 -1.0
  outer loop
    vertex 241.2287189374996 114.65471085397786 8.89877508728007
    vertex 242.8367241111045 115.53233859564321 8.89877508728007
    vertex 242.8367241111045 114.65471085397786 8.898775087280073
  endloop
endfacet
facet normal 3.6729761462691046e-16 1.1602550089950072e-16 -1.0
  outer loop
    vertex 242.8367241111045 115.53233859564321 8.89877508728007
    vertex 241.2287189374996 114.65471085397786 8.89877508728007
    vertex 239.8367241111045 115.53233859564321 8.89877508728007
  endloop
endfacet
facet normal 3.6729761462691046e-16 1.1602550089950072e-16 -1.0
  outer loop
    vertex 239.8367241111045 115.53233859564321 8.89877508728007
    vertex 241.2287189374996 114.65471085397786 8.89877508728007
    vertex 240.60472928470926 108.41212293579468 8.89877508728007
  endloop
endfacet
facet normal 3.6729761462691046e-16 1.1602550089950072e-16 -1.0
  outer loop
    vertex 239.8367241111045 115.53233859564321 8.89877508728007
    vertex 240.60472928470926 108.41212293579468 8.89877508728007
    vertex 239.8367241111045 107.0323385956433 8.89877508728007
  endloop
endfacet
facet normal -3.3342592334359373e-15 -0.9959320199786945 -0.09010777758416456
  outer loop
    vertex 246.92672842244193 114.13449519412927 11.89877508728007
    vertex 245.83672411110447 114.65471085397783 8.898775087280073
    vertex 247.4447292847093 114.65471085397783 8.89877508728007
  endloop
endfacet
facet normal -3.3722673048179395e-15 -0.9852960989697168 -0.17085548675725348
  outer loop
    vertex 245.83672411110447 114.65471085397783 8.898775087280073
    vertex 246.92672842244193 114.13449519412927 11.89877508728007
    vertex 244.3367241111045 114.13449519412927 11.898775087280073
  endloop
endfacet
facet normal 0.8944271909999162 -1.2425080362022728e-15 -0.4472135954999575
  outer loop
    vertex 244.3367241111045 115.36567192897654 11.89877508728007
    vertex 242.8367241111045 114.65471085397786 8.898775087280073
    vertex 242.8367241111045 115.53233859564321 8.89877508728007
  endloop
endfacet
facet normal 0.8944271909999162 -1.2425080362022728e-15 -0.4472135954999575
  outer loop
    vertex 242.8367241111045 114.65471085397786 8.898775087280073
    vertex 244.3367241111045 115.36567192897654 11.89877508728007
    vertex 244.3367241111045 114.13449519412927 11.898775087280073
  endloop
endfacet
facet normal -0.8944271909999162 -1.204856277529476e-15 -0.44721359549995754
  outer loop
    vertex 245.83672411110447 114.65471085397783 8.898775087280073
    vertex 244.3367241111045 115.36567192897654 11.89877508728007
    vertex 245.83672411110447 115.53233859564328 8.89877508728007
  endloop
endfacet
facet normal -0.8944271909999162 -1.204856277529476e-15 -0.44721359549995754
  outer loop
    vertex 244.3367241111045 115.36567192897654 11.89877508728007
    vertex 245.83672411110447 114.65471085397783 8.898775087280073
    vertex 244.3367241111045 114.13449519412927 11.898775087280073
  endloop
endfacet
facet normal 1.9752116545683106e-15 0.9998208805455688 0.01892635266192321
  outer loop
    vertex 240.33672411110453 115.03233859564328 17.898775087280054
    vertex 242.8367241111045 115.53233859564321 8.89877508728007
    vertex 239.8367241111045 115.53233859564321 8.89877508728007
  endloop
endfacet
facet normal 1.7551882886427078e-15 0.9984603532054125 0.05547001962252104
  outer loop
    vertex 242.8367241111045 115.53233859564321 8.89877508728007
    vertex 240.33672411110453 115.03233859564328 17.898775087280054
    vertex 244.3367241111045 115.36567192897654 11.89877508728007
  endloop
endfacet
facet normal 1.7551882886427078e-15 0.9984603532054125 0.05547001962252104
  outer loop
    vertex 244.3367241111045 115.36567192897654 11.89877508728007
    vertex 248.83672411110447 115.53233859564321 8.89877508728007
    vertex 245.83672411110447 115.53233859564328 8.89877508728007
  endloop
endfacet
facet normal 1.7551882886427078e-15 0.9984603532054125 0.05547001962252104
  outer loop
    vertex 248.83672411110447 115.53233859564321 8.89877508728007
    vertex 244.3367241111045 115.36567192897654 11.89877508728007
    vertex 248.3367241111045 115.03233859564321 17.898775087280054
  endloop
endfacet
facet normal 1.9752116545683114e-15 0.9998208805455688 0.018926352661923152
  outer loop
    vertex 248.3367241111045 115.03233859564321 17.898775087280054
    vertex 244.3367241111045 115.36567192897654 11.89877508728007
    vertex 240.33672411110453 115.03233859564328 17.898775087280054
  endloop
endfacet
facet normal -1.125975921730356e-15 -1.0 -6.142415471970695e-15
  outer loop
    vertex 248.33672411110445 107.03233859564321 17.898775087280054
    vertex 245.83672411110445 107.0323385956433 8.89877508728007
    vertex 248.83672411110447 107.0323385956433 8.89877508728007
  endloop
endfacet
facet normal -1.125975921730356e-15 -1.0 -6.142415471970695e-15
  outer loop
    vertex 245.83672411110445 107.0323385956433 8.89877508728007
    vertex 248.33672411110445 107.03233859564321 17.898775087280054
    vertex 244.3367241111045 107.0323385956433 11.89877508728007
  endloop
endfacet
facet normal -1.125975921730356e-15 -1.0 -6.142415471970695e-15
  outer loop
    vertex 255.3367241111045 107.03233859564322 19.898775087280065
    vertex 248.33672411110445 107.03233859564321 17.898775087280054
    vertex 255.3367241111045 107.03233859564322 17.898775087280054
  endloop
endfacet
facet normal -1.125975921730356e-15 -1.0 -6.142415471970695e-15
  outer loop
    vertex 248.33672411110445 107.03233859564321 17.898775087280054
    vertex 255.3367241111045 107.03233859564322 19.898775087280065
    vertex 240.33672411110453 107.0323385956433 17.898775087280054
  endloop
endfacet
facet normal -1.125975921730356e-15 -1.0 -6.142415471970695e-15
  outer loop
    vertex 240.33672411110453 107.0323385956433 17.898775087280054
    vertex 255.3367241111045 107.03233859564322 19.898775087280065
    vertex 233.33672411110453 107.03233859564322 17.898775087280054
  endloop
endfacet
facet normal -1.125975921730356e-15 -1.0 -6.142415471970695e-15
  outer loop
    vertex 233.33672411110453 107.03233859564322 17.898775087280054
    vertex 255.3367241111045 107.03233859564322 19.898775087280065
    vertex 233.33672411110453 107.03233859564322 19.898775087280065
  endloop
endfacet
facet normal -1.125975921730356e-15 -1.0 -6.142415471970695e-15
  outer loop
    vertex 244.3367241111045 107.0323385956433 11.89877508728007
    vertex 239.8367241111045 107.0323385956433 8.89877508728007
    vertex 242.8367241111045 107.0323385956433 8.89877508728007
  endloop
endfacet
facet normal -1.125975921730356e-15 -1.0 -6.142415471970695e-15
  outer loop
    vertex 239.8367241111045 107.0323385956433 8.89877508728007
    vertex 244.3367241111045 107.0323385956433 11.89877508728007
    vertex 240.33672411110453 107.0323385956433 17.898775087280054
  endloop
endfacet
facet normal -1.125975921730356e-15 -1.0 -6.142415471970695e-15
  outer loop
    vertex 240.33672411110453 107.0323385956433 17.898775087280054
    vertex 244.3367241111045 107.0323385956433 11.89877508728007
    vertex 248.33672411110445 107.03233859564321 17.898775087280054
  endloop
endfacet
facet normal 5.667143070382717e-15 1.0 -2.7115062332191316e-16
  outer loop
    vertex 241.2267284224419 108.93233859564332 17.098775087280067
    vertex 244.3367241111045 108.93233859564327 11.89877508728007
    vertex 241.2267284224419 108.9323385956433 11.89877508728007
  endloop
endfacet
facet normal 1.042384286134804e-14 0.9974683594629786 -0.07111168589081644
  outer loop
    vertex 244.3367241111045 108.93233859564327 11.89877508728007
    vertex 241.2267284224419 108.93233859564332 17.098775087280067
    vertex 247.44671979976712 108.93233859564323 11.89877508728007
  endloop
endfacet
facet normal 9.489470053090629e-15 0.9958590539043897 -0.09091064160291865
  outer loop
    vertex 247.44671979976712 108.93233859564323 11.89877508728007
    vertex 241.2267284224419 108.93233859564332 17.098775087280067
    vertex 247.44671979976712 108.93233859564323 17.098775087280067
  endloop
endfacet
facet normal 1.042384286134804e-14 0.9974683594629786 -0.07111168589081644
  outer loop
    vertex 244.3367241111045 108.93233859564327 11.89877508728007
    vertex 248.06871893749954 108.41212293579459 8.89877508728007
    vertex 245.83672411110447 108.41212293579461 8.89877508728007
  endloop
endfacet
facet normal 1.2811516331452262e-14 0.9852960989697138 -0.17085548675727127
  outer loop
    vertex 248.06871893749954 108.41212293579459 8.89877508728007
    vertex 244.3367241111045 108.93233859564327 11.89877508728007
    vertex 247.44671979976712 108.93233859564323 11.89877508728007
  endloop
endfacet
facet normal -3.6729761462690716e-16 1.1602550089949961e-16 -1.0
  outer loop
    vertex 248.83672411110447 107.0323385956433 8.89877508728007
    vertex 248.06871893749954 108.41212293579459 8.89877508728007
    vertex 248.83672411110447 115.53233859564321 8.89877508728007
  endloop
endfacet
facet normal -3.6729761462690716e-16 1.1602550089949961e-16 -1.0
  outer loop
    vertex 248.06871893749954 108.41212293579459 8.89877508728007
    vertex 248.83672411110447 107.0323385956433 8.89877508728007
    vertex 245.83672411110445 107.0323385956433 8.89877508728007
  endloop
endfacet
facet normal -3.6729761462690716e-16 1.1602550089949961e-16 -1.0
  outer loop
    vertex 248.06871893749954 108.41212293579459 8.89877508728007
    vertex 245.83672411110445 107.0323385956433 8.89877508728007
    vertex 245.83672411110447 108.41212293579461 8.89877508728007
  endloop
endfacet
facet normal -3.6729761462690716e-16 1.1602550089949961e-16 -1.0
  outer loop
    vertex 248.83672411110447 115.53233859564321 8.89877508728007
    vertex 247.4447292847093 114.65471085397783 8.89877508728007
    vertex 245.83672411110447 115.53233859564328 8.89877508728007
  endloop
endfacet
facet normal -3.6729761462690716e-16 1.1602550089949961e-16 -1.0
  outer loop
    vertex 247.4447292847093 114.65471085397783 8.89877508728007
    vertex 248.83672411110447 115.53233859564321 8.89877508728007
    vertex 248.06871893749954 108.41212293579459 8.89877508728007
  endloop
endfacet
facet normal -3.6729761462690716e-16 1.1602550089949961e-16 -1.0
  outer loop
    vertex 245.83672411110447 115.53233859564328 8.89877508728007
    vertex 247.4447292847093 114.65471085397783 8.89877508728007
    vertex 245.83672411110447 114.65471085397783 8.898775087280073
  endloop
endfacet
facet normal 1.3996690513516969e-14 0.9958590539043892 -0.09091064160292321
  outer loop
    vertex 241.2267284224419 108.9323385956433 11.89877508728007
    vertex 242.8367241111045 108.41212293579461 8.89877508728007
    vertex 240.60472928470926 108.41212293579468 8.89877508728007
  endloop
endfacet
facet normal 2.128228864270755e-14 0.9852960989697127 -0.1708554867572776
  outer loop
    vertex 242.8367241111045 108.41212293579461 8.89877508728007
    vertex 241.2267284224419 108.9323385956433 11.89877508728007
    vertex 244.3367241111045 108.93233859564327 11.89877508728007
  endloop
endfacet
endsolid RatHeadPhones_FinalModel_Jan2015
