solid RatHeadPhones_FinalModel_Jan2015
facet normal 0.0 1.0 0.0
  outer loop
    vertex 272.38292756321937 113.98616094214735 25.40000000000784
    vertex 279.28292756321935 113.98616094214735 19.400000000007832
    vertex 272.38292756321937 113.98616094214735 19.400000000007832
  endloop
endfacet
facet normal 0.0 1.0 0.0
  outer loop
    vertex 279.28292756321935 113.98616094214735 19.400000000007832
    vertex 272.38292756321937 113.98616094214735 25.40000000000784
    vertex 279.28292756321935 113.98616094214735 25.40000000000784
  endloop
endfacet
facet normal 1.0 0.0 0.0
  outer loop
    vertex 279.28292756321935 103.98616094214735 19.400000000007832
    vertex 279.28292756321935 109.53659204071492 20.950431098575415
    vertex 279.28292756321935 103.98616094214735 25.40000000000784
  endloop
endfacet
facet normal 1.0 0.0 0.0
  outer loop
    vertex 279.28292756321935 109.53659204071492 20.950431098575415
    vertex 279.28292756321935 103.98616094214735 19.400000000007832
    vertex 279.28292756321935 109.96116094214734 20.624647922249736
  endloop
endfacet
facet normal 1.0 0.0 0.0
  outer loop
    vertex 279.28292756321935 109.96116094214734 20.624647922249736
    vertex 279.28292756321935 103.98616094214735 19.400000000007832
    vertex 279.28292756321935 110.45558189968719 20.419852056115246
  endloop
endfacet
facet normal 1.0 0.0 0.0
  outer loop
    vertex 279.28292756321935 110.45558189968719 20.419852056115246
    vertex 279.28292756321935 103.98616094214735 19.400000000007832
    vertex 279.28292756321935 113.98616094214735 19.400000000007832
  endloop
endfacet
facet normal 1.0 0.0 0.0
  outer loop
    vertex 279.28292756321935 103.98616094214735 25.40000000000784
    vertex 279.28292756321935 109.53659204071492 20.950431098575415
    vertex 279.28292756321935 109.21080886438924 21.375000000007834
  endloop
endfacet
facet normal 1.0 0.0 0.0
  outer loop
    vertex 279.28292756321935 103.98616094214735 25.40000000000784
    vertex 279.28292756321935 109.21080886438924 21.375000000007834
    vertex 279.28292756321935 109.00601299825475 21.869420957547668
  endloop
endfacet
facet normal 1.0 0.0 0.0
  outer loop
    vertex 279.28292756321935 103.98616094214735 25.40000000000784
    vertex 279.28292756321935 109.00601299825475 21.869420957547668
    vertex 279.28292756321935 108.93616094214735 22.400000000007836
  endloop
endfacet
facet normal 1.0 0.0 0.0
  outer loop
    vertex 279.28292756321935 110.45558189968719 20.419852056115246
    vertex 279.28292756321935 113.98616094214735 19.400000000007832
    vertex 279.28292756321935 110.98616094214734 20.350000000007835
  endloop
endfacet
facet normal 1.0 0.0 0.0
  outer loop
    vertex 279.28292756321935 110.98616094214734 20.350000000007835
    vertex 279.28292756321935 113.98616094214735 19.400000000007832
    vertex 279.28292756321935 111.51673998460751 20.419852056115243
  endloop
endfacet
facet normal 1.0 0.0 0.0
  outer loop
    vertex 279.28292756321935 111.51673998460751 20.419852056115243
    vertex 279.28292756321935 113.98616094214735 19.400000000007832
    vertex 279.28292756321935 112.01116094214734 20.624647922249736
  endloop
endfacet
facet normal 1.0 0.0 0.0
  outer loop
    vertex 279.28292756321935 112.01116094214734 20.624647922249736
    vertex 279.28292756321935 113.98616094214735 19.400000000007832
    vertex 279.28292756321935 112.43572984357976 20.950431098575415
  endloop
endfacet
facet normal 1.0 0.0 0.0
  outer loop
    vertex 279.28292756321935 112.43572984357976 20.950431098575415
    vertex 279.28292756321935 113.98616094214735 19.400000000007832
    vertex 279.28292756321935 112.76151301990542 21.375000000007834
  endloop
endfacet
facet normal 1.0 0.0 0.0
  outer loop
    vertex 279.28292756321935 112.76151301990542 21.375000000007834
    vertex 279.28292756321935 113.98616094214735 19.400000000007832
    vertex 279.28292756321935 112.96630888603994 21.869420957547668
  endloop
endfacet
facet normal 1.0 0.0 0.0
  outer loop
    vertex 279.28292756321935 112.96630888603994 21.869420957547668
    vertex 279.28292756321935 113.98616094214735 19.400000000007832
    vertex 279.28292756321935 113.03616094214735 22.400000000007836
  endloop
endfacet
facet normal 1.0 0.0 0.0
  outer loop
    vertex 279.28292756321935 103.98616094214735 25.40000000000784
    vertex 279.28292756321935 110.45558189968719 24.380147943900425
    vertex 279.28292756321935 113.98616094214735 25.40000000000784
  endloop
endfacet
facet normal 1.0 0.0 0.0
  outer loop
    vertex 279.28292756321935 110.45558189968719 24.380147943900425
    vertex 279.28292756321935 103.98616094214735 25.40000000000784
    vertex 279.28292756321935 109.96116094214734 24.175352077765936
  endloop
endfacet
facet normal 1.0 0.0 0.0
  outer loop
    vertex 279.28292756321935 109.96116094214734 24.175352077765936
    vertex 279.28292756321935 103.98616094214735 25.40000000000784
    vertex 279.28292756321935 109.53659204071492 23.849568901440257
  endloop
endfacet
facet normal 1.0 0.0 0.0
  outer loop
    vertex 279.28292756321935 109.53659204071492 23.849568901440257
    vertex 279.28292756321935 103.98616094214735 25.40000000000784
    vertex 279.28292756321935 109.21080886438924 23.425000000007834
  endloop
endfacet
facet normal 1.0 0.0 0.0
  outer loop
    vertex 279.28292756321935 109.21080886438924 23.425000000007834
    vertex 279.28292756321935 103.98616094214735 25.40000000000784
    vertex 279.28292756321935 109.00601299825475 22.930579042468004
  endloop
endfacet
facet normal 1.0 0.0 0.0
  outer loop
    vertex 279.28292756321935 109.00601299825475 22.930579042468004
    vertex 279.28292756321935 103.98616094214735 25.40000000000784
    vertex 279.28292756321935 108.93616094214735 22.400000000007836
  endloop
endfacet
facet normal 1.0 0.0 0.0
  outer loop
    vertex 279.28292756321935 113.98616094214735 25.40000000000784
    vertex 279.28292756321935 110.45558189968719 24.380147943900425
    vertex 279.28292756321935 110.98616094214734 24.450000000007833
  endloop
endfacet
facet normal 1.0 0.0 0.0
  outer loop
    vertex 279.28292756321935 113.98616094214735 25.40000000000784
    vertex 279.28292756321935 110.98616094214734 24.450000000007833
    vertex 279.28292756321935 111.51673998460751 24.380147943900422
  endloop
endfacet
facet normal 1.0 0.0 0.0
  outer loop
    vertex 279.28292756321935 113.98616094214735 25.40000000000784
    vertex 279.28292756321935 111.51673998460751 24.380147943900422
    vertex 279.28292756321935 112.01116094214734 24.175352077765933
  endloop
endfacet
facet normal 1.0 0.0 0.0
  outer loop
    vertex 279.28292756321935 113.98616094214735 25.40000000000784
    vertex 279.28292756321935 112.01116094214734 24.175352077765933
    vertex 279.28292756321935 112.43572984357976 23.849568901440257
  endloop
endfacet
facet normal 1.0 0.0 0.0
  outer loop
    vertex 279.28292756321935 113.98616094214735 25.40000000000784
    vertex 279.28292756321935 112.43572984357976 23.849568901440257
    vertex 279.28292756321935 112.76151301990545 23.425000000007834
  endloop
endfacet
facet normal 1.0 0.0 0.0
  outer loop
    vertex 279.28292756321935 113.98616094214735 25.40000000000784
    vertex 279.28292756321935 112.76151301990545 23.425000000007834
    vertex 279.28292756321935 112.96630888603994 22.930579042468
  endloop
endfacet
facet normal 1.0 0.0 0.0
  outer loop
    vertex 279.28292756321935 113.98616094214735 25.40000000000784
    vertex 279.28292756321935 112.96630888603994 22.930579042468
    vertex 279.28292756321935 113.03616094214735 22.400000000007836
  endloop
endfacet
facet normal 1.0 0.0 0.0
  outer loop
    vertex 279.28292756321935 113.98616094214735 25.40000000000784
    vertex 279.28292756321935 113.03616094214735 22.400000000007836
    vertex 279.28292756321935 113.98616094214735 19.400000000007832
  endloop
endfacet
facet normal 0.0 -1.0 0.0
  outer loop
    vertex 279.28292756321935 103.98616094214735 25.40000000000784
    vertex 272.38292756321937 103.98616094214735 19.400000000007832
    vertex 279.28292756321935 103.98616094214735 19.400000000007832
  endloop
endfacet
facet normal 0.0 -1.0 0.0
  outer loop
    vertex 272.38292756321937 103.98616094214735 19.400000000007832
    vertex 279.28292756321935 103.98616094214735 25.40000000000784
    vertex 272.38292756321937 103.98616094214735 25.40000000000784
  endloop
endfacet
facet normal -1.0 0.0 0.0
  outer loop
    vertex 272.38292756321937 103.98616094214735 25.40000000000784
    vertex 272.38292756321937 109.53659204071492 23.849568901440257
    vertex 272.38292756321937 103.98616094214735 19.400000000007832
  endloop
endfacet
facet normal -1.0 0.0 0.0
  outer loop
    vertex 272.38292756321937 109.53659204071492 23.849568901440257
    vertex 272.38292756321937 103.98616094214735 25.40000000000784
    vertex 272.38292756321937 109.96116094214734 24.175352077765936
  endloop
endfacet
facet normal -1.0 0.0 0.0
  outer loop
    vertex 272.38292756321937 109.96116094214734 24.175352077765936
    vertex 272.38292756321937 103.98616094214735 25.40000000000784
    vertex 272.38292756321937 110.45558189968719 24.380147943900425
  endloop
endfacet
facet normal -1.0 0.0 0.0
  outer loop
    vertex 272.38292756321937 110.45558189968719 24.380147943900425
    vertex 272.38292756321937 103.98616094214735 25.40000000000784
    vertex 272.38292756321937 113.98616094214735 25.40000000000784
  endloop
endfacet
facet normal -1.0 0.0 0.0
  outer loop
    vertex 272.38292756321937 103.98616094214735 19.400000000007832
    vertex 272.38292756321937 109.53659204071492 23.849568901440257
    vertex 272.38292756321937 109.21080886438924 23.425000000007834
  endloop
endfacet
facet normal -1.0 0.0 0.0
  outer loop
    vertex 272.38292756321937 103.98616094214735 19.400000000007832
    vertex 272.38292756321937 109.21080886438924 23.425000000007834
    vertex 272.38292756321937 109.00601299825475 22.930579042468004
  endloop
endfacet
facet normal -1.0 0.0 0.0
  outer loop
    vertex 272.38292756321937 103.98616094214735 19.400000000007832
    vertex 272.38292756321937 109.00601299825475 22.930579042468004
    vertex 272.38292756321937 108.93616094214735 22.400000000007836
  endloop
endfacet
facet normal -1.0 0.0 0.0
  outer loop
    vertex 272.38292756321937 110.45558189968719 24.380147943900425
    vertex 272.38292756321937 113.98616094214735 25.40000000000784
    vertex 272.38292756321937 110.98616094214734 24.450000000007833
  endloop
endfacet
facet normal -1.0 0.0 0.0
  outer loop
    vertex 272.38292756321937 110.98616094214734 24.450000000007833
    vertex 272.38292756321937 113.98616094214735 25.40000000000784
    vertex 272.38292756321937 111.51673998460751 24.380147943900422
  endloop
endfacet
facet normal -1.0 0.0 0.0
  outer loop
    vertex 272.38292756321937 111.51673998460751 24.380147943900422
    vertex 272.38292756321937 113.98616094214735 25.40000000000784
    vertex 272.38292756321937 112.01116094214734 24.175352077765933
  endloop
endfacet
facet normal -1.0 0.0 0.0
  outer loop
    vertex 272.38292756321937 112.01116094214734 24.175352077765933
    vertex 272.38292756321937 113.98616094214735 25.40000000000784
    vertex 272.38292756321937 112.43572984357976 23.849568901440257
  endloop
endfacet
facet normal -1.0 0.0 0.0
  outer loop
    vertex 272.38292756321937 112.43572984357976 23.849568901440257
    vertex 272.38292756321937 113.98616094214735 25.40000000000784
    vertex 272.38292756321937 112.76151301990545 23.425000000007834
  endloop
endfacet
facet normal -1.0 0.0 0.0
  outer loop
    vertex 272.38292756321937 112.76151301990545 23.425000000007834
    vertex 272.38292756321937 113.98616094214735 25.40000000000784
    vertex 272.38292756321937 112.96630888603994 22.930579042468
  endloop
endfacet
facet normal -1.0 0.0 0.0
  outer loop
    vertex 272.38292756321937 112.96630888603994 22.930579042468
    vertex 272.38292756321937 113.98616094214735 25.40000000000784
    vertex 272.38292756321937 113.03616094214735 22.400000000007836
  endloop
endfacet
facet normal -1.0 0.0 0.0
  outer loop
    vertex 272.38292756321937 103.98616094214735 19.400000000007832
    vertex 272.38292756321937 110.45558189968719 20.419852056115246
    vertex 272.38292756321937 113.98616094214735 19.400000000007832
  endloop
endfacet
facet normal -1.0 0.0 0.0
  outer loop
    vertex 272.38292756321937 110.45558189968719 20.419852056115246
    vertex 272.38292756321937 103.98616094214735 19.400000000007832
    vertex 272.38292756321937 109.96116094214734 20.624647922249736
  endloop
endfacet
facet normal -1.0 0.0 0.0
  outer loop
    vertex 272.38292756321937 109.96116094214734 20.624647922249736
    vertex 272.38292756321937 103.98616094214735 19.400000000007832
    vertex 272.38292756321937 109.53659204071492 20.950431098575415
  endloop
endfacet
facet normal -1.0 0.0 0.0
  outer loop
    vertex 272.38292756321937 109.53659204071492 20.950431098575415
    vertex 272.38292756321937 103.98616094214735 19.400000000007832
    vertex 272.38292756321937 109.21080886438924 21.375000000007834
  endloop
endfacet
facet normal -1.0 0.0 0.0
  outer loop
    vertex 272.38292756321937 109.21080886438924 21.375000000007834
    vertex 272.38292756321937 103.98616094214735 19.400000000007832
    vertex 272.38292756321937 109.00601299825475 21.869420957547668
  endloop
endfacet
facet normal -1.0 0.0 0.0
  outer loop
    vertex 272.38292756321937 109.00601299825475 21.869420957547668
    vertex 272.38292756321937 103.98616094214735 19.400000000007832
    vertex 272.38292756321937 108.93616094214735 22.400000000007836
  endloop
endfacet
facet normal -1.0 0.0 0.0
  outer loop
    vertex 272.38292756321937 113.98616094214735 19.400000000007832
    vertex 272.38292756321937 110.45558189968719 20.419852056115246
    vertex 272.38292756321937 110.98616094214734 20.350000000007835
  endloop
endfacet
facet normal -1.0 0.0 0.0
  outer loop
    vertex 272.38292756321937 113.98616094214735 19.400000000007832
    vertex 272.38292756321937 110.98616094214734 20.350000000007835
    vertex 272.38292756321937 111.51673998460751 20.419852056115243
  endloop
endfacet
facet normal -1.0 0.0 0.0
  outer loop
    vertex 272.38292756321937 113.98616094214735 19.400000000007832
    vertex 272.38292756321937 111.51673998460751 20.419852056115243
    vertex 272.38292756321937 112.01116094214734 20.624647922249736
  endloop
endfacet
facet normal -1.0 0.0 0.0
  outer loop
    vertex 272.38292756321937 113.98616094214735 19.400000000007832
    vertex 272.38292756321937 112.01116094214734 20.624647922249736
    vertex 272.38292756321937 112.43572984357976 20.950431098575415
  endloop
endfacet
facet normal -1.0 0.0 0.0
  outer loop
    vertex 272.38292756321937 113.98616094214735 19.400000000007832
    vertex 272.38292756321937 112.43572984357976 20.950431098575415
    vertex 272.38292756321937 112.76151301990542 21.375000000007834
  endloop
endfacet
facet normal -1.0 0.0 0.0
  outer loop
    vertex 272.38292756321937 113.98616094214735 19.400000000007832
    vertex 272.38292756321937 112.76151301990542 21.375000000007834
    vertex 272.38292756321937 112.96630888603994 21.869420957547668
  endloop
endfacet
facet normal -1.0 0.0 0.0
  outer loop
    vertex 272.38292756321937 113.98616094214735 19.400000000007832
    vertex 272.38292756321937 112.96630888603994 21.869420957547668
    vertex 272.38292756321937 113.03616094214735 22.400000000007836
  endloop
endfacet
facet normal -1.0 0.0 0.0
  outer loop
    vertex 272.38292756321937 113.98616094214735 19.400000000007832
    vertex 272.38292756321937 113.03616094214735 22.400000000007836
    vertex 272.38292756321937 113.98616094214735 25.40000000000784
  endloop
endfacet
facet normal -9.599443405568437e-32 0.7933533402912339 0.6087614290087223
  outer loop
    vertex 272.38292756321937 109.21080886438924 21.375000000007834
    vertex 279.28292756321935 109.53659204071492 20.950431098575415
    vertex 272.38292756321937 109.53659204071492 20.950431098575415
  endloop
endfacet
facet normal -9.599443405568437e-32 0.7933533402912339 0.6087614290087223
  outer loop
    vertex 279.28292756321935 109.53659204071492 20.950431098575415
    vertex 272.38292756321937 109.21080886438924 21.375000000007834
    vertex 279.28292756321935 109.21080886438924 21.375000000007834
  endloop
endfacet
facet normal -6.034462395587658e-32 0.9238795325112875 0.3826834323650881
  outer loop
    vertex 272.38292756321937 109.00601299825475 21.869420957547668
    vertex 279.28292756321935 109.21080886438924 21.375000000007834
    vertex 272.38292756321937 109.21080886438924 21.375000000007834
  endloop
endfacet
facet normal -6.034462395587658e-32 0.9238795325112875 0.3826834323650881
  outer loop
    vertex 279.28292756321935 109.21080886438924 21.375000000007834
    vertex 272.38292756321937 109.00601299825475 21.869420957547668
    vertex 279.28292756321935 109.00601299825475 21.869420957547668
  endloop
endfacet
facet normal -2.0582427457682867e-32 0.9914448613738103 0.1305261922200522
  outer loop
    vertex 272.38292756321937 108.93616094214735 22.400000000007836
    vertex 279.28292756321935 109.00601299825475 21.869420957547668
    vertex 272.38292756321937 109.00601299825475 21.869420957547668
  endloop
endfacet
facet normal -2.0582427457682867e-32 0.9914448613738103 0.1305261922200522
  outer loop
    vertex 279.28292756321935 109.00601299825475 21.869420957547668
    vertex 272.38292756321937 108.93616094214735 22.400000000007836
    vertex 279.28292756321935 108.93616094214735 22.400000000007836
  endloop
endfacet
facet normal 2.058242745768276e-32 0.9914448613738104 -0.13052619222005155
  outer loop
    vertex 272.38292756321937 109.00601299825475 22.930579042468004
    vertex 279.28292756321935 108.93616094214735 22.400000000007836
    vertex 272.38292756321937 108.93616094214735 22.400000000007836
  endloop
endfacet
facet normal 2.058242745768276e-32 0.9914448613738104 -0.13052619222005155
  outer loop
    vertex 279.28292756321935 108.93616094214735 22.400000000007836
    vertex 272.38292756321937 109.00601299825475 22.930579042468004
    vertex 279.28292756321935 109.00601299825475 22.930579042468004
  endloop
endfacet
facet normal 6.034462395587705e-32 0.9238795325112862 -0.3826834323650911
  outer loop
    vertex 272.38292756321937 109.21080886438924 23.425000000007834
    vertex 279.28292756321935 109.00601299825475 22.930579042468004
    vertex 272.38292756321937 109.00601299825475 22.930579042468004
  endloop
endfacet
facet normal 6.034462395587705e-32 0.9238795325112862 -0.3826834323650911
  outer loop
    vertex 279.28292756321935 109.00601299825475 22.930579042468004
    vertex 272.38292756321937 109.21080886438924 23.425000000007834
    vertex 279.28292756321935 109.21080886438924 23.425000000007834
  endloop
endfacet
facet normal 9.599443405568437e-32 0.7933533402912339 -0.6087614290087223
  outer loop
    vertex 272.38292756321937 109.53659204071492 23.849568901440257
    vertex 279.28292756321935 109.21080886438924 23.425000000007834
    vertex 272.38292756321937 109.21080886438924 23.425000000007834
  endloop
endfacet
facet normal 9.599443405568437e-32 0.7933533402912339 -0.6087614290087223
  outer loop
    vertex 279.28292756321935 109.21080886438924 23.425000000007834
    vertex 272.38292756321937 109.53659204071492 23.849568901440257
    vertex 279.28292756321935 109.53659204071492 23.849568901440257
  endloop
endfacet
facet normal 1.251023821128992e-31 0.6087614290087231 -0.7933533402912334
  outer loop
    vertex 279.28292756321935 109.96116094214734 24.175352077765936
    vertex 272.38292756321937 109.53659204071492 23.849568901440257
    vertex 272.38292756321937 109.96116094214734 24.175352077765936
  endloop
endfacet
facet normal 1.251023821128992e-31 0.6087614290087231 -0.7933533402912334
  outer loop
    vertex 272.38292756321937 109.53659204071492 23.849568901440257
    vertex 279.28292756321935 109.96116094214734 24.175352077765936
    vertex 279.28292756321935 109.53659204071492 23.849568901440257
  endloop
endfacet
facet normal 1.456848095705823e-31 0.38268343236508884 -0.9238795325112872
  outer loop
    vertex 279.28292756321935 110.45558189968719 24.380147943900425
    vertex 272.38292756321937 109.96116094214734 24.175352077765936
    vertex 272.38292756321937 110.45558189968719 24.380147943900425
  endloop
endfacet
facet normal 1.456848095705823e-31 0.38268343236508884 -0.9238795325112872
  outer loop
    vertex 272.38292756321937 109.96116094214734 24.175352077765936
    vertex 279.28292756321935 110.45558189968719 24.380147943900425
    vertex 279.28292756321935 109.96116094214734 24.175352077765936
  endloop
endfacet
facet normal 1.56339058011561e-31 0.13052619222004824 -0.9914448613738108
  outer loop
    vertex 279.28292756321935 110.98616094214734 24.450000000007833
    vertex 272.38292756321937 110.45558189968719 24.380147943900425
    vertex 272.38292756321937 110.98616094214734 24.450000000007833
  endloop
endfacet
facet normal 1.56339058011561e-31 0.13052619222004824 -0.9914448613738108
  outer loop
    vertex 272.38292756321937 110.45558189968719 24.380147943900425
    vertex 279.28292756321935 110.98616094214734 24.450000000007833
    vertex 279.28292756321935 110.45558189968719 24.380147943900425
  endloop
endfacet
facet normal 1.5633905801156092e-31 -0.13052619222005302 -0.9914448613738103
  outer loop
    vertex 279.28292756321935 111.51673998460751 24.380147943900422
    vertex 272.38292756321937 110.98616094214734 24.450000000007833
    vertex 272.38292756321937 111.51673998460751 24.380147943900422
  endloop
endfacet
facet normal 1.5633905801156092e-31 -0.13052619222005302 -0.9914448613738103
  outer loop
    vertex 272.38292756321937 110.98616094214734 24.450000000007833
    vertex 279.28292756321935 111.51673998460751 24.380147943900422
    vertex 279.28292756321935 110.98616094214734 24.450000000007833
  endloop
endfacet
facet normal 1.4568480957058231e-31 -0.3826834323650887 -0.9238795325112872
  outer loop
    vertex 279.28292756321935 112.01116094214734 24.175352077765933
    vertex 272.38292756321937 111.51673998460751 24.380147943900422
    vertex 272.38292756321937 112.01116094214734 24.175352077765933
  endloop
endfacet
facet normal 1.4568480957058231e-31 -0.3826834323650887 -0.9238795325112872
  outer loop
    vertex 272.38292756321937 111.51673998460751 24.380147943900422
    vertex 279.28292756321935 112.01116094214734 24.175352077765933
    vertex 279.28292756321935 111.51673998460751 24.380147943900422
  endloop
endfacet
facet normal 1.2510238211289948e-31 -0.6087614290087208 -0.7933533402912352
  outer loop
    vertex 279.28292756321935 112.43572984357976 23.849568901440257
    vertex 272.38292756321937 112.01116094214734 24.175352077765933
    vertex 272.38292756321937 112.43572984357976 23.849568901440257
  endloop
endfacet
facet normal 1.2510238211289948e-31 -0.6087614290087208 -0.7933533402912352
  outer loop
    vertex 272.38292756321937 112.01116094214734 24.175352077765933
    vertex 279.28292756321935 112.43572984357976 23.849568901440257
    vertex 279.28292756321935 112.01116094214734 24.175352077765933
  endloop
endfacet
facet normal 9.59944340556839e-32 -0.7933533402912365 -0.6087614290087192
  outer loop
    vertex 279.28292756321935 112.43572984357976 23.849568901440257
    vertex 272.38292756321937 112.76151301990545 23.425000000007834
    vertex 279.28292756321935 112.76151301990545 23.425000000007834
  endloop
endfacet
facet normal 9.59944340556839e-32 -0.7933533402912365 -0.6087614290087192
  outer loop
    vertex 272.38292756321937 112.76151301990545 23.425000000007834
    vertex 279.28292756321935 112.43572984357976 23.849568901440257
    vertex 272.38292756321937 112.43572984357976 23.849568901440257
  endloop
endfacet
facet normal 6.034462395587687e-32 -0.9238795325112867 -0.38268343236509
  outer loop
    vertex 279.28292756321935 112.76151301990545 23.425000000007834
    vertex 272.38292756321937 112.96630888603994 22.930579042468
    vertex 279.28292756321935 112.96630888603994 22.930579042468
  endloop
endfacet
facet normal 6.034462395587687e-32 -0.9238795325112867 -0.38268343236509
  outer loop
    vertex 272.38292756321937 112.96630888603994 22.930579042468
    vertex 279.28292756321935 112.76151301990545 23.425000000007834
    vertex 272.38292756321937 112.76151301990545 23.425000000007834
  endloop
endfacet
facet normal 2.0582427457682766e-32 -0.9914448613738105 -0.1305261922200516
  outer loop
    vertex 279.28292756321935 112.96630888603994 22.930579042468
    vertex 272.38292756321937 113.03616094214735 22.400000000007836
    vertex 279.28292756321935 113.03616094214735 22.400000000007836
  endloop
endfacet
facet normal 2.0582427457682766e-32 -0.9914448613738105 -0.1305261922200516
  outer loop
    vertex 272.38292756321937 113.03616094214735 22.400000000007836
    vertex 279.28292756321935 112.96630888603994 22.930579042468
    vertex 272.38292756321937 112.96630888603994 22.930579042468
  endloop
endfacet
facet normal -2.0582427457682867e-32 -0.9914448613738103 0.1305261922200522
  outer loop
    vertex 279.28292756321935 113.03616094214735 22.400000000007836
    vertex 272.38292756321937 112.96630888603994 21.869420957547668
    vertex 279.28292756321935 112.96630888603994 21.869420957547668
  endloop
endfacet
facet normal -2.0582427457682867e-32 -0.9914448613738103 0.1305261922200522
  outer loop
    vertex 272.38292756321937 112.96630888603994 21.869420957547668
    vertex 279.28292756321935 113.03616094214735 22.400000000007836
    vertex 272.38292756321937 113.03616094214735 22.400000000007836
  endloop
endfacet
facet normal -6.034462395587667e-32 -0.9238795325112874 0.3826834323650888
  outer loop
    vertex 279.28292756321935 112.96630888603994 21.869420957547668
    vertex 272.38292756321937 112.76151301990542 21.375000000007834
    vertex 279.28292756321935 112.76151301990542 21.375000000007834
  endloop
endfacet
facet normal -6.034462395587667e-32 -0.9238795325112874 0.3826834323650888
  outer loop
    vertex 272.38292756321937 112.76151301990542 21.375000000007834
    vertex 279.28292756321935 112.96630888603994 21.869420957547668
    vertex 272.38292756321937 112.96630888603994 21.869420957547668
  endloop
endfacet
facet normal -9.599443405568434e-32 -0.793353340291234 0.6087614290087221
  outer loop
    vertex 279.28292756321935 112.76151301990542 21.375000000007834
    vertex 272.38292756321937 112.43572984357976 20.950431098575415
    vertex 279.28292756321935 112.43572984357976 20.950431098575415
  endloop
endfacet
facet normal -9.599443405568434e-32 -0.793353340291234 0.6087614290087221
  outer loop
    vertex 272.38292756321937 112.43572984357976 20.950431098575415
    vertex 279.28292756321935 112.76151301990542 21.375000000007834
    vertex 272.38292756321937 112.76151301990542 21.375000000007834
  endloop
endfacet
facet normal -1.251023821128995e-31 -0.6087614290087204 0.7933533402912355
  outer loop
    vertex 279.28292756321935 112.01116094214734 20.624647922249736
    vertex 272.38292756321937 112.43572984357976 20.950431098575415
    vertex 272.38292756321937 112.01116094214734 20.624647922249736
  endloop
endfacet
facet normal -1.251023821128995e-31 -0.6087614290087204 0.7933533402912355
  outer loop
    vertex 272.38292756321937 112.43572984357976 20.950431098575415
    vertex 279.28292756321935 112.01116094214734 20.624647922249736
    vertex 279.28292756321935 112.43572984357976 20.950431098575415
  endloop
endfacet
facet normal -1.4568480957058203e-31 -0.382683432365093 0.9238795325112854
  outer loop
    vertex 279.28292756321935 111.51673998460751 20.419852056115243
    vertex 272.38292756321937 112.01116094214734 20.624647922249736
    vertex 272.38292756321937 111.51673998460751 20.419852056115243
  endloop
endfacet
facet normal -1.4568480957058203e-31 -0.382683432365093 0.9238795325112854
  outer loop
    vertex 272.38292756321937 112.01116094214734 20.624647922249736
    vertex 279.28292756321935 111.51673998460751 20.419852056115243
    vertex 279.28292756321935 112.01116094214734 20.624647922249736
  endloop
endfacet
facet normal -1.5633905801156105e-31 -0.1305261922200482 0.9914448613738108
  outer loop
    vertex 279.28292756321935 110.98616094214734 20.350000000007835
    vertex 272.38292756321937 111.51673998460751 20.419852056115243
    vertex 272.38292756321937 110.98616094214734 20.350000000007835
  endloop
endfacet
facet normal -1.5633905801156105e-31 -0.1305261922200482 0.9914448613738108
  outer loop
    vertex 272.38292756321937 111.51673998460751 20.419852056115243
    vertex 279.28292756321935 110.98616094214734 20.350000000007835
    vertex 279.28292756321935 111.51673998460751 20.419852056115243
  endloop
endfacet
facet normal -1.5633905801156094e-31 0.13052619222005318 0.9914448613738103
  outer loop
    vertex 279.28292756321935 110.45558189968719 20.419852056115246
    vertex 272.38292756321937 110.98616094214734 20.350000000007835
    vertex 272.38292756321937 110.45558189968719 20.419852056115246
  endloop
endfacet
facet normal -1.5633905801156094e-31 0.13052619222005318 0.9914448613738103
  outer loop
    vertex 272.38292756321937 110.98616094214734 20.350000000007835
    vertex 279.28292756321935 110.45558189968719 20.419852056115246
    vertex 279.28292756321935 110.98616094214734 20.350000000007835
  endloop
endfacet
facet normal -1.4568480957058234e-31 0.3826834323650884 0.9238795325112874
  outer loop
    vertex 279.28292756321935 109.96116094214734 20.624647922249736
    vertex 272.38292756321937 110.45558189968719 20.419852056115246
    vertex 272.38292756321937 109.96116094214734 20.624647922249736
  endloop
endfacet
facet normal -1.4568480957058234e-31 0.3826834323650884 0.9238795325112874
  outer loop
    vertex 272.38292756321937 110.45558189968719 20.419852056115246
    vertex 279.28292756321935 109.96116094214734 20.624647922249736
    vertex 279.28292756321935 110.45558189968719 20.419852056115246
  endloop
endfacet
facet normal -1.2510238211289943e-31 0.6087614290087211 0.793353340291235
  outer loop
    vertex 279.28292756321935 109.53659204071492 20.950431098575415
    vertex 272.38292756321937 109.96116094214734 20.624647922249736
    vertex 272.38292756321937 109.53659204071492 20.950431098575415
  endloop
endfacet
facet normal -1.2510238211289943e-31 0.6087614290087211 0.793353340291235
  outer loop
    vertex 272.38292756321937 109.96116094214734 20.624647922249736
    vertex 279.28292756321935 109.53659204071492 20.950431098575415
    vertex 279.28292756321935 109.96116094214734 20.624647922249736
  endloop
endfacet
facet normal 0.0 0.0 1.0
  outer loop
    vertex 272.38292756321937 103.98616094214735 25.40000000000784
    vertex 274.35217365090836 105.58939412715439 25.40000000000784
    vertex 272.38292756321937 113.98616094214735 25.40000000000784
  endloop
endfacet
facet normal 0.0 0.0 1.0
  outer loop
    vertex 274.35217365090836 105.58939412715439 25.40000000000784
    vertex 272.38292756321937 103.98616094214735 25.40000000000784
    vertex 274.50531992512447 105.21966631491505 25.40000000000784
  endloop
endfacet
facet normal 0.0 0.0 1.0
  outer loop
    vertex 274.50531992512447 105.21966631491505 25.40000000000784
    vertex 272.38292756321937 103.98616094214735 25.40000000000784
    vertex 274.74894046590134 104.90217384482932 25.40000000000784
  endloop
endfacet
facet normal 0.0 0.0 1.0
  outer loop
    vertex 274.74894046590134 104.90217384482932 25.40000000000784
    vertex 272.38292756321937 103.98616094214735 25.40000000000784
    vertex 275.0664329359871 104.65855330405243 25.40000000000784
  endloop
endfacet
facet normal 0.0 0.0 1.0
  outer loop
    vertex 275.0664329359871 104.65855330405243 25.40000000000784
    vertex 272.38292756321937 103.98616094214735 25.40000000000784
    vertex 275.4361607482264 104.50540702983636 25.40000000000784
  endloop
endfacet
facet normal 0.0 0.0 1.0
  outer loop
    vertex 275.4361607482264 104.50540702983636 25.40000000000784
    vertex 272.38292756321937 103.98616094214735 25.40000000000784
    vertex 279.28292756321935 103.98616094214735 25.40000000000784
  endloop
endfacet
facet normal 0.0 0.0 1.0
  outer loop
    vertex 272.38292756321937 113.98616094214735 25.40000000000784
    vertex 274.35217365090836 105.58939412715439 25.40000000000784
    vertex 274.2999383087548 105.98616094214734 25.40000000000784
  endloop
endfacet
facet normal 0.0 0.0 1.0
  outer loop
    vertex 275.4361607482264 104.50540702983636 25.40000000000784
    vertex 279.28292756321935 103.98616094214735 25.40000000000784
    vertex 275.83292756321936 104.45317168768273 25.40000000000784
  endloop
endfacet
facet normal 0.0 0.0 1.0
  outer loop
    vertex 275.83292756321936 104.45317168768273 25.40000000000784
    vertex 279.28292756321935 103.98616094214735 25.40000000000784
    vertex 276.22969437821234 104.50540702983636 25.40000000000784
  endloop
endfacet
facet normal 0.0 0.0 1.0
  outer loop
    vertex 276.22969437821234 104.50540702983636 25.40000000000784
    vertex 279.28292756321935 103.98616094214735 25.40000000000784
    vertex 276.59942219045166 104.65855330405243 25.40000000000784
  endloop
endfacet
facet normal 0.0 0.0 1.0
  outer loop
    vertex 276.59942219045166 104.65855330405243 25.40000000000784
    vertex 279.28292756321935 103.98616094214735 25.40000000000784
    vertex 276.91691466053743 104.90217384482932 25.40000000000784
  endloop
endfacet
facet normal 0.0 0.0 1.0
  outer loop
    vertex 276.91691466053743 104.90217384482932 25.40000000000784
    vertex 279.28292756321935 103.98616094214735 25.40000000000784
    vertex 277.1605352013143 105.21966631491505 25.40000000000784
  endloop
endfacet
facet normal 0.0 0.0 1.0
  outer loop
    vertex 277.1605352013143 105.21966631491505 25.40000000000784
    vertex 279.28292756321935 103.98616094214735 25.40000000000784
    vertex 277.31368147553036 105.58939412715439 25.40000000000784
  endloop
endfacet
facet normal 0.0 0.0 1.0
  outer loop
    vertex 277.31368147553036 105.58939412715439 25.40000000000784
    vertex 279.28292756321935 103.98616094214735 25.40000000000784
    vertex 277.36591681768397 105.98616094214734 25.40000000000784
  endloop
endfacet
facet normal 0.0 0.0 1.0
  outer loop
    vertex 272.38292756321937 113.98616094214735 25.40000000000784
    vertex 274.50531992512447 106.75265556937964 25.40000000000784
    vertex 279.28292756321935 113.98616094214735 25.40000000000784
  endloop
endfacet
facet normal 0.0 0.0 1.0
  outer loop
    vertex 274.50531992512447 106.75265556937964 25.40000000000784
    vertex 272.38292756321937 113.98616094214735 25.40000000000784
    vertex 274.35217365090836 106.3829277571403 25.40000000000784
  endloop
endfacet
facet normal 0.0 0.0 1.0
  outer loop
    vertex 274.35217365090836 106.3829277571403 25.40000000000784
    vertex 272.38292756321937 113.98616094214735 25.40000000000784
    vertex 274.2999383087548 105.98616094214734 25.40000000000784
  endloop
endfacet
facet normal 0.0 0.0 1.0
  outer loop
    vertex 279.28292756321935 113.98616094214735 25.40000000000784
    vertex 274.50531992512447 106.75265556937964 25.40000000000784
    vertex 274.74894046590134 107.07014803946537 25.40000000000784
  endloop
endfacet
facet normal 0.0 0.0 1.0
  outer loop
    vertex 279.28292756321935 113.98616094214735 25.40000000000784
    vertex 274.74894046590134 107.07014803946537 25.40000000000784
    vertex 275.0664329359871 107.31376858024225 25.40000000000784
  endloop
endfacet
facet normal 0.0 0.0 1.0
  outer loop
    vertex 279.28292756321935 113.98616094214735 25.40000000000784
    vertex 275.0664329359871 107.31376858024225 25.40000000000784
    vertex 275.4361607482264 107.46691485445834 25.40000000000784
  endloop
endfacet
facet normal 0.0 0.0 1.0
  outer loop
    vertex 279.28292756321935 113.98616094214735 25.40000000000784
    vertex 275.4361607482264 107.46691485445834 25.40000000000784
    vertex 275.83292756321936 107.51915019661196 25.40000000000784
  endloop
endfacet
facet normal 0.0 0.0 1.0
  outer loop
    vertex 279.28292756321935 113.98616094214735 25.40000000000784
    vertex 275.83292756321936 107.51915019661196 25.40000000000784
    vertex 276.2296943782123 107.46691485445834 25.40000000000784
  endloop
endfacet
facet normal 0.0 0.0 1.0
  outer loop
    vertex 279.28292756321935 113.98616094214735 25.40000000000784
    vertex 276.2296943782123 107.46691485445834 25.40000000000784
    vertex 276.59942219045166 107.31376858024225 25.40000000000784
  endloop
endfacet
facet normal 0.0 0.0 1.0
  outer loop
    vertex 279.28292756321935 113.98616094214735 25.40000000000784
    vertex 276.59942219045166 107.31376858024225 25.40000000000784
    vertex 276.91691466053743 107.0701480394654 25.40000000000784
  endloop
endfacet
facet normal 0.0 0.0 1.0
  outer loop
    vertex 279.28292756321935 113.98616094214735 25.40000000000784
    vertex 276.91691466053743 107.0701480394654 25.40000000000784
    vertex 277.1605352013143 106.75265556937966 25.40000000000784
  endloop
endfacet
facet normal 0.0 0.0 1.0
  outer loop
    vertex 279.28292756321935 113.98616094214735 25.40000000000784
    vertex 277.1605352013143 106.75265556937966 25.40000000000784
    vertex 277.31368147553036 106.38292775714032 25.40000000000784
  endloop
endfacet
facet normal 0.0 0.0 1.0
  outer loop
    vertex 279.28292756321935 113.98616094214735 25.40000000000784
    vertex 277.31368147553036 106.38292775714032 25.40000000000784
    vertex 277.36591681768397 105.98616094214734 25.40000000000784
  endloop
endfacet
facet normal 0.0 0.0 1.0
  outer loop
    vertex 279.28292756321935 113.98616094214735 25.40000000000784
    vertex 277.36591681768397 105.98616094214734 25.40000000000784
    vertex 279.28292756321935 103.98616094214735 25.40000000000784
  endloop
endfacet
facet normal -2.944250937614629e-31 -2.8199664825478986e-16 -1.0
  outer loop
    vertex 279.28292756321935 113.98616094214735 19.400000000007832
    vertex 272.38292756321937 103.98616094214735 19.400000000007832
    vertex 272.38292756321937 113.98616094214735 19.400000000007832
  endloop
endfacet
facet normal -2.944250937614629e-31 -2.8199664825478986e-16 -1.0
  outer loop
    vertex 272.38292756321937 103.98616094214735 19.400000000007832
    vertex 279.28292756321935 113.98616094214735 19.400000000007832
    vertex 274.50531992512447 106.75265556937964 19.400000000007836
  endloop
endfacet
facet normal -2.944250937614629e-31 -2.8199664825478986e-16 -1.0
  outer loop
    vertex 272.38292756321937 103.98616094214735 19.400000000007832
    vertex 274.50531992512447 106.75265556937964 19.400000000007836
    vertex 274.35217365090836 106.3829277571403 19.400000000007836
  endloop
endfacet
facet normal -2.944250937614629e-31 -2.8199664825478986e-16 -1.0
  outer loop
    vertex 272.38292756321937 103.98616094214735 19.400000000007832
    vertex 274.35217365090836 106.3829277571403 19.400000000007836
    vertex 274.2999383087548 105.98616094214734 19.400000000007836
  endloop
endfacet
facet normal -2.944250937614629e-31 -2.8199664825478986e-16 -1.0
  outer loop
    vertex 274.50531992512447 106.75265556937964 19.400000000007836
    vertex 279.28292756321935 113.98616094214735 19.400000000007832
    vertex 274.74894046590134 107.07014803946537 19.400000000007836
  endloop
endfacet
facet normal -2.944250937614629e-31 -2.8199664825478986e-16 -1.0
  outer loop
    vertex 274.74894046590134 107.07014803946537 19.400000000007836
    vertex 279.28292756321935 113.98616094214735 19.400000000007832
    vertex 275.0664329359871 107.31376858024225 19.400000000007836
  endloop
endfacet
facet normal -2.944250937614629e-31 -2.8199664825478986e-16 -1.0
  outer loop
    vertex 275.0664329359871 107.31376858024225 19.400000000007836
    vertex 279.28292756321935 113.98616094214735 19.400000000007832
    vertex 275.4361607482264 107.46691485445834 19.400000000007836
  endloop
endfacet
facet normal -2.944250937614629e-31 -2.8199664825478986e-16 -1.0
  outer loop
    vertex 275.4361607482264 107.46691485445834 19.400000000007836
    vertex 279.28292756321935 113.98616094214735 19.400000000007832
    vertex 275.83292756321936 107.51915019661196 19.400000000007836
  endloop
endfacet
facet normal -2.944250937614629e-31 -2.8199664825478986e-16 -1.0
  outer loop
    vertex 275.83292756321936 107.51915019661196 19.400000000007836
    vertex 279.28292756321935 113.98616094214735 19.400000000007832
    vertex 276.2296943782123 107.46691485445834 19.400000000007836
  endloop
endfacet
facet normal -2.944250937614629e-31 -2.8199664825478986e-16 -1.0
  outer loop
    vertex 276.2296943782123 107.46691485445834 19.400000000007836
    vertex 279.28292756321935 113.98616094214735 19.400000000007832
    vertex 276.59942219045166 107.31376858024225 19.400000000007836
  endloop
endfacet
facet normal -2.944250937614629e-31 -2.8199664825478986e-16 -1.0
  outer loop
    vertex 276.59942219045166 107.31376858024225 19.400000000007836
    vertex 279.28292756321935 113.98616094214735 19.400000000007832
    vertex 276.91691466053743 107.0701480394654 19.400000000007836
  endloop
endfacet
facet normal -2.944250937614629e-31 -2.8199664825478986e-16 -1.0
  outer loop
    vertex 276.91691466053743 107.0701480394654 19.400000000007836
    vertex 279.28292756321935 113.98616094214735 19.400000000007832
    vertex 277.1605352013143 106.75265556937966 19.400000000007836
  endloop
endfacet
facet normal -2.944250937614629e-31 -2.8199664825478986e-16 -1.0
  outer loop
    vertex 277.1605352013143 106.75265556937966 19.400000000007836
    vertex 279.28292756321935 113.98616094214735 19.400000000007832
    vertex 277.31368147553036 106.38292775714032 19.400000000007836
  endloop
endfacet
facet normal -2.944250937614629e-31 -2.8199664825478986e-16 -1.0
  outer loop
    vertex 277.31368147553036 106.38292775714032 19.400000000007836
    vertex 279.28292756321935 113.98616094214735 19.400000000007832
    vertex 277.36591681768397 105.98616094214734 19.400000000007836
  endloop
endfacet
facet normal -2.944250937614629e-31 -2.8199664825478986e-16 -1.0
  outer loop
    vertex 272.38292756321937 103.98616094214735 19.400000000007832
    vertex 275.4361607482264 104.50540702983636 19.400000000007836
    vertex 279.28292756321935 103.98616094214735 19.400000000007832
  endloop
endfacet
facet normal -2.944250937614629e-31 -2.8199664825478986e-16 -1.0
  outer loop
    vertex 275.4361607482264 104.50540702983636 19.400000000007836
    vertex 272.38292756321937 103.98616094214735 19.400000000007832
    vertex 275.0664329359871 104.65855330405243 19.400000000007836
  endloop
endfacet
facet normal -2.944250937614629e-31 -2.8199664825478986e-16 -1.0
  outer loop
    vertex 275.0664329359871 104.65855330405243 19.400000000007836
    vertex 272.38292756321937 103.98616094214735 19.400000000007832
    vertex 274.74894046590134 104.90217384482932 19.400000000007836
  endloop
endfacet
facet normal -2.944250937614629e-31 -2.8199664825478986e-16 -1.0
  outer loop
    vertex 274.74894046590134 104.90217384482932 19.400000000007836
    vertex 272.38292756321937 103.98616094214735 19.400000000007832
    vertex 274.50531992512447 105.21966631491505 19.400000000007836
  endloop
endfacet
facet normal -2.944250937614629e-31 -2.8199664825478986e-16 -1.0
  outer loop
    vertex 274.50531992512447 105.21966631491505 19.400000000007836
    vertex 272.38292756321937 103.98616094214735 19.400000000007832
    vertex 274.35217365090836 105.58939412715439 19.400000000007836
  endloop
endfacet
facet normal -2.944250937614629e-31 -2.8199664825478986e-16 -1.0
  outer loop
    vertex 274.35217365090836 105.58939412715439 19.400000000007836
    vertex 272.38292756321937 103.98616094214735 19.400000000007832
    vertex 274.2999383087548 105.98616094214734 19.400000000007836
  endloop
endfacet
facet normal -2.944250937614629e-31 -2.8199664825478986e-16 -1.0
  outer loop
    vertex 279.28292756321935 103.98616094214735 19.400000000007832
    vertex 275.4361607482264 104.50540702983636 19.400000000007836
    vertex 275.83292756321936 104.45317168768273 19.400000000007836
  endloop
endfacet
facet normal -2.944250937614629e-31 -2.8199664825478986e-16 -1.0
  outer loop
    vertex 279.28292756321935 103.98616094214735 19.400000000007832
    vertex 275.83292756321936 104.45317168768273 19.400000000007836
    vertex 276.22969437821234 104.50540702983636 19.400000000007836
  endloop
endfacet
facet normal -2.944250937614629e-31 -2.8199664825478986e-16 -1.0
  outer loop
    vertex 279.28292756321935 103.98616094214735 19.400000000007832
    vertex 276.22969437821234 104.50540702983636 19.400000000007836
    vertex 276.59942219045166 104.65855330405243 19.400000000007836
  endloop
endfacet
facet normal -2.944250937614629e-31 -2.8199664825478986e-16 -1.0
  outer loop
    vertex 279.28292756321935 103.98616094214735 19.400000000007832
    vertex 276.59942219045166 104.65855330405243 19.400000000007836
    vertex 276.91691466053743 104.90217384482932 19.400000000007836
  endloop
endfacet
facet normal -2.944250937614629e-31 -2.8199664825478986e-16 -1.0
  outer loop
    vertex 279.28292756321935 103.98616094214735 19.400000000007832
    vertex 276.91691466053743 104.90217384482932 19.400000000007836
    vertex 277.1605352013143 105.21966631491505 19.400000000007836
  endloop
endfacet
facet normal -2.944250937614629e-31 -2.8199664825478986e-16 -1.0
  outer loop
    vertex 279.28292756321935 103.98616094214735 19.400000000007832
    vertex 277.1605352013143 105.21966631491505 19.400000000007836
    vertex 277.31368147553036 105.58939412715439 19.400000000007836
  endloop
endfacet
facet normal -2.944250937614629e-31 -2.8199664825478986e-16 -1.0
  outer loop
    vertex 279.28292756321935 103.98616094214735 19.400000000007832
    vertex 277.31368147553036 105.58939412715439 19.400000000007836
    vertex 277.36591681768397 105.98616094214734 19.400000000007836
  endloop
endfacet
facet normal -2.944250937614629e-31 -2.8199664825478986e-16 -1.0
  outer loop
    vertex 279.28292756321935 103.98616094214735 19.400000000007832
    vertex 277.36591681768397 105.98616094214734 19.400000000007836
    vertex 279.28292756321935 113.98616094214735 19.400000000007832
  endloop
endfacet
facet normal 0.382683432365093 -0.9238795325112854 1.079115886236529e-31
  outer loop
    vertex 275.4361607482264 107.46691485445834 25.40000000000784
    vertex 275.0664329359871 107.31376858024225 19.400000000007836
    vertex 275.4361607482264 107.46691485445834 19.400000000007836
  endloop
endfacet
facet normal 0.382683432365093 -0.9238795325112854 1.079115886236529e-31
  outer loop
    vertex 275.0664329359871 107.31376858024225 19.400000000007836
    vertex 275.4361607482264 107.46691485445834 25.40000000000784
    vertex 275.0664329359871 107.31376858024225 25.40000000000784
  endloop
endfacet
facet normal 0.6087614290087237 -0.7933533402912328 1.7166254752953005e-31
  outer loop
    vertex 275.0664329359871 107.31376858024225 25.40000000000784
    vertex 274.74894046590134 107.07014803946537 19.400000000007836
    vertex 275.0664329359871 107.31376858024225 19.400000000007836
  endloop
endfacet
facet normal 0.6087614290087237 -0.7933533402912328 1.7166254752953005e-31
  outer loop
    vertex 274.74894046590134 107.07014803946537 19.400000000007836
    vertex 275.0664329359871 107.31376858024225 25.40000000000784
    vertex 274.74894046590134 107.07014803946537 25.40000000000784
  endloop
endfacet
facet normal 0.7933533402912331 -0.6087614290087233 2.2371498750704133e-31
  outer loop
    vertex 274.74894046590134 107.07014803946537 19.400000000007836
    vertex 274.50531992512447 106.75265556937964 25.40000000000784
    vertex 274.50531992512447 106.75265556937964 19.400000000007836
  endloop
endfacet
facet normal 0.7933533402912331 -0.6087614290087233 2.2371498750704133e-31
  outer loop
    vertex 274.50531992512447 106.75265556937964 25.40000000000784
    vertex 274.74894046590134 107.07014803946537 19.400000000007836
    vertex 274.74894046590134 107.07014803946537 25.40000000000784
  endloop
endfacet
facet normal 0.9238795325112872 -0.3826834323650887 2.60521620792447e-31
  outer loop
    vertex 274.50531992512447 106.75265556937964 19.400000000007836
    vertex 274.35217365090836 106.3829277571403 25.40000000000784
    vertex 274.35217365090836 106.3829277571403 19.400000000007836
  endloop
endfacet
facet normal 0.9238795325112872 -0.3826834323650887 2.60521620792447e-31
  outer loop
    vertex 274.35217365090836 106.3829277571403 25.40000000000784
    vertex 274.50531992512447 106.75265556937964 19.400000000007836
    vertex 274.50531992512447 106.75265556937964 25.40000000000784
  endloop
endfacet
facet normal 0.9914448613738106 -0.13052619222005107 2.7957413615318124e-31
  outer loop
    vertex 274.35217365090836 106.3829277571403 19.400000000007836
    vertex 274.2999383087548 105.98616094214734 25.40000000000784
    vertex 274.2999383087548 105.98616094214734 19.400000000007836
  endloop
endfacet
facet normal 0.9914448613738106 -0.13052619222005107 2.7957413615318124e-31
  outer loop
    vertex 274.2999383087548 105.98616094214734 25.40000000000784
    vertex 274.35217365090836 106.3829277571403 19.400000000007836
    vertex 274.35217365090836 106.3829277571403 25.40000000000784
  endloop
endfacet
facet normal 0.9914448613738107 0.13052619222005013 2.795741361531813e-31
  outer loop
    vertex 274.2999383087548 105.98616094214734 19.400000000007836
    vertex 274.35217365090836 105.58939412715439 25.40000000000784
    vertex 274.35217365090836 105.58939412715439 19.400000000007836
  endloop
endfacet
facet normal 0.9914448613738107 0.13052619222005013 2.795741361531813e-31
  outer loop
    vertex 274.35217365090836 105.58939412715439 25.40000000000784
    vertex 274.2999383087548 105.98616094214734 19.400000000007836
    vertex 274.2999383087548 105.98616094214734 25.40000000000784
  endloop
endfacet
facet normal 0.9238795325112857 0.3826834323650925 2.6052162079244656e-31
  outer loop
    vertex 274.35217365090836 105.58939412715439 19.400000000007836
    vertex 274.50531992512447 105.21966631491505 25.40000000000784
    vertex 274.50531992512447 105.21966631491505 19.400000000007836
  endloop
endfacet
facet normal 0.9238795325112857 0.3826834323650925 2.6052162079244656e-31
  outer loop
    vertex 274.50531992512447 105.21966631491505 25.40000000000784
    vertex 274.35217365090836 105.58939412715439 19.400000000007836
    vertex 274.35217365090836 105.58939412715439 25.40000000000784
  endloop
endfacet
facet normal 0.793353340291235 0.6087614290087208 2.237149875070419e-31
  outer loop
    vertex 274.50531992512447 105.21966631491505 19.400000000007836
    vertex 274.74894046590134 104.90217384482932 25.40000000000784
    vertex 274.74894046590134 104.90217384482932 19.400000000007836
  endloop
endfacet
facet normal 0.793353340291235 0.6087614290087208 2.237149875070419e-31
  outer loop
    vertex 274.74894046590134 104.90217384482932 25.40000000000784
    vertex 274.50531992512447 105.21966631491505 19.400000000007836
    vertex 274.50531992512447 105.21966631491505 25.40000000000784
  endloop
endfacet
facet normal 0.6087614290087213 0.7933533402912347 1.7166254752952944e-31
  outer loop
    vertex 274.74894046590134 104.90217384482932 25.40000000000784
    vertex 275.0664329359871 104.65855330405243 19.400000000007836
    vertex 274.74894046590134 104.90217384482932 19.400000000007836
  endloop
endfacet
facet normal 0.6087614290087213 0.7933533402912347 1.7166254752952944e-31
  outer loop
    vertex 275.0664329359871 104.65855330405243 19.400000000007836
    vertex 274.74894046590134 104.90217384482932 25.40000000000784
    vertex 275.0664329359871 104.65855330405243 25.40000000000784
  endloop
endfacet
facet normal 0.3826834323650889 0.9238795325112871 1.079115886236518e-31
  outer loop
    vertex 275.0664329359871 104.65855330405243 25.40000000000784
    vertex 275.4361607482264 104.50540702983636 19.400000000007836
    vertex 275.0664329359871 104.65855330405243 19.400000000007836
  endloop
endfacet
facet normal 0.3826834323650889 0.9238795325112871 1.079115886236518e-31
  outer loop
    vertex 275.4361607482264 104.50540702983636 19.400000000007836
    vertex 275.0664329359871 104.65855330405243 25.40000000000784
    vertex 275.4361607482264 104.50540702983636 25.40000000000784
  endloop
endfacet
facet normal 0.13052619222005313 0.9914448613738103 3.6806633285405434e-32
  outer loop
    vertex 275.4361607482264 104.50540702983636 25.40000000000784
    vertex 275.83292756321936 104.45317168768273 19.400000000007836
    vertex 275.4361607482264 104.50540702983636 19.400000000007836
  endloop
endfacet
facet normal 0.13052619222005313 0.9914448613738103 3.6806633285405434e-32
  outer loop
    vertex 275.83292756321936 104.45317168768273 19.400000000007836
    vertex 275.4361607482264 104.50540702983636 25.40000000000784
    vertex 275.83292756321936 104.45317168768273 25.40000000000784
  endloop
endfacet
facet normal -0.13052619222005313 0.9914448613738103 -3.680663328540539e-32
  outer loop
    vertex 275.83292756321936 104.45317168768273 25.40000000000784
    vertex 276.22969437821234 104.50540702983636 19.400000000007836
    vertex 275.83292756321936 104.45317168768273 19.400000000007836
  endloop
endfacet
facet normal -0.13052619222005313 0.9914448613738103 -3.680663328540539e-32
  outer loop
    vertex 276.22969437821234 104.50540702983636 19.400000000007836
    vertex 275.83292756321936 104.45317168768273 25.40000000000784
    vertex 276.22969437821234 104.50540702983636 25.40000000000784
  endloop
endfacet
facet normal -0.3826834323650882 0.9238795325112875 -1.0791158862365154e-31
  outer loop
    vertex 276.22969437821234 104.50540702983636 25.40000000000784
    vertex 276.59942219045166 104.65855330405243 19.400000000007836
    vertex 276.22969437821234 104.50540702983636 19.400000000007836
  endloop
endfacet
facet normal -0.3826834323650882 0.9238795325112875 -1.0791158862365154e-31
  outer loop
    vertex 276.59942219045166 104.65855330405243 19.400000000007836
    vertex 276.22969437821234 104.50540702983636 25.40000000000784
    vertex 276.59942219045166 104.65855330405243 25.40000000000784
  endloop
endfacet
facet normal -0.6087614290087225 0.7933533402912338 -1.716625475295297e-31
  outer loop
    vertex 276.59942219045166 104.65855330405243 25.40000000000784
    vertex 276.91691466053743 104.90217384482932 19.400000000007836
    vertex 276.59942219045166 104.65855330405243 19.400000000007836
  endloop
endfacet
facet normal -0.6087614290087225 0.7933533402912338 -1.716625475295297e-31
  outer loop
    vertex 276.91691466053743 104.90217384482932 19.400000000007836
    vertex 276.59942219045166 104.65855330405243 25.40000000000784
    vertex 276.91691466053743 104.90217384482932 25.40000000000784
  endloop
endfacet
facet normal -0.7933533402912346 0.6087614290087215 -2.2371498750704177e-31
  outer loop
    vertex 277.1605352013143 105.21966631491505 25.40000000000784
    vertex 276.91691466053743 104.90217384482932 19.400000000007836
    vertex 276.91691466053743 104.90217384482932 25.40000000000784
  endloop
endfacet
facet normal -0.7933533402912346 0.6087614290087215 -2.2371498750704177e-31
  outer loop
    vertex 276.91691466053743 104.90217384482932 19.400000000007836
    vertex 277.1605352013143 105.21966631491505 25.40000000000784
    vertex 277.1605352013143 105.21966631491505 19.400000000007836
  endloop
endfacet
facet normal -0.9238795325112866 0.38268343236509056 -2.605216207924468e-31
  outer loop
    vertex 277.31368147553036 105.58939412715439 25.40000000000784
    vertex 277.1605352013143 105.21966631491505 19.400000000007836
    vertex 277.1605352013143 105.21966631491505 25.40000000000784
  endloop
endfacet
facet normal -0.9238795325112866 0.38268343236509056 -2.605216207924468e-31
  outer loop
    vertex 277.1605352013143 105.21966631491505 19.400000000007836
    vertex 277.31368147553036 105.58939412715439 25.40000000000784
    vertex 277.31368147553036 105.58939412715439 19.400000000007836
  endloop
endfacet
facet normal -0.9914448613738107 0.13052619222005013 -2.795741361531813e-31
  outer loop
    vertex 277.36591681768397 105.98616094214734 25.40000000000784
    vertex 277.31368147553036 105.58939412715439 19.400000000007836
    vertex 277.31368147553036 105.58939412715439 25.40000000000784
  endloop
endfacet
facet normal -0.9914448613738107 0.13052619222005013 -2.795741361531813e-31
  outer loop
    vertex 277.31368147553036 105.58939412715439 19.400000000007836
    vertex 277.36591681768397 105.98616094214734 25.40000000000784
    vertex 277.36591681768397 105.98616094214734 19.400000000007836
  endloop
endfacet
facet normal -0.9914448613738103 -0.1305261922200536 -2.7957413615318116e-31
  outer loop
    vertex 277.31368147553036 106.38292775714032 25.40000000000784
    vertex 277.36591681768397 105.98616094214734 19.400000000007836
    vertex 277.36591681768397 105.98616094214734 25.40000000000784
  endloop
endfacet
facet normal -0.9914448613738103 -0.1305261922200536 -2.7957413615318116e-31
  outer loop
    vertex 277.36591681768397 105.98616094214734 19.400000000007836
    vertex 277.31368147553036 106.38292775714032 25.40000000000784
    vertex 277.31368147553036 106.38292775714032 19.400000000007836
  endloop
endfacet
facet normal -0.923879532511286 -0.3826834323650917 -2.6052162079244665e-31
  outer loop
    vertex 277.1605352013143 106.75265556937966 25.40000000000784
    vertex 277.31368147553036 106.38292775714032 19.400000000007836
    vertex 277.31368147553036 106.38292775714032 25.40000000000784
  endloop
endfacet
facet normal -0.923879532511286 -0.3826834323650917 -2.6052162079244665e-31
  outer loop
    vertex 277.31368147553036 106.38292775714032 19.400000000007836
    vertex 277.1605352013143 106.75265556937966 25.40000000000784
    vertex 277.1605352013143 106.75265556937966 19.400000000007836
  endloop
endfacet
facet normal -0.7933533402912356 -0.6087614290087201 -2.2371498750704203e-31
  outer loop
    vertex 276.91691466053743 107.0701480394654 25.40000000000784
    vertex 277.1605352013143 106.75265556937966 19.400000000007836
    vertex 277.1605352013143 106.75265556937966 25.40000000000784
  endloop
endfacet
facet normal -0.7933533402912356 -0.6087614290087201 -2.2371498750704203e-31
  outer loop
    vertex 277.1605352013143 106.75265556937966 19.400000000007836
    vertex 276.91691466053743 107.0701480394654 25.40000000000784
    vertex 276.91691466053743 107.0701480394654 19.400000000007836
  endloop
endfacet
facet normal -0.6087614290087198 -0.7933533402912358 -1.7166254752952898e-31
  outer loop
    vertex 276.91691466053743 107.0701480394654 25.40000000000784
    vertex 276.59942219045166 107.31376858024225 19.400000000007836
    vertex 276.91691466053743 107.0701480394654 19.400000000007836
  endloop
endfacet
facet normal -0.6087614290087198 -0.7933533402912358 -1.7166254752952898e-31
  outer loop
    vertex 276.59942219045166 107.31376858024225 19.400000000007836
    vertex 276.91691466053743 107.0701480394654 25.40000000000784
    vertex 276.59942219045166 107.31376858024225 25.40000000000784
  endloop
endfacet
facet normal -0.3826834323650895 -0.923879532511287 -1.0791158862365196e-31
  outer loop
    vertex 276.59942219045166 107.31376858024225 25.40000000000784
    vertex 276.2296943782123 107.46691485445834 19.400000000007836
    vertex 276.59942219045166 107.31376858024225 19.400000000007836
  endloop
endfacet
facet normal -0.3826834323650895 -0.923879532511287 -1.0791158862365196e-31
  outer loop
    vertex 276.2296943782123 107.46691485445834 19.400000000007836
    vertex 276.59942219045166 107.31376858024225 25.40000000000784
    vertex 276.2296943782123 107.46691485445834 25.40000000000784
  endloop
endfacet
facet normal -0.13052619222005152 -0.9914448613738106 -3.680663328540497e-32
  outer loop
    vertex 276.2296943782123 107.46691485445834 25.40000000000784
    vertex 275.83292756321936 107.51915019661196 19.400000000007836
    vertex 276.2296943782123 107.46691485445834 19.400000000007836
  endloop
endfacet
facet normal -0.13052619222005152 -0.9914448613738106 -3.680663328540497e-32
  outer loop
    vertex 275.83292756321936 107.51915019661196 19.400000000007836
    vertex 276.2296943782123 107.46691485445834 25.40000000000784
    vertex 275.83292756321936 107.51915019661196 25.40000000000784
  endloop
endfacet
facet normal 0.1305261922200514 -0.9914448613738105 3.68066332854049e-32
  outer loop
    vertex 275.83292756321936 107.51915019661196 25.40000000000784
    vertex 275.4361607482264 107.46691485445834 19.400000000007836
    vertex 275.83292756321936 107.51915019661196 19.400000000007836
  endloop
endfacet
facet normal 0.1305261922200514 -0.9914448613738105 3.68066332854049e-32
  outer loop
    vertex 275.4361607482264 107.46691485445834 19.400000000007836
    vertex 275.83292756321936 107.51915019661196 25.40000000000784
    vertex 275.4361607482264 107.46691485445834 25.40000000000784
  endloop
endfacet
endsolid RatHeadPhones_FinalModel_Jan2015
