solid RatHeadPhones_FinalModel_Jan2015
facet normal 0.49999999999999956 0.8660254037844392 0.0
  outer loop
    vertex 239.33672411110453 114.49644021078097 24.898775087280054
    vertex 240.16515123585071 113.86076572038942 19.898775087280065
    vertex 239.33672411110453 114.49644021078097 19.898775087280065
  endloop
endfacet
facet normal 0.7071067811865477 0.7071067811865475 0.0
  outer loop
    vertex 240.16515123585071 113.86076572038942 19.898775087280065
    vertex 239.33672411110453 114.49644021078097 24.898775087280054
    vertex 240.16515123585071 113.86076572038942 24.898775087280054
  endloop
endfacet
facet normal 0.25881904510252024 0.9659258262890684 0.0
  outer loop
    vertex 238.3720002915146 114.89604190079952 24.898775087280054
    vertex 239.33672411110453 114.49644021078097 19.898775087280065
    vertex 238.3720002915146 114.89604190079952 19.898775087280065
  endloop
endfacet
facet normal 0.49999999999999956 0.8660254037844392 0.0
  outer loop
    vertex 239.33672411110453 114.49644021078097 19.898775087280065
    vertex 238.3720002915146 114.89604190079952 24.898775087280054
    vertex 239.33672411110453 114.49644021078097 24.898775087280054
  endloop
endfacet
facet normal 0.1305261922200518 0.9914448613738104 0.0
  outer loop
    vertex 237.33672411110453 115.03233859564324 24.898775087280054
    vertex 238.3720002915146 114.89604190079952 19.898775087280065
    vertex 237.33672411110453 115.03233859564324 19.898775087280065
  endloop
endfacet
facet normal 0.25881904510252024 0.9659258262890684 0.0
  outer loop
    vertex 238.3720002915146 114.89604190079952 19.898775087280065
    vertex 237.33672411110453 115.03233859564324 24.898775087280054
    vertex 238.3720002915146 114.89604190079952 24.898775087280054
  endloop
endfacet
facet normal 0.9659258262890684 0.2588190451025209 0.0
  outer loop
    vertex 241.20042741626082 112.06761477605332 19.898775087280065
    vertex 241.3367241111045 111.03233859564322 24.898775087280054
    vertex 241.3367241111045 111.03233859564322 19.898775087280065
  endloop
endfacet
facet normal 1.0 -1.7822219791293813e-16 0.0
  outer loop
    vertex 241.3367241111045 111.03233859564322 24.898775087280054
    vertex 241.20042741626082 112.06761477605332 19.898775087280065
    vertex 241.20042741626082 112.06761477605332 24.898775087280054
  endloop
endfacet
facet normal -1.0 0.0 0.0
  outer loop
    vertex 233.33672411110453 107.03233859564322 24.898775087280054
    vertex 233.33672411110453 109.33634198763306 23.458772967286418
    vertex 233.33672411110453 107.03233859564322 19.898775087280065
  endloop
endfacet
facet normal -1.0 0.0 0.0
  outer loop
    vertex 233.33672411110453 109.33634198763306 23.458772967286418
    vertex 233.33672411110453 107.03233859564322 24.898775087280054
    vertex 233.33672411110453 109.6684793097815 23.86161063797217
  endloop
endfacet
facet normal -1.0 0.0 0.0
  outer loop
    vertex 233.33672411110453 109.6684793097815 23.86161063797217
    vertex 233.33672411110453 107.03233859564322 24.898775087280054
    vertex 233.33672411110453 110.09356138837737 24.164758483328303
  endloop
endfacet
facet normal -1.0 0.0 0.0
  outer loop
    vertex 233.33672411110453 110.09356138837737 24.164758483328303
    vertex 233.33672411110453 107.03233859564322 24.898775087280054
    vertex 233.33672411110453 110.58261958224571 24.347557478669298
  endloop
endfacet
facet normal -1.0 0.0 0.0
  outer loop
    vertex 233.33672411110453 110.58261958224571 24.347557478669298
    vertex 233.33672411110453 107.03233859564322 24.898775087280054
    vertex 233.33672411110453 115.03233859564324 24.898775087280054
  endloop
endfacet
facet normal -1.0 0.0 0.0
  outer loop
    vertex 233.33672411110453 107.03233859564322 19.898775087280065
    vertex 233.33672411110453 109.33634198763306 23.458772967286418
    vertex 233.33672411110453 109.1197840315536 22.983698192807555
  endloop
endfacet
facet normal -1.0 0.0 0.0
  outer loop
    vertex 233.33672411110453 107.03233859564322 19.898775087280065
    vertex 233.33672411110453 109.1197840315536 22.983698192807555
    vertex 233.33672411110453 109.033563508371 22.468761875318126
  endloop
endfacet
facet normal -1.0 0.0 0.0
  outer loop
    vertex 233.33672411110453 110.58261958224571 24.347557478669298
    vertex 233.33672411110453 115.03233859564324 24.898775087280054
    vertex 233.33672411110453 111.10232538368129 24.39755017455229
  endloop
endfacet
facet normal -1.0 0.0 0.0
  outer loop
    vertex 233.33672411110453 111.10232538368129 24.39755017455229
    vertex 233.33672411110453 115.03233859564324 24.898775087280054
    vertex 233.33672411110453 111.61726170117072 24.31132965136969
  endloop
endfacet
facet normal -1.0 0.0 0.0
  outer loop
    vertex 233.33672411110453 111.61726170117072 24.31132965136969
    vertex 233.33672411110453 115.03233859564324 24.898775087280054
    vertex 233.33672411110453 112.09233647564959 24.094771695290238
  endloop
endfacet
facet normal -1.0 0.0 0.0
  outer loop
    vertex 233.33672411110453 112.09233647564959 24.094771695290238
    vertex 233.33672411110453 115.03233859564324 24.898775087280054
    vertex 233.33672411110453 112.49517414633534 23.7626343731418
  endloop
endfacet
facet normal -1.0 0.0 0.0
  outer loop
    vertex 233.33672411110453 112.49517414633534 23.7626343731418
    vertex 233.33672411110453 115.03233859564324 24.898775087280054
    vertex 233.33672411110453 112.79832199169148 23.33755229454593
  endloop
endfacet
facet normal -1.0 0.0 0.0
  outer loop
    vertex 233.33672411110453 112.79832199169148 23.33755229454593
    vertex 233.33672411110453 115.03233859564324 24.898775087280054
    vertex 233.33672411110453 112.98112098703247 22.848494100677577
  endloop
endfacet
facet normal -1.0 0.0 0.0
  outer loop
    vertex 233.33672411110453 112.98112098703247 22.848494100677577
    vertex 233.33672411110453 115.03233859564324 24.898775087280054
    vertex 233.33672411110453 113.03111368291547 22.328788299241992
  endloop
endfacet
facet normal -1.0 0.0 0.0
  outer loop
    vertex 233.33672411110453 107.03233859564322 19.898775087280065
    vertex 233.33672411110453 110.96235180760517 20.40000000000783
    vertex 233.33672411110453 115.03233859564324 19.898775087280065
  endloop
endfacet
facet normal -1.0 0.0 0.0
  outer loop
    vertex 233.33672411110453 110.96235180760517 20.40000000000783
    vertex 233.33672411110453 107.03233859564322 19.898775087280065
    vertex 233.33672411110453 110.44741549011573 20.48622052319043
  endloop
endfacet
facet normal -1.0 0.0 0.0
  outer loop
    vertex 233.33672411110453 110.44741549011573 20.48622052319043
    vertex 233.33672411110453 107.03233859564322 19.898775087280065
    vertex 233.33672411110453 109.97234071563688 20.702778479269885
  endloop
endfacet
facet normal -1.0 0.0 0.0
  outer loop
    vertex 233.33672411110453 109.97234071563688 20.702778479269885
    vertex 233.33672411110453 107.03233859564322 19.898775087280065
    vertex 233.33672411110453 109.56950304495112 21.034915801418315
  endloop
endfacet
facet normal -1.0 0.0 0.0
  outer loop
    vertex 233.33672411110453 109.56950304495112 21.034915801418315
    vertex 233.33672411110453 107.03233859564322 19.898775087280065
    vertex 233.33672411110453 109.26635519959498 21.459997880014186
  endloop
endfacet
facet normal -1.0 0.0 0.0
  outer loop
    vertex 233.33672411110453 109.26635519959498 21.459997880014186
    vertex 233.33672411110453 107.03233859564322 19.898775087280065
    vertex 233.33672411110453 109.08355620425398 21.94905607388254
  endloop
endfacet
facet normal -1.0 0.0 0.0
  outer loop
    vertex 233.33672411110453 109.08355620425398 21.94905607388254
    vertex 233.33672411110453 107.03233859564322 19.898775087280065
    vertex 233.33672411110453 109.033563508371 22.468761875318126
  endloop
endfacet
facet normal -1.0 0.0 0.0
  outer loop
    vertex 233.33672411110453 115.03233859564324 19.898775087280065
    vertex 233.33672411110453 110.96235180760517 20.40000000000783
    vertex 233.33672411110453 111.48205760904074 20.44999269589082
  endloop
endfacet
facet normal -1.0 0.0 0.0
  outer loop
    vertex 233.33672411110453 115.03233859564324 19.898775087280065
    vertex 233.33672411110453 111.48205760904074 20.44999269589082
    vertex 233.33672411110453 111.9711158029091 20.632791691231816
  endloop
endfacet
facet normal -1.0 0.0 0.0
  outer loop
    vertex 233.33672411110453 115.03233859564324 19.898775087280065
    vertex 233.33672411110453 111.9711158029091 20.632791691231816
    vertex 233.33672411110453 112.39619788150497 20.93593953658795
  endloop
endfacet
facet normal -1.0 0.0 0.0
  outer loop
    vertex 233.33672411110453 115.03233859564324 19.898775087280065
    vertex 233.33672411110453 112.39619788150497 20.93593953658795
    vertex 233.33672411110453 112.72833520365342 21.3387772072737
  endloop
endfacet
facet normal -1.0 0.0 0.0
  outer loop
    vertex 233.33672411110453 115.03233859564324 19.898775087280065
    vertex 233.33672411110453 112.72833520365342 21.3387772072737
    vertex 233.33672411110453 112.94489315973286 21.813851981752563
  endloop
endfacet
facet normal -1.0 0.0 0.0
  outer loop
    vertex 233.33672411110453 115.03233859564324 19.898775087280065
    vertex 233.33672411110453 112.94489315973286 21.813851981752563
    vertex 233.33672411110453 113.03111368291547 22.328788299241992
  endloop
endfacet
facet normal -1.0 0.0 0.0
  outer loop
    vertex 233.33672411110453 115.03233859564324 19.898775087280065
    vertex 233.33672411110453 113.03111368291547 22.328788299241992
    vertex 233.33672411110453 115.03233859564324 24.898775087280054
  endloop
endfacet
facet normal 0.25881904510252024 -0.9659258262890684 0.0
  outer loop
    vertex 238.3720002915146 107.16863529048696 24.898775087280054
    vertex 237.33672411110453 107.03233859564322 19.898775087280065
    vertex 238.3720002915146 107.16863529048696 19.898775087280065
  endloop
endfacet
facet normal 0.1305261922200518 -0.9914448613738104 0.0
  outer loop
    vertex 237.33672411110453 107.03233859564322 19.898775087280065
    vertex 238.3720002915146 107.16863529048696 24.898775087280054
    vertex 237.33672411110453 107.03233859564322 24.898775087280054
  endloop
endfacet
facet normal 0.0 0.0 -1.0
  outer loop
    vertex 237.33672411110453 115.03233859564324 19.898775087280065
    vertex 233.33672411110453 107.03233859564322 19.898775087280065
    vertex 233.33672411110453 115.03233859564324 19.898775087280065
  endloop
endfacet
facet normal 0.0 0.0 -1.0
  outer loop
    vertex 233.33672411110453 107.03233859564322 19.898775087280065
    vertex 237.33672411110453 115.03233859564324 19.898775087280065
    vertex 235.9875084385198 111.79530456398767 19.89877508728007
  endloop
endfacet
facet normal 0.0 0.0 -1.0
  outer loop
    vertex 233.33672411110453 107.03233859564322 19.898775087280065
    vertex 235.9875084385198 111.79530456398767 19.89877508728007
    vertex 235.8360117243483 111.42010441703106 19.89877508728007
  endloop
endfacet
facet normal 0.0 0.0 -1.0
  outer loop
    vertex 233.33672411110453 107.03233859564322 19.898775087280065
    vertex 235.8360117243483 111.42010441703106 19.89877508728007
    vertex 235.7867860792898 111.01847867016016 19.89877508728007
  endloop
endfacet
facet normal 0.0 0.0 -1.0
  outer loop
    vertex 235.9875084385198 111.79530456398767 19.89877508728007
    vertex 237.33672411110453 115.03233859564324 19.898775087280065
    vertex 236.2309519710936 112.1185098410625 19.89877508728007
  endloop
endfacet
facet normal 0.0 0.0 -1.0
  outer loop
    vertex 236.2309519710936 112.1185098410625 19.89877508728007
    vertex 237.33672411110453 115.03233859564324 19.898775087280065
    vertex 236.54975204763429 112.36769434274487 19.89877508728007
  endloop
endfacet
facet normal 0.0 0.0 -1.0
  outer loop
    vertex 236.54975204763429 112.36769434274487 19.89877508728007
    vertex 237.33672411110453 115.03233859564324 19.898775087280065
    vertex 236.92218296976762 112.52587655704194 19.89877508728007
  endloop
endfacet
facet normal 0.0 0.0 -1.0
  outer loop
    vertex 236.92218296976762 112.52587655704194 19.89877508728007
    vertex 237.33672411110453 115.03233859564324 19.898775087280065
    vertex 237.32286418562146 112.58227662745789 19.89877508728007
  endloop
endfacet
facet normal 0.0 0.0 -1.0
  outer loop
    vertex 237.32286418562146 112.58227662745789 19.89877508728007
    vertex 237.33672411110453 115.03233859564324 19.898775087280065
    vertex 237.72448993249236 112.53305098239937 19.89877508728007
  endloop
endfacet
facet normal 0.0 0.0 -1.0
  outer loop
    vertex 237.72448993249236 112.53305098239937 19.89877508728007
    vertex 237.33672411110453 115.03233859564324 19.898775087280065
    vertex 238.3720002915146 114.89604190079952 19.898775087280065
  endloop
endfacet
facet normal 0.0 0.0 -1.0
  outer loop
    vertex 237.72448993249236 112.53305098239937 19.89877508728007
    vertex 238.3720002915146 114.89604190079952 19.898775087280065
    vertex 238.09969007944895 112.38155426822792 19.89877508728007
  endloop
endfacet
facet normal 0.0 0.0 -1.0
  outer loop
    vertex 238.09969007944895 112.38155426822792 19.89877508728007
    vertex 238.3720002915146 114.89604190079952 19.898775087280065
    vertex 238.42289535652378 112.13811073565411 19.89877508728007
  endloop
endfacet
facet normal 0.0 0.0 -1.0
  outer loop
    vertex 238.42289535652378 112.13811073565411 19.89877508728007
    vertex 238.3720002915146 114.89604190079952 19.898775087280065
    vertex 239.33672411110453 114.49644021078097 19.898775087280065
  endloop
endfacet
facet normal 0.0 0.0 -1.0
  outer loop
    vertex 238.42289535652378 112.13811073565411 19.89877508728007
    vertex 239.33672411110453 114.49644021078097 19.898775087280065
    vertex 238.67207985820616 111.81931065911341 19.89877508728007
  endloop
endfacet
facet normal 0.0 0.0 -1.0
  outer loop
    vertex 238.67207985820616 111.81931065911341 19.89877508728007
    vertex 239.33672411110453 114.49644021078097 19.898775087280065
    vertex 238.83026207250325 111.44687973698007 19.89877508728007
  endloop
endfacet
facet normal 0.0 0.0 -1.0
  outer loop
    vertex 238.83026207250325 111.44687973698007 19.89877508728007
    vertex 239.33672411110453 114.49644021078097 19.898775087280065
    vertex 238.8866621429192 111.04619852112624 19.89877508728007
  endloop
endfacet
facet normal 0.0 0.0 -1.0
  outer loop
    vertex 233.33672411110453 107.03233859564322 19.898775087280065
    vertex 235.84318614970576 110.61779745430633 19.89877508728007
    vertex 237.33672411110453 107.03233859564322 19.898775087280065
  endloop
endfacet
facet normal 0.0 0.0 -1.0
  outer loop
    vertex 235.84318614970576 110.61779745430633 19.89877508728007
    vertex 233.33672411110453 107.03233859564322 19.898775087280065
    vertex 235.7867860792898 111.01847867016016 19.89877508728007
  endloop
endfacet
facet normal 0.0 0.0 -1.0
  outer loop
    vertex 237.33672411110453 107.03233859564322 19.898775087280065
    vertex 235.84318614970576 110.61779745430633 19.89877508728007
    vertex 236.00136836400284 110.24536653217298 19.89877508728007
  endloop
endfacet
facet normal 0.0 0.0 -1.0
  outer loop
    vertex 237.33672411110453 107.03233859564322 19.898775087280065
    vertex 236.00136836400284 110.24536653217298 19.89877508728007
    vertex 236.25055286568517 109.92656645563231 19.89877508728007
  endloop
endfacet
facet normal 0.0 0.0 -1.0
  outer loop
    vertex 237.33672411110453 107.03233859564322 19.898775087280065
    vertex 236.25055286568517 109.92656645563231 19.89877508728007
    vertex 236.57375814276 109.68312292305852 19.89877508728007
  endloop
endfacet
facet normal 0.0 0.0 -1.0
  outer loop
    vertex 237.33672411110453 107.03233859564322 19.898775087280065
    vertex 236.57375814276 109.68312292305852 19.89877508728007
    vertex 236.94895828971664 109.53162620888703 19.89877508728007
  endloop
endfacet
facet normal 0.0 0.0 -1.0
  outer loop
    vertex 237.33672411110453 107.03233859564322 19.898775087280065
    vertex 236.94895828971664 109.53162620888703 19.89877508728007
    vertex 237.35058403658755 109.4824005638285 19.89877508728007
  endloop
endfacet
facet normal 0.0 0.0 -1.0
  outer loop
    vertex 237.33672411110453 107.03233859564322 19.898775087280065
    vertex 237.35058403658755 109.4824005638285 19.89877508728007
    vertex 238.3720002915146 107.16863529048696 19.898775087280065
  endloop
endfacet
facet normal 0.0 0.0 -1.0
  outer loop
    vertex 238.3720002915146 107.16863529048696 19.898775087280065
    vertex 237.35058403658755 109.4824005638285 19.89877508728007
    vertex 237.75126525244136 109.53880063424447 19.89877508728007
  endloop
endfacet
facet normal 0.0 0.0 -1.0
  outer loop
    vertex 238.3720002915146 107.16863529048696 19.898775087280065
    vertex 237.75126525244136 109.53880063424447 19.89877508728007
    vertex 238.12369617457472 109.69698284854155 19.89877508728007
  endloop
endfacet
facet normal 0.0 0.0 -1.0
  outer loop
    vertex 238.3720002915146 107.16863529048696 19.898775087280065
    vertex 238.12369617457472 109.69698284854155 19.89877508728007
    vertex 238.44249625111541 109.9461673502239 19.89877508728007
  endloop
endfacet
facet normal 0.0 0.0 -1.0
  outer loop
    vertex 238.3720002915146 107.16863529048696 19.898775087280065
    vertex 238.44249625111541 109.9461673502239 19.89877508728007
    vertex 239.33672411110453 107.56823698050546 19.898775087280065
  endloop
endfacet
facet normal 0.0 0.0 -1.0
  outer loop
    vertex 239.33672411110453 107.56823698050546 19.898775087280065
    vertex 238.44249625111541 109.9461673502239 19.89877508728007
    vertex 238.6859397836892 110.26937262729872 19.89877508728007
  endloop
endfacet
facet normal 0.0 0.0 -1.0
  outer loop
    vertex 239.33672411110453 107.56823698050546 19.898775087280065
    vertex 238.6859397836892 110.26937262729872 19.89877508728007
    vertex 238.83743649786064 110.64457277425537 19.89877508728007
  endloop
endfacet
facet normal 0.0 0.0 -1.0
  outer loop
    vertex 239.33672411110453 107.56823698050546 19.898775087280065
    vertex 238.83743649786064 110.64457277425537 19.89877508728007
    vertex 238.8866621429192 111.04619852112624 19.89877508728007
  endloop
endfacet
facet normal 0.0 0.0 -1.0
  outer loop
    vertex 239.33672411110453 107.56823698050546 19.898775087280065
    vertex 238.8866621429192 111.04619852112624 19.89877508728007
    vertex 239.33672411110453 114.49644021078097 19.898775087280065
  endloop
endfacet
facet normal 0.0 0.0 -1.0
  outer loop
    vertex 239.33672411110453 107.56823698050546 19.898775087280065
    vertex 239.33672411110453 114.49644021078097 19.898775087280065
    vertex 240.16515123585071 113.86076572038942 19.898775087280065
  endloop
endfacet
facet normal 0.0 0.0 -1.0
  outer loop
    vertex 239.33672411110453 107.56823698050546 19.898775087280065
    vertex 240.16515123585071 113.86076572038942 19.898775087280065
    vertex 240.16515123585071 108.20391147089705 19.898775087280065
  endloop
endfacet
facet normal 0.0 0.0 -1.0
  outer loop
    vertex 240.16515123585071 108.20391147089705 19.898775087280065
    vertex 240.16515123585071 113.86076572038942 19.898775087280065
    vertex 240.8008257262423 113.03233859564324 19.898775087280065
  endloop
endfacet
facet normal 0.0 0.0 -1.0
  outer loop
    vertex 240.16515123585071 108.20391147089705 19.898775087280065
    vertex 240.8008257262423 113.03233859564324 19.898775087280065
    vertex 240.8008257262423 109.03233859564322 19.898775087280065
  endloop
endfacet
facet normal 0.0 0.0 -1.0
  outer loop
    vertex 240.8008257262423 109.03233859564322 19.898775087280065
    vertex 240.8008257262423 113.03233859564324 19.898775087280065
    vertex 241.20042741626082 112.06761477605332 19.898775087280065
  endloop
endfacet
facet normal 0.0 0.0 -1.0
  outer loop
    vertex 240.8008257262423 109.03233859564322 19.898775087280065
    vertex 241.20042741626082 112.06761477605332 19.898775087280065
    vertex 241.20042741626082 109.99706241523316 19.898775087280065
  endloop
endfacet
facet normal 0.0 0.0 -1.0
  outer loop
    vertex 241.20042741626082 109.99706241523316 19.898775087280065
    vertex 241.20042741626082 112.06761477605332 19.898775087280065
    vertex 241.3367241111045 111.03233859564322 19.898775087280065
  endloop
endfacet
facet normal 0.49999999999999956 -0.8660254037844392 0.0
  outer loop
    vertex 239.33672411110453 107.56823698050546 24.898775087280054
    vertex 238.3720002915146 107.16863529048696 19.898775087280065
    vertex 239.33672411110453 107.56823698050546 19.898775087280065
  endloop
endfacet
facet normal 0.25881904510252024 -0.9659258262890684 0.0
  outer loop
    vertex 238.3720002915146 107.16863529048696 19.898775087280065
    vertex 239.33672411110453 107.56823698050546 24.898775087280054
    vertex 238.3720002915146 107.16863529048696 24.898775087280054
  endloop
endfacet
facet normal 0.7071067811865479 -0.7071067811865471 0.0
  outer loop
    vertex 240.16515123585071 108.20391147089705 24.898775087280054
    vertex 239.33672411110453 107.56823698050546 19.898775087280065
    vertex 240.16515123585071 108.20391147089705 19.898775087280065
  endloop
endfacet
facet normal 0.49999999999999956 -0.8660254037844392 0.0
  outer loop
    vertex 239.33672411110453 107.56823698050546 19.898775087280065
    vertex 240.16515123585071 108.20391147089705 24.898775087280054
    vertex 239.33672411110453 107.56823698050546 24.898775087280054
  endloop
endfacet
facet normal 0.8660254037844392 -0.49999999999999933 0.0
  outer loop
    vertex 240.8008257262423 109.03233859564322 19.898775087280065
    vertex 240.16515123585071 108.20391147089705 24.898775087280054
    vertex 240.16515123585071 108.20391147089705 19.898775087280065
  endloop
endfacet
facet normal 0.7071067811865479 -0.7071067811865471 0.0
  outer loop
    vertex 240.16515123585071 108.20391147089705 24.898775087280054
    vertex 240.8008257262423 109.03233859564322 19.898775087280065
    vertex 240.8008257262423 109.03233859564322 24.898775087280054
  endloop
endfacet
facet normal 0.9659258262890684 -0.2588190451025204 0.0
  outer loop
    vertex 241.20042741626082 109.99706241523316 19.898775087280065
    vertex 240.8008257262423 109.03233859564322 24.898775087280054
    vertex 240.8008257262423 109.03233859564322 19.898775087280065
  endloop
endfacet
facet normal 0.8660254037844392 -0.49999999999999933 0.0
  outer loop
    vertex 240.8008257262423 109.03233859564322 24.898775087280054
    vertex 241.20042741626082 109.99706241523316 19.898775087280065
    vertex 241.20042741626082 109.99706241523316 24.898775087280054
  endloop
endfacet
facet normal 1.0 -1.7822219791293813e-16 0.0
  outer loop
    vertex 241.3367241111045 111.03233859564322 19.898775087280065
    vertex 241.20042741626082 109.99706241523316 24.898775087280054
    vertex 241.20042741626082 109.99706241523316 19.898775087280065
  endloop
endfacet
facet normal 0.9659258262890684 -0.2588190451025204 0.0
  outer loop
    vertex 241.20042741626082 109.99706241523316 24.898775087280054
    vertex 241.3367241111045 111.03233859564322 19.898775087280065
    vertex 241.3367241111045 111.03233859564322 24.898775087280054
  endloop
endfacet
facet normal 0.8660254037844387 0.5000000000000001 0.0
  outer loop
    vertex 240.8008257262423 113.03233859564324 19.898775087280065
    vertex 241.20042741626082 112.06761477605332 24.898775087280054
    vertex 241.20042741626082 112.06761477605332 19.898775087280065
  endloop
endfacet
facet normal 0.9659258262890684 0.2588190451025209 0.0
  outer loop
    vertex 241.20042741626082 112.06761477605332 24.898775087280054
    vertex 240.8008257262423 113.03233859564324 19.898775087280065
    vertex 240.8008257262423 113.03233859564324 24.898775087280054
  endloop
endfacet
facet normal 0.7071067811865477 0.7071067811865475 0.0
  outer loop
    vertex 240.16515123585071 113.86076572038942 19.898775087280065
    vertex 240.8008257262423 113.03233859564324 24.898775087280054
    vertex 240.8008257262423 113.03233859564324 19.898775087280065
  endloop
endfacet
facet normal 0.8660254037844387 0.5000000000000001 0.0
  outer loop
    vertex 240.8008257262423 113.03233859564324 24.898775087280054
    vertex 240.16515123585071 113.86076572038942 19.898775087280065
    vertex 240.16515123585071 113.86076572038942 24.898775087280054
  endloop
endfacet
facet normal -1.0 6.212664814604344e-32 -1.6296220687134454e-47
  outer loop
    vertex 202.83672411110453 109.1197840315536 22.983698192807555
    vertex 202.83672411110453 109.08355620425398 21.94905607388254
    vertex 202.83672411110453 109.033563508371 22.468761875318126
  endloop
endfacet
facet normal -1.0 6.212664814604344e-32 -1.6296220687134454e-47
  outer loop
    vertex 202.83672411110453 109.08355620425398 21.94905607388254
    vertex 202.83672411110453 109.1197840315536 22.983698192807555
    vertex 202.83672411110453 109.26635519959498 21.459997880014186
  endloop
endfacet
facet normal -1.0 6.212664814604344e-32 -1.6296220687134454e-47
  outer loop
    vertex 202.83672411110453 109.26635519959498 21.459997880014186
    vertex 202.83672411110453 109.1197840315536 22.983698192807555
    vertex 202.83672411110453 109.33634198763306 23.458772967286418
  endloop
endfacet
facet normal -1.0 6.212664814604344e-32 -1.6296220687134454e-47
  outer loop
    vertex 202.83672411110453 109.26635519959498 21.459997880014186
    vertex 202.83672411110453 109.33634198763306 23.458772967286418
    vertex 202.83672411110453 109.56950304495112 21.034915801418315
  endloop
endfacet
facet normal -1.0 6.212664814604344e-32 -1.6296220687134454e-47
  outer loop
    vertex 202.83672411110453 109.56950304495112 21.034915801418315
    vertex 202.83672411110453 109.33634198763306 23.458772967286418
    vertex 202.83672411110453 109.6684793097815 23.86161063797217
  endloop
endfacet
facet normal -1.0 6.212664814604344e-32 -1.6296220687134454e-47
  outer loop
    vertex 202.83672411110453 109.56950304495112 21.034915801418315
    vertex 202.83672411110453 109.6684793097815 23.86161063797217
    vertex 202.83672411110453 109.97234071563688 20.702778479269885
  endloop
endfacet
facet normal -1.0 6.212664814604344e-32 -1.6296220687134454e-47
  outer loop
    vertex 202.83672411110453 109.97234071563688 20.702778479269885
    vertex 202.83672411110453 109.6684793097815 23.86161063797217
    vertex 202.83672411110453 110.09356138837737 24.164758483328303
  endloop
endfacet
facet normal -1.0 6.212664814604344e-32 -1.6296220687134454e-47
  outer loop
    vertex 202.83672411110453 109.97234071563688 20.702778479269885
    vertex 202.83672411110453 110.09356138837737 24.164758483328303
    vertex 202.83672411110453 110.44741549011573 20.48622052319043
  endloop
endfacet
facet normal -1.0 6.212664814604344e-32 -1.6296220687134454e-47
  outer loop
    vertex 202.83672411110453 110.44741549011573 20.48622052319043
    vertex 202.83672411110453 110.09356138837737 24.164758483328303
    vertex 202.83672411110453 110.58261958224571 24.347557478669298
  endloop
endfacet
facet normal -1.0 6.212664814604344e-32 -1.6296220687134454e-47
  outer loop
    vertex 202.83672411110453 110.44741549011573 20.48622052319043
    vertex 202.83672411110453 110.58261958224571 24.347557478669298
    vertex 202.83672411110453 110.96235180760517 20.40000000000783
  endloop
endfacet
facet normal -1.0 6.212664814604344e-32 -1.6296220687134454e-47
  outer loop
    vertex 202.83672411110453 110.96235180760517 20.40000000000783
    vertex 202.83672411110453 110.58261958224571 24.347557478669298
    vertex 202.83672411110453 111.10232538368129 24.39755017455229
  endloop
endfacet
facet normal -1.0 6.212664814604344e-32 -1.6296220687134454e-47
  outer loop
    vertex 202.83672411110453 110.96235180760517 20.40000000000783
    vertex 202.83672411110453 111.10232538368129 24.39755017455229
    vertex 202.83672411110453 111.48205760904074 20.44999269589082
  endloop
endfacet
facet normal -1.0 6.212664814604344e-32 -1.6296220687134454e-47
  outer loop
    vertex 202.83672411110453 111.48205760904074 20.44999269589082
    vertex 202.83672411110453 111.10232538368129 24.39755017455229
    vertex 202.83672411110453 111.61726170117072 24.31132965136969
  endloop
endfacet
facet normal -1.0 6.212664814604344e-32 -1.6296220687134454e-47
  outer loop
    vertex 202.83672411110453 111.48205760904074 20.44999269589082
    vertex 202.83672411110453 111.61726170117072 24.31132965136969
    vertex 202.83672411110453 111.9711158029091 20.632791691231816
  endloop
endfacet
facet normal -1.0 6.212664814604344e-32 -1.6296220687134454e-47
  outer loop
    vertex 202.83672411110453 111.9711158029091 20.632791691231816
    vertex 202.83672411110453 111.61726170117072 24.31132965136969
    vertex 202.83672411110453 112.09233647564959 24.094771695290238
  endloop
endfacet
facet normal -1.0 6.212664814604344e-32 -1.6296220687134454e-47
  outer loop
    vertex 202.83672411110453 111.9711158029091 20.632791691231816
    vertex 202.83672411110453 112.09233647564959 24.094771695290238
    vertex 202.83672411110453 112.39619788150497 20.93593953658795
  endloop
endfacet
facet normal -1.0 6.212664814604344e-32 -1.6296220687134454e-47
  outer loop
    vertex 202.83672411110453 112.39619788150497 20.93593953658795
    vertex 202.83672411110453 112.09233647564959 24.094771695290238
    vertex 202.83672411110453 112.49517414633534 23.7626343731418
  endloop
endfacet
facet normal -1.0 6.212664814604344e-32 -1.6296220687134454e-47
  outer loop
    vertex 202.83672411110453 112.39619788150497 20.93593953658795
    vertex 202.83672411110453 112.49517414633534 23.7626343731418
    vertex 202.83672411110453 112.72833520365342 21.3387772072737
  endloop
endfacet
facet normal -1.0 6.212664814604344e-32 -1.6296220687134454e-47
  outer loop
    vertex 202.83672411110453 112.72833520365342 21.3387772072737
    vertex 202.83672411110453 112.49517414633534 23.7626343731418
    vertex 202.83672411110453 112.79832199169148 23.33755229454593
  endloop
endfacet
facet normal -1.0 6.212664814604344e-32 -1.6296220687134454e-47
  outer loop
    vertex 202.83672411110453 112.72833520365342 21.3387772072737
    vertex 202.83672411110453 112.79832199169148 23.33755229454593
    vertex 202.83672411110453 112.94489315973286 21.813851981752563
  endloop
endfacet
facet normal -1.0 6.212664814604344e-32 -1.6296220687134454e-47
  outer loop
    vertex 202.83672411110453 112.94489315973286 21.813851981752563
    vertex 202.83672411110453 112.79832199169148 23.33755229454593
    vertex 202.83672411110453 112.98112098703247 22.848494100677577
  endloop
endfacet
facet normal -1.0 6.212664814604344e-32 -1.6296220687134454e-47
  outer loop
    vertex 202.83672411110453 112.94489315973286 21.813851981752563
    vertex 202.83672411110453 112.98112098703247 22.848494100677577
    vertex 202.83672411110453 113.03111368291547 22.328788299241992
  endloop
endfacet
facet normal -5.941030223165293e-32 -0.9562772820448143 0.2924615527637486
  outer loop
    vertex 233.33672411110453 109.1197840315536 22.983698192807555
    vertex 202.83672411110453 109.033563508371 22.468761875318126
    vertex 233.33672411110453 109.033563508371 22.468761875318126
  endloop
endfacet
facet normal -6.208859828501959e-32 -0.9993875436361156 0.03499339401903515
  outer loop
    vertex 202.83672411110453 109.033563508371 22.468761875318126
    vertex 233.33672411110453 109.1197840315536 22.983698192807555
    vertex 202.83672411110453 109.1197840315536 22.983698192807555
  endloop
endfacet
facet normal -5.268329226136566e-32 -0.8479983040050876 0.5299989400031806
  outer loop
    vertex 233.33672411110453 109.33634198763306 23.458772967286418
    vertex 202.83672411110453 109.1197840315536 22.983698192807555
    vertex 233.33672411110453 109.1197840315536 22.983698192807555
  endloop
endfacet
facet normal -5.941030223165293e-32 -0.9562772820448143 0.2924615527637486
  outer loop
    vertex 202.83672411110453 109.1197840315536 22.983698192807555
    vertex 233.33672411110453 109.33634198763306 23.458772967286418
    vertex 202.83672411110453 109.33634198763306 23.458772967286418
  endloop
endfacet
facet normal -4.236600298672327e-32 -0.6819296429308711 0.7314177753460568
  outer loop
    vertex 233.33672411110453 109.6684793097815 23.86161063797217
    vertex 202.83672411110453 109.33634198763306 23.458772967286418
    vertex 233.33672411110453 109.33634198763306 23.458772967286418
  endloop
endfacet
facet normal -5.268329226136566e-32 -0.8479983040050876 0.5299989400031806
  outer loop
    vertex 202.83672411110453 109.33634198763306 23.458772967286418
    vertex 233.33672411110453 109.6684793097815 23.86161063797217
    vertex 202.83672411110453 109.6684793097815 23.86161063797217
  endloop
endfacet
facet normal -4.236600298672327e-32 -0.6819296429308711 0.7314177753460568
  outer loop
    vertex 233.33672411110453 109.6684793097815 23.86161063797217
    vertex 202.83672411110453 110.09356138837737 24.164758483328303
    vertex 202.83672411110453 109.6684793097815 23.86161063797217
  endloop
endfacet
facet normal -2.916154062166602e-32 -0.4693886036329351 0.8829916980241228
  outer loop
    vertex 202.83672411110453 110.09356138837737 24.164758483328303
    vertex 233.33672411110453 109.6684793097815 23.86161063797217
    vertex 233.33672411110453 110.09356138837737 24.164758483328303
  endloop
endfacet
facet normal -2.916154062166602e-32 -0.4693886036329351 0.8829916980241228
  outer loop
    vertex 233.33672411110453 110.09356138837737 24.164758483328303
    vertex 202.83672411110453 110.58261958224571 24.347557478669298
    vertex 202.83672411110453 110.09356138837737 24.164758483328303
  endloop
endfacet
facet normal -1.3969767454966812e-32 -0.22485950669876056 0.9743911956946194
  outer loop
    vertex 202.83672411110453 110.58261958224571 24.347557478669298
    vertex 233.33672411110453 110.09356138837737 24.164758483328303
    vertex 233.33672411110453 110.58261958224571 24.347557478669298
  endloop
endfacet
facet normal -1.3969767454966812e-32 -0.22485950669876056 0.9743911956946194
  outer loop
    vertex 233.33672411110453 110.58261958224571 24.347557478669298
    vertex 202.83672411110453 111.10232538368129 24.39755017455229
    vertex 202.83672411110453 110.58261958224571 24.347557478669298
  endloop
endfacet
facet normal 2.1740222776563172e-33 0.03499339401903317 0.9993875436361155
  outer loop
    vertex 202.83672411110453 111.10232538368129 24.39755017455229
    vertex 233.33672411110453 110.58261958224571 24.347557478669298
    vertex 233.33672411110453 111.10232538368129 24.39755017455229
  endloop
endfacet
facet normal 2.1740222776563172e-33 0.03499339401903317 0.9993875436361155
  outer loop
    vertex 233.33672411110453 111.10232538368129 24.39755017455229
    vertex 202.83672411110453 111.61726170117072 24.31132965136969
    vertex 202.83672411110453 111.10232538368129 24.39755017455229
  endloop
endfacet
facet normal 1.8169655984798936e-32 0.292461552763749 0.9562772820448142
  outer loop
    vertex 202.83672411110453 111.61726170117072 24.31132965136969
    vertex 233.33672411110453 111.10232538368129 24.39755017455229
    vertex 233.33672411110453 111.61726170117072 24.31132965136969
  endloop
endfacet
facet normal 1.8169655984798936e-32 0.292461552763749 0.9562772820448142
  outer loop
    vertex 233.33672411110453 111.61726170117072 24.31132965136969
    vertex 202.83672411110453 112.09233647564959 24.094771695290238
    vertex 202.83672411110453 111.61726170117072 24.31132965136969
  endloop
endfacet
facet normal 3.292705766335357e-32 0.5299989400031806 0.8479983040050876
  outer loop
    vertex 202.83672411110453 112.09233647564959 24.094771695290238
    vertex 233.33672411110453 111.61726170117072 24.31132965136969
    vertex 233.33672411110453 112.09233647564959 24.094771695290238
  endloop
endfacet
facet normal 3.292705766335357e-32 0.5299989400031806 0.8479983040050876
  outer loop
    vertex 233.33672411110453 112.09233647564959 24.094771695290238
    vertex 202.83672411110453 112.49517414633534 23.7626343731418
    vertex 202.83672411110453 112.09233647564959 24.094771695290238
  endloop
endfacet
facet normal 4.5440534776686296e-32 0.7314177753460568 0.6819296429308711
  outer loop
    vertex 202.83672411110453 112.49517414633534 23.7626343731418
    vertex 233.33672411110453 112.09233647564959 24.094771695290238
    vertex 233.33672411110453 112.49517414633534 23.7626343731418
  endloop
endfacet
facet normal 4.5440534776686296e-32 0.7314177753460568 0.6819296429308711
  outer loop
    vertex 202.83672411110453 112.49517414633534 23.7626343731418
    vertex 233.33672411110453 112.79832199169148 23.33755229454593
    vertex 202.83672411110453 112.79832199169148 23.33755229454593
  endloop
endfacet
facet normal 5.485731453902204e-32 0.8829916980241215 0.46938860363293733
  outer loop
    vertex 233.33672411110453 112.79832199169148 23.33755229454593
    vertex 202.83672411110453 112.49517414633534 23.7626343731418
    vertex 233.33672411110453 112.49517414633534 23.7626343731418
  endloop
endfacet
facet normal 5.485731453902204e-32 0.8829916980241215 0.46938860363293733
  outer loop
    vertex 202.83672411110453 112.79832199169148 23.33755229454593
    vertex 233.33672411110453 112.98112098703247 22.848494100677577
    vertex 202.83672411110453 112.98112098703247 22.848494100677577
  endloop
endfacet
facet normal 6.053565897152218e-32 0.9743911956946195 0.2248595066987607
  outer loop
    vertex 233.33672411110453 112.98112098703247 22.848494100677577
    vertex 202.83672411110453 112.79832199169148 23.33755229454593
    vertex 233.33672411110453 112.79832199169148 23.33755229454593
  endloop
endfacet
facet normal 6.053565897152218e-32 0.9743911956946195 0.2248595066987607
  outer loop
    vertex 202.83672411110453 112.98112098703247 22.848494100677577
    vertex 233.33672411110453 113.03111368291547 22.328788299241992
    vertex 202.83672411110453 113.03111368291547 22.328788299241992
  endloop
endfacet
facet normal 6.208859828501959e-32 0.9993875436361156 -0.03499339401903515
  outer loop
    vertex 233.33672411110453 113.03111368291547 22.328788299241992
    vertex 202.83672411110453 112.98112098703247 22.848494100677577
    vertex 233.33672411110453 112.98112098703247 22.848494100677577
  endloop
endfacet
facet normal 6.208859828501959e-32 0.9993875436361156 -0.03499339401903515
  outer loop
    vertex 202.83672411110453 113.03111368291547 22.328788299241992
    vertex 233.33672411110453 112.94489315973286 21.813851981752563
    vertex 202.83672411110453 112.94489315973286 21.813851981752563
  endloop
endfacet
facet normal 5.941030223165293e-32 0.9562772820448143 -0.2924615527637486
  outer loop
    vertex 233.33672411110453 112.94489315973286 21.813851981752563
    vertex 202.83672411110453 113.03111368291547 22.328788299241992
    vertex 233.33672411110453 113.03111368291547 22.328788299241992
  endloop
endfacet
facet normal 5.941030223165293e-32 0.9562772820448143 -0.2924615527637486
  outer loop
    vertex 202.83672411110453 112.94489315973286 21.813851981752563
    vertex 233.33672411110453 112.72833520365342 21.3387772072737
    vertex 202.83672411110453 112.72833520365342 21.3387772072737
  endloop
endfacet
facet normal 5.268329226136574e-32 0.8479983040050887 -0.5299989400031789
  outer loop
    vertex 233.33672411110453 112.72833520365342 21.3387772072737
    vertex 202.83672411110453 112.94489315973286 21.813851981752563
    vertex 233.33672411110453 112.94489315973286 21.813851981752563
  endloop
endfacet
facet normal 5.268329226136574e-32 0.8479983040050887 -0.5299989400031789
  outer loop
    vertex 202.83672411110453 112.72833520365342 21.3387772072737
    vertex 233.33672411110453 112.39619788150497 20.93593953658795
    vertex 202.83672411110453 112.39619788150497 20.93593953658795
  endloop
endfacet
facet normal 4.23660029867233e-32 0.6819296429308714 -0.7314177753460563
  outer loop
    vertex 233.33672411110453 112.39619788150497 20.93593953658795
    vertex 202.83672411110453 112.72833520365342 21.3387772072737
    vertex 233.33672411110453 112.72833520365342 21.3387772072737
  endloop
endfacet
facet normal 4.23660029867233e-32 0.6819296429308714 -0.7314177753460563
  outer loop
    vertex 233.33672411110453 112.39619788150497 20.93593953658795
    vertex 202.83672411110453 111.9711158029091 20.632791691231816
    vertex 202.83672411110453 112.39619788150497 20.93593953658795
  endloop
endfacet
facet normal 2.916154062166594e-32 0.4693886036329338 -0.8829916980241235
  outer loop
    vertex 202.83672411110453 111.9711158029091 20.632791691231816
    vertex 233.33672411110453 112.39619788150497 20.93593953658795
    vertex 233.33672411110453 111.9711158029091 20.632791691231816
  endloop
endfacet
facet normal 2.916154062166594e-32 0.4693886036329338 -0.8829916980241235
  outer loop
    vertex 233.33672411110453 111.9711158029091 20.632791691231816
    vertex 202.83672411110453 111.48205760904074 20.44999269589082
    vertex 202.83672411110453 111.9711158029091 20.632791691231816
  endloop
endfacet
facet normal 1.3969767454966828e-32 0.22485950669876087 -0.9743911956946194
  outer loop
    vertex 202.83672411110453 111.48205760904074 20.44999269589082
    vertex 233.33672411110453 111.9711158029091 20.632791691231816
    vertex 233.33672411110453 111.48205760904074 20.44999269589082
  endloop
endfacet
facet normal 1.3969767454966828e-32 0.22485950669876087 -0.9743911956946194
  outer loop
    vertex 233.33672411110453 111.48205760904074 20.44999269589082
    vertex 202.83672411110453 110.96235180760517 20.40000000000783
    vertex 202.83672411110453 111.48205760904074 20.44999269589082
  endloop
endfacet
facet normal -2.174022277656274e-33 -0.03499339401903246 -0.9993875436361157
  outer loop
    vertex 202.83672411110453 110.96235180760517 20.40000000000783
    vertex 233.33672411110453 111.48205760904074 20.44999269589082
    vertex 233.33672411110453 110.96235180760517 20.40000000000783
  endloop
endfacet
facet normal -2.174022277656274e-33 -0.03499339401903246 -0.9993875436361157
  outer loop
    vertex 233.33672411110453 110.96235180760517 20.40000000000783
    vertex 202.83672411110453 110.44741549011573 20.48622052319043
    vertex 202.83672411110453 110.96235180760517 20.40000000000783
  endloop
endfacet
facet normal -1.816965598479891e-32 -0.2924615527637486 -0.9562772820448143
  outer loop
    vertex 202.83672411110453 110.44741549011573 20.48622052319043
    vertex 233.33672411110453 110.96235180760517 20.40000000000783
    vertex 233.33672411110453 110.44741549011573 20.48622052319043
  endloop
endfacet
facet normal -1.816965598479891e-32 -0.2924615527637486 -0.9562772820448143
  outer loop
    vertex 233.33672411110453 110.44741549011573 20.48622052319043
    vertex 202.83672411110453 109.97234071563688 20.702778479269885
    vertex 202.83672411110453 110.44741549011573 20.48622052319043
  endloop
endfacet
facet normal -3.292705766335346e-32 -0.5299989400031789 -0.8479983040050887
  outer loop
    vertex 202.83672411110453 109.97234071563688 20.702778479269885
    vertex 233.33672411110453 110.44741549011573 20.48622052319043
    vertex 233.33672411110453 109.97234071563688 20.702778479269885
  endloop
endfacet
facet normal -3.292705766335346e-32 -0.5299989400031789 -0.8479983040050887
  outer loop
    vertex 233.33672411110453 109.97234071563688 20.702778479269885
    vertex 202.83672411110453 109.56950304495112 21.034915801418315
    vertex 202.83672411110453 109.97234071563688 20.702778479269885
  endloop
endfacet
facet normal -4.5440534776686213e-32 -0.7314177753460553 -0.6819296429308725
  outer loop
    vertex 202.83672411110453 109.56950304495112 21.034915801418315
    vertex 233.33672411110453 109.97234071563688 20.702778479269885
    vertex 233.33672411110453 109.56950304495112 21.034915801418315
  endloop
endfacet
facet normal -5.485731453902206e-32 -0.882991698024122 -0.4693886036329364
  outer loop
    vertex 233.33672411110453 109.26635519959498 21.459997880014186
    vertex 202.83672411110453 109.56950304495112 21.034915801418315
    vertex 233.33672411110453 109.56950304495112 21.034915801418315
  endloop
endfacet
facet normal -4.5440534776686213e-32 -0.7314177753460553 -0.6819296429308725
  outer loop
    vertex 202.83672411110453 109.56950304495112 21.034915801418315
    vertex 233.33672411110453 109.26635519959498 21.459997880014186
    vertex 202.83672411110453 109.26635519959498 21.459997880014186
  endloop
endfacet
facet normal -6.053565897152218e-32 -0.9743911956946196 -0.22485950669875973
  outer loop
    vertex 233.33672411110453 109.08355620425398 21.94905607388254
    vertex 202.83672411110453 109.26635519959498 21.459997880014186
    vertex 233.33672411110453 109.26635519959498 21.459997880014186
  endloop
endfacet
facet normal -5.485731453902206e-32 -0.882991698024122 -0.4693886036329364
  outer loop
    vertex 202.83672411110453 109.26635519959498 21.459997880014186
    vertex 233.33672411110453 109.08355620425398 21.94905607388254
    vertex 202.83672411110453 109.08355620425398 21.94905607388254
  endloop
endfacet
facet normal -6.208859828501959e-32 -0.9993875436361156 0.03499339401903515
  outer loop
    vertex 233.33672411110453 109.033563508371 22.468761875318126
    vertex 202.83672411110453 109.08355620425398 21.94905607388254
    vertex 233.33672411110453 109.08355620425398 21.94905607388254
  endloop
endfacet
facet normal -6.053565897152218e-32 -0.9743911956946196 -0.22485950669875973
  outer loop
    vertex 202.83672411110453 109.08355620425398 21.94905607388254
    vertex 233.33672411110453 109.033563508371 22.468761875318126
    vertex 202.83672411110453 109.033563508371 22.468761875318126
  endloop
endfacet
facet normal 0.0 0.0 1.0
  outer loop
    vertex 237.33672411110453 107.03233859564322 24.898775087280054
    vertex 233.33672411110453 115.03233859564324 24.898775087280054
    vertex 233.33672411110453 107.03233859564322 24.898775087280054
  endloop
endfacet
facet normal 0.0 0.0 1.0
  outer loop
    vertex 233.33672411110453 115.03233859564324 24.898775087280054
    vertex 237.33672411110453 107.03233859564322 24.898775087280054
    vertex 235.84318614970576 110.61779745430633 24.89877508728005
  endloop
endfacet
facet normal 0.0 0.0 1.0
  outer loop
    vertex 233.33672411110453 115.03233859564324 24.898775087280054
    vertex 235.84318614970576 110.61779745430633 24.89877508728005
    vertex 235.7867860792898 111.01847867016016 24.89877508728005
  endloop
endfacet
facet normal 0.0 0.0 1.0
  outer loop
    vertex 235.84318614970576 110.61779745430633 24.89877508728005
    vertex 237.33672411110453 107.03233859564322 24.898775087280054
    vertex 236.00136836400284 110.24536653217298 24.89877508728005
  endloop
endfacet
facet normal 0.0 0.0 1.0
  outer loop
    vertex 236.00136836400284 110.24536653217298 24.89877508728005
    vertex 237.33672411110453 107.03233859564322 24.898775087280054
    vertex 236.25055286568517 109.92656645563231 24.89877508728005
  endloop
endfacet
facet normal 0.0 0.0 1.0
  outer loop
    vertex 236.25055286568517 109.92656645563231 24.89877508728005
    vertex 237.33672411110453 107.03233859564322 24.898775087280054
    vertex 236.57375814276 109.68312292305852 24.89877508728005
  endloop
endfacet
facet normal 0.0 0.0 1.0
  outer loop
    vertex 236.57375814276 109.68312292305852 24.89877508728005
    vertex 237.33672411110453 107.03233859564322 24.898775087280054
    vertex 236.94895828971664 109.53162620888703 24.89877508728005
  endloop
endfacet
facet normal 0.0 0.0 1.0
  outer loop
    vertex 236.94895828971664 109.53162620888703 24.89877508728005
    vertex 237.33672411110453 107.03233859564322 24.898775087280054
    vertex 237.35058403658755 109.4824005638285 24.89877508728005
  endloop
endfacet
facet normal 0.0 0.0 1.0
  outer loop
    vertex 237.35058403658755 109.4824005638285 24.89877508728005
    vertex 237.33672411110453 107.03233859564322 24.898775087280054
    vertex 238.3720002915146 107.16863529048696 24.898775087280054
  endloop
endfacet
facet normal 0.0 0.0 1.0
  outer loop
    vertex 237.35058403658755 109.4824005638285 24.89877508728005
    vertex 238.3720002915146 107.16863529048696 24.898775087280054
    vertex 237.75126525244136 109.53880063424447 24.89877508728005
  endloop
endfacet
facet normal 0.0 0.0 1.0
  outer loop
    vertex 237.75126525244136 109.53880063424447 24.89877508728005
    vertex 238.3720002915146 107.16863529048696 24.898775087280054
    vertex 238.12369617457472 109.69698284854155 24.89877508728005
  endloop
endfacet
facet normal 0.0 0.0 1.0
  outer loop
    vertex 238.12369617457472 109.69698284854155 24.89877508728005
    vertex 238.3720002915146 107.16863529048696 24.898775087280054
    vertex 238.44249625111541 109.9461673502239 24.89877508728005
  endloop
endfacet
facet normal 0.0 0.0 1.0
  outer loop
    vertex 238.44249625111541 109.9461673502239 24.89877508728005
    vertex 238.3720002915146 107.16863529048696 24.898775087280054
    vertex 239.33672411110453 107.56823698050546 24.898775087280054
  endloop
endfacet
facet normal 0.0 0.0 1.0
  outer loop
    vertex 238.44249625111541 109.9461673502239 24.89877508728005
    vertex 239.33672411110453 107.56823698050546 24.898775087280054
    vertex 238.6859397836892 110.26937262729872 24.89877508728005
  endloop
endfacet
facet normal 0.0 0.0 1.0
  outer loop
    vertex 238.6859397836892 110.26937262729872 24.89877508728005
    vertex 239.33672411110453 107.56823698050546 24.898775087280054
    vertex 238.83743649786064 110.64457277425537 24.89877508728005
  endloop
endfacet
facet normal 0.0 0.0 1.0
  outer loop
    vertex 238.83743649786064 110.64457277425537 24.89877508728005
    vertex 239.33672411110453 107.56823698050546 24.898775087280054
    vertex 238.8866621429192 111.04619852112624 24.89877508728005
  endloop
endfacet
facet normal 0.0 0.0 1.0
  outer loop
    vertex 233.33672411110453 115.03233859564324 24.898775087280054
    vertex 235.9875084385198 111.79530456398767 24.89877508728005
    vertex 237.33672411110453 115.03233859564324 24.898775087280054
  endloop
endfacet
facet normal 0.0 0.0 1.0
  outer loop
    vertex 235.9875084385198 111.79530456398767 24.89877508728005
    vertex 233.33672411110453 115.03233859564324 24.898775087280054
    vertex 235.8360117243483 111.42010441703106 24.89877508728005
  endloop
endfacet
facet normal 0.0 0.0 1.0
  outer loop
    vertex 235.8360117243483 111.42010441703106 24.89877508728005
    vertex 233.33672411110453 115.03233859564324 24.898775087280054
    vertex 235.7867860792898 111.01847867016016 24.89877508728005
  endloop
endfacet
facet normal 0.0 0.0 1.0
  outer loop
    vertex 237.33672411110453 115.03233859564324 24.898775087280054
    vertex 235.9875084385198 111.79530456398767 24.89877508728005
    vertex 236.2309519710936 112.1185098410625 24.89877508728005
  endloop
endfacet
facet normal 0.0 0.0 1.0
  outer loop
    vertex 237.33672411110453 115.03233859564324 24.898775087280054
    vertex 236.2309519710936 112.1185098410625 24.89877508728005
    vertex 236.54975204763429 112.36769434274487 24.89877508728005
  endloop
endfacet
facet normal 0.0 0.0 1.0
  outer loop
    vertex 237.33672411110453 115.03233859564324 24.898775087280054
    vertex 236.54975204763429 112.36769434274487 24.89877508728005
    vertex 236.92218296976762 112.52587655704194 24.89877508728005
  endloop
endfacet
facet normal 0.0 0.0 1.0
  outer loop
    vertex 237.33672411110453 115.03233859564324 24.898775087280054
    vertex 236.92218296976762 112.52587655704194 24.89877508728005
    vertex 237.32286418562146 112.58227662745789 24.89877508728005
  endloop
endfacet
facet normal 0.0 0.0 1.0
  outer loop
    vertex 237.33672411110453 115.03233859564324 24.898775087280054
    vertex 237.32286418562146 112.58227662745789 24.89877508728005
    vertex 237.72448993249236 112.53305098239937 24.89877508728005
  endloop
endfacet
facet normal 0.0 0.0 1.0
  outer loop
    vertex 237.33672411110453 115.03233859564324 24.898775087280054
    vertex 237.72448993249236 112.53305098239937 24.89877508728005
    vertex 238.3720002915146 114.89604190079952 24.898775087280054
  endloop
endfacet
facet normal 0.0 0.0 1.0
  outer loop
    vertex 238.3720002915146 114.89604190079952 24.898775087280054
    vertex 237.72448993249236 112.53305098239937 24.89877508728005
    vertex 238.09969007944895 112.38155426822792 24.89877508728005
  endloop
endfacet
facet normal 0.0 0.0 1.0
  outer loop
    vertex 238.3720002915146 114.89604190079952 24.898775087280054
    vertex 238.09969007944895 112.38155426822792 24.89877508728005
    vertex 238.42289535652378 112.13811073565411 24.89877508728005
  endloop
endfacet
facet normal 0.0 0.0 1.0
  outer loop
    vertex 238.3720002915146 114.89604190079952 24.898775087280054
    vertex 238.42289535652378 112.13811073565411 24.89877508728005
    vertex 239.33672411110453 114.49644021078097 24.898775087280054
  endloop
endfacet
facet normal 0.0 0.0 1.0
  outer loop
    vertex 239.33672411110453 114.49644021078097 24.898775087280054
    vertex 238.42289535652378 112.13811073565411 24.89877508728005
    vertex 238.67207985820616 111.81931065911341 24.89877508728005
  endloop
endfacet
facet normal 0.0 0.0 1.0
  outer loop
    vertex 239.33672411110453 114.49644021078097 24.898775087280054
    vertex 238.67207985820616 111.81931065911341 24.89877508728005
    vertex 238.83026207250325 111.44687973698007 24.89877508728005
  endloop
endfacet
facet normal 0.0 0.0 1.0
  outer loop
    vertex 239.33672411110453 114.49644021078097 24.898775087280054
    vertex 238.83026207250325 111.44687973698007 24.89877508728005
    vertex 238.8866621429192 111.04619852112624 24.89877508728005
  endloop
endfacet
facet normal 0.0 0.0 1.0
  outer loop
    vertex 239.33672411110453 114.49644021078097 24.898775087280054
    vertex 238.8866621429192 111.04619852112624 24.89877508728005
    vertex 239.33672411110453 107.56823698050546 24.898775087280054
  endloop
endfacet
facet normal 0.0 0.0 1.0
  outer loop
    vertex 239.33672411110453 114.49644021078097 24.898775087280054
    vertex 239.33672411110453 107.56823698050546 24.898775087280054
    vertex 240.16515123585071 108.20391147089705 24.898775087280054
  endloop
endfacet
facet normal 0.0 0.0 1.0
  outer loop
    vertex 239.33672411110453 114.49644021078097 24.898775087280054
    vertex 240.16515123585071 108.20391147089705 24.898775087280054
    vertex 240.16515123585071 113.86076572038942 24.898775087280054
  endloop
endfacet
facet normal 0.0 0.0 1.0
  outer loop
    vertex 240.16515123585071 113.86076572038942 24.898775087280054
    vertex 240.16515123585071 108.20391147089705 24.898775087280054
    vertex 240.8008257262423 109.03233859564322 24.898775087280054
  endloop
endfacet
facet normal 0.0 0.0 1.0
  outer loop
    vertex 240.16515123585071 113.86076572038942 24.898775087280054
    vertex 240.8008257262423 109.03233859564322 24.898775087280054
    vertex 240.8008257262423 113.03233859564324 24.898775087280054
  endloop
endfacet
facet normal 0.0 0.0 1.0
  outer loop
    vertex 240.8008257262423 113.03233859564324 24.898775087280054
    vertex 240.8008257262423 109.03233859564322 24.898775087280054
    vertex 241.20042741626082 112.06761477605332 24.898775087280054
  endloop
endfacet
facet normal 0.0 0.0 1.0
  outer loop
    vertex 241.20042741626082 112.06761477605332 24.898775087280054
    vertex 240.8008257262423 109.03233859564322 24.898775087280054
    vertex 241.20042741626082 109.99706241523316 24.898775087280054
  endloop
endfacet
facet normal 0.0 0.0 1.0
  outer loop
    vertex 241.20042741626082 112.06761477605332 24.898775087280054
    vertex 241.20042741626082 109.99706241523316 24.898775087280054
    vertex 241.3367241111045 111.03233859564322 24.898775087280054
  endloop
endfacet
facet normal -0.5077239119162733 0.8615198368397772 1.400460512786077e-31
  outer loop
    vertex 238.12369617457472 109.69698284854155 24.89877508728005
    vertex 238.44249625111541 109.9461673502239 19.89877508728007
    vertex 238.12369617457472 109.69698284854155 19.89877508728007
  endloop
endfacet
facet normal -0.713401380652194 0.7007556422060001 1.9677829622001782e-31
  outer loop
    vertex 238.44249625111541 109.9461673502239 19.89877508728007
    vertex 238.12369617457472 109.69698284854155 24.89877508728005
    vertex 238.44249625111541 109.9461673502239 24.89877508728005
  endloop
endfacet
facet normal -0.8704617242481943 0.4922361086093348 2.4010042546554446e-31
  outer loop
    vertex 238.6859397836892 110.26937262729872 24.89877508728005
    vertex 238.44249625111541 109.9461673502239 19.89877508728007
    vertex 238.44249625111541 109.9461673502239 24.89877508728005
  endloop
endfacet
facet normal -0.713401380652194 0.7007556422060001 1.9677829622001782e-31
  outer loop
    vertex 238.44249625111541 109.9461673502239 19.89877508728007
    vertex 238.6859397836892 110.26937262729872 24.89877508728005
    vertex 238.6859397836892 110.26937262729872 19.89877508728007
  endloop
endfacet
facet normal -0.9682015398426929 0.2501714976695761 2.670601075003075e-31
  outer loop
    vertex 238.83743649786064 110.64457277425537 24.89877508728005
    vertex 238.6859397836892 110.26937262729872 19.89877508728007
    vertex 238.6859397836892 110.26937262729872 24.89877508728005
  endloop
endfacet
facet normal -0.8704617242481943 0.4922361086093348 2.4010042546554446e-31
  outer loop
    vertex 238.6859397836892 110.26937262729872 19.89877508728007
    vertex 238.83743649786064 110.64457277425537 24.89877508728005
    vertex 238.83743649786064 110.64457277425537 19.89877508728007
  endloop
endfacet
facet normal -0.9999600205256085 -0.008941887408416152 2.758200845466195e-31
  outer loop
    vertex 238.8866621429192 111.04619852112624 24.89877508728005
    vertex 238.83743649786064 110.64457277425537 19.89877508728007
    vertex 238.83743649786064 110.64457277425537 24.89877508728005
  endloop
endfacet
facet normal -0.9682015398426929 0.2501714976695761 2.670601075003075e-31
  outer loop
    vertex 238.83743649786064 110.64457277425537 19.89877508728007
    vertex 238.8866621429192 111.04619852112624 24.89877508728005
    vertex 238.8866621429192 111.04619852112624 19.89877508728007
  endloop
endfacet
facet normal -0.9635728783217716 -0.2674458976366927 2.6578337864532077e-31
  outer loop
    vertex 238.83026207250325 111.44687973698007 24.89877508728005
    vertex 238.8866621429192 111.04619852112624 19.89877508728007
    vertex 238.8866621429192 111.04619852112624 24.89877508728005
  endloop
endfacet
facet normal -0.9999600205256085 -0.008941887408416152 2.758200845466195e-31
  outer loop
    vertex 238.8866621429192 111.04619852112624 19.89877508728007
    vertex 238.83026207250325 111.44687973698007 24.89877508728005
    vertex 238.83026207250325 111.44687973698007 19.89877508728007
  endloop
endfacet
facet normal -0.861519836839778 -0.5077239119162722 2.37633974717144e-31
  outer loop
    vertex 238.67207985820616 111.81931065911341 24.89877508728005
    vertex 238.83026207250325 111.44687973698007 19.89877508728007
    vertex 238.83026207250325 111.44687973698007 24.89877508728005
  endloop
endfacet
facet normal -0.9635728783217716 -0.2674458976366927 2.6578337864532077e-31
  outer loop
    vertex 238.83026207250325 111.44687973698007 19.89877508728007
    vertex 238.67207985820616 111.81931065911341 24.89877508728005
    vertex 238.67207985820616 111.81931065911341 19.89877508728007
  endloop
endfacet
facet normal -0.7007556422059995 -0.7134013806521945 1.9329020812070498e-31
  outer loop
    vertex 238.42289535652378 112.13811073565411 24.89877508728005
    vertex 238.67207985820616 111.81931065911341 19.89877508728007
    vertex 238.67207985820616 111.81931065911341 24.89877508728005
  endloop
endfacet
facet normal -0.861519836839778 -0.5077239119162722 2.37633974717144e-31
  outer loop
    vertex 238.67207985820616 111.81931065911341 19.89877508728007
    vertex 238.42289535652378 112.13811073565411 24.89877508728005
    vertex 238.42289535652378 112.13811073565411 19.89877508728007
  endloop
endfacet
facet normal -0.7007556422059995 -0.7134013806521945 1.9329020812070498e-31
  outer loop
    vertex 238.42289535652378 112.13811073565411 24.89877508728005
    vertex 238.09969007944895 112.38155426822792 19.89877508728007
    vertex 238.42289535652378 112.13811073565411 19.89877508728007
  endloop
endfacet
facet normal -0.4922361086093328 -0.8704617242481955 1.3577403326801109e-31
  outer loop
    vertex 238.09969007944895 112.38155426822792 19.89877508728007
    vertex 238.42289535652378 112.13811073565411 24.89877508728005
    vertex 238.09969007944895 112.38155426822792 24.89877508728005
  endloop
endfacet
facet normal -0.4922361086093328 -0.8704617242481955 1.3577403326801109e-31
  outer loop
    vertex 238.09969007944895 112.38155426822792 24.89877508728005
    vertex 237.72448993249236 112.53305098239937 19.89877508728007
    vertex 238.09969007944895 112.38155426822792 19.89877508728007
  endloop
endfacet
facet normal -0.2501714976695768 -0.9682015398426927 6.900508242530268e-32
  outer loop
    vertex 237.72448993249236 112.53305098239937 19.89877508728007
    vertex 238.09969007944895 112.38155426822792 24.89877508728005
    vertex 237.72448993249236 112.53305098239937 24.89877508728005
  endloop
endfacet
facet normal -0.2501714976695768 -0.9682015398426927 6.900508242530268e-32
  outer loop
    vertex 237.72448993249236 112.53305098239937 24.89877508728005
    vertex 237.32286418562146 112.58227662745789 19.89877508728007
    vertex 237.72448993249236 112.53305098239937 19.89877508728007
  endloop
endfacet
facet normal 0.008941887408414643 -0.9999600205256086 -2.4664507483999214e-33
  outer loop
    vertex 237.32286418562146 112.58227662745789 19.89877508728007
    vertex 237.72448993249236 112.53305098239937 24.89877508728005
    vertex 237.32286418562146 112.58227662745789 24.89877508728005
  endloop
endfacet
facet normal 0.008941887408414643 -0.9999600205256086 -2.4664507483999214e-33
  outer loop
    vertex 237.32286418562146 112.58227662745789 24.89877508728005
    vertex 236.92218296976762 112.52587655704194 19.89877508728007
    vertex 237.32286418562146 112.58227662745789 19.89877508728007
  endloop
endfacet
facet normal 0.26744589763669346 -0.9635728783217715 -7.376989937960255e-32
  outer loop
    vertex 236.92218296976762 112.52587655704194 19.89877508728007
    vertex 237.32286418562146 112.58227662745789 24.89877508728005
    vertex 236.92218296976762 112.52587655704194 24.89877508728005
  endloop
endfacet
facet normal 0.26744589763669346 -0.9635728783217715 -7.376989937960255e-32
  outer loop
    vertex 236.92218296976762 112.52587655704194 24.89877508728005
    vertex 236.54975204763429 112.36769434274487 19.89877508728007
    vertex 236.92218296976762 112.52587655704194 19.89877508728007
  endloop
endfacet
facet normal 0.5077239119162733 -0.8615198368397773 -1.4004605127860774e-31
  outer loop
    vertex 236.54975204763429 112.36769434274487 19.89877508728007
    vertex 236.92218296976762 112.52587655704194 24.89877508728005
    vertex 236.54975204763429 112.36769434274487 24.89877508728005
  endloop
endfacet
facet normal 0.5077239119162733 -0.8615198368397773 -1.4004605127860774e-31
  outer loop
    vertex 236.54975204763429 112.36769434274487 24.89877508728005
    vertex 236.2309519710936 112.1185098410625 19.89877508728007
    vertex 236.54975204763429 112.36769434274487 19.89877508728007
  endloop
endfacet
facet normal 0.7134013806521959 -0.7007556422059982 -1.967782962200183e-31
  outer loop
    vertex 236.2309519710936 112.1185098410625 19.89877508728007
    vertex 236.54975204763429 112.36769434274487 24.89877508728005
    vertex 236.2309519710936 112.1185098410625 24.89877508728005
  endloop
endfacet
facet normal 0.7134013806521959 -0.7007556422059982 -1.967782962200183e-31
  outer loop
    vertex 236.2309519710936 112.1185098410625 19.89877508728007
    vertex 235.9875084385198 111.79530456398767 24.89877508728005
    vertex 235.9875084385198 111.79530456398767 19.89877508728007
  endloop
endfacet
facet normal 0.8704617242481939 -0.49223610860933525 -2.4010042546554433e-31
  outer loop
    vertex 235.9875084385198 111.79530456398767 24.89877508728005
    vertex 236.2309519710936 112.1185098410625 19.89877508728007
    vertex 236.2309519710936 112.1185098410625 24.89877508728005
  endloop
endfacet
facet normal 0.8704617242481939 -0.49223610860933525 -2.4010042546554433e-31
  outer loop
    vertex 235.9875084385198 111.79530456398767 19.89877508728007
    vertex 235.8360117243483 111.42010441703106 24.89877508728005
    vertex 235.8360117243483 111.42010441703106 19.89877508728007
  endloop
endfacet
facet normal 0.9682015398426929 -0.2501714976695761 -2.670601075003075e-31
  outer loop
    vertex 235.8360117243483 111.42010441703106 24.89877508728005
    vertex 235.9875084385198 111.79530456398767 19.89877508728007
    vertex 235.9875084385198 111.79530456398767 24.89877508728005
  endloop
endfacet
facet normal 0.9682015398426929 -0.2501714976695761 -2.670601075003075e-31
  outer loop
    vertex 235.8360117243483 111.42010441703106 19.89877508728007
    vertex 235.7867860792898 111.01847867016016 24.89877508728005
    vertex 235.7867860792898 111.01847867016016 19.89877508728007
  endloop
endfacet
facet normal 0.9999600205256085 0.008941887408416152 -2.758200845466195e-31
  outer loop
    vertex 235.7867860792898 111.01847867016016 24.89877508728005
    vertex 235.8360117243483 111.42010441703106 19.89877508728007
    vertex 235.8360117243483 111.42010441703106 24.89877508728005
  endloop
endfacet
facet normal 0.9999600205256085 0.008941887408416152 -2.758200845466195e-31
  outer loop
    vertex 235.7867860792898 111.01847867016016 19.89877508728007
    vertex 235.84318614970576 110.61779745430633 24.89877508728005
    vertex 235.84318614970576 110.61779745430633 19.89877508728007
  endloop
endfacet
facet normal 0.9635728783217713 0.2674458976366941 -2.6578337864532064e-31
  outer loop
    vertex 235.84318614970576 110.61779745430633 24.89877508728005
    vertex 235.7867860792898 111.01847867016016 19.89877508728007
    vertex 235.7867860792898 111.01847867016016 24.89877508728005
  endloop
endfacet
facet normal 0.9635728783217713 0.2674458976366941 -2.6578337864532064e-31
  outer loop
    vertex 235.84318614970576 110.61779745430633 19.89877508728007
    vertex 236.00136836400284 110.24536653217298 24.89877508728005
    vertex 236.00136836400284 110.24536653217298 19.89877508728007
  endloop
endfacet
facet normal 0.8615198368397783 0.5077239119162715 -2.376339747171441e-31
  outer loop
    vertex 236.00136836400284 110.24536653217298 24.89877508728005
    vertex 235.84318614970576 110.61779745430633 19.89877508728007
    vertex 235.84318614970576 110.61779745430633 24.89877508728005
  endloop
endfacet
facet normal 0.8615198368397783 0.5077239119162715 -2.376339747171441e-31
  outer loop
    vertex 236.00136836400284 110.24536653217298 19.89877508728007
    vertex 236.25055286568517 109.92656645563231 24.89877508728005
    vertex 236.25055286568517 109.92656645563231 19.89877508728007
  endloop
endfacet
facet normal 0.7007556422059994 0.7134013806521946 -1.9329020812070498e-31
  outer loop
    vertex 236.25055286568517 109.92656645563231 24.89877508728005
    vertex 236.00136836400284 110.24536653217298 19.89877508728007
    vertex 236.00136836400284 110.24536653217298 24.89877508728005
  endloop
endfacet
facet normal 0.7007556422059994 0.7134013806521946 -1.9329020812070498e-31
  outer loop
    vertex 236.25055286568517 109.92656645563231 24.89877508728005
    vertex 236.57375814276 109.68312292305852 19.89877508728007
    vertex 236.25055286568517 109.92656645563231 19.89877508728007
  endloop
endfacet
facet normal 0.49223610860933614 0.8704617242481933 -1.3577403326801203e-31
  outer loop
    vertex 236.57375814276 109.68312292305852 19.89877508728007
    vertex 236.25055286568517 109.92656645563231 24.89877508728005
    vertex 236.57375814276 109.68312292305852 24.89877508728005
  endloop
endfacet
facet normal 0.49223610860933614 0.8704617242481933 -1.3577403326801203e-31
  outer loop
    vertex 236.57375814276 109.68312292305852 24.89877508728005
    vertex 236.94895828971664 109.53162620888703 19.89877508728007
    vertex 236.57375814276 109.68312292305852 19.89877508728007
  endloop
endfacet
facet normal 0.2501714976695795 0.9682015398426919 -6.900508242530343e-32
  outer loop
    vertex 236.94895828971664 109.53162620888703 19.89877508728007
    vertex 236.57375814276 109.68312292305852 24.89877508728005
    vertex 236.94895828971664 109.53162620888703 24.89877508728005
  endloop
endfacet
facet normal 0.2501714976695795 0.9682015398426919 -6.900508242530343e-32
  outer loop
    vertex 236.94895828971664 109.53162620888703 24.89877508728005
    vertex 237.35058403658755 109.4824005638285 19.89877508728007
    vertex 236.94895828971664 109.53162620888703 19.89877508728007
  endloop
endfacet
facet normal -0.008941887408417643 0.9999600205256086 2.466450748400746e-33
  outer loop
    vertex 237.35058403658755 109.4824005638285 19.89877508728007
    vertex 236.94895828971664 109.53162620888703 24.89877508728005
    vertex 237.35058403658755 109.4824005638285 24.89877508728005
  endloop
endfacet
facet normal -0.008941887408417643 0.9999600205256086 2.466450748400746e-33
  outer loop
    vertex 237.35058403658755 109.4824005638285 24.89877508728005
    vertex 237.75126525244136 109.53880063424447 19.89877508728007
    vertex 237.35058403658755 109.4824005638285 19.89877508728007
  endloop
endfacet
facet normal -0.2674458976366964 0.9635728783217706 7.376989937960335e-32
  outer loop
    vertex 237.75126525244136 109.53880063424447 19.89877508728007
    vertex 237.35058403658755 109.4824005638285 24.89877508728005
    vertex 237.75126525244136 109.53880063424447 24.89877508728005
  endloop
endfacet
facet normal -0.2674458976366964 0.9635728783217706 7.376989937960335e-32
  outer loop
    vertex 237.75126525244136 109.53880063424447 24.89877508728005
    vertex 238.12369617457472 109.69698284854155 19.89877508728007
    vertex 237.75126525244136 109.53880063424447 19.89877508728007
  endloop
endfacet
facet normal -0.5077239119162733 0.8615198368397772 1.400460512786077e-31
  outer loop
    vertex 238.12369617457472 109.69698284854155 19.89877508728007
    vertex 237.75126525244136 109.53880063424447 24.89877508728005
    vertex 238.12369617457472 109.69698284854155 24.89877508728005
  endloop
endfacet
facet normal 0.0 1.0 0.0
  outer loop
    vertex 233.33672411110453 115.03233859564324 24.898775087280054
    vertex 237.33672411110453 115.03233859564324 19.898775087280065
    vertex 233.33672411110453 115.03233859564324 19.898775087280065
  endloop
endfacet
facet normal 0.0 1.0 0.0
  outer loop
    vertex 237.33672411110453 115.03233859564324 19.898775087280065
    vertex 233.33672411110453 115.03233859564324 24.898775087280054
    vertex 237.33672411110453 115.03233859564324 24.898775087280054
  endloop
endfacet
facet normal -0.0 -1.0 -0.0
  outer loop
    vertex 237.33672411110453 107.03233859564322 24.898775087280054
    vertex 233.33672411110453 107.03233859564322 19.898775087280065
    vertex 237.33672411110453 107.03233859564322 19.898775087280065
  endloop
endfacet
facet normal -0.0 -1.0 -0.0
  outer loop
    vertex 233.33672411110453 107.03233859564322 19.898775087280065
    vertex 237.33672411110453 107.03233859564322 24.898775087280054
    vertex 233.33672411110453 107.03233859564322 24.898775087280054
  endloop
endfacet
endsolid RatHeadPhones_FinalModel_Jan2015
