solid RatHeadPhones_FinalModel_Jan2015
facet normal -2.3114479365146695e-16 -2.818750699849543e-16 1.0
  outer loop
    vertex 241.3367241111045 108.93233859564327 16.198775087280097
    vertex 242.734567512618 109.83233859564325 16.198775087280097
    vertex 241.8367241111045 113.93449519412924 16.19877508728004
  endloop
endfacet
facet normal -2.3114479365146695e-16 -2.818750699849543e-16 1.0
  outer loop
    vertex 242.734567512618 109.83233859564325 16.198775087280097
    vertex 241.3367241111045 108.93233859564327 16.198775087280097
    vertex 247.3367241111045 108.93233859564324 16.198775087280097
  endloop
endfacet
facet normal -2.3114479365146695e-16 -2.818750699849543e-16 1.0
  outer loop
    vertex 242.734567512618 109.83233859564325 16.198775087280097
    vertex 247.3367241111045 108.93233859564324 16.198775087280097
    vertex 245.936724111104 109.83233859564325 16.198775087280097
  endloop
endfacet
facet normal -2.3114479365146695e-16 -2.818750699849543e-16 1.0
  outer loop
    vertex 245.936724111104 109.83233859564325 16.198775087280097
    vertex 247.3367241111045 108.93233859564324 16.198775087280097
    vertex 245.9367241111045 113.03449519412925 16.19877508728004
  endloop
endfacet
facet normal -2.3114479365146695e-16 -2.818750699849543e-16 1.0
  outer loop
    vertex 245.9367241111045 113.03449519412925 16.19877508728004
    vertex 247.3367241111045 108.93233859564324 16.198775087280097
    vertex 246.83672411110453 113.93449519412938 16.198775087280097
  endloop
endfacet
facet normal -2.3114479365146695e-16 -2.818750699849543e-16 1.0
  outer loop
    vertex 241.8367241111045 113.93449519412924 16.19877508728004
    vertex 242.73456751261847 113.03449519412928 16.19877508728004
    vertex 246.83672411110453 113.93449519412938 16.198775087280097
  endloop
endfacet
facet normal -2.3114479365146695e-16 -2.818750699849543e-16 1.0
  outer loop
    vertex 242.73456751261847 113.03449519412928 16.19877508728004
    vertex 241.8367241111045 113.93449519412924 16.19877508728004
    vertex 242.734567512618 109.83233859564325 16.198775087280097
  endloop
endfacet
facet normal -2.3114479365146695e-16 -2.818750699849543e-16 1.0
  outer loop
    vertex 246.83672411110453 113.93449519412938 16.198775087280097
    vertex 242.73456751261847 113.03449519412928 16.19877508728004
    vertex 245.9367241111045 113.03449519412925 16.19877508728004
  endloop
endfacet
facet normal 9.75341018430154e-16 1.0 4.144417994078215e-15
  outer loop
    vertex 238.83672411110453 116.43449519412928 8.998775087280075
    vertex 249.93672411110455 116.43449519412927 7.99877508728008
    vertex 238.83672411110453 116.43449519412928 7.998775087280075
  endloop
endfacet
facet normal 9.75341018430154e-16 1.0 4.144417994078215e-15
  outer loop
    vertex 249.93672411110455 116.43449519412927 7.99877508728008
    vertex 238.83672411110453 116.43449519412928 8.998775087280075
    vertex 242.8867241111045 116.43449519412924 8.998775087280068
  endloop
endfacet
facet normal 9.75341018430154e-16 1.0 4.144417994078215e-15
  outer loop
    vertex 244.3367241111045 116.43449519412924 11.89877508728007
    vertex 245.7867241111045 116.43449519412924 8.99877508728007
    vertex 242.8867241111045 116.43449519412924 8.998775087280068
  endloop
endfacet
facet normal 9.75341018430154e-16 1.0 4.144417994078215e-15
  outer loop
    vertex 249.93672411110455 116.43449519412927 7.99877508728008
    vertex 245.7867241111045 116.43449519412924 8.99877508728007
    vertex 249.9367241111045 116.43449519412927 8.998775087280078
  endloop
endfacet
facet normal 9.75341018430154e-16 1.0 4.144417994078215e-15
  outer loop
    vertex 245.7867241111045 116.43449519412924 8.99877508728007
    vertex 249.93672411110455 116.43449519412927 7.99877508728008
    vertex 242.8867241111045 116.43449519412924 8.998775087280068
  endloop
endfacet
facet normal 1.0 -2.012279232133096e-15 4.622895873029336e-16
  outer loop
    vertex 249.93672411110455 116.43449519412927 7.99877508728008
    vertex 249.9367241111045 105.53233859564324 8.998775087280068
    vertex 249.9367241111045 105.53233859564324 7.998775087280069
  endloop
endfacet
facet normal 1.0 -2.012279232133096e-15 4.622895873029336e-16
  outer loop
    vertex 249.9367241111045 105.53233859564324 8.998775087280068
    vertex 249.93672411110455 116.43449519412927 7.99877508728008
    vertex 249.9367241111045 116.43449519412927 8.998775087280078
  endloop
endfacet
facet normal 0.9950414367879571 0.09946124408511132 5.181224759222665e-16
  outer loop
    vertex 247.3367241111045 108.93233859564327 8.998775087280068
    vertex 246.83672411110453 113.93449519412938 16.198775087280097
    vertex 247.3367241111045 108.93233859564324 16.198775087280097
  endloop
endfacet
facet normal 0.9950414367879571 0.09946124408511132 5.181224759222665e-16
  outer loop
    vertex 246.83672411110453 113.93449519412938 16.198775087280097
    vertex 247.3367241111045 108.93233859564327 8.998775087280068
    vertex 246.83672411110453 113.93449519412927 8.998775087280075
  endloop
endfacet
facet normal 1.7612920516636646e-15 1.0 8.812395257962158e-16
  outer loop
    vertex 242.734567512618 109.83233859564325 16.198775087280097
    vertex 245.936724111104 109.83233859564325 12.998775087280107
    vertex 242.73456751261818 109.83233859564325 12.998775087280073
  endloop
endfacet
facet normal 1.7612920516636646e-15 1.0 8.812395257962158e-16
  outer loop
    vertex 245.936724111104 109.83233859564325 12.998775087280107
    vertex 242.734567512618 109.83233859564325 16.198775087280097
    vertex 245.936724111104 109.83233859564325 16.198775087280097
  endloop
endfacet
facet normal -5.724199167906919e-15 -1.0 -4.846817391879224e-15
  outer loop
    vertex 245.9367241111045 113.03449519412925 16.19877508728004
    vertex 242.73456751261847 113.03449519412928 12.998775087280052
    vertex 245.9367241111045 113.03449519412928 12.998775087280052
  endloop
endfacet
facet normal -5.724199167906919e-15 -1.0 -4.846817391879224e-15
  outer loop
    vertex 242.73456751261847 113.03449519412928 12.998775087280052
    vertex 245.9367241111045 113.03449519412925 16.19877508728004
    vertex 242.73456751261847 113.03449519412928 16.19877508728004
  endloop
endfacet
facet normal -1.0 8.278072642819291e-14 -1.7624790515920392e-15
  outer loop
    vertex 245.9367241111045 113.03449519412925 16.19877508728004
    vertex 245.936724111104 109.83233859564325 12.998775087280107
    vertex 245.936724111104 109.83233859564325 16.198775087280097
  endloop
endfacet
facet normal -1.0 8.278072642819291e-14 -1.7624790515920392e-15
  outer loop
    vertex 245.936724111104 109.83233859564325 12.998775087280107
    vertex 245.9367241111045 113.03449519412925 16.19877508728004
    vertex 245.9367241111045 113.03449519412928 12.998775087280052
  endloop
endfacet
facet normal 1.0 -8.101943437652896e-14 -7.513900122230137e-29
  outer loop
    vertex 242.73456751261847 113.03449519412928 12.998775087280052
    vertex 242.734567512618 109.83233859564325 16.198775087280097
    vertex 242.73456751261818 109.83233859564325 12.998775087280073
  endloop
endfacet
facet normal 1.0 -8.101943437652896e-14 -7.513900122230137e-29
  outer loop
    vertex 242.734567512618 109.83233859564325 16.198775087280097
    vertex 242.73456751261847 113.03449519412928 12.998775087280052
    vertex 242.73456751261847 113.03449519412928 16.19877508728004
  endloop
endfacet
facet normal -5.146275213454769e-15 4.100508057779914e-15 1.0
  outer loop
    vertex 245.936724111104 109.83233859564325 12.998775087280107
    vertex 242.73456751261847 113.03449519412928 12.998775087280052
    vertex 242.73456751261818 109.83233859564325 12.998775087280073
  endloop
endfacet
facet normal -5.146275213454769e-15 4.100508057779914e-15 1.0
  outer loop
    vertex 242.73456751261847 113.03449519412928 12.998775087280052
    vertex 245.936724111104 109.83233859564325 12.998775087280107
    vertex 245.9367241111045 113.03449519412928 12.998775087280052
  endloop
endfacet
facet normal 1.587818965398619e-16 6.789860290317418e-16 -1.0
  outer loop
    vertex 249.93672411110455 116.43449519412927 7.99877508728008
    vertex 243.33927152222142 112.98876346184483 7.998775087280088
    vertex 238.83672411110453 116.43449519412928 7.998775087280075
  endloop
endfacet
facet normal 1.587818965398619e-16 6.789860290317418e-16 -1.0
  outer loop
    vertex 243.33927152222142 112.98876346184483 7.998775087280088
    vertex 249.93672411110455 116.43449519412927 7.99877508728008
    vertex 245.43417669998757 112.98876346184483 7.998775087280088
  endloop
endfacet
facet normal 1.587818965398619e-16 6.789860290317418e-16 -1.0
  outer loop
    vertex 245.43417669998757 112.98876346184483 7.998775087280088
    vertex 249.93672411110455 116.43449519412927 7.99877508728008
    vertex 249.9367241111045 105.53233859564324 7.998775087280069
  endloop
endfacet
facet normal 1.587818965398619e-16 6.789860290317418e-16 -1.0
  outer loop
    vertex 238.8367241111045 105.53233859564325 7.998775087280071
    vertex 243.33927152222148 108.9656023505524 7.9987750872800945
    vertex 249.9367241111045 105.53233859564324 7.998775087280069
  endloop
endfacet
facet normal 1.587818965398619e-16 6.789860290317418e-16 -1.0
  outer loop
    vertex 243.33927152222148 108.9656023505524 7.9987750872800945
    vertex 238.8367241111045 105.53233859564325 7.998775087280071
    vertex 238.83672411110453 116.43449519412928 7.998775087280075
  endloop
endfacet
facet normal 1.587818965398619e-16 6.789860290317418e-16 -1.0
  outer loop
    vertex 243.33927152222148 108.9656023505524 7.9987750872800945
    vertex 238.83672411110453 116.43449519412928 7.998775087280075
    vertex 243.33927152222142 112.98876346184483 7.998775087280088
  endloop
endfacet
facet normal 1.587818965398619e-16 6.789860290317418e-16 -1.0
  outer loop
    vertex 249.9367241111045 105.53233859564324 7.998775087280069
    vertex 243.33927152222148 108.9656023505524 7.9987750872800945
    vertex 245.43417669998757 108.96560235055244 7.998775087280088
  endloop
endfacet
facet normal 1.587818965398619e-16 6.789860290317418e-16 -1.0
  outer loop
    vertex 249.9367241111045 105.53233859564324 7.998775087280069
    vertex 245.43417669998757 108.96560235055244 7.998775087280088
    vertex 245.43417669998757 112.98876346184483 7.998775087280088
  endloop
endfacet
facet normal -2.0901629444080903e-15 -1.0 -1.573426718329352e-15
  outer loop
    vertex 247.3367241111045 108.93233859564324 16.198775087280097
    vertex 245.7867241111045 108.93233859564327 8.998775087280068
    vertex 247.3367241111045 108.93233859564327 8.998775087280068
  endloop
endfacet
facet normal -2.0901629444080903e-15 -1.0 -1.573426718329352e-15
  outer loop
    vertex 245.7867241111045 108.93233859564327 8.998775087280068
    vertex 247.3367241111045 108.93233859564324 16.198775087280097
    vertex 244.33672411110447 108.93233859564327 11.89877508728007
  endloop
endfacet
facet normal -2.0901629444080903e-15 -1.0 -1.573426718329352e-15
  outer loop
    vertex 244.33672411110447 108.93233859564327 11.89877508728007
    vertex 241.33672411110447 108.93233859564327 8.998775087280064
    vertex 242.8867241111045 108.93233859564327 8.998775087280064
  endloop
endfacet
facet normal -2.0901629444080903e-15 -1.0 -1.573426718329352e-15
  outer loop
    vertex 241.33672411110447 108.93233859564327 8.998775087280064
    vertex 244.33672411110447 108.93233859564327 11.89877508728007
    vertex 241.3367241111045 108.93233859564327 16.198775087280097
  endloop
endfacet
facet normal -2.0901629444080903e-15 -1.0 -1.573426718329352e-15
  outer loop
    vertex 241.3367241111045 108.93233859564327 16.198775087280097
    vertex 244.33672411110447 108.93233859564327 11.89877508728007
    vertex 247.3367241111045 108.93233859564324 16.198775087280097
  endloop
endfacet
facet normal 1.9698835412972038e-15 -4.870205604429374e-16 1.0
  outer loop
    vertex 238.8367241111045 105.53233859564328 8.99877508728007
    vertex 241.33672411110447 108.93233859564327 8.998775087280064
    vertex 238.83672411110453 116.43449519412928 8.998775087280075
  endloop
endfacet
facet normal 1.9698835412972038e-15 -4.870205604429374e-16 1.0
  outer loop
    vertex 241.33672411110447 108.93233859564327 8.998775087280064
    vertex 238.8367241111045 105.53233859564328 8.99877508728007
    vertex 242.88672411110448 105.53233859564328 8.99877508728006
  endloop
endfacet
facet normal 1.9698835412972038e-15 -4.870205604429374e-16 1.0
  outer loop
    vertex 241.33672411110447 108.93233859564327 8.998775087280064
    vertex 242.88672411110448 105.53233859564328 8.99877508728006
    vertex 242.8867241111045 108.93233859564327 8.998775087280064
  endloop
endfacet
facet normal 1.9698835412972038e-15 -4.870205604429374e-16 1.0
  outer loop
    vertex 238.83672411110453 116.43449519412928 8.998775087280075
    vertex 241.8367241111045 113.93449519412927 8.998775087280064
    vertex 242.8867241111045 116.43449519412924 8.998775087280068
  endloop
endfacet
facet normal 1.9698835412972038e-15 -4.870205604429374e-16 1.0
  outer loop
    vertex 241.8367241111045 113.93449519412927 8.998775087280064
    vertex 238.83672411110453 116.43449519412928 8.998775087280075
    vertex 241.33672411110447 108.93233859564327 8.998775087280064
  endloop
endfacet
facet normal 1.9698835412972038e-15 -4.870205604429374e-16 1.0
  outer loop
    vertex 242.8867241111045 116.43449519412924 8.998775087280068
    vertex 241.8367241111045 113.93449519412927 8.998775087280064
    vertex 242.8867241111045 113.93449519412927 8.998775087280068
  endloop
endfacet
facet normal -0.9950414367879566 0.09946124408511722 8.183922109552775e-16
  outer loop
    vertex 241.8367241111045 113.93449519412924 16.19877508728004
    vertex 241.33672411110447 108.93233859564327 8.998775087280064
    vertex 241.3367241111045 108.93233859564327 16.198775087280097
  endloop
endfacet
facet normal -0.9950414367879566 0.09946124408511722 8.183922109552775e-16
  outer loop
    vertex 241.33672411110447 108.93233859564327 8.998775087280064
    vertex 241.8367241111045 113.93449519412924 16.19877508728004
    vertex 241.8367241111045 113.93449519412927 8.998775087280064
  endloop
endfacet
facet normal -1.0 2.069290755144358e-15 -1.2523166870383562e-29
  outer loop
    vertex 238.8367241111045 105.53233859564328 8.99877508728007
    vertex 238.83672411110453 116.43449519412928 7.998775087280075
    vertex 238.8367241111045 105.53233859564325 7.998775087280071
  endloop
endfacet
facet normal -1.0 2.069290755144358e-15 -1.2523166870383562e-29
  outer loop
    vertex 238.83672411110453 116.43449519412928 7.998775087280075
    vertex 238.8367241111045 105.53233859564328 8.99877508728007
    vertex 238.83672411110453 116.43449519412928 8.998775087280075
  endloop
endfacet
facet normal -2.1025471248733156e-15 -1.0 5.061690275622204e-15
  outer loop
    vertex 249.9367241111045 105.53233859564324 8.998775087280068
    vertex 238.8367241111045 105.53233859564325 7.998775087280071
    vertex 249.9367241111045 105.53233859564324 7.998775087280069
  endloop
endfacet
facet normal -2.1025471248733156e-15 -1.0 5.061690275622204e-15
  outer loop
    vertex 238.8367241111045 105.53233859564325 7.998775087280071
    vertex 249.9367241111045 105.53233859564324 8.998775087280068
    vertex 242.88672411110448 105.53233859564328 8.99877508728006
  endloop
endfacet
facet normal -2.1025471248733156e-15 -1.0 5.061690275622204e-15
  outer loop
    vertex 242.88672411110448 105.53233859564328 8.99877508728006
    vertex 249.9367241111045 105.53233859564324 8.998775087280068
    vertex 245.7867241111045 105.53233859564328 8.998775087280064
  endloop
endfacet
facet normal -2.1025471248733156e-15 -1.0 5.061690275622204e-15
  outer loop
    vertex 244.33672411110447 105.53233859564328 11.898775087280068
    vertex 242.88672411110448 105.53233859564328 8.99877508728006
    vertex 245.7867241111045 105.53233859564328 8.998775087280064
  endloop
endfacet
facet normal -2.1025471248733156e-15 -1.0 5.061690275622204e-15
  outer loop
    vertex 238.8367241111045 105.53233859564328 8.99877508728007
    vertex 238.8367241111045 105.53233859564325 7.998775087280071
    vertex 242.88672411110448 105.53233859564328 8.99877508728006
  endloop
endfacet
facet normal -2.692213960304266e-15 -7.464897279028398e-29 -1.0
  outer loop
    vertex 245.4341766999875 112.98876346184483 2.998775087280098
    vertex 243.33927152222148 108.9656023505524 2.9987750872801033
    vertex 243.33927152222134 112.98876346184483 2.998775087280098
  endloop
endfacet
facet normal -2.692213960304266e-15 -7.464897279028398e-29 -1.0
  outer loop
    vertex 243.33927152222148 108.9656023505524 2.9987750872801033
    vertex 245.4341766999875 112.98876346184483 2.998775087280098
    vertex 245.43417669998757 108.96560235055244 2.9987750872800922
  endloop
endfacet
facet normal 1.2114962821369519e-14 -1.0 -5.639932965095806e-16
  outer loop
    vertex 245.43417669998757 108.96560235055244 7.998775087280088
    vertex 243.33927152222148 108.9656023505524 2.9987750872801033
    vertex 245.43417669998757 108.96560235055244 2.9987750872800922
  endloop
endfacet
facet normal 1.2114962821369519e-14 -1.0 -5.639932965095806e-16
  outer loop
    vertex 243.33927152222148 108.9656023505524 2.9987750872801033
    vertex 245.43417669998757 108.96560235055244 7.998775087280088
    vertex 243.33927152222148 108.9656023505524 7.9987750872800945
  endloop
endfacet
facet normal -1.0 -2.334949837388262e-14 1.0151879337172436e-14
  outer loop
    vertex 243.3392715222215 110.17760300581301 6.722852454325666
    vertex 243.33927152222148 110.19813875912668 4.4306822529249725
    vertex 243.33927152222148 110.17760300581297 4.2228524543256585
  endloop
endfacet
facet normal -1.0 -2.334949837388262e-14 1.0151879337172436e-14
  outer loop
    vertex 243.33927152222148 110.19813875912668 4.4306822529249725
    vertex 243.3392715222215 110.17760300581301 6.722852454325666
    vertex 243.3392715222215 110.21155730134234 6.516789240323021
  endloop
endfacet
facet normal -1.0 -2.334949837388262e-14 1.0151879337172436e-14
  outer loop
    vertex 243.33927152222148 110.19813875912668 4.4306822529249725
    vertex 243.3392715222215 110.21155730134234 6.516789240323021
    vertex 243.33927152222148 110.27176508363199 4.626115378801395
  endloop
endfacet
facet normal -1.0 -2.334949837388262e-14 1.0151879337172436e-14
  outer loop
    vertex 243.33927152222148 110.27176508363199 4.626115378801395
    vertex 243.3392715222215 110.21155730134234 6.516789240323021
    vertex 243.3392715222215 110.29768771658648 6.326535478415765
  endloop
endfacet
facet normal -1.0 -2.334949837388262e-14 1.0151879337172436e-14
  outer loop
    vertex 243.33927152222148 110.27176508363199 4.626115378801395
    vertex 243.3392715222215 110.29768771658648 6.326535478415765
    vertex 243.33927152222148 110.39346446698715 4.79583338739496
  endloop
endfacet
facet normal -1.0 -2.334949837388262e-14 1.0151879337172436e-14
  outer loop
    vertex 243.33927152222148 110.39346446698715 4.79583338739496
    vertex 243.3392715222215 110.29768771658648 6.326535478415765
    vertex 243.3392715222215 110.4301246060838 6.165056648068667
  endloop
endfacet
facet normal -1.0 -2.334949837388262e-14 1.0151879337172436e-14
  outer loop
    vertex 243.33927152222148 110.39346446698715 4.79583338739496
    vertex 243.3392715222215 110.4301246060838 6.165056648068667
    vertex 243.33927152222148 110.55494329733426 4.928270276892283
  endloop
endfacet
facet normal -1.0 -2.334949837388262e-14 1.0151879337172436e-14
  outer loop
    vertex 243.33927152222148 110.55494329733426 4.928270276892283
    vertex 243.3392715222215 110.4301246060838 6.165056648068667
    vertex 243.3392715222215 110.59984261467736 6.0433572647135
  endloop
endfacet
facet normal -1.0 -2.334949837388262e-14 1.0151879337172436e-14
  outer loop
    vertex 243.33927152222148 110.55494329733426 4.928270276892283
    vertex 243.3392715222215 110.59984261467736 6.0433572647135
    vertex 243.33927152222148 110.74519705924152 5.014400692136433
  endloop
endfacet
facet normal -1.0 -2.334949837388262e-14 1.0151879337172436e-14
  outer loop
    vertex 243.33927152222148 110.74519705924152 5.014400692136433
    vertex 243.3392715222215 110.59984261467736 6.0433572647135
    vertex 243.3392715222215 110.7952757405538 5.969730940208177
  endloop
endfacet
facet normal -1.0 -2.334949837388262e-14 1.0151879337172436e-14
  outer loop
    vertex 243.33927152222148 110.74519705924152 5.014400692136433
    vertex 243.3392715222215 110.7952757405538 5.969730940208177
    vertex 243.33927152222148 110.95126027324416 5.048354987665759
  endloop
endfacet
facet normal -1.0 -2.334949837388262e-14 1.0151879337172436e-14
  outer loop
    vertex 243.33927152222148 110.95126027324416 5.048354987665759
    vertex 243.3392715222215 110.7952757405538 5.969730940208177
    vertex 243.3392715222215 111.00310553915311 5.949195186894487
  endloop
endfacet
facet normal -1.0 -2.334949837388262e-14 1.0151879337172436e-14
  outer loop
    vertex 243.33927152222148 110.95126027324416 5.048354987665759
    vertex 243.3392715222215 111.00310553915311 5.949195186894487
    vertex 243.33927152222148 111.15909007184348 5.027819234352066
  endloop
endfacet
facet normal -1.0 -2.334949837388262e-14 1.0151879337172436e-14
  outer loop
    vertex 243.33927152222148 111.15909007184348 5.027819234352066
    vertex 243.3392715222215 111.00310553915311 5.949195186894487
    vertex 243.3392715222215 111.20916875315575 5.983149482423813
  endloop
endfacet
facet normal -1.0 -2.334949837388262e-14 1.0151879337172436e-14
  outer loop
    vertex 243.33927152222148 111.15909007184348 5.027819234352066
    vertex 243.3392715222215 111.20916875315575 5.983149482423813
    vertex 243.33927152222148 111.3545231977199 4.954192909846743
  endloop
endfacet
facet normal -1.0 -2.334949837388262e-14 1.0151879337172436e-14
  outer loop
    vertex 243.33927152222148 111.3545231977199 4.954192909846743
    vertex 243.3392715222215 111.20916875315575 5.983149482423813
    vertex 243.3392715222215 111.39942251506302 6.06927989766796
  endloop
endfacet
facet normal -1.0 -2.334949837388262e-14 1.0151879337172436e-14
  outer loop
    vertex 243.33927152222148 111.3545231977199 4.954192909846743
    vertex 243.3392715222215 111.39942251506302 6.06927989766796
    vertex 243.33927152222148 111.52424120631346 4.832493526491575
  endloop
endfacet
facet normal -1.0 -2.334949837388262e-14 1.0151879337172436e-14
  outer loop
    vertex 243.33927152222148 111.52424120631346 4.832493526491575
    vertex 243.3392715222215 111.39942251506302 6.06927989766796
    vertex 243.3392715222215 111.56090134541009 6.201716787165286
  endloop
endfacet
facet normal -1.0 -2.334949837388262e-14 1.0151879337172436e-14
  outer loop
    vertex 243.33927152222148 111.52424120631346 4.832493526491575
    vertex 243.3392715222215 111.56090134541009 6.201716787165286
    vertex 243.33927152222148 111.65667809581079 4.671014696144481
  endloop
endfacet
facet normal -1.0 -2.334949837388262e-14 1.0151879337172436e-14
  outer loop
    vertex 243.33927152222148 111.65667809581079 4.671014696144481
    vertex 243.3392715222215 111.56090134541009 6.201716787165286
    vertex 243.3392715222215 111.68260072876527 6.371434795758851
  endloop
endfacet
facet normal -1.0 -2.334949837388262e-14 1.0151879337172436e-14
  outer loop
    vertex 243.33927152222148 111.65667809581079 4.671014696144481
    vertex 243.3392715222215 111.68260072876527 6.371434795758851
    vertex 243.33927152222148 111.74280851105493 4.480760934237221
  endloop
endfacet
facet normal -1.0 -2.334949837388262e-14 1.0151879337172436e-14
  outer loop
    vertex 243.33927152222148 111.74280851105493 4.480760934237221
    vertex 243.3392715222215 111.68260072876527 6.371434795758851
    vertex 243.3392715222215 111.75622705327059 6.566867921635273
  endloop
endfacet
facet normal -1.0 -2.334949837388262e-14 1.0151879337172436e-14
  outer loop
    vertex 243.33927152222148 111.74280851105493 4.480760934237221
    vertex 243.3392715222215 111.75622705327059 6.566867921635273
    vertex 243.33927152222148 111.77676280658427 4.2746977202345775
  endloop
endfacet
facet normal -1.0 -2.334949837388262e-14 1.0151879337172436e-14
  outer loop
    vertex 243.33927152222148 111.77676280658427 4.2746977202345775
    vertex 243.3392715222215 111.75622705327059 6.566867921635273
    vertex 243.3392715222215 111.77676280658427 6.774697720234585
  endloop
endfacet
facet normal -1.0 -2.334949837388262e-14 1.0151879337172436e-14
  outer loop
    vertex 243.33927152222148 108.9656023505524 7.9987750872800945
    vertex 243.3392715222215 110.19813875912669 6.93068225292498
    vertex 243.33927152222148 108.9656023505524 2.9987750872801033
  endloop
endfacet
facet normal -1.0 -2.334949837388262e-14 1.0151879337172436e-14
  outer loop
    vertex 243.3392715222215 110.19813875912669 6.93068225292498
    vertex 243.33927152222148 108.9656023505524 7.9987750872800945
    vertex 243.3392715222215 110.271765083632 7.126115378801402
  endloop
endfacet
facet normal -1.0 -2.334949837388262e-14 1.0151879337172436e-14
  outer loop
    vertex 243.3392715222215 110.271765083632 7.126115378801402
    vertex 243.33927152222148 108.9656023505524 7.9987750872800945
    vertex 243.3392715222215 110.3934644669872 7.295833387394966
  endloop
endfacet
facet normal -1.0 -2.334949837388262e-14 1.0151879337172436e-14
  outer loop
    vertex 243.3392715222215 110.3934644669872 7.295833387394966
    vertex 243.33927152222148 108.9656023505524 7.9987750872800945
    vertex 243.3392715222215 110.55494329733426 7.42827027689229
  endloop
endfacet
facet normal -1.0 -2.334949837388262e-14 1.0151879337172436e-14
  outer loop
    vertex 243.3392715222215 110.55494329733426 7.42827027689229
    vertex 243.33927152222148 108.9656023505524 7.9987750872800945
    vertex 243.3392715222215 110.74519705924153 7.51440069213644
  endloop
endfacet
facet normal -1.0 -2.334949837388262e-14 1.0151879337172436e-14
  outer loop
    vertex 243.3392715222215 110.74519705924153 7.51440069213644
    vertex 243.33927152222148 108.9656023505524 7.9987750872800945
    vertex 243.33927152222142 112.98876346184483 7.998775087280088
  endloop
endfacet
facet normal -1.0 -2.334949837388262e-14 1.0151879337172436e-14
  outer loop
    vertex 243.33927152222148 108.9656023505524 2.9987750872801033
    vertex 243.3392715222215 110.19813875912669 6.93068225292498
    vertex 243.3392715222215 110.17760300581301 6.722852454325666
  endloop
endfacet
facet normal -1.0 -2.334949837388262e-14 1.0151879337172436e-14
  outer loop
    vertex 243.33927152222148 108.9656023505524 2.9987750872801033
    vertex 243.3392715222215 110.17760300581301 6.722852454325666
    vertex 243.33927152222148 110.17760300581297 4.2228524543256585
  endloop
endfacet
facet normal -1.0 -2.334949837388262e-14 1.0151879337172436e-14
  outer loop
    vertex 243.3392715222215 110.74519705924153 7.51440069213644
    vertex 243.33927152222142 112.98876346184483 7.998775087280088
    vertex 243.3392715222215 110.95126027324417 7.548354987665765
  endloop
endfacet
facet normal -1.0 -2.334949837388262e-14 1.0151879337172436e-14
  outer loop
    vertex 243.3392715222215 110.95126027324417 7.548354987665765
    vertex 243.33927152222142 112.98876346184483 7.998775087280088
    vertex 243.3392715222215 111.15909007184348 7.527819234352072
  endloop
endfacet
facet normal -1.0 -2.334949837388262e-14 1.0151879337172436e-14
  outer loop
    vertex 243.3392715222215 111.15909007184348 7.527819234352072
    vertex 243.33927152222142 112.98876346184483 7.998775087280088
    vertex 243.3392715222215 111.35452319771993 7.454192909846749
  endloop
endfacet
facet normal -1.0 -2.334949837388262e-14 1.0151879337172436e-14
  outer loop
    vertex 243.3392715222215 111.35452319771993 7.454192909846749
    vertex 243.33927152222142 112.98876346184483 7.998775087280088
    vertex 243.3392715222215 111.52424120631349 7.332493526491585
  endloop
endfacet
facet normal -1.0 -2.334949837388262e-14 1.0151879337172436e-14
  outer loop
    vertex 243.3392715222215 111.52424120631349 7.332493526491585
    vertex 243.33927152222142 112.98876346184483 7.998775087280088
    vertex 243.3392715222215 111.6566780958108 7.171014696144488
  endloop
endfacet
facet normal -1.0 -2.334949837388262e-14 1.0151879337172436e-14
  outer loop
    vertex 243.3392715222215 111.6566780958108 7.171014696144488
    vertex 243.33927152222142 112.98876346184483 7.998775087280088
    vertex 243.3392715222215 111.74280851105495 6.980760934237231
  endloop
endfacet
facet normal -1.0 -2.334949837388262e-14 1.0151879337172436e-14
  outer loop
    vertex 243.3392715222215 111.74280851105495 6.980760934237231
    vertex 243.33927152222142 112.98876346184483 7.998775087280088
    vertex 243.3392715222215 111.77676280658427 6.774697720234585
  endloop
endfacet
facet normal -1.0 -2.334949837388262e-14 1.0151879337172436e-14
  outer loop
    vertex 243.33927152222148 108.9656023505524 2.9987750872801033
    vertex 243.33927152222142 110.79527574055376 3.4697309402081706
    vertex 243.33927152222134 112.98876346184483 2.998775087280098
  endloop
endfacet
facet normal -1.0 -2.334949837388262e-14 1.0151879337172436e-14
  outer loop
    vertex 243.33927152222142 110.79527574055376 3.4697309402081706
    vertex 243.33927152222148 108.9656023505524 2.9987750872801033
    vertex 243.33927152222148 110.59984261467734 3.5433572647134937
  endloop
endfacet
facet normal -1.0 -2.334949837388262e-14 1.0151879337172436e-14
  outer loop
    vertex 243.33927152222148 110.59984261467734 3.5433572647134937
    vertex 243.33927152222148 108.9656023505524 2.9987750872801033
    vertex 243.33927152222148 110.43012460608378 3.665056648068661
  endloop
endfacet
facet normal -1.0 -2.334949837388262e-14 1.0151879337172436e-14
  outer loop
    vertex 243.33927152222148 110.43012460608378 3.665056648068661
    vertex 243.33927152222148 108.9656023505524 2.9987750872801033
    vertex 243.33927152222148 110.29768771658645 3.826535478415755
  endloop
endfacet
facet normal -1.0 -2.334949837388262e-14 1.0151879337172436e-14
  outer loop
    vertex 243.33927152222148 110.29768771658645 3.826535478415755
    vertex 243.33927152222148 108.9656023505524 2.9987750872801033
    vertex 243.33927152222148 110.21155730134228 4.016789240323015
  endloop
endfacet
facet normal -1.0 -2.334949837388262e-14 1.0151879337172436e-14
  outer loop
    vertex 243.33927152222148 110.21155730134228 4.016789240323015
    vertex 243.33927152222148 108.9656023505524 2.9987750872801033
    vertex 243.33927152222148 110.17760300581297 4.2228524543256585
  endloop
endfacet
facet normal -1.0 -2.334949837388262e-14 1.0151879337172436e-14
  outer loop
    vertex 243.33927152222134 112.98876346184483 2.998775087280098
    vertex 243.33927152222142 110.79527574055376 3.4697309402081706
    vertex 243.33927152222142 111.00310553915307 3.4491951868944777
  endloop
endfacet
facet normal -1.0 -2.334949837388262e-14 1.0151879337172436e-14
  outer loop
    vertex 243.33927152222134 112.98876346184483 2.998775087280098
    vertex 243.33927152222142 111.00310553915307 3.4491951868944777
    vertex 243.33927152222142 111.20916875315572 3.483149482423803
  endloop
endfacet
facet normal -1.0 -2.334949837388262e-14 1.0151879337172436e-14
  outer loop
    vertex 243.33927152222134 112.98876346184483 2.998775087280098
    vertex 243.33927152222142 111.20916875315572 3.483149482423803
    vertex 243.33927152222142 111.39942251506297 3.569279897667953
  endloop
endfacet
facet normal -1.0 -2.334949837388262e-14 1.0151879337172436e-14
  outer loop
    vertex 243.33927152222134 112.98876346184483 2.998775087280098
    vertex 243.33927152222142 111.39942251506297 3.569279897667953
    vertex 243.33927152222142 111.56090134541009 3.7017167871652767
  endloop
endfacet
facet normal -1.0 -2.334949837388262e-14 1.0151879337172436e-14
  outer loop
    vertex 243.33927152222134 112.98876346184483 2.998775087280098
    vertex 243.33927152222142 111.56090134541009 3.7017167871652767
    vertex 243.33927152222142 111.68260072876522 3.871434795758841
  endloop
endfacet
facet normal -1.0 -2.334949837388262e-14 1.0151879337172436e-14
  outer loop
    vertex 243.33927152222134 112.98876346184483 2.998775087280098
    vertex 243.33927152222142 111.68260072876522 3.871434795758841
    vertex 243.33927152222142 111.75622705327056 4.0668679216352634
  endloop
endfacet
facet normal -1.0 -2.334949837388262e-14 1.0151879337172436e-14
  outer loop
    vertex 243.33927152222134 112.98876346184483 2.998775087280098
    vertex 243.33927152222142 111.75622705327056 4.0668679216352634
    vertex 243.33927152222148 111.77676280658427 4.2746977202345775
  endloop
endfacet
facet normal -1.0 -2.334949837388262e-14 1.0151879337172436e-14
  outer loop
    vertex 243.33927152222134 112.98876346184483 2.998775087280098
    vertex 243.33927152222148 111.77676280658427 4.2746977202345775
    vertex 243.3392715222215 111.77676280658427 6.774697720234585
  endloop
endfacet
facet normal -1.0 -2.334949837388262e-14 1.0151879337172436e-14
  outer loop
    vertex 243.33927152222134 112.98876346184483 2.998775087280098
    vertex 243.3392715222215 111.77676280658427 6.774697720234585
    vertex 243.33927152222142 112.98876346184483 7.998775087280088
  endloop
endfacet
facet normal -4.038320940456398e-15 1.0 5.639932965096625e-16
  outer loop
    vertex 243.33927152222142 112.98876346184483 7.998775087280088
    vertex 245.4341766999875 112.98876346184483 2.998775087280098
    vertex 243.33927152222134 112.98876346184483 2.998775087280098
  endloop
endfacet
facet normal -4.038320940456398e-15 1.0 5.639932965096625e-16
  outer loop
    vertex 245.4341766999875 112.98876346184483 2.998775087280098
    vertex 243.33927152222142 112.98876346184483 7.998775087280088
    vertex 245.43417669998757 112.98876346184483 7.998775087280088
  endloop
endfacet
facet normal -3.6968166951962534e-15 0.957032006070391 0.2899823086963816
  outer loop
    vertex 243.33927152222148 110.21155730134228 4.016789240323015
    vertex 245.43417669998755 110.17760300581301 4.222852454325634
    vertex 245.43417669998755 110.21155730134234 4.016789240322989
  endloop
endfacet
facet normal -7.141701441893364e-15 0.9994748754820488 0.032403291193073294
  outer loop
    vertex 245.43417669998755 110.17760300581301 4.222852454325634
    vertex 243.33927152222148 110.21155730134228 4.016789240323015
    vertex 243.33927152222148 110.17760300581297 4.2228524543256585
  endloop
endfacet
facet normal -1.2369789749847162e-14 0.03240329119307219 -0.9994748754820488
  outer loop
    vertex 245.43417669998757 110.95126027324417 5.048354987665733
    vertex 243.33927152222148 110.74519705924152 5.014400692136433
    vertex 243.33927152222148 110.95126027324416 5.048354987665759
  endloop
endfacet
facet normal -1.379670773274132e-14 0.28998230869638203 -0.9570320060703906
  outer loop
    vertex 243.33927152222148 110.74519705924152 5.014400692136433
    vertex 245.43417669998757 110.95126027324417 5.048354987665733
    vertex 245.43417669998757 110.74519705924153 5.014400692136408
  endloop
endfacet
facet normal 1.3796707732741323e-14 -0.2899823086963825 0.9570320060703905
  outer loop
    vertex 245.43417669998755 111.20916875315575 3.4831494824237805
    vertex 243.33927152222142 111.39942251506297 3.569279897667953
    vertex 243.33927152222142 111.20916875315572 3.483149482423803
  endloop
endfacet
facet normal 1.4283402883786693e-14 -0.5277995110804518 0.8493689870152056
  outer loop
    vertex 243.33927152222142 111.39942251506297 3.569279897667953
    vertex 245.43417669998755 111.20916875315575 3.4831494824237805
    vertex 245.43417669998755 111.399422515063 3.5692798976679305
  endloop
endfacet
facet normal 1.2369789749847176e-14 -0.8817722782082806 0.4716753644015963
  outer loop
    vertex 245.43417669998755 111.68260072876527 3.8714347957588156
    vertex 243.33927152222142 111.56090134541009 3.7017167871652767
    vertex 245.43417669998755 111.56090134541009 3.7017167871652514
  endloop
endfacet
facet normal 1.3796707732741298e-14 -0.7296480490143259 0.6838228751435476
  outer loop
    vertex 243.33927152222142 111.56090134541009 3.7017167871652767
    vertex 245.43417669998755 111.68260072876527 3.8714347957588156
    vertex 243.33927152222142 111.68260072876522 3.871434795758841
  endloop
endfacet
facet normal 7.141701441893339e-15 0.4716753644015973 0.8817722782082801
  outer loop
    vertex 243.33927152222148 110.59984261467734 3.5433572647134937
    vertex 245.43417669998755 110.79527574055378 3.4697309402081484
    vertex 243.33927152222142 110.79527574055376 3.4697309402081706
  endloop
endfacet
facet normal 1.0099891037545003e-14 0.22738395705607353 0.973805183839931
  outer loop
    vertex 245.43417669998755 110.79527574055378 3.4697309402081484
    vertex 243.33927152222148 110.59984261467734 3.5433572647134937
    vertex 245.43417669998755 110.59984261467736 3.543357264713471
  endloop
endfacet
facet normal -2.608670454411682e-29 -0.8493689870152044 -0.5277995110804533
  outer loop
    vertex 245.43417669998755 111.65667809581079 4.671014696144456
    vertex 243.33927152222148 111.74280851105493 4.480760934237221
    vertex 245.43417669998755 111.74280851105495 4.480760934237199
  endloop
endfacet
facet normal 3.696816695196227e-15 -0.9570320060703903 -0.2899823086963832
  outer loop
    vertex 243.33927152222148 111.74280851105493 4.480760934237221
    vertex 245.43417669998755 111.65667809581079 4.671014696144456
    vertex 243.33927152222148 111.65667809581079 4.671014696144481
  endloop
endfacet
facet normal 1.0099891037545003e-14 0.22738395705607353 0.973805183839931
  outer loop
    vertex 245.43417669998755 110.79527574055378 3.4697309402081484
    vertex 243.33927152222142 111.00310553915307 3.4491951868944777
    vertex 243.33927152222142 110.79527574055376 3.4697309402081706
  endloop
endfacet
facet normal 1.2369789749847187e-14 -0.032403291193075556 0.9994748754820488
  outer loop
    vertex 243.33927152222142 111.00310553915307 3.4491951868944777
    vertex 245.43417669998755 110.79527574055378 3.4697309402081484
    vertex 245.43417669998755 111.00310553915311 3.4491951868944524
  endloop
endfacet
facet normal 1.428340288378669e-14 -0.5277995110804515 0.8493689870152057
  outer loop
    vertex 245.43417669998755 111.399422515063 3.5692798976679305
    vertex 243.33927152222142 111.56090134541009 3.7017167871652767
    vertex 243.33927152222142 111.39942251506297 3.569279897667953
  endloop
endfacet
facet normal 1.3796707732741298e-14 -0.7296480490143259 0.6838228751435476
  outer loop
    vertex 243.33927152222142 111.56090134541009 3.7017167871652767
    vertex 245.43417669998755 111.399422515063 3.5692798976679305
    vertex 245.43417669998755 111.56090134541009 3.7017167871652514
  endloop
endfacet
facet normal -1.0099891037545062e-14 -0.22738395705606798 -0.9738051838399323
  outer loop
    vertex 245.43417669998757 111.15909007184348 5.02781923435204
    vertex 243.33927152222148 110.95126027324416 5.048354987665759
    vertex 243.33927152222148 111.15909007184348 5.027819234352066
  endloop
endfacet
facet normal -1.2369789749847174e-14 0.032403291193073905 -0.9994748754820488
  outer loop
    vertex 243.33927152222148 110.95126027324416 5.048354987665759
    vertex 245.43417669998757 111.15909007184348 5.02781923435204
    vertex 245.43417669998757 110.95126027324417 5.048354987665733
  endloop
endfacet
facet normal 3.696816695196312e-15 0.6838228751435487 0.7296480490143249
  outer loop
    vertex 245.43417669998755 110.4301246060838 3.6650566480686355
    vertex 243.33927152222148 110.59984261467734 3.5433572647134937
    vertex 243.33927152222148 110.43012460608378 3.665056648068661
  endloop
endfacet
facet normal 7.141701441893339e-15 0.4716753644015973 0.8817722782082801
  outer loop
    vertex 243.33927152222148 110.59984261467734 3.5433572647134937
    vertex 245.43417669998755 110.4301246060838 3.6650566480686355
    vertex 245.43417669998755 110.59984261467736 3.543357264713471
  endloop
endfacet
facet normal 2.7353049424899193e-29 0.8493689870152045 0.5277995110804534
  outer loop
    vertex 243.33927152222148 110.29768771658645 3.826535478415755
    vertex 245.43417669998755 110.21155730134234 4.016789240322989
    vertex 245.43417669998755 110.29768771658645 3.826535478415732
  endloop
endfacet
facet normal -3.696816695196219e-15 0.9570320060703901 0.2899823086963839
  outer loop
    vertex 245.43417669998755 110.21155730134234 4.016789240322989
    vertex 243.33927152222148 110.29768771658645 3.826535478415755
    vertex 243.33927152222148 110.21155730134228 4.016789240323015
  endloop
endfacet
facet normal -7.141701441893386e-15 -0.4716753644015938 -0.8817722782082819
  outer loop
    vertex 245.43417669998755 111.35452319771993 4.95419290984672
    vertex 243.33927152222148 111.15909007184348 5.027819234352066
    vertex 243.33927152222148 111.3545231977199 4.954192909846743
  endloop
endfacet
facet normal -1.009989103754504e-14 -0.2273839570560702 -0.9738051838399318
  outer loop
    vertex 243.33927152222148 111.15909007184348 5.027819234352066
    vertex 245.43417669998755 111.35452319771993 4.95419290984672
    vertex 245.43417669998757 111.15909007184348 5.02781923435204
  endloop
endfacet
facet normal -1.2369789749847176e-14 0.8817722782082806 -0.4716753644015963
  outer loop
    vertex 243.33927152222148 110.27176508363199 4.626115378801395
    vertex 245.43417669998757 110.39346446698717 4.795833387394934
    vertex 245.43417669998757 110.271765083632 4.62611537880137
  endloop
endfacet
facet normal -1.3796707732741296e-14 0.7296480490143261 -0.6838228751435473
  outer loop
    vertex 245.43417669998757 110.39346446698717 4.795833387394934
    vertex 243.33927152222148 110.27176508363199 4.626115378801395
    vertex 243.33927152222148 110.39346446698715 4.79583338739496
  endloop
endfacet
facet normal 1.23697897498472e-14 -0.03240329119307726 0.9994748754820488
  outer loop
    vertex 245.43417669998755 111.00310553915311 3.4491951868944524
    vertex 243.33927152222142 111.20916875315572 3.483149482423803
    vertex 243.33927152222142 111.00310553915307 3.4491951868944777
  endloop
endfacet
facet normal 1.379670773274132e-14 -0.28998230869638136 0.957032006070391
  outer loop
    vertex 243.33927152222142 111.20916875315572 3.483149482423803
    vertex 245.43417669998755 111.00310553915311 3.4491951868944524
    vertex 245.43417669998755 111.20916875315575 3.4831494824237805
  endloop
endfacet
facet normal -1.0099891037545073e-14 0.9738051838399318 -0.22738395705607028
  outer loop
    vertex 243.33927152222148 110.19813875912668 4.4306822529249725
    vertex 245.43417669998757 110.271765083632 4.62611537880137
    vertex 245.43417669998757 110.19813875912669 4.430682252924948
  endloop
endfacet
facet normal -1.2369789749847168e-14 0.8817722782082811 -0.47167536440159546
  outer loop
    vertex 245.43417669998757 110.271765083632 4.62611537880137
    vertex 243.33927152222148 110.19813875912668 4.4306822529249725
    vertex 243.33927152222148 110.27176508363199 4.626115378801395
  endloop
endfacet
facet normal -1.4283402883786693e-14 0.5277995110804518 -0.8493689870152056
  outer loop
    vertex 245.43417669998757 110.55494329733426 4.928270276892261
    vertex 243.33927152222148 110.39346446698715 4.79583338739496
    vertex 243.33927152222148 110.55494329733426 4.928270276892283
  endloop
endfacet
facet normal -1.37967077327413e-14 0.7296480490143256 -0.683822875143548
  outer loop
    vertex 243.33927152222148 110.39346446698715 4.79583338739496
    vertex 245.43417669998757 110.55494329733426 4.928270276892261
    vertex 245.43417669998757 110.39346446698717 4.795833387394934
  endloop
endfacet
facet normal -7.141701441893334e-15 0.9994748754820488 0.03240329119307576
  outer loop
    vertex 243.33927152222148 110.17760300581297 4.2228524543256585
    vertex 245.43417669998757 110.19813875912669 4.430682252924948
    vertex 245.43417669998755 110.17760300581301 4.222852454325634
  endloop
endfacet
facet normal -1.00998910375451e-14 0.9738051838399312 -0.22738395705607298
  outer loop
    vertex 245.43417669998757 110.19813875912669 4.430682252924948
    vertex 243.33927152222148 110.17760300581297 4.2228524543256585
    vertex 243.33927152222148 110.19813875912668 4.4306822529249725
  endloop
endfacet
facet normal 3.696816695196275e-15 0.6838228751435507 0.7296480490143231
  outer loop
    vertex 243.33927152222148 110.43012460608378 3.665056648068661
    vertex 245.43417669998755 110.29768771658645 3.826535478415732
    vertex 245.43417669998755 110.4301246060838 3.6650566480686355
  endloop
endfacet
facet normal 5.571917475442428e-29 0.8493689870152034 0.5277995110804551
  outer loop
    vertex 245.43417669998755 110.29768771658645 3.826535478415732
    vertex 243.33927152222148 110.43012460608378 3.665056648068661
    vertex 243.33927152222148 110.29768771658645 3.826535478415755
  endloop
endfacet
facet normal 7.141701441893343e-15 -0.9994748754820487 -0.03240329119307498
  outer loop
    vertex 245.43417669998755 111.77676280658427 4.274697720234555
    vertex 243.33927152222142 111.75622705327056 4.0668679216352634
    vertex 245.43417669998755 111.75622705327059 4.066867921635238
  endloop
endfacet
facet normal 1.0099891037545104e-14 -0.9738051838399312 0.2273839570560733
  outer loop
    vertex 243.33927152222142 111.75622705327056 4.0668679216352634
    vertex 245.43417669998755 111.77676280658427 4.274697720234555
    vertex 243.33927152222148 111.77676280658427 4.2746977202345775
  endloop
endfacet
facet normal -1.379670773274132e-14 0.2899823086963818 -0.9570320060703909
  outer loop
    vertex 245.43417669998757 110.74519705924153 5.014400692136408
    vertex 243.33927152222148 110.55494329733426 4.928270276892283
    vertex 243.33927152222148 110.74519705924152 5.014400692136433
  endloop
endfacet
facet normal -1.428340288378669e-14 0.5277995110804515 -0.8493689870152057
  outer loop
    vertex 243.33927152222148 110.55494329733426 4.928270276892283
    vertex 245.43417669998757 110.74519705924153 5.014400692136408
    vertex 245.43417669998757 110.55494329733426 4.928270276892261
  endloop
endfacet
facet normal 3.696816695196259e-15 -0.957032006070391 -0.28998230869638114
  outer loop
    vertex 245.43417669998755 111.74280851105495 4.480760934237199
    vertex 243.33927152222148 111.77676280658427 4.2746977202345775
    vertex 245.43417669998755 111.77676280658427 4.274697720234555
  endloop
endfacet
facet normal 7.141701441893376e-15 -0.9994748754820488 -0.03240329119307228
  outer loop
    vertex 243.33927152222148 111.77676280658427 4.2746977202345775
    vertex 245.43417669998755 111.74280851105495 4.480760934237199
    vertex 243.33927152222148 111.74280851105493 4.480760934237221
  endloop
endfacet
facet normal 1.0099891037545076e-14 -0.9738051838399318 0.22738395705607062
  outer loop
    vertex 245.43417669998755 111.75622705327059 4.066867921635238
    vertex 243.33927152222142 111.68260072876522 3.871434795758841
    vertex 245.43417669998755 111.68260072876527 3.8714347957588156
  endloop
endfacet
facet normal 1.2369789749847168e-14 -0.8817722782082811 0.47167536440159546
  outer loop
    vertex 243.33927152222142 111.68260072876522 3.871434795758841
    vertex 245.43417669998755 111.75622705327059 4.066867921635238
    vertex 243.33927152222142 111.75622705327056 4.0668679216352634
  endloop
endfacet
facet normal 1.0 7.009330236944005e-15 -1.0151879337172434e-14
  outer loop
    vertex 245.43417669998757 108.96560235055244 2.9987750872800922
    vertex 245.43417669998755 110.21155730134234 4.016789240322989
    vertex 245.43417669998757 108.96560235055244 7.998775087280088
  endloop
endfacet
facet normal 1.0 7.009330236944005e-15 -1.0151879337172434e-14
  outer loop
    vertex 245.43417669998755 110.21155730134234 4.016789240322989
    vertex 245.43417669998757 108.96560235055244 2.9987750872800922
    vertex 245.43417669998755 110.29768771658645 3.826535478415732
  endloop
endfacet
facet normal 1.0 7.009330236944005e-15 -1.0151879337172434e-14
  outer loop
    vertex 245.43417669998755 110.29768771658645 3.826535478415732
    vertex 245.43417669998757 108.96560235055244 2.9987750872800922
    vertex 245.43417669998755 110.4301246060838 3.6650566480686355
  endloop
endfacet
facet normal 1.0 7.009330236944005e-15 -1.0151879337172434e-14
  outer loop
    vertex 245.43417669998755 110.4301246060838 3.6650566480686355
    vertex 245.43417669998757 108.96560235055244 2.9987750872800922
    vertex 245.43417669998755 110.59984261467736 3.543357264713471
  endloop
endfacet
facet normal 1.0 7.009330236944005e-15 -1.0151879337172434e-14
  outer loop
    vertex 245.43417669998755 110.59984261467736 3.543357264713471
    vertex 245.43417669998757 108.96560235055244 2.9987750872800922
    vertex 245.43417669998755 110.79527574055378 3.4697309402081484
  endloop
endfacet
facet normal 1.0 7.009330236944005e-15 -1.0151879337172434e-14
  outer loop
    vertex 245.43417669998755 110.79527574055378 3.4697309402081484
    vertex 245.43417669998757 108.96560235055244 2.9987750872800922
    vertex 245.4341766999875 112.98876346184483 2.998775087280098
  endloop
endfacet
facet normal 1.0 7.009330236944005e-15 -1.0151879337172434e-14
  outer loop
    vertex 245.43417669998757 108.96560235055244 7.998775087280088
    vertex 245.43417669998755 110.21155730134234 4.016789240322989
    vertex 245.43417669998755 110.17760300581301 4.222852454325634
  endloop
endfacet
facet normal 1.0 7.009330236944005e-15 -1.0151879337172434e-14
  outer loop
    vertex 245.43417669998755 110.79527574055378 3.4697309402081484
    vertex 245.4341766999875 112.98876346184483 2.998775087280098
    vertex 245.43417669998755 111.00310553915311 3.4491951868944524
  endloop
endfacet
facet normal 1.0 7.009330236944005e-15 -1.0151879337172434e-14
  outer loop
    vertex 245.43417669998755 111.00310553915311 3.4491951868944524
    vertex 245.4341766999875 112.98876346184483 2.998775087280098
    vertex 245.43417669998755 111.20916875315575 3.4831494824237805
  endloop
endfacet
facet normal 1.0 7.009330236944005e-15 -1.0151879337172434e-14
  outer loop
    vertex 245.43417669998755 111.20916875315575 3.4831494824237805
    vertex 245.4341766999875 112.98876346184483 2.998775087280098
    vertex 245.43417669998755 111.399422515063 3.5692798976679305
  endloop
endfacet
facet normal 1.0 7.009330236944005e-15 -1.0151879337172434e-14
  outer loop
    vertex 245.43417669998755 111.399422515063 3.5692798976679305
    vertex 245.4341766999875 112.98876346184483 2.998775087280098
    vertex 245.43417669998755 111.56090134541009 3.7017167871652514
  endloop
endfacet
facet normal 1.0 7.009330236944005e-15 -1.0151879337172434e-14
  outer loop
    vertex 245.43417669998755 111.56090134541009 3.7017167871652514
    vertex 245.4341766999875 112.98876346184483 2.998775087280098
    vertex 245.43417669998755 111.68260072876527 3.8714347957588156
  endloop
endfacet
facet normal 1.0 7.009330236944005e-15 -1.0151879337172434e-14
  outer loop
    vertex 245.43417669998755 111.68260072876527 3.8714347957588156
    vertex 245.4341766999875 112.98876346184483 2.998775087280098
    vertex 245.43417669998755 111.75622705327059 4.066867921635238
  endloop
endfacet
facet normal 1.0 7.009330236944005e-15 -1.0151879337172434e-14
  outer loop
    vertex 245.43417669998755 111.75622705327059 4.066867921635238
    vertex 245.4341766999875 112.98876346184483 2.998775087280098
    vertex 245.43417669998755 111.77676280658427 4.274697720234555
  endloop
endfacet
facet normal 1.0 7.009330236944005e-15 -1.0151879337172434e-14
  outer loop
    vertex 245.43417669998755 111.77676280658427 4.274697720234555
    vertex 245.4341766999875 112.98876346184483 2.998775087280098
    vertex 245.43417669998757 111.77676280658427 6.77469772023455
  endloop
endfacet
facet normal 1.0 7.009330236944005e-15 -1.0151879337172434e-14
  outer loop
    vertex 245.43417669998757 108.96560235055244 7.998775087280088
    vertex 245.43417669998757 110.74519705924153 7.514400692136406
    vertex 245.43417669998757 112.98876346184483 7.998775087280088
  endloop
endfacet
facet normal 1.0 7.009330236944005e-15 -1.0151879337172434e-14
  outer loop
    vertex 245.43417669998757 110.74519705924153 7.514400692136406
    vertex 245.43417669998757 108.96560235055244 7.998775087280088
    vertex 245.43417669998757 110.55494329733426 7.428270276892256
  endloop
endfacet
facet normal 1.0 7.009330236944005e-15 -1.0151879337172434e-14
  outer loop
    vertex 245.43417669998757 110.55494329733426 7.428270276892256
    vertex 245.43417669998757 108.96560235055244 7.998775087280088
    vertex 245.43417669998757 110.39346446698717 7.295833387394935
  endloop
endfacet
facet normal 1.0 7.009330236944005e-15 -1.0151879337172434e-14
  outer loop
    vertex 245.43417669998757 110.39346446698717 7.295833387394935
    vertex 245.43417669998757 108.96560235055244 7.998775087280088
    vertex 245.43417669998757 110.271765083632 7.126115378801371
  endloop
endfacet
facet normal 1.0 7.009330236944005e-15 -1.0151879337172434e-14
  outer loop
    vertex 245.43417669998757 110.271765083632 7.126115378801371
    vertex 245.43417669998757 108.96560235055244 7.998775087280088
    vertex 245.43417669998757 110.19813875912669 6.9306822529249485
  endloop
endfacet
facet normal 1.0 7.009330236944005e-15 -1.0151879337172434e-14
  outer loop
    vertex 245.43417669998757 110.19813875912669 6.9306822529249485
    vertex 245.43417669998757 108.96560235055244 7.998775087280088
    vertex 245.43417669998757 110.17760300581301 6.722852454325632
  endloop
endfacet
facet normal 1.0 7.009330236944005e-15 -1.0151879337172434e-14
  outer loop
    vertex 245.43417669998757 110.17760300581301 6.722852454325632
    vertex 245.43417669998757 108.96560235055244 7.998775087280088
    vertex 245.43417669998755 110.17760300581301 4.222852454325634
  endloop
endfacet
facet normal 1.0 7.009330236944005e-15 -1.0151879337172434e-14
  outer loop
    vertex 245.43417669998757 112.98876346184483 7.998775087280088
    vertex 245.43417669998757 110.74519705924153 7.514400692136406
    vertex 245.43417669998757 110.95126027324417 7.548354987665731
  endloop
endfacet
facet normal 1.0 7.009330236944005e-15 -1.0151879337172434e-14
  outer loop
    vertex 245.43417669998757 112.98876346184483 7.998775087280088
    vertex 245.43417669998757 110.95126027324417 7.548354987665731
    vertex 245.43417669998757 111.15909007184348 7.527819234352038
  endloop
endfacet
facet normal 1.0 7.009330236944005e-15 -1.0151879337172434e-14
  outer loop
    vertex 245.43417669998757 112.98876346184483 7.998775087280088
    vertex 245.43417669998757 111.15909007184348 7.527819234352038
    vertex 245.43417669998757 111.35452319771993 7.454192909846718
  endloop
endfacet
facet normal 1.0 7.009330236944005e-15 -1.0151879337172434e-14
  outer loop
    vertex 245.43417669998757 112.98876346184483 7.998775087280088
    vertex 245.43417669998757 111.35452319771993 7.454192909846718
    vertex 245.43417669998757 111.52424120631346 7.332493526491551
  endloop
endfacet
facet normal 1.0 7.009330236944005e-15 -1.0151879337172434e-14
  outer loop
    vertex 245.43417669998757 112.98876346184483 7.998775087280088
    vertex 245.43417669998757 111.52424120631346 7.332493526491551
    vertex 245.43417669998757 111.65667809581079 7.1710146961444545
  endloop
endfacet
facet normal 1.0 7.009330236944005e-15 -1.0151879337172434e-14
  outer loop
    vertex 245.43417669998757 112.98876346184483 7.998775087280088
    vertex 245.43417669998757 111.65667809581079 7.1710146961444545
    vertex 245.43417669998757 111.74280851105495 6.980760934237197
  endloop
endfacet
facet normal 1.0 7.009330236944005e-15 -1.0151879337172434e-14
  outer loop
    vertex 245.43417669998757 112.98876346184483 7.998775087280088
    vertex 245.43417669998757 111.74280851105495 6.980760934237197
    vertex 245.43417669998757 111.77676280658427 6.77469772023455
  endloop
endfacet
facet normal 1.0 7.009330236944005e-15 -1.0151879337172434e-14
  outer loop
    vertex 245.43417669998757 112.98876346184483 7.998775087280088
    vertex 245.43417669998757 111.77676280658427 6.77469772023455
    vertex 245.4341766999875 112.98876346184483 2.998775087280098
  endloop
endfacet
facet normal 1.0 7.009330236944005e-15 -1.0151879337172434e-14
  outer loop
    vertex 245.43417669998757 110.19813875912669 4.430682252924948
    vertex 245.43417669998757 110.17760300581301 6.722852454325632
    vertex 245.43417669998755 110.17760300581301 4.222852454325634
  endloop
endfacet
facet normal 1.0 7.009330236944005e-15 -1.0151879337172434e-14
  outer loop
    vertex 245.43417669998757 110.17760300581301 6.722852454325632
    vertex 245.43417669998757 110.19813875912669 4.430682252924948
    vertex 245.43417669998757 110.21155730134234 6.5167892403229875
  endloop
endfacet
facet normal 1.0 7.009330236944005e-15 -1.0151879337172434e-14
  outer loop
    vertex 245.43417669998757 110.21155730134234 6.5167892403229875
    vertex 245.43417669998757 110.19813875912669 4.430682252924948
    vertex 245.43417669998757 110.271765083632 4.62611537880137
  endloop
endfacet
facet normal 1.0 7.009330236944005e-15 -1.0151879337172434e-14
  outer loop
    vertex 245.43417669998757 110.21155730134234 6.5167892403229875
    vertex 245.43417669998757 110.271765083632 4.62611537880137
    vertex 245.43417669998757 110.29768771658645 6.326535478415731
  endloop
endfacet
facet normal 1.0 7.009330236944005e-15 -1.0151879337172434e-14
  outer loop
    vertex 245.43417669998757 110.29768771658645 6.326535478415731
    vertex 245.43417669998757 110.271765083632 4.62611537880137
    vertex 245.43417669998757 110.39346446698717 4.795833387394934
  endloop
endfacet
facet normal 1.0 7.009330236944005e-15 -1.0151879337172434e-14
  outer loop
    vertex 245.43417669998757 110.29768771658645 6.326535478415731
    vertex 245.43417669998757 110.39346446698717 4.795833387394934
    vertex 245.43417669998757 110.4301246060838 6.165056648068633
  endloop
endfacet
facet normal 1.0 7.009330236944005e-15 -1.0151879337172434e-14
  outer loop
    vertex 245.43417669998757 110.4301246060838 6.165056648068633
    vertex 245.43417669998757 110.39346446698717 4.795833387394934
    vertex 245.43417669998757 110.55494329733426 4.928270276892261
  endloop
endfacet
facet normal 1.0 7.009330236944005e-15 -1.0151879337172434e-14
  outer loop
    vertex 245.43417669998757 110.4301246060838 6.165056648068633
    vertex 245.43417669998757 110.55494329733426 4.928270276892261
    vertex 245.43417669998757 110.59984261467736 6.043357264713467
  endloop
endfacet
facet normal 1.0 7.009330236944005e-15 -1.0151879337172434e-14
  outer loop
    vertex 245.43417669998757 110.59984261467736 6.043357264713467
    vertex 245.43417669998757 110.55494329733426 4.928270276892261
    vertex 245.43417669998757 110.74519705924153 5.014400692136408
  endloop
endfacet
facet normal 1.0 7.009330236944005e-15 -1.0151879337172434e-14
  outer loop
    vertex 245.43417669998757 110.59984261467736 6.043357264713467
    vertex 245.43417669998757 110.74519705924153 5.014400692136408
    vertex 245.43417669998757 110.79527574055378 5.9697309402081435
  endloop
endfacet
facet normal 1.0 7.009330236944005e-15 -1.0151879337172434e-14
  outer loop
    vertex 245.43417669998757 110.79527574055378 5.9697309402081435
    vertex 245.43417669998757 110.74519705924153 5.014400692136408
    vertex 245.43417669998757 110.95126027324417 5.048354987665733
  endloop
endfacet
facet normal 1.0 7.009330236944005e-15 -1.0151879337172434e-14
  outer loop
    vertex 245.43417669998757 110.79527574055378 5.9697309402081435
    vertex 245.43417669998757 110.95126027324417 5.048354987665733
    vertex 245.43417669998757 111.00310553915311 5.949195186894453
  endloop
endfacet
facet normal 1.0 7.009330236944005e-15 -1.0151879337172434e-14
  outer loop
    vertex 245.43417669998757 111.00310553915311 5.949195186894453
    vertex 245.43417669998757 110.95126027324417 5.048354987665733
    vertex 245.43417669998757 111.15909007184348 5.02781923435204
  endloop
endfacet
facet normal 1.0 7.009330236944005e-15 -1.0151879337172434e-14
  outer loop
    vertex 245.43417669998757 111.00310553915311 5.949195186894453
    vertex 245.43417669998757 111.15909007184348 5.02781923435204
    vertex 245.43417669998757 111.20916875315575 5.983149482423779
  endloop
endfacet
facet normal 1.0 7.009330236944005e-15 -1.0151879337172434e-14
  outer loop
    vertex 245.43417669998757 111.20916875315575 5.983149482423779
    vertex 245.43417669998757 111.15909007184348 5.02781923435204
    vertex 245.43417669998755 111.35452319771993 4.95419290984672
  endloop
endfacet
facet normal 1.0 7.009330236944005e-15 -1.0151879337172434e-14
  outer loop
    vertex 245.43417669998757 111.20916875315575 5.983149482423779
    vertex 245.43417669998755 111.35452319771993 4.95419290984672
    vertex 245.43417669998757 111.399422515063 6.069279897667926
  endloop
endfacet
facet normal 1.0 7.009330236944005e-15 -1.0151879337172434e-14
  outer loop
    vertex 245.43417669998757 111.399422515063 6.069279897667926
    vertex 245.43417669998755 111.35452319771993 4.95419290984672
    vertex 245.43417669998755 111.52424120631346 4.832493526491553
  endloop
endfacet
facet normal 1.0 7.009330236944005e-15 -1.0151879337172434e-14
  outer loop
    vertex 245.43417669998757 111.399422515063 6.069279897667926
    vertex 245.43417669998755 111.52424120631346 4.832493526491553
    vertex 245.43417669998757 111.56090134541009 6.201716787165252
  endloop
endfacet
facet normal 1.0 7.009330236944005e-15 -1.0151879337172434e-14
  outer loop
    vertex 245.43417669998757 111.56090134541009 6.201716787165252
    vertex 245.43417669998755 111.52424120631346 4.832493526491553
    vertex 245.43417669998755 111.65667809581079 4.671014696144456
  endloop
endfacet
facet normal 1.0 7.009330236944005e-15 -1.0151879337172434e-14
  outer loop
    vertex 245.43417669998757 111.56090134541009 6.201716787165252
    vertex 245.43417669998755 111.65667809581079 4.671014696144456
    vertex 245.43417669998757 111.68260072876527 6.371434795758817
  endloop
endfacet
facet normal 1.0 7.009330236944005e-15 -1.0151879337172434e-14
  outer loop
    vertex 245.43417669998757 111.68260072876527 6.371434795758817
    vertex 245.43417669998755 111.65667809581079 4.671014696144456
    vertex 245.43417669998755 111.74280851105495 4.480760934237199
  endloop
endfacet
facet normal 1.0 7.009330236944005e-15 -1.0151879337172434e-14
  outer loop
    vertex 245.43417669998757 111.68260072876527 6.371434795758817
    vertex 245.43417669998755 111.74280851105495 4.480760934237199
    vertex 245.43417669998757 111.75622705327059 6.5668679216352395
  endloop
endfacet
facet normal 1.0 7.009330236944005e-15 -1.0151879337172434e-14
  outer loop
    vertex 245.43417669998757 111.75622705327059 6.5668679216352395
    vertex 245.43417669998755 111.74280851105495 4.480760934237199
    vertex 245.43417669998755 111.77676280658427 4.274697720234555
  endloop
endfacet
facet normal 1.0 7.009330236944005e-15 -1.0151879337172434e-14
  outer loop
    vertex 245.43417669998757 111.75622705327059 6.5668679216352395
    vertex 245.43417669998755 111.77676280658427 4.274697720234555
    vertex 245.43417669998757 111.77676280658427 6.77469772023455
  endloop
endfacet
facet normal 4.3050342220580416e-15 -0.8817722782082812 0.4716753644015951
  outer loop
    vertex 245.43417669998757 111.68260072876527 6.371434795758817
    vertex 243.3392715222215 111.56090134541009 6.201716787165286
    vertex 245.43417669998757 111.56090134541009 6.201716787165252
  endloop
endfacet
facet normal 8.316687476288229e-15 -0.7296480490143264 0.683822875143547
  outer loop
    vertex 243.3392715222215 111.56090134541009 6.201716787165286
    vertex 245.43417669998757 111.68260072876527 6.371434795758817
    vertex 243.3392715222215 111.68260072876527 6.371434795758851
  endloop
endfacet
facet normal -1.440492525960313e-14 0.2899823086963811 -0.957032006070391
  outer loop
    vertex 245.43417669998757 110.74519705924153 7.514400692136406
    vertex 243.3392715222215 110.55494329733426 7.42827027689229
    vertex 243.3392715222215 110.74519705924153 7.51440069213644
  endloop
endfacet
facet normal -1.1761572222985414e-14 0.5277995110804506 -0.849368987015206
  outer loop
    vertex 243.3392715222215 110.55494329733426 7.42827027689229
    vertex 245.43417669998757 110.74519705924153 7.514400692136406
    vertex 245.43417669998757 110.55494329733426 7.428270276892256
  endloop
endfacet
facet normal -8.547827945281005e-29 0.9738051838399312 -0.2273839570560729
  outer loop
    vertex 243.3392715222215 110.19813875912669 6.93068225292498
    vertex 245.43417669998757 110.271765083632 7.126115378801371
    vertex 245.43417669998757 110.19813875912669 6.9306822529249485
  endloop
endfacet
facet normal -4.305034222058071e-15 0.8817722782082804 -0.4716753644015967
  outer loop
    vertex 245.43417669998757 110.271765083632 7.126115378801371
    vertex 243.3392715222215 110.19813875912669 6.93068225292498
    vertex 243.3392715222215 110.271765083632 7.126115378801402
  endloop
endfacet
facet normal -1.1761572222985404e-14 -0.8493689870152044 -0.5277995110804534
  outer loop
    vertex 245.43417669998757 111.65667809581079 7.1710146961444545
    vertex 243.3392715222215 111.74280851105495 6.980760934237231
    vertex 245.43417669998757 111.74280851105495 6.980760934237197
  endloop
endfacet
facet normal -8.316687476288267e-15 -0.9570320060703916 -0.28998230869637903
  outer loop
    vertex 243.3392715222215 111.74280851105495 6.980760934237231
    vertex 245.43417669998757 111.65667809581079 7.1710146961444545
    vertex 243.3392715222215 111.6566780958108 7.171014696144488
  endloop
endfacet
facet normal -4.305034222058048e-15 -0.9994748754820487 -0.03240329119307458
  outer loop
    vertex 245.43417669998757 111.77676280658427 6.77469772023455
    vertex 243.3392715222215 111.75622705327059 6.566867921635273
    vertex 245.43417669998757 111.75622705327059 6.5668679216352395
  endloop
endfacet
facet normal 4.609495366047832e-29 -0.9738051838399318 0.2273839570560706
  outer loop
    vertex 243.3392715222215 111.75622705327059 6.566867921635273
    vertex 245.43417669998757 111.77676280658427 6.77469772023455
    vertex 243.3392715222215 111.77676280658427 6.774697720234585
  endloop
endfacet
facet normal -1.4404925259603124e-14 -0.6838228751435511 -0.7296480490143227
  outer loop
    vertex 245.43417669998757 111.52424120631346 7.332493526491551
    vertex 243.3392715222215 111.6566780958108 7.171014696144488
    vertex 245.43417669998757 111.65667809581079 7.1710146961444545
  endloop
endfacet
facet normal -1.1761572222985423e-14 -0.8493689870152032 -0.527799511080455
  outer loop
    vertex 243.3392715222215 111.6566780958108 7.171014696144488
    vertex 245.43417669998757 111.52424120631346 7.332493526491551
    vertex 243.3392715222215 111.52424120631349 7.332493526491585
  endloop
endfacet
facet normal 1.6066606445043447e-14 0.47167536440159763 0.8817722782082797
  outer loop
    vertex 245.43417669998757 110.59984261467736 6.043357264713467
    vertex 243.3392715222215 110.7952757405538 5.969730940208177
    vertex 243.3392715222215 110.59984261467736 6.0433572647135
  endloop
endfacet
facet normal 1.6633374952576616e-14 0.22738395705607184 0.9738051838399315
  outer loop
    vertex 243.3392715222215 110.7952757405538 5.969730940208177
    vertex 245.43417669998757 110.59984261467736 6.043357264713467
    vertex 245.43417669998757 110.79527574055378 5.9697309402081435
  endloop
endfacet
facet normal -1.663337495257661e-14 -0.22738395705606915 -0.9738051838399321
  outer loop
    vertex 245.43417669998757 111.15909007184348 7.527819234352038
    vertex 243.3392715222215 110.95126027324417 7.548354987665765
    vertex 243.3392715222215 111.15909007184348 7.527819234352072
  endloop
endfacet
facet normal -1.6066606445043462e-14 0.032403291193074266 -0.9994748754820489
  outer loop
    vertex 243.3392715222215 110.95126027324417 7.548354987665765
    vertex 245.43417669998757 111.15909007184348 7.527819234352038
    vertex 245.43417669998757 110.95126027324417 7.548354987665731
  endloop
endfacet
facet normal -8.316687476288333e-15 -0.9570320060703904 -0.28998230869638325
  outer loop
    vertex 245.43417669998757 111.74280851105495 6.980760934237197
    vertex 243.3392715222215 111.77676280658427 6.774697720234585
    vertex 245.43417669998757 111.77676280658427 6.77469772023455
  endloop
endfacet
facet normal -4.305034222057982e-15 -0.9994748754820489 -0.03240329119307044
  outer loop
    vertex 243.3392715222215 111.77676280658427 6.774697720234585
    vertex 245.43417669998757 111.74280851105495 6.980760934237197
    vertex 243.3392715222215 111.74280851105495 6.980760934237231
  endloop
endfacet
facet normal -1.6066606445043456e-14 -0.4716753644015969 -0.8817722782082803
  outer loop
    vertex 245.43417669998757 111.35452319771993 7.454192909846718
    vertex 243.3392715222215 111.15909007184348 7.527819234352072
    vertex 243.3392715222215 111.35452319771993 7.454192909846749
  endloop
endfacet
facet normal -1.663337495257661e-14 -0.2273839570560686 -0.9738051838399322
  outer loop
    vertex 243.3392715222215 111.15909007184348 7.527819234352072
    vertex 245.43417669998757 111.35452319771993 7.454192909846718
    vertex 245.43417669998757 111.15909007184348 7.527819234352038
  endloop
endfacet
facet normal 1.440492525960313e-14 -0.2899823086963816 0.957032006070391
  outer loop
    vertex 245.43417669998757 111.20916875315575 5.983149482423779
    vertex 243.3392715222215 111.39942251506302 6.06927989766796
    vertex 243.3392715222215 111.20916875315575 5.983149482423813
  endloop
endfacet
facet normal 1.1761572222985388e-14 -0.5277995110804525 0.8493689870152049
  outer loop
    vertex 243.3392715222215 111.39942251506302 6.06927989766796
    vertex 245.43417669998757 111.20916875315575 5.983149482423779
    vertex 245.43417669998757 111.399422515063 6.069279897667926
  endloop
endfacet
facet normal 1.1761572222985404e-14 0.8493689870152044 0.5277995110804534
  outer loop
    vertex 243.3392715222215 110.29768771658648 6.326535478415765
    vertex 245.43417669998757 110.21155730134234 6.5167892403229875
    vertex 245.43417669998757 110.29768771658645 6.326535478415731
  endloop
endfacet
facet normal 8.316687476288306e-15 0.9570320060703907 0.28998230869638164
  outer loop
    vertex 245.43417669998757 110.21155730134234 6.5167892403229875
    vertex 243.3392715222215 110.29768771658648 6.326535478415765
    vertex 243.3392715222215 110.21155730134234 6.516789240323021
  endloop
endfacet
facet normal 4.305034222058026e-15 0.9994748754820489 0.03240329119307318
  outer loop
    vertex 243.3392715222215 110.17760300581301 6.722852454325666
    vertex 245.43417669998757 110.19813875912669 6.9306822529249485
    vertex 245.43417669998757 110.17760300581301 6.722852454325632
  endloop
endfacet
facet normal -4.242255350620944e-29 0.9738051838399318 -0.2273839570560703
  outer loop
    vertex 245.43417669998757 110.19813875912669 6.9306822529249485
    vertex 243.3392715222215 110.17760300581301 6.722852454325666
    vertex 243.3392715222215 110.19813875912669 6.93068225292498
  endloop
endfacet
facet normal -1.4404925259603124e-14 -0.6838228751435511 -0.7296480490143227
  outer loop
    vertex 245.43417669998757 111.52424120631346 7.332493526491551
    vertex 243.3392715222215 111.35452319771993 7.454192909846749
    vertex 243.3392715222215 111.52424120631349 7.332493526491585
  endloop
endfacet
facet normal -1.6066606445043456e-14 -0.47167536440159663 -0.8817722782082804
  outer loop
    vertex 243.3392715222215 111.35452319771993 7.454192909846749
    vertex 245.43417669998757 111.52424120631346 7.332493526491551
    vertex 245.43417669998757 111.35452319771993 7.454192909846718
  endloop
endfacet
facet normal -1.1761572222985388e-14 0.5277995110804525 -0.8493689870152049
  outer loop
    vertex 245.43417669998757 110.55494329733426 7.428270276892256
    vertex 243.3392715222215 110.3934644669872 7.295833387394966
    vertex 243.3392715222215 110.55494329733426 7.42827027689229
  endloop
endfacet
facet normal -8.316687476288194e-15 0.7296480490143281 -0.6838228751435452
  outer loop
    vertex 243.3392715222215 110.3934644669872 7.295833387394966
    vertex 245.43417669998757 110.55494329733426 7.428270276892256
    vertex 245.43417669998757 110.39346446698717 7.295833387394935
  endloop
endfacet
facet normal 1.663337495257661e-14 0.2273839570560721 0.9738051838399314
  outer loop
    vertex 245.43417669998757 110.79527574055378 5.9697309402081435
    vertex 243.3392715222215 111.00310553915311 5.949195186894487
    vertex 243.3392715222215 110.7952757405538 5.969730940208177
  endloop
endfacet
facet normal 1.6066606445043447e-14 -0.0324032911930769 0.9994748754820487
  outer loop
    vertex 243.3392715222215 111.00310553915311 5.949195186894487
    vertex 245.43417669998757 110.79527574055378 5.9697309402081435
    vertex 245.43417669998757 111.00310553915311 5.949195186894453
  endloop
endfacet
facet normal 8.316687476288306e-15 0.9570320060703909 0.2899823086963816
  outer loop
    vertex 243.3392715222215 110.21155730134234 6.516789240323021
    vertex 245.43417669998757 110.17760300581301 6.722852454325632
    vertex 245.43417669998757 110.21155730134234 6.5167892403229875
  endloop
endfacet
facet normal 4.305034222058033e-15 0.9994748754820488 0.03240329119307361
  outer loop
    vertex 245.43417669998757 110.17760300581301 6.722852454325632
    vertex 243.3392715222215 110.21155730134234 6.516789240323021
    vertex 243.3392715222215 110.17760300581301 6.722852454325666
  endloop
endfacet
facet normal 1.1761572222985414e-14 -0.5277995110804506 0.849368987015206
  outer loop
    vertex 245.43417669998757 111.399422515063 6.069279897667926
    vertex 243.3392715222215 111.56090134541009 6.201716787165286
    vertex 243.3392715222215 111.39942251506302 6.06927989766796
  endloop
endfacet
facet normal 8.316687476288229e-15 -0.7296480490143264 0.683822875143547
  outer loop
    vertex 243.3392715222215 111.56090134541009 6.201716787165286
    vertex 245.43417669998757 111.399422515063 6.069279897667926
    vertex 245.43417669998757 111.56090134541009 6.201716787165252
  endloop
endfacet
facet normal 9.294971424942603e-29 -0.9738051838399312 0.22738395705607328
  outer loop
    vertex 245.43417669998757 111.75622705327059 6.5668679216352395
    vertex 243.3392715222215 111.68260072876527 6.371434795758851
    vertex 245.43417669998757 111.68260072876527 6.371434795758817
  endloop
endfacet
facet normal 4.305034222058033e-15 -0.8817722782082815 0.4716753644015946
  outer loop
    vertex 243.3392715222215 111.68260072876527 6.371434795758851
    vertex 245.43417669998757 111.75622705327059 6.5668679216352395
    vertex 243.3392715222215 111.75622705327059 6.566867921635273
  endloop
endfacet
facet normal 1.440492525960315e-14 0.683822875143549 0.7296480490143246
  outer loop
    vertex 245.43417669998757 110.4301246060838 6.165056648068633
    vertex 243.3392715222215 110.59984261467736 6.0433572647135
    vertex 243.3392715222215 110.4301246060838 6.165056648068667
  endloop
endfacet
facet normal 1.6066606445043443e-14 0.47167536440159885 0.8817722782082794
  outer loop
    vertex 243.3392715222215 110.59984261467736 6.0433572647135
    vertex 245.43417669998757 110.4301246060838 6.165056648068633
    vertex 245.43417669998757 110.59984261467736 6.043357264713467
  endloop
endfacet
facet normal 1.4404925259603137e-14 0.6838228751435504 0.7296480490143235
  outer loop
    vertex 243.3392715222215 110.4301246060838 6.165056648068667
    vertex 245.43417669998757 110.29768771658645 6.326535478415731
    vertex 245.43417669998757 110.4301246060838 6.165056648068633
  endloop
endfacet
facet normal 1.1761572222985423e-14 0.8493689870152032 0.527799511080455
  outer loop
    vertex 245.43417669998757 110.29768771658645 6.326535478415731
    vertex 243.3392715222215 110.4301246060838 6.165056648068667
    vertex 243.3392715222215 110.29768771658648 6.326535478415765
  endloop
endfacet
facet normal -3.696816695196241e-15 -0.6838228751435523 -0.7296480490143215
  outer loop
    vertex 245.43417669998755 111.52424120631346 4.832493526491553
    vertex 243.33927152222148 111.65667809581079 4.671014696144481
    vertex 245.43417669998755 111.65667809581079 4.671014696144456
  endloop
endfacet
facet normal -5.711215412328489e-29 -0.8493689870152034 -0.5277995110804552
  outer loop
    vertex 243.33927152222148 111.65667809581079 4.671014696144481
    vertex 245.43417669998755 111.52424120631346 4.832493526491553
    vertex 243.33927152222148 111.52424120631346 4.832493526491575
  endloop
endfacet
facet normal -3.696816695196241e-15 -0.6838228751435523 -0.7296480490143215
  outer loop
    vertex 245.43417669998755 111.52424120631346 4.832493526491553
    vertex 243.33927152222148 111.3545231977199 4.954192909846743
    vertex 243.33927152222148 111.52424120631346 4.832493526491575
  endloop
endfacet
facet normal -7.141701441893353e-15 -0.4716753644015964 -0.8817722782082807
  outer loop
    vertex 243.33927152222148 111.3545231977199 4.954192909846743
    vertex 245.43417669998755 111.52424120631346 4.832493526491553
    vertex 245.43417669998755 111.35452319771993 4.95419290984672
  endloop
endfacet
facet normal -4.305034222058004e-15 0.8817722782082823 -0.471675364401593
  outer loop
    vertex 243.3392715222215 110.271765083632 7.126115378801402
    vertex 245.43417669998757 110.39346446698717 7.295833387394935
    vertex 245.43417669998757 110.271765083632 7.126115378801371
  endloop
endfacet
facet normal -8.316687476288259e-15 0.7296480490143251 -0.6838228751435486
  outer loop
    vertex 245.43417669998757 110.39346446698717 7.295833387394935
    vertex 243.3392715222215 110.271765083632 7.126115378801402
    vertex 243.3392715222215 110.3934644669872 7.295833387394966
  endloop
endfacet
facet normal -1.0095802351140984e-15 -1.7523325592360202e-16 -1.0
  outer loop
    vertex 245.43417669998757 112.98876346184483 7.998775087280088
    vertex 243.33927152222148 108.9656023505524 7.9987750872800945
    vertex 243.33927152222142 112.98876346184483 7.998775087280088
  endloop
endfacet
facet normal -1.0095802351140984e-15 -1.7523325592360202e-16 -1.0
  outer loop
    vertex 243.33927152222148 108.9656023505524 7.9987750872800945
    vertex 245.43417669998757 112.98876346184483 7.998775087280088
    vertex 245.43417669998757 108.96560235055244 7.998775087280088
  endloop
endfacet
facet normal 1.6066606445043453e-14 -0.03240329119307593 0.9994748754820488
  outer loop
    vertex 245.43417669998757 111.00310553915311 5.949195186894453
    vertex 243.3392715222215 111.20916875315575 5.983149482423813
    vertex 243.3392715222215 111.00310553915311 5.949195186894487
  endloop
endfacet
facet normal 1.440492525960312e-14 -0.2899823086963823 0.9570320060703907
  outer loop
    vertex 243.3392715222215 111.20916875315575 5.983149482423813
    vertex 245.43417669998757 111.00310553915311 5.949195186894453
    vertex 245.43417669998757 111.20916875315575 5.983149482423779
  endloop
endfacet
facet normal -1.6066606445043456e-14 0.03240329119307525 -0.9994748754820488
  outer loop
    vertex 245.43417669998757 110.95126027324417 7.548354987665731
    vertex 243.3392715222215 110.74519705924153 7.51440069213644
    vertex 243.3392715222215 110.95126027324417 7.548354987665765
  endloop
endfacet
facet normal -1.4404925259603143e-14 0.28998230869637953 -0.9570320060703914
  outer loop
    vertex 243.3392715222215 110.74519705924153 7.51440069213644
    vertex 245.43417669998757 110.95126027324417 7.548354987665731
    vertex 245.43417669998757 110.74519705924153 7.514400692136406
  endloop
endfacet
facet normal -1.2552495899031856e-14 1.0 -7.290752755390269e-15
  outer loop
    vertex 241.8367241111045 113.93449519412924 16.19877508728004
    vertex 242.8867241111045 113.93449519412927 8.998775087280068
    vertex 241.8367241111045 113.93449519412927 8.998775087280064
  endloop
endfacet
facet normal -1.2552495899031856e-14 1.0 -7.290752755390269e-15
  outer loop
    vertex 242.8867241111045 113.93449519412927 8.998775087280068
    vertex 241.8367241111045 113.93449519412924 16.19877508728004
    vertex 244.3367241111045 113.93449519412927 11.89877508728007
  endloop
endfacet
facet normal -1.2552495899031856e-14 1.0 -7.290752755390269e-15
  outer loop
    vertex 244.3367241111045 113.93449519412927 11.89877508728007
    vertex 246.83672411110453 113.93449519412927 8.998775087280075
    vertex 245.7867241111045 113.93449519412927 8.99877508728007
  endloop
endfacet
facet normal -1.2552495899031856e-14 1.0 -7.290752755390269e-15
  outer loop
    vertex 246.83672411110453 113.93449519412927 8.998775087280075
    vertex 244.3367241111045 113.93449519412927 11.89877508728007
    vertex 246.83672411110453 113.93449519412938 16.198775087280097
  endloop
endfacet
facet normal -1.2552495899031856e-14 1.0 -7.290752755390269e-15
  outer loop
    vertex 246.83672411110453 113.93449519412938 16.198775087280097
    vertex 244.3367241111045 113.93449519412927 11.89877508728007
    vertex 241.8367241111045 113.93449519412924 16.19877508728004
  endloop
endfacet
facet normal 0.8944271909999161 0.0 0.44721359549995804
  outer loop
    vertex 245.7867241111045 116.43449519412924 8.99877508728007
    vertex 244.3367241111045 113.93449519412927 11.89877508728007
    vertex 245.7867241111045 113.93449519412927 8.99877508728007
  endloop
endfacet
facet normal 0.8944271909999161 0.0 0.44721359549995804
  outer loop
    vertex 244.3367241111045 113.93449519412927 11.89877508728007
    vertex 245.7867241111045 116.43449519412924 8.99877508728007
    vertex 244.3367241111045 116.43449519412924 11.89877508728007
  endloop
endfacet
facet normal -0.8944271909999162 0.0 0.4472135954999576
  outer loop
    vertex 244.3367241111045 116.43449519412924 11.89877508728007
    vertex 242.8867241111045 113.93449519412927 8.998775087280068
    vertex 244.3367241111045 113.93449519412927 11.89877508728007
  endloop
endfacet
facet normal -0.8944271909999162 0.0 0.4472135954999576
  outer loop
    vertex 242.8867241111045 113.93449519412927 8.998775087280068
    vertex 244.3367241111045 116.43449519412924 11.89877508728007
    vertex 242.8867241111045 116.43449519412924 8.998775087280068
  endloop
endfacet
facet normal 0.8944271909999139 -3.7668133889728656e-15 0.44721359549996176
  outer loop
    vertex 245.7867241111045 108.93233859564327 8.998775087280068
    vertex 244.33672411110447 105.53233859564328 11.898775087280068
    vertex 245.7867241111045 105.53233859564328 8.998775087280064
  endloop
endfacet
facet normal 0.8944271909999139 -3.7668133889728656e-15 0.44721359549996176
  outer loop
    vertex 244.33672411110447 105.53233859564328 11.898775087280068
    vertex 245.7867241111045 108.93233859564327 8.998775087280068
    vertex 244.33672411110447 108.93233859564327 11.89877508728007
  endloop
endfacet
facet normal -0.8944271909999183 3.0632419226417276e-15 0.44721359549995304
  outer loop
    vertex 244.33672411110447 108.93233859564327 11.89877508728007
    vertex 242.88672411110448 105.53233859564328 8.99877508728006
    vertex 244.33672411110447 105.53233859564328 11.898775087280068
  endloop
endfacet
facet normal -0.8944271909999183 3.0632419226417276e-15 0.44721359549995304
  outer loop
    vertex 242.88672411110448 105.53233859564328 8.99877508728006
    vertex 244.33672411110447 108.93233859564327 11.89877508728007
    vertex 242.8867241111045 108.93233859564327 8.998775087280064
  endloop
endfacet
facet normal -1.1742373770965373e-15 -8.553804799990711e-16 1.0
  outer loop
    vertex 249.9367241111045 105.53233859564324 8.998775087280068
    vertex 245.7867241111045 108.93233859564327 8.998775087280068
    vertex 245.7867241111045 105.53233859564328 8.998775087280064
  endloop
endfacet
facet normal -1.1742373770965373e-15 -8.553804799990711e-16 1.0
  outer loop
    vertex 245.7867241111045 108.93233859564327 8.998775087280068
    vertex 249.9367241111045 105.53233859564324 8.998775087280068
    vertex 247.3367241111045 108.93233859564327 8.998775087280068
  endloop
endfacet
facet normal -1.1742373770965373e-15 -8.553804799990711e-16 1.0
  outer loop
    vertex 246.83672411110453 113.93449519412927 8.998775087280075
    vertex 245.7867241111045 116.43449519412924 8.99877508728007
    vertex 245.7867241111045 113.93449519412927 8.99877508728007
  endloop
endfacet
facet normal -1.1742373770965373e-15 -8.553804799990711e-16 1.0
  outer loop
    vertex 245.7867241111045 116.43449519412924 8.99877508728007
    vertex 246.83672411110453 113.93449519412927 8.998775087280075
    vertex 249.9367241111045 116.43449519412927 8.998775087280078
  endloop
endfacet
facet normal -1.1742373770965373e-15 -8.553804799990711e-16 1.0
  outer loop
    vertex 249.9367241111045 116.43449519412927 8.998775087280078
    vertex 246.83672411110453 113.93449519412927 8.998775087280075
    vertex 247.3367241111045 108.93233859564327 8.998775087280068
  endloop
endfacet
facet normal -1.1742373770965373e-15 -8.553804799990711e-16 1.0
  outer loop
    vertex 249.9367241111045 116.43449519412927 8.998775087280078
    vertex 247.3367241111045 108.93233859564327 8.998775087280068
    vertex 249.9367241111045 105.53233859564324 8.998775087280068
  endloop
endfacet
endsolid RatHeadPhones_FinalModel_Jan2015
