solid RatHeadPhones_FinalModel_Jan2015
facet normal -4.995636218941594e-13 8.518580214107331e-13 1.0
  outer loop
    vertex 209.82106229629653 100.49806186099057 16.70000000001132
    vertex 211.03888483848704 105.49431172650824 16.700000000006586
    vertex 210.95814912297288 105.87747686837221 16.700000000006202
  endloop
endfacet
facet normal -4.995636218941594e-13 8.518580214107331e-13 1.0
  outer loop
    vertex 211.03888483848704 105.49431172650824 16.700000000006586
    vertex 209.82106229629653 100.49806186099057 16.70000000001132
    vertex 211.21603998733985 105.14509856104318 16.700000000006952
  endloop
endfacet
facet normal -4.995636218941594e-13 8.518580214107331e-13 1.0
  outer loop
    vertex 211.21603998733985 105.14509856104318 16.700000000006952
    vertex 209.82106229629653 100.49806186099057 16.70000000001132
    vertex 211.47754173889976 104.85363567210143 16.700000000007357
  endloop
endfacet
facet normal -4.995636218941594e-13 8.518580214107331e-13 1.0
  outer loop
    vertex 211.47754173889976 104.85363567210143 16.700000000007357
    vertex 209.82106229629653 100.49806186099057 16.70000000001132
    vertex 211.80556918095004 104.63978577389913 16.70000000000767
  endloop
endfacet
facet normal -4.995636218941594e-13 8.518580214107331e-13 1.0
  outer loop
    vertex 211.80556918095004 104.63978577389913 16.70000000000767
    vertex 209.82106229629653 100.49806186099057 16.70000000001132
    vertex 212.17776778540596 104.51812238359508 16.700000000007996
  endloop
endfacet
facet normal -4.995636218941594e-13 8.518580214107331e-13 1.0
  outer loop
    vertex 212.17776778540596 104.51812238359508 16.700000000007996
    vertex 209.82106229629653 100.49806186099057 16.70000000001132
    vertex 212.5687728324611 104.49693666018031 16.700000000008203
  endloop
endfacet
facet normal -4.995636218941594e-13 8.518580214107331e-13 1.0
  outer loop
    vertex 212.5687728324611 104.49693666018031 16.700000000008203
    vertex 209.82106229629653 100.49806186099057 16.70000000001132
    vertex 212.95193797432506 104.57767237569446 16.700000000008345
  endloop
endfacet
facet normal -4.995636218941594e-13 8.518580214107331e-13 1.0
  outer loop
    vertex 212.95193797432506 104.57767237569446 16.700000000008345
    vertex 209.82106229629653 100.49806186099057 16.70000000001132
    vertex 213.30115113979008 104.75482752454727 16.700000000008338
  endloop
endfacet
facet normal -4.995636218941594e-13 8.518580214107331e-13 1.0
  outer loop
    vertex 213.30115113979008 104.75482752454727 16.700000000008338
    vertex 209.82106229629653 100.49806186099057 16.70000000001132
    vertex 218.2481092759238 107.87538381432857 16.700000000007922
  endloop
endfacet
facet normal -4.995636218941594e-13 8.518580214107331e-13 1.0
  outer loop
    vertex 213.30115113979008 104.75482752454727 16.700000000008338
    vertex 218.2481092759238 107.87538381432857 16.700000000007922
    vertex 213.59261402873187 105.01632927610721 16.70000000000824
  endloop
endfacet
facet normal -4.995636218941594e-13 8.518580214107331e-13 1.0
  outer loop
    vertex 213.59261402873187 105.01632927610721 16.70000000000824
    vertex 218.2481092759238 107.87538381432857 16.700000000007922
    vertex 213.80646392693416 105.3443567181575 16.700000000008092
  endloop
endfacet
facet normal -4.995636218941594e-13 8.518580214107331e-13 1.0
  outer loop
    vertex 213.80646392693416 105.3443567181575 16.700000000008092
    vertex 218.2481092759238 107.87538381432857 16.700000000007922
    vertex 213.92812731723822 105.7165553226134 16.700000000007844
  endloop
endfacet
facet normal -4.995636218941594e-13 8.518580214107331e-13 1.0
  outer loop
    vertex 213.92812731723822 105.7165553226134 16.700000000007844
    vertex 218.2481092759238 107.87538381432857 16.700000000007922
    vertex 213.94931304065295 106.10756036966852 16.70000000000752
  endloop
endfacet
facet normal -4.995636218941594e-13 8.518580214107331e-13 1.0
  outer loop
    vertex 213.94931304065295 106.10756036966852 16.70000000000752
    vertex 218.2481092759238 107.87538381432857 16.700000000007922
    vertex 215.08639986732933 111.48697537705011 16.70000000000314
  endloop
endfacet
facet normal -4.995636218941594e-13 8.518580214107331e-13 1.0
  outer loop
    vertex 206.65935288770194 104.1096534237121 16.70000000000505
    vertex 211.314848134894 106.96870796193355 16.700000000005456
    vertex 215.08639986732933 111.48697537705011 16.70000000000314
  endloop
endfacet
facet normal -4.995636218941594e-13 8.518580214107331e-13 1.0
  outer loop
    vertex 211.314848134894 106.96870796193355 16.700000000005456
    vertex 206.65935288770194 104.1096534237121 16.70000000000505
    vertex 211.10099823669165 106.64068051988323 16.700000000005627
  endloop
endfacet
facet normal -4.995636218941594e-13 8.518580214107331e-13 1.0
  outer loop
    vertex 211.10099823669165 106.64068051988323 16.700000000005627
    vertex 206.65935288770194 104.1096534237121 16.70000000000505
    vertex 210.97933484638767 106.26848191542736 16.700000000005897
  endloop
endfacet
facet normal -4.995636218941594e-13 8.518580214107331e-13 1.0
  outer loop
    vertex 210.97933484638767 106.26848191542736 16.700000000005897
    vertex 206.65935288770194 104.1096534237121 16.70000000000505
    vertex 209.82106229629653 100.49806186099057 16.70000000001132
  endloop
endfacet
facet normal -4.995636218941594e-13 8.518580214107331e-13 1.0
  outer loop
    vertex 210.97933484638767 106.26848191542736 16.700000000005897
    vertex 209.82106229629653 100.49806186099057 16.70000000001132
    vertex 210.95814912297288 105.87747686837221 16.700000000006202
  endloop
endfacet
facet normal -4.995636218941594e-13 8.518580214107331e-13 1.0
  outer loop
    vertex 215.08639986732933 111.48697537705011 16.70000000000314
    vertex 211.314848134894 106.96870796193355 16.700000000005456
    vertex 211.6063110238358 107.2302097134934 16.700000000005378
  endloop
endfacet
facet normal -4.995636218941594e-13 8.518580214107331e-13 1.0
  outer loop
    vertex 215.08639986732933 111.48697537705011 16.70000000000314
    vertex 211.6063110238358 107.2302097134934 16.700000000005378
    vertex 211.9555241893008 107.40736486234628 16.700000000005428
  endloop
endfacet
facet normal -4.995636218941594e-13 8.518580214107331e-13 1.0
  outer loop
    vertex 215.08639986732933 111.48697537705011 16.70000000000314
    vertex 211.9555241893008 107.40736486234628 16.700000000005428
    vertex 212.33868933116477 107.48810057786038 16.70000000000554
  endloop
endfacet
facet normal -4.995636218941594e-13 8.518580214107331e-13 1.0
  outer loop
    vertex 215.08639986732933 111.48697537705011 16.70000000000314
    vertex 212.33868933116477 107.48810057786038 16.70000000000554
    vertex 212.7296943782199 107.46691485444565 16.700000000005744
  endloop
endfacet
facet normal -4.995636218941594e-13 8.518580214107331e-13 1.0
  outer loop
    vertex 215.08639986732933 111.48697537705011 16.70000000000314
    vertex 212.7296943782199 107.46691485444565 16.700000000005744
    vertex 213.1018929826758 107.3452514641416 16.700000000006032
  endloop
endfacet
facet normal -4.995636218941594e-13 8.518580214107331e-13 1.0
  outer loop
    vertex 215.08639986732933 111.48697537705011 16.70000000000314
    vertex 213.1018929826758 107.3452514641416 16.700000000006032
    vertex 213.4299204247261 107.1314015659393 16.700000000006387
  endloop
endfacet
facet normal -4.995636218941594e-13 8.518580214107331e-13 1.0
  outer loop
    vertex 215.08639986732933 111.48697537705011 16.70000000000314
    vertex 213.4299204247261 107.1314015659393 16.700000000006387
    vertex 213.691422176286 106.8399386769975 16.70000000000678
  endloop
endfacet
facet normal -4.995636218941594e-13 8.518580214107331e-13 1.0
  outer loop
    vertex 215.08639986732933 111.48697537705011 16.70000000000314
    vertex 213.691422176286 106.8399386769975 16.70000000000678
    vertex 213.86857732513883 106.49072551153246 16.700000000007147
  endloop
endfacet
facet normal -4.995636218941594e-13 8.518580214107331e-13 1.0
  outer loop
    vertex 215.08639986732933 111.48697537705011 16.70000000000314
    vertex 213.86857732513883 106.49072551153246 16.700000000007147
    vertex 213.94931304065295 106.10756036966852 16.70000000000752
  endloop
endfacet
facet normal 0.6586894601193359 -0.7524149088951506 9.98128641539654e-13
  outer loop
    vertex 218.24810927590622 107.87538381428985 -0.9999999999877567
    vertex 217.11948691256998 106.88734962411921 1.000000000016303
    vertex 209.82106229629457 100.49806186096546 -0.9999999999754952
  endloop
endfacet
facet normal 0.6586894601193359 -0.7524149088951506 9.98128641539654e-13
  outer loop
    vertex 217.11948691256998 106.88734962411921 1.000000000016303
    vertex 218.24810927590622 107.87538381428985 -0.9999999999877567
    vertex 218.2481092759238 107.87538381432857 16.700000000007922
  endloop
endfacet
facet normal 0.6586894601193359 -0.7524149088951506 9.98128641539654e-13
  outer loop
    vertex 217.11948691256998 106.88734962411921 1.000000000016303
    vertex 218.2481092759238 107.87538381432857 16.700000000007922
    vertex 217.119486912572 106.88734962413714 13.200000000007162
  endloop
endfacet
facet normal 0.6586894601193359 -0.7524149088951506 9.98128641539654e-13
  outer loop
    vertex 217.119486912572 106.88734962413714 13.200000000007162
    vertex 218.2481092759238 107.87538381432857 16.700000000007922
    vertex 210.9496846596312 101.48609605115804 13.200000000016123
  endloop
endfacet
facet normal 0.6586894601193359 -0.7524149088951506 9.98128641539654e-13
  outer loop
    vertex 209.82106229629457 100.49806186096546 -0.9999999999754952
    vertex 210.94968465962916 101.48609605114005 1.0000000000252856
    vertex 209.82106229629653 100.49806186099057 16.70000000001132
  endloop
endfacet
facet normal 0.6586894601193359 -0.7524149088951506 9.98128641539654e-13
  outer loop
    vertex 210.94968465962916 101.48609605114005 1.0000000000252856
    vertex 209.82106229629457 100.49806186096546 -0.9999999999754952
    vertex 217.11948691256998 106.88734962411921 1.000000000016303
  endloop
endfacet
facet normal 0.6586894601193359 -0.7524149088951506 9.98128641539654e-13
  outer loop
    vertex 209.82106229629653 100.49806186099057 16.70000000001132
    vertex 210.94968465962916 101.48609605114005 1.0000000000252856
    vertex 210.9496846596312 101.48609605115804 13.200000000016123
  endloop
endfacet
facet normal 0.6586894601193359 -0.7524149088951506 9.98128641539654e-13
  outer loop
    vertex 209.82106229629653 100.49806186099057 16.70000000001132
    vertex 210.9496846596312 101.48609605115804 13.200000000016123
    vertex 218.2481092759238 107.87538381432857 16.700000000007922
  endloop
endfacet
facet normal -0.6586894601193339 0.7524149088951524 -9.967959003183878e-13
  outer loop
    vertex 213.59146485814935 108.18467779528842 1.0000000000149623
    vertex 214.94581169415451 109.37031882349795 1.0000000000129918
    vertex 213.5914648581493 108.1846777952876 0.40000000000581226
  endloop
endfacet
facet normal -0.6586894601193339 0.7524149088951524 -9.967959003183878e-13
  outer loop
    vertex 211.48470311323945 106.34034730696754 13.200000000008847
    vertex 212.23711802214837 106.99903676709928 13.50000000001681
    vertex 212.23711802214837 106.99903676709883 13.200000000007748
  endloop
endfacet
facet normal -0.6586894601193339 0.7524149088951524 -9.967959003183878e-13
  outer loop
    vertex 212.23711802214837 106.99903676709928 13.50000000001681
    vertex 211.48470311323945 106.34034730696754 13.200000000008847
    vertex 211.4847031132394 106.34034730696804 13.500000000017904
  endloop
endfacet
facet normal -0.6586894601193339 0.7524149088951524 -9.967959003183878e-13
  outer loop
    vertex 212.23711802214837 106.99903676709928 13.50000000001681
    vertex 212.53808398570672 107.26251255114758 13.800000000015011
    vertex 212.5380839857065 107.26251255114717 13.500000000016387
  endloop
endfacet
facet normal -0.6586894601193339 0.7524149088951524 -9.967959003183878e-13
  outer loop
    vertex 212.53808398570672 107.26251255114758 13.800000000015011
    vertex 212.23711802214837 106.99903676709928 13.50000000001681
    vertex 211.4847031132394 106.34034730696804 13.500000000017904
  endloop
endfacet
facet normal -0.6586894601193339 0.7524149088951524 -9.967959003183878e-13
  outer loop
    vertex 212.53808398570672 107.26251255114758 13.800000000015011
    vertex 211.4847031132394 106.34034730696804 13.500000000017904
    vertex 211.18373714968126 106.07687152292014 13.500000000018368
  endloop
endfacet
facet normal -0.6586894601193339 0.7524149088951524 -9.967959003183878e-13
  outer loop
    vertex 212.53808398570672 107.26251255114758 13.800000000015011
    vertex 211.18373714968126 106.07687152292014 13.500000000018368
    vertex 211.18373714968143 106.07687152292064 13.80000000001699
  endloop
endfacet
facet normal -0.6586894601193339 0.7524149088951524 -9.967959003183878e-13
  outer loop
    vertex 207.64738707787893 102.98103106034421 -0.9999999999787804
    vertex 210.13035627723667 105.15470627874305 0.400000000010854
    vertex 213.5914648581493 108.1846777952876 0.40000000000581226
  endloop
endfacet
facet normal -0.6586894601193339 0.7524149088951524 -9.967959003183878e-13
  outer loop
    vertex 210.13035627723667 105.15470627874305 0.400000000010854
    vertex 207.64738707787893 102.98103106034421 -0.9999999999787804
    vertex 208.77600944121372 103.96906525051891 1.0000000000219695
  endloop
endfacet
facet normal -0.6586894601193339 0.7524149088951524 -9.967959003183878e-13
  outer loop
    vertex 208.77600944121372 103.96906525051891 1.0000000000219695
    vertex 207.64738707787893 102.98103106034421 -0.9999999999787804
    vertex 207.64738707788075 102.98103106036727 15.200000000006554
  endloop
endfacet
facet normal -0.6586894601193339 0.7524149088951524 -9.967959003183878e-13
  outer loop
    vertex 213.5914648581493 108.1846777952876 0.40000000000581226
    vertex 210.13035627723667 105.15470627874305 0.400000000010854
    vertex 210.73228820433965 105.68165784682716 0.4000000000099774
  endloop
endfacet
facet normal -0.6586894601193339 0.7524149088951524 -9.967959003183878e-13
  outer loop
    vertex 213.5914648581493 108.1846777952876 0.40000000000581226
    vertex 210.73228820433965 105.68165784682716 0.4000000000099774
    vertex 212.9895329310417 107.65772622719967 0.4000000000066972
  endloop
endfacet
facet normal -0.6586894601193339 0.7524149088951524 -9.967959003183878e-13
  outer loop
    vertex 210.13035627723667 105.15470627874305 0.400000000010854
    vertex 208.77600944121372 103.96906525051891 1.0000000000219695
    vertex 210.1303562772367 105.15470627874399 1.0000000000200002
  endloop
endfacet
facet normal -0.6586894601193339 0.7524149088951524 -9.967959003183878e-13
  outer loop
    vertex 208.77600944121372 103.96906525051891 1.0000000000219695
    vertex 207.64738707788075 102.98103106036727 15.200000000006554
    vertex 208.7760094412158 103.96906525053679 13.200000000012801
  endloop
endfacet
facet normal -0.6586894601193339 0.7524149088951524 -9.967959003183878e-13
  outer loop
    vertex 208.7760094412158 103.96906525053679 13.200000000012801
    vertex 207.64738707788075 102.98103106036727 15.200000000006554
    vertex 210.13035627723895 105.15470627876283 13.800000000018514
  endloop
endfacet
facet normal -0.6586894601193339 0.7524149088951524 -9.967959003183878e-13
  outer loop
    vertex 210.13035627723895 105.15470627876283 13.800000000018514
    vertex 207.64738707788075 102.98103106036727 15.200000000006554
    vertex 216.07443405750683 110.35835301370412 15.199999999994237
  endloop
endfacet
facet normal -0.6586894601193339 0.7524149088951524 -9.967959003183878e-13
  outer loop
    vertex 216.07443405749078 110.35835301366863 -0.9999999999910377
    vertex 214.94581169415451 109.37031882349795 1.0000000000129918
    vertex 216.07443405750683 110.35835301370412 15.199999999994237
  endloop
endfacet
facet normal -0.6586894601193339 0.7524149088951524 -9.967959003183878e-13
  outer loop
    vertex 214.94581169415451 109.37031882349795 1.0000000000129918
    vertex 216.07443405749078 110.35835301366863 -0.9999999999910377
    vertex 213.5914648581493 108.1846777952876 0.40000000000581226
  endloop
endfacet
facet normal -0.6586894601193339 0.7524149088951524 -9.967959003183878e-13
  outer loop
    vertex 213.5914648581493 108.1846777952876 0.40000000000581226
    vertex 216.07443405749078 110.35835301366863 -0.9999999999910377
    vertex 207.64738707787893 102.98103106034421 -0.9999999999787804
  endloop
endfacet
facet normal -0.6586894601193339 0.7524149088951524 -9.967959003183878e-13
  outer loop
    vertex 216.07443405750683 110.35835301370412 15.199999999994237
    vertex 214.94581169415451 109.37031882349795 1.0000000000129918
    vertex 214.94581169415645 109.370318823516 13.200000000003817
  endloop
endfacet
facet normal -0.6586894601193339 0.7524149088951524 -9.967959003183878e-13
  outer loop
    vertex 216.07443405750683 110.35835301370412 15.199999999994237
    vertex 214.94581169415645 109.370318823516 13.200000000003817
    vertex 213.5914648581513 108.18467779530641 13.200000000005785
  endloop
endfacet
facet normal -0.6586894601193339 0.7524149088951524 -9.967959003183878e-13
  outer loop
    vertex 216.07443405750683 110.35835301370412 15.199999999994237
    vertex 213.5914648581513 108.18467779530641 13.200000000005785
    vertex 213.59146485815145 108.18467779530735 13.800000000013481
  endloop
endfacet
facet normal -0.6586894601193339 0.7524149088951524 -9.967959003183878e-13
  outer loop
    vertex 216.07443405750683 110.35835301370412 15.199999999994237
    vertex 213.59146485815145 108.18467779530735 13.800000000013481
    vertex 212.53808398570672 107.26251255114758 13.800000000015011
  endloop
endfacet
facet normal -0.6586894601193339 0.7524149088951524 -9.967959003183878e-13
  outer loop
    vertex 216.07443405750683 110.35835301370412 15.199999999994237
    vertex 212.53808398570672 107.26251255114758 13.800000000015011
    vertex 211.18373714968143 106.07687152292064 13.80000000001699
  endloop
endfacet
facet normal -0.6586894601193339 0.7524149088951524 -9.967959003183878e-13
  outer loop
    vertex 216.07443405750683 110.35835301370412 15.199999999994237
    vertex 211.18373714968143 106.07687152292064 13.80000000001699
    vertex 210.13035627723895 105.15470627876283 13.800000000018514
  endloop
endfacet
facet normal -0.6586894601193339 0.7524149088951524 -9.967959003183878e-13
  outer loop
    vertex 210.13035627723895 105.15470627876283 13.800000000018514
    vertex 210.13035627723875 105.15470627876192 13.200000000010816
    vertex 208.7760094412158 103.96906525053679 13.200000000012801
  endloop
endfacet
facet normal -0.6586894601193339 0.7524149088951524 -9.967959003183878e-13
  outer loop
    vertex 210.73228820433965 105.68165784682716 0.4000000000099774
    vertex 212.98953293104165 107.65772622720017 0.7000000000156961
    vertex 212.9895329310417 107.65772622719967 0.4000000000066972
  endloop
endfacet
facet normal -0.6586894601193339 0.7524149088951524 -9.967959003183878e-13
  outer loop
    vertex 212.98953293104165 107.65772622720017 0.7000000000156961
    vertex 210.73228820433965 105.68165784682716 0.4000000000099774
    vertex 212.68856696748355 107.39425044315226 0.7000000000161127
  endloop
endfacet
facet normal -0.6586894601193339 0.7524149088951524 -9.967959003183878e-13
  outer loop
    vertex 212.68856696748355 107.39425044315226 0.7000000000161127
    vertex 210.73228820433965 105.68165784682716 0.4000000000099774
    vertex 211.0332541679001 105.94513363087738 0.700000000018528
  endloop
endfacet
facet normal -0.6586894601193339 0.7524149088951524 -9.967959003183878e-13
  outer loop
    vertex 211.0332541679001 105.94513363087738 0.700000000018528
    vertex 210.73228820433965 105.68165784682716 0.4000000000099774
    vertex 210.73228820433968 105.68165784682755 0.7000000000189813
  endloop
endfacet
facet normal -0.6586894601193339 0.7524149088951524 -9.967959003183878e-13
  outer loop
    vertex 211.0332541679001 105.94513363087738 0.700000000018528
    vertex 212.68856696748355 107.39425044315273 1.000000000016285
    vertex 212.68856696748355 107.39425044315226 0.7000000000161127
  endloop
endfacet
facet normal -0.6586894601193339 0.7524149088951524 -9.967959003183878e-13
  outer loop
    vertex 212.68856696748355 107.39425044315273 1.000000000016285
    vertex 211.0332541679001 105.94513363087738 0.700000000018528
    vertex 211.0332541679001 105.94513363087786 1.0000000000187002
  endloop
endfacet
facet normal -0.752414908895156 -0.6586894601193298 1.0956685679973566e-12
  outer loop
    vertex 217.119486912572 106.88734962413714 13.200000000007162
    vertex 214.94581169415451 109.37031882349795 1.0000000000129918
    vertex 217.11948691256998 106.88734962411921 1.000000000016303
  endloop
endfacet
facet normal -0.752414908895156 -0.6586894601193298 1.0956685679973566e-12
  outer loop
    vertex 214.94581169415451 109.37031882349795 1.0000000000129918
    vertex 217.119486912572 106.88734962413714 13.200000000007162
    vertex 214.94581169415645 109.370318823516 13.200000000003817
  endloop
endfacet
facet normal -0.6586894601193359 0.7524149088951506 -9.98128641539654e-13
  outer loop
    vertex 214.833863419374 105.55096448229534 0.40000000000946817
    vertex 215.43579534648163 106.07791605038402 1.000000000017758
    vertex 215.43579534648157 106.07791605038317 0.4000000000086095
  endloop
endfacet
facet normal -0.6586894601193359 0.7524149088951506 -9.98128641539654e-13
  outer loop
    vertex 215.43579534648163 106.07791605038402 1.000000000017758
    vertex 214.833863419374 105.55096448229534 0.40000000000946817
    vertex 214.833863419374 105.55096448229578 0.7000000000184998
  endloop
endfacet
facet normal -0.6586894601193359 0.7524149088951506 -9.98128641539654e-13
  outer loop
    vertex 215.43579534648163 106.07791605038402 1.000000000017758
    vertex 214.833863419374 105.55096448229578 0.7000000000184998
    vertex 214.53289745581588 105.28748869824791 0.7000000000189658
  endloop
endfacet
facet normal -0.6586894601193359 0.7524149088951506 -9.98128641539654e-13
  outer loop
    vertex 215.43579534648163 106.07791605038402 1.000000000017758
    vertex 214.53289745581588 105.28748869824791 0.7000000000189658
    vertex 214.53289745581583 105.28748869824844 1.0000000000190787
  endloop
endfacet
facet normal -0.6586894601193359 0.7524149088951506 -9.98128641539654e-13
  outer loop
    vertex 211.97468676556898 103.0479445338387 0.4000000000136477
    vertex 212.576618692672 103.57489610192319 0.7000000000217974
    vertex 212.57661869267196 103.57489610192282 0.40000000001276964
  endloop
endfacet
facet normal -0.6586894601193359 0.7524149088951506 -9.98128641539654e-13
  outer loop
    vertex 212.576618692672 103.57489610192319 0.7000000000217974
    vertex 211.97468676556898 103.0479445338387 0.4000000000136477
    vertex 211.97468676556898 103.04794453383963 1.0000000000227895
  endloop
endfacet
facet normal -0.6586894601193359 0.7524149088951506 -9.98128641539654e-13
  outer loop
    vertex 212.576618692672 103.57489610192319 0.7000000000217974
    vertex 211.97468676556898 103.04794453383963 1.0000000000227895
    vertex 212.8775846562324 103.83837188597354 1.0000000000214901
  endloop
endfacet
facet normal -0.6586894601193359 0.7524149088951506 -9.98128641539654e-13
  outer loop
    vertex 212.8775846562324 103.83837188597354 1.0000000000214901
    vertex 212.87758465623241 103.83837188597302 0.7000000000213684
    vertex 212.576618692672 103.57489610192319 0.7000000000217974
  endloop
endfacet
facet normal -0.6586894601193359 0.7524149088951506 -9.98128641539654e-13
  outer loop
    vertex 214.08144851048064 104.89227502219491 13.50000000001963
    vertex 214.38241447403882 105.1557508062428 13.500000000019202
    vertex 214.08144851048056 104.89227502219453 13.200000000010585
  endloop
endfacet
facet normal -0.6586894601193359 0.7524149088951506 -9.98128641539654e-13
  outer loop
    vertex 214.08144851048056 104.89227502219453 13.200000000010585
    vertex 215.43579534648387 106.07791605040285 13.800000000016302
    vertex 215.4357953464836 106.07791605040204 13.200000000008616
  endloop
endfacet
facet normal -0.6586894601193359 0.7524149088951506 -9.98128641539654e-13
  outer loop
    vertex 215.43579534648387 106.07791605040285 13.800000000016302
    vertex 214.08144851048056 104.89227502219453 13.200000000010585
    vertex 214.38241447403882 105.1557508062428 13.500000000019202
  endloop
endfacet
facet normal -0.6586894601193359 0.7524149088951506 -9.98128641539654e-13
  outer loop
    vertex 215.43579534648387 106.07791605040285 13.800000000016302
    vertex 214.38241447403882 105.1557508062428 13.500000000019202
    vertex 214.382414474039 105.15575080624328 13.800000000017825
  endloop
endfacet
facet normal -0.6586894601193359 0.7524149088951506 -9.98128641539654e-13
  outer loop
    vertex 211.97468676557102 103.04794453385759 13.200000000013658
    vertex 213.32903360157167 104.23358556206368 13.500000000020714
    vertex 213.32903360157172 104.23358556206318 13.200000000011679
  endloop
endfacet
facet normal -0.6586894601193359 0.7524149088951506 -9.98128641539654e-13
  outer loop
    vertex 213.32903360157167 104.23358556206368 13.500000000020714
    vertex 211.97468676557102 103.04794453385759 13.200000000013658
    vertex 213.02806763801357 103.97010977801582 13.500000000021187
  endloop
endfacet
facet normal -0.6586894601193359 0.7524149088951506 -9.98128641539654e-13
  outer loop
    vertex 213.02806763801357 103.97010977801582 13.500000000021187
    vertex 211.97468676557102 103.04794453385759 13.200000000013658
    vertex 211.97468676557125 103.04794453385846 13.800000000021328
  endloop
endfacet
facet normal -0.6586894601193359 0.7524149088951506 -9.98128641539654e-13
  outer loop
    vertex 213.02806763801357 103.97010977801582 13.500000000021187
    vertex 211.97468676557125 103.04794453385846 13.800000000021328
    vertex 213.02806763801377 103.97010977801628 13.800000000019816
  endloop
endfacet
facet normal -2.765190453497585e-13 -1.5686409297323998e-12 -1.0
  outer loop
    vertex 216.07443405749078 110.35835301366863 -0.9999999999910377
    vertex 209.82106229629457 100.49806186096546 -0.9999999999754952
    vertex 207.64738707787893 102.98103106034421 -0.9999999999787804
  endloop
endfacet
facet normal -2.765190453497585e-13 -1.5686409297323998e-12 -1.0
  outer loop
    vertex 209.82106229629457 100.49806186096546 -0.9999999999754952
    vertex 216.07443405749078 110.35835301366863 -0.9999999999910377
    vertex 218.24810927590622 107.87538381428985 -0.9999999999877567
  endloop
endfacet
facet normal 0.7524149088951501 0.6586894601193365 -2.259311044023612e-12
  outer loop
    vertex 216.07443405749078 110.35835301366863 -0.9999999999910377
    vertex 218.2481092759238 107.87538381432857 16.700000000007922
    vertex 218.24810927590622 107.87538381428985 -0.9999999999877567
  endloop
endfacet
facet normal 0.7524149088951501 0.6586894601193365 -2.259311044023612e-12
  outer loop
    vertex 218.2481092759238 107.87538381432857 16.700000000007922
    vertex 216.07443405749078 110.35835301366863 -0.9999999999910377
    vertex 216.07443405750683 110.35835301370412 15.199999999994237
  endloop
endfacet
facet normal 0.7524149088951501 0.6586894601193365 -2.259311044023612e-12
  outer loop
    vertex 218.2481092759238 107.87538381432857 16.700000000007922
    vertex 216.07443405750683 110.35835301370412 15.199999999994237
    vertex 215.08639986732933 111.48697537705011 16.70000000000314
  endloop
endfacet
facet normal 0.7524149088951501 0.6586894601193365 -2.259311044023612e-12
  outer loop
    vertex 215.08639986732933 111.48697537705011 16.70000000000314
    vertex 216.07443405750683 110.35835301370412 15.199999999994237
    vertex 215.0863998673278 111.48697537704683 15.199999999992809
  endloop
endfacet
facet normal -0.7524149088951501 -0.6586894601193365 1.5440117000110266e-12
  outer loop
    vertex 209.82106229629653 100.49806186099057 16.70000000001132
    vertex 207.64738707787893 102.98103106034421 -0.9999999999787804
    vertex 209.82106229629457 100.49806186096546 -0.9999999999754952
  endloop
endfacet
facet normal -0.7524149088951501 -0.6586894601193365 1.5440117000110266e-12
  outer loop
    vertex 207.64738707787893 102.98103106034421 -0.9999999999787804
    vertex 209.82106229629653 100.49806186099057 16.70000000001132
    vertex 207.64738707788075 102.98103106036727 15.200000000006554
  endloop
endfacet
facet normal -0.7524149088951501 -0.6586894601193365 1.5440117000110266e-12
  outer loop
    vertex 207.64738707788075 102.98103106036727 15.200000000006554
    vertex 209.82106229629653 100.49806186099057 16.70000000001132
    vertex 206.65935288770194 104.1096534237121 16.70000000000505
  endloop
endfacet
facet normal -0.7524149088951501 -0.6586894601193365 1.5440117000110266e-12
  outer loop
    vertex 207.64738707788075 102.98103106036727 15.200000000006554
    vertex 206.65935288770194 104.1096534237121 16.70000000000505
    vertex 206.65935288770171 104.10965342370997 15.200000000005048
  endloop
endfacet
facet normal 0.7524149088951501 0.6586894601193365 -1.0947875963009917e-12
  outer loop
    vertex 210.13035627723875 105.15470627876192 13.200000000010816
    vertex 211.97468676557125 103.04794453385846 13.800000000021328
    vertex 211.97468676557102 103.04794453385759 13.200000000013658
  endloop
endfacet
facet normal 0.7524149088951501 0.6586894601193365 -1.0947875963009917e-12
  outer loop
    vertex 211.97468676557125 103.04794453385846 13.800000000021328
    vertex 210.13035627723875 105.15470627876192 13.200000000010816
    vertex 210.13035627723895 105.15470627876283 13.800000000018514
  endloop
endfacet
facet normal 0.7524149088969506 0.6586894601172798 -1.2125668885863054e-12
  outer loop
    vertex 208.77600944121372 103.96906525051891 1.0000000000219695
    vertex 210.9496846596312 101.48609605115804 13.200000000016123
    vertex 210.94968465962916 101.48609605114005 1.0000000000252856
  endloop
endfacet
facet normal 0.7524149088969506 0.6586894601172798 -1.2125668885863054e-12
  outer loop
    vertex 210.9496846596312 101.48609605115804 13.200000000016123
    vertex 208.77600944121372 103.96906525051891 1.0000000000219695
    vertex 208.7760094412158 103.96906525053679 13.200000000012801
  endloop
endfacet
facet normal 0.7524149088951501 0.6586894601193365 -1.0947875963009917e-12
  outer loop
    vertex 210.13035627723667 105.15470627874305 0.400000000010854
    vertex 211.97468676556898 103.04794453383963 1.0000000000227895
    vertex 211.97468676556898 103.0479445338387 0.4000000000136477
  endloop
endfacet
facet normal 0.7524149088951501 0.6586894601193365 -1.0947875963009917e-12
  outer loop
    vertex 211.97468676556898 103.04794453383963 1.0000000000227895
    vertex 210.13035627723667 105.15470627874305 0.400000000010854
    vertex 210.1303562772367 105.15470627874399 1.0000000000200002
  endloop
endfacet
facet normal 1.6627769350406195e-13 1.4721319216417774e-12 1.0
  outer loop
    vertex 211.97468676556898 103.0479445338387 0.4000000000136477
    vertex 210.73228820433965 105.68165784682716 0.4000000000099774
    vertex 210.13035627723667 105.15470627874305 0.400000000010854
  endloop
endfacet
facet normal 1.6627769350406195e-13 1.4721319216417774e-12 1.0
  outer loop
    vertex 210.73228820433965 105.68165784682716 0.4000000000099774
    vertex 211.97468676556898 103.0479445338387 0.4000000000136477
    vertex 212.57661869267196 103.57489610192282 0.40000000001276964
  endloop
endfacet
facet normal -0.7524149088951501 -0.6586894601193365 1.0947875963009917e-12
  outer loop
    vertex 212.576618692672 103.57489610192319 0.7000000000217974
    vertex 210.73228820433965 105.68165784682716 0.4000000000099774
    vertex 212.57661869267196 103.57489610192282 0.40000000001276964
  endloop
endfacet
facet normal -0.7524149088951501 -0.6586894601193365 1.0947875963009917e-12
  outer loop
    vertex 210.73228820433965 105.68165784682716 0.4000000000099774
    vertex 212.576618692672 103.57489610192319 0.7000000000217974
    vertex 210.73228820433968 105.68165784682755 0.7000000000189813
  endloop
endfacet
facet normal 1.6627769350406195e-13 1.4721319216417774e-12 1.0
  outer loop
    vertex 212.576618692672 103.57489610192319 0.7000000000217974
    vertex 211.0332541679001 105.94513363087738 0.700000000018528
    vertex 210.73228820433968 105.68165784682755 0.7000000000189813
  endloop
endfacet
facet normal 1.6627769350406195e-13 1.4721319216417774e-12 1.0
  outer loop
    vertex 211.0332541679001 105.94513363087738 0.700000000018528
    vertex 212.576618692672 103.57489610192319 0.7000000000217974
    vertex 212.87758465623241 103.83837188597302 0.7000000000213684
  endloop
endfacet
facet normal -0.7524149088951501 -0.6586894601193365 1.0996003390978735e-12
  outer loop
    vertex 212.8775846562324 103.83837188597354 1.0000000000214901
    vertex 211.0332541679001 105.94513363087738 0.700000000018528
    vertex 212.87758465623241 103.83837188597302 0.7000000000213684
  endloop
endfacet
facet normal -0.7524149088951501 -0.6586894601193365 1.0996003390978735e-12
  outer loop
    vertex 211.0332541679001 105.94513363087738 0.700000000018528
    vertex 212.8775846562324 103.83837188597354 1.0000000000214901
    vertex 211.0332541679001 105.94513363087786 1.0000000000187002
  endloop
endfacet
facet normal 0.7524149088951501 0.6586894601193365 -1.0947875963009917e-12
  outer loop
    vertex 212.68856696748355 107.39425044315226 0.7000000000161127
    vertex 214.53289745581583 105.28748869824844 1.0000000000190787
    vertex 214.53289745581588 105.28748869824791 0.7000000000189658
  endloop
endfacet
facet normal 0.7524149088951501 0.6586894601193365 -1.0947875963009917e-12
  outer loop
    vertex 214.53289745581583 105.28748869824844 1.0000000000190787
    vertex 212.68856696748355 107.39425044315226 0.7000000000161127
    vertex 212.68856696748355 107.39425044315273 1.000000000016285
  endloop
endfacet
facet normal 1.6627769350406195e-13 1.4721319216417774e-12 1.0
  outer loop
    vertex 214.53289745581588 105.28748869824791 0.7000000000189658
    vertex 212.98953293104165 107.65772622720017 0.7000000000156961
    vertex 212.68856696748355 107.39425044315226 0.7000000000161127
  endloop
endfacet
facet normal 1.6627769350406195e-13 1.4721319216417774e-12 1.0
  outer loop
    vertex 212.98953293104165 107.65772622720017 0.7000000000156961
    vertex 214.53289745581588 105.28748869824791 0.7000000000189658
    vertex 214.833863419374 105.55096448229578 0.7000000000184998
  endloop
endfacet
facet normal 0.7524149088951501 0.6586894601193365 -1.0947875963009917e-12
  outer loop
    vertex 212.9895329310417 107.65772622719967 0.4000000000066972
    vertex 214.833863419374 105.55096448229578 0.7000000000184998
    vertex 214.833863419374 105.55096448229534 0.40000000000946817
  endloop
endfacet
facet normal 0.7524149088951501 0.6586894601193365 -1.0947875963009917e-12
  outer loop
    vertex 214.833863419374 105.55096448229578 0.7000000000184998
    vertex 212.9895329310417 107.65772622719967 0.4000000000066972
    vertex 212.98953293104165 107.65772622720017 0.7000000000156961
  endloop
endfacet
facet normal 1.6627769350406195e-13 1.4721319216417774e-12 1.0
  outer loop
    vertex 214.833863419374 105.55096448229534 0.40000000000946817
    vertex 213.5914648581493 108.1846777952876 0.40000000000581226
    vertex 212.9895329310417 107.65772622719967 0.4000000000066972
  endloop
endfacet
facet normal 1.6627769350406195e-13 1.4721319216417774e-12 1.0
  outer loop
    vertex 213.5914648581493 108.1846777952876 0.40000000000581226
    vertex 214.833863419374 105.55096448229534 0.40000000000946817
    vertex 215.43579534648157 106.07791605038317 0.4000000000086095
  endloop
endfacet
facet normal -0.7524149088951501 -0.6586894601193365 1.0947875963009917e-12
  outer loop
    vertex 215.43579534648163 106.07791605038402 1.000000000017758
    vertex 213.5914648581493 108.1846777952876 0.40000000000581226
    vertex 215.43579534648157 106.07791605038317 0.4000000000086095
  endloop
endfacet
facet normal -0.7524149088951501 -0.6586894601193365 1.0947875963009917e-12
  outer loop
    vertex 213.5914648581493 108.1846777952876 0.40000000000581226
    vertex 215.43579534648163 106.07791605038402 1.000000000017758
    vertex 213.59146485814935 108.18467779528842 1.0000000000149623
  endloop
endfacet
facet normal 1.6627769350406195e-13 1.4721319216417774e-12 1.0
  outer loop
    vertex 210.94968465962916 101.48609605114005 1.0000000000252856
    vertex 210.1303562772367 105.15470627874399 1.0000000000200002
    vertex 208.77600944121372 103.96906525051891 1.0000000000219695
  endloop
endfacet
facet normal 1.6627769350406195e-13 1.4721319216417774e-12 1.0
  outer loop
    vertex 210.1303562772367 105.15470627874399 1.0000000000200002
    vertex 210.94968465962916 101.48609605114005 1.0000000000252856
    vertex 211.97468676556898 103.04794453383963 1.0000000000227895
  endloop
endfacet
facet normal 1.6627769350406195e-13 1.4721319216417774e-12 1.0
  outer loop
    vertex 211.97468676556898 103.04794453383963 1.0000000000227895
    vertex 210.94968465962916 101.48609605114005 1.0000000000252856
    vertex 217.11948691256998 106.88734962411921 1.000000000016303
  endloop
endfacet
facet normal 1.6627769350406195e-13 1.4721319216417774e-12 1.0
  outer loop
    vertex 211.97468676556898 103.04794453383963 1.0000000000227895
    vertex 217.11948691256998 106.88734962411921 1.000000000016303
    vertex 212.8775846562324 103.83837188597354 1.0000000000214901
  endloop
endfacet
facet normal 1.6627769350406195e-13 1.4721319216417774e-12 1.0
  outer loop
    vertex 212.8775846562324 103.83837188597354 1.0000000000214901
    vertex 217.11948691256998 106.88734962411921 1.000000000016303
    vertex 214.53289745581583 105.28748869824844 1.0000000000190787
  endloop
endfacet
facet normal 1.6627769350406195e-13 1.4721319216417774e-12 1.0
  outer loop
    vertex 214.53289745581583 105.28748869824844 1.0000000000190787
    vertex 217.11948691256998 106.88734962411921 1.000000000016303
    vertex 215.43579534648163 106.07791605038402 1.000000000017758
  endloop
endfacet
facet normal 1.6627769350406195e-13 1.4721319216417774e-12 1.0
  outer loop
    vertex 215.43579534648163 106.07791605038402 1.000000000017758
    vertex 214.94581169415451 109.37031882349795 1.0000000000129918
    vertex 213.59146485814935 108.18467779528842 1.0000000000149623
  endloop
endfacet
facet normal 1.6627769350406195e-13 1.4721319216417774e-12 1.0
  outer loop
    vertex 214.94581169415451 109.37031882349795 1.0000000000129918
    vertex 215.43579534648163 106.07791605038402 1.000000000017758
    vertex 217.11948691256998 106.88734962411921 1.000000000016303
  endloop
endfacet
facet normal 1.6627769350406195e-13 1.4721319216417774e-12 1.0
  outer loop
    vertex 212.8775846562324 103.83837188597354 1.0000000000214901
    vertex 212.68856696748355 107.39425044315273 1.000000000016285
    vertex 211.0332541679001 105.94513363087786 1.0000000000187002
  endloop
endfacet
facet normal 1.6627769350406195e-13 1.4721319216417774e-12 1.0
  outer loop
    vertex 212.68856696748355 107.39425044315273 1.000000000016285
    vertex 212.8775846562324 103.83837188597354 1.0000000000214901
    vertex 214.53289745581583 105.28748869824844 1.0000000000190787
  endloop
endfacet
facet normal -1.6627769350406195e-13 -1.4721319216417774e-12 -1.0
  outer loop
    vertex 212.23711802214837 106.99903676709883 13.200000000007748
    vertex 213.32903360157172 104.23358556206318 13.200000000011679
    vertex 211.48470311323945 106.34034730696754 13.200000000008847
  endloop
endfacet
facet normal -1.6627769350406195e-13 -1.4721319216417774e-12 -1.0
  outer loop
    vertex 213.32903360157172 104.23358556206318 13.200000000011679
    vertex 212.23711802214837 106.99903676709883 13.200000000007748
    vertex 214.08144851048056 104.89227502219453 13.200000000010585
  endloop
endfacet
facet normal -1.6627769350406195e-13 -1.4721319216417774e-12 -1.0
  outer loop
    vertex 214.94581169415645 109.370318823516 13.200000000003817
    vertex 215.4357953464836 106.07791605040204 13.200000000008616
    vertex 213.5914648581513 108.18467779530641 13.200000000005785
  endloop
endfacet
facet normal -1.6627769350406195e-13 -1.4721319216417774e-12 -1.0
  outer loop
    vertex 215.4357953464836 106.07791605040204 13.200000000008616
    vertex 214.94581169415645 109.370318823516 13.200000000003817
    vertex 217.119486912572 106.88734962413714 13.200000000007162
  endloop
endfacet
facet normal -1.6627769350406195e-13 -1.4721319216417774e-12 -1.0
  outer loop
    vertex 210.13035627723875 105.15470627876192 13.200000000010816
    vertex 210.9496846596312 101.48609605115804 13.200000000016123
    vertex 208.7760094412158 103.96906525053679 13.200000000012801
  endloop
endfacet
facet normal -1.6627769350406195e-13 -1.4721319216417774e-12 -1.0
  outer loop
    vertex 210.9496846596312 101.48609605115804 13.200000000016123
    vertex 210.13035627723875 105.15470627876192 13.200000000010816
    vertex 211.97468676557102 103.04794453385759 13.200000000013658
  endloop
endfacet
facet normal -1.6627769350406195e-13 -1.4721319216417774e-12 -1.0
  outer loop
    vertex 210.9496846596312 101.48609605115804 13.200000000016123
    vertex 211.97468676557102 103.04794453385759 13.200000000013658
    vertex 217.119486912572 106.88734962413714 13.200000000007162
  endloop
endfacet
facet normal -1.6627769350406195e-13 -1.4721319216417774e-12 -1.0
  outer loop
    vertex 217.119486912572 106.88734962413714 13.200000000007162
    vertex 211.97468676557102 103.04794453385759 13.200000000013658
    vertex 213.32903360157172 104.23358556206318 13.200000000011679
  endloop
endfacet
facet normal -1.6627769350406195e-13 -1.4721319216417774e-12 -1.0
  outer loop
    vertex 217.119486912572 106.88734962413714 13.200000000007162
    vertex 213.32903360157172 104.23358556206318 13.200000000011679
    vertex 214.08144851048056 104.89227502219453 13.200000000010585
  endloop
endfacet
facet normal -1.6627769350406195e-13 -1.4721319216417774e-12 -1.0
  outer loop
    vertex 217.119486912572 106.88734962413714 13.200000000007162
    vertex 214.08144851048056 104.89227502219453 13.200000000010585
    vertex 215.4357953464836 106.07791605040204 13.200000000008616
  endloop
endfacet
facet normal -0.7524149088951501 -0.6586894601193365 1.0947875963009917e-12
  outer loop
    vertex 215.43579534648387 106.07791605040285 13.800000000016302
    vertex 213.5914648581513 108.18467779530641 13.200000000005785
    vertex 215.4357953464836 106.07791605040204 13.200000000008616
  endloop
endfacet
facet normal -0.7524149088951501 -0.6586894601193365 1.0947875963009917e-12
  outer loop
    vertex 213.5914648581513 108.18467779530641 13.200000000005785
    vertex 215.43579534648387 106.07791605040285 13.800000000016302
    vertex 213.59146485815145 108.18467779530735 13.800000000013481
  endloop
endfacet
facet normal -1.6627769350406195e-13 -1.4721319216417774e-12 -1.0
  outer loop
    vertex 213.59146485815145 108.18467779530735 13.800000000013481
    vertex 214.382414474039 105.15575080624328 13.800000000017825
    vertex 212.53808398570672 107.26251255114758 13.800000000015011
  endloop
endfacet
facet normal -1.6627769350406195e-13 -1.4721319216417774e-12 -1.0
  outer loop
    vertex 214.382414474039 105.15575080624328 13.800000000017825
    vertex 213.59146485815145 108.18467779530735 13.800000000013481
    vertex 215.43579534648387 106.07791605040285 13.800000000016302
  endloop
endfacet
facet normal 0.7524149088951501 0.6586894601193365 -1.0947875963009917e-12
  outer loop
    vertex 212.5380839857065 107.26251255114717 13.500000000016387
    vertex 214.382414474039 105.15575080624328 13.800000000017825
    vertex 214.38241447403882 105.1557508062428 13.500000000019202
  endloop
endfacet
facet normal 0.7524149088951501 0.6586894601193365 -1.0947875963009917e-12
  outer loop
    vertex 214.382414474039 105.15575080624328 13.800000000017825
    vertex 212.5380839857065 107.26251255114717 13.500000000016387
    vertex 212.53808398570672 107.26251255114758 13.800000000015011
  endloop
endfacet
facet normal -1.6627769350406195e-13 -1.4721319216417774e-12 -1.0
  outer loop
    vertex 212.5380839857065 107.26251255114717 13.500000000016387
    vertex 214.08144851048064 104.89227502219491 13.50000000001963
    vertex 212.23711802214837 106.99903676709928 13.50000000001681
  endloop
endfacet
facet normal -1.6627769350406195e-13 -1.4721319216417774e-12 -1.0
  outer loop
    vertex 214.08144851048064 104.89227502219491 13.50000000001963
    vertex 212.5380839857065 107.26251255114717 13.500000000016387
    vertex 214.38241447403882 105.1557508062428 13.500000000019202
  endloop
endfacet
facet normal 0.7524149088951501 0.6586894601193365 -1.0947875963009917e-12
  outer loop
    vertex 212.23711802214837 106.99903676709883 13.200000000007748
    vertex 214.08144851048064 104.89227502219491 13.50000000001963
    vertex 214.08144851048056 104.89227502219453 13.200000000010585
  endloop
endfacet
facet normal 0.7524149088951501 0.6586894601193365 -1.0947875963009917e-12
  outer loop
    vertex 214.08144851048064 104.89227502219491 13.50000000001963
    vertex 212.23711802214837 106.99903676709883 13.200000000007748
    vertex 212.23711802214837 106.99903676709928 13.50000000001681
  endloop
endfacet
facet normal -0.7524149088951501 -0.6586894601193365 1.0996003390978735e-12
  outer loop
    vertex 213.32903360157167 104.23358556206368 13.500000000020714
    vertex 211.48470311323945 106.34034730696754 13.200000000008847
    vertex 213.32903360157172 104.23358556206318 13.200000000011679
  endloop
endfacet
facet normal -0.7524149088951501 -0.6586894601193365 1.0996003390978735e-12
  outer loop
    vertex 211.48470311323945 106.34034730696754 13.200000000008847
    vertex 213.32903360157167 104.23358556206368 13.500000000020714
    vertex 211.4847031132394 106.34034730696804 13.500000000017904
  endloop
endfacet
facet normal -1.6627769350406195e-13 -1.4721319216417774e-12 -1.0
  outer loop
    vertex 211.4847031132394 106.34034730696804 13.500000000017904
    vertex 213.02806763801357 103.97010977801582 13.500000000021187
    vertex 211.18373714968126 106.07687152292014 13.500000000018368
  endloop
endfacet
facet normal -1.6627769350406195e-13 -1.4721319216417774e-12 -1.0
  outer loop
    vertex 213.02806763801357 103.97010977801582 13.500000000021187
    vertex 211.4847031132394 106.34034730696804 13.500000000017904
    vertex 213.32903360157167 104.23358556206368 13.500000000020714
  endloop
endfacet
facet normal -0.7524149088951501 -0.6586894601193365 1.0947875963009917e-12
  outer loop
    vertex 213.02806763801377 103.97010977801628 13.800000000019816
    vertex 211.18373714968126 106.07687152292014 13.500000000018368
    vertex 213.02806763801357 103.97010977801582 13.500000000021187
  endloop
endfacet
facet normal -0.7524149088951501 -0.6586894601193365 1.0947875963009917e-12
  outer loop
    vertex 211.18373714968126 106.07687152292014 13.500000000018368
    vertex 213.02806763801377 103.97010977801628 13.800000000019816
    vertex 211.18373714968143 106.07687152292064 13.80000000001699
  endloop
endfacet
facet normal -1.6627769350406195e-13 -1.4721319216417774e-12 -1.0
  outer loop
    vertex 211.18373714968143 106.07687152292064 13.80000000001699
    vertex 211.97468676557125 103.04794453385846 13.800000000021328
    vertex 210.13035627723895 105.15470627876283 13.800000000018514
  endloop
endfacet
facet normal -1.6627769350406195e-13 -1.4721319216417774e-12 -1.0
  outer loop
    vertex 211.97468676557125 103.04794453385846 13.800000000021328
    vertex 211.18373714968143 106.07687152292064 13.80000000001699
    vertex 213.02806763801377 103.97010977801628 13.800000000019816
  endloop
endfacet
facet normal -0.6586894601193336 0.7524149088951527 -9.883251213724773e-13
  outer loop
    vertex 206.65935288770171 104.10965342370997 15.200000000005048
    vertex 215.08639986732933 111.48697537705011 16.70000000000314
    vertex 215.0863998673278 111.48697537704683 15.199999999992809
  endloop
endfacet
facet normal -0.6586894601193336 0.7524149088951527 -9.883251213724773e-13
  outer loop
    vertex 215.08639986732933 111.48697537705011 16.70000000000314
    vertex 206.65935288770171 104.10965342370997 15.200000000005048
    vertex 206.65935288770194 104.1096534237121 16.70000000000505
  endloop
endfacet
facet normal -1.7274186895334582e-13 -1.464761472352673e-12 -1.0
  outer loop
    vertex 215.0863998673278 111.48697537704683 15.199999999992809
    vertex 207.64738707788075 102.98103106036727 15.200000000006554
    vertex 206.65935288770171 104.10965342370997 15.200000000005048
  endloop
endfacet
facet normal -1.7274186895334582e-13 -1.464761472352673e-12 -1.0
  outer loop
    vertex 207.64738707788075 102.98103106036727 15.200000000006554
    vertex 215.0863998673278 111.48697537704683 15.199999999992809
    vertex 216.07443405750683 110.35835301370412 15.199999999994237
  endloop
endfacet
facet normal 0.3321379283414033 -0.943230828883938 9.694311035957637e-13
  outer loop
    vertex 212.95193797432506 104.57767237569446 16.700000000008345
    vertex 212.5687728324535 104.49693666019301 31.700000000010338
    vertex 212.5687728324611 104.49693666018031 16.700000000008203
  endloop
endfacet
facet normal 0.07669450043210733 -0.9970546392266922 8.876747408140234e-13
  outer loop
    vertex 212.5687728324535 104.49693666019301 31.700000000010338
    vertex 212.95193797432506 104.57767237569446 16.700000000008345
    vertex 212.95193797431747 104.57767237570717 31.700000000010462
  endloop
endfacet
facet normal 0.5649467053181056 -0.8251273963153917 9.851223387280961e-13
  outer loop
    vertex 213.30115113978252 104.75482752455997 31.700000000010483
    vertex 212.95193797432506 104.57767237569446 16.700000000008345
    vertex 213.30115113979008 104.75482752454727 16.700000000008338
  endloop
endfacet
facet normal 0.3321379283414033 -0.943230828883938 9.694311035957637e-13
  outer loop
    vertex 212.95193797432506 104.57767237569446 16.700000000008345
    vertex 213.30115113978252 104.75482752455997 31.700000000010483
    vertex 212.95193797431747 104.57767237570717 31.700000000010462
  endloop
endfacet
facet normal 0.7592552979459535 -0.6507928952754489 9.33679114467752e-13
  outer loop
    vertex 213.59261402872428 105.01632927611989 31.70000000001039
    vertex 213.30115113979008 104.75482752454727 16.700000000008338
    vertex 213.59261402873187 105.01632927610721 16.70000000000824
  endloop
endfacet
facet normal 0.5649467053181119 -0.8251273963153876 9.851223387280957e-13
  outer loop
    vertex 213.30115113979008 104.75482752454727 16.700000000008338
    vertex 213.59261402872428 105.01632927611989 31.70000000001039
    vertex 213.30115113978252 104.75482752455997 31.700000000010483
  endloop
endfacet
facet normal 0.9018218967474958 -0.4321079339085885 8.186072015341206e-13
  outer loop
    vertex 213.80646392693416 105.3443567181575 16.700000000008092
    vertex 213.59261402872428 105.01632927611989 31.70000000001039
    vertex 213.59261402873187 105.01632927610721 16.70000000000824
  endloop
endfacet
facet normal 0.7592552979459535 -0.6507928952754489 9.33679114467752e-13
  outer loop
    vertex 213.59261402872428 105.01632927611989 31.70000000001039
    vertex 213.80646392693416 105.3443567181575 16.700000000008092
    vertex 213.8064639269266 105.34435671817022 31.70000000001019
  endloop
endfacet
facet normal -0.18397553093798572 -0.9829308236168436 7.454248113976731e-13
  outer loop
    vertex 212.17776778540596 104.51812238359508 16.700000000007996
    vertex 211.80556918094248 104.63978577391185 31.700000000009773
    vertex 211.80556918095004 104.63978577389913 16.70000000000767
  endloop
endfacet
facet normal -0.4321079339085873 -0.9018218967474964 5.523754129573222e-13
  outer loop
    vertex 211.80556918094248 104.63978577391185 31.700000000009773
    vertex 212.17776778540596 104.51812238359508 16.700000000007996
    vertex 212.17776778539837 104.51812238360783 31.700000000010128
  endloop
endfacet
facet normal 0.07669450043210711 -0.9970546392266925 8.876747408140237e-13
  outer loop
    vertex 212.5687728324611 104.49693666018031 16.700000000008203
    vertex 212.17776778539837 104.51812238360783 31.700000000010128
    vertex 212.17776778540596 104.51812238359508 16.700000000007996
  endloop
endfacet
facet normal -0.18397553093797664 -0.9829308236168453 7.454248113976792e-13
  outer loop
    vertex 212.17776778539837 104.51812238360783 31.700000000010128
    vertex 212.5687728324611 104.49693666018031 16.700000000008203
    vertex 212.5687728324535 104.49693666019301 31.700000000010338
  endloop
endfacet
facet normal -0.6507928952754457 -0.7592552979459563 3.216825429674584e-13
  outer loop
    vertex 211.47754173889223 104.85363567211415 31.700000000009474
    vertex 211.21603998733985 105.14509856104318 16.700000000006952
    vertex 211.47754173889976 104.85363567210143 16.700000000007357
  endloop
endfacet
facet normal -0.8251273963153897 -0.5649467053181089 6.906753927990485e-14
  outer loop
    vertex 211.21603998733985 105.14509856104318 16.700000000006952
    vertex 211.47754173889223 104.85363567211415 31.700000000009474
    vertex 211.21603998733227 105.14509856105593 31.70000000000909
  endloop
endfacet
facet normal -0.8251273963153894 -0.5649467053181093 6.906753927990537e-14
  outer loop
    vertex 211.21603998733227 105.14509856105593 31.70000000000909
    vertex 211.03888483848704 105.49431172650824 16.700000000006586
    vertex 211.21603998733985 105.14509856104318 16.700000000006952
  endloop
endfacet
facet normal -0.9432308288839386 -0.33213792834140216 -1.8825430307007227e-13
  outer loop
    vertex 211.03888483848704 105.49431172650824 16.700000000006586
    vertex 211.21603998733227 105.14509856105593 31.70000000000909
    vertex 211.03888483847945 105.49431172652096 31.70000000000871
  endloop
endfacet
facet normal 0.9829308236168449 -0.18397553093797878 6.477485606282981e-13
  outer loop
    vertex 213.92812731723822 105.7165553226134 16.700000000007844
    vertex 213.8064639269266 105.34435671817022 31.70000000001019
    vertex 213.80646392693416 105.3443567181575 16.700000000008092
  endloop
endfacet
facet normal 0.9018218967474964 -0.4321079339085873 8.186072015341199e-13
  outer loop
    vertex 213.8064639269266 105.34435671817022 31.70000000001019
    vertex 213.92812731723822 105.7165553226134 16.700000000007844
    vertex 213.9281273172306 105.7165553226261 31.700000000009954
  endloop
endfacet
facet normal 0.9970546392266925 0.07669450043210509 4.3274692577077273e-13
  outer loop
    vertex 213.94931304065295 106.10756036966852 16.70000000000752
    vertex 213.9281273172306 105.7165553226261 31.700000000009954
    vertex 213.92812731723822 105.7165553226134 16.700000000007844
  endloop
endfacet
facet normal 0.9829308236168457 -0.18397553093797395 6.477485606282945e-13
  outer loop
    vertex 213.9281273172306 105.7165553226261 31.700000000009954
    vertex 213.94931304065295 106.10756036966852 16.70000000000752
    vertex 213.9493130406454 106.10756036968122 31.70000000000966
  endloop
endfacet
facet normal 0.943230828883941 0.3321379283413949 1.8825430307007987e-13
  outer loop
    vertex 213.86857732513883 106.49072551153246 16.700000000007147
    vertex 213.9493130406454 106.10756036968122 31.70000000000966
    vertex 213.94931304065295 106.10756036966852 16.70000000000752
  endloop
endfacet
facet normal 0.9970546392266929 0.07669450043210108 4.3274692577077647e-13
  outer loop
    vertex 213.9493130406454 106.10756036968122 31.70000000000966
    vertex 213.86857732513883 106.49072551153246 16.700000000007147
    vertex 213.86857732513124 106.49072551154516 31.700000000009236
  endloop
endfacet
facet normal 0.8251273963153891 0.5649467053181095 -6.90675392799056e-14
  outer loop
    vertex 213.691422176286 106.8399386769975 16.70000000000678
    vertex 213.86857732513124 106.49072551154516 31.700000000009236
    vertex 213.86857732513883 106.49072551153246 16.700000000007147
  endloop
endfacet
facet normal 0.9432308288839419 0.3321379283413922 1.8825430307008255e-13
  outer loop
    vertex 213.86857732513124 106.49072551154516 31.700000000009236
    vertex 213.691422176286 106.8399386769975 16.70000000000678
    vertex 213.69142217627842 106.83993867701021 31.70000000000887
  endloop
endfacet
facet normal 0.6507928952754403 0.7592552979459609 -3.216825429674651e-13
  outer loop
    vertex 213.4299204247261 107.1314015659393 16.700000000006387
    vertex 213.69142217627842 106.83993867701021 31.70000000000887
    vertex 213.691422176286 106.8399386769975 16.70000000000678
  endloop
endfacet
facet normal 0.8251273963153857 0.5649467053181148 -6.906753927991173e-14
  outer loop
    vertex 213.69142217627842 106.83993867701021 31.70000000000887
    vertex 213.4299204247261 107.1314015659393 16.700000000006387
    vertex 213.42992042471852 107.131401565952 31.700000000008533
  endloop
endfacet
facet normal 0.4321079339085959 0.9018218967474924 -5.523754129573149e-13
  outer loop
    vertex 213.10189298266823 107.34525146415432 31.70000000000815
    vertex 213.4299204247261 107.1314015659393 16.700000000006387
    vertex 213.1018929826758 107.3452514641416 16.700000000006032
  endloop
endfacet
facet normal 0.6507928952754403 0.7592552979459609 -3.216825429674651e-13
  outer loop
    vertex 213.4299204247261 107.1314015659393 16.700000000006387
    vertex 213.10189298266823 107.34525146415432 31.70000000000815
    vertex 213.42992042471852 107.131401565952 31.700000000008533
  endloop
endfacet
facet normal 0.18397553093797828 0.9829308236168449 -7.454248113976777e-13
  outer loop
    vertex 212.72969437821232 107.46691485445832 31.700000000007833
    vertex 213.1018929826758 107.3452514641416 16.700000000006032
    vertex 212.7296943782199 107.46691485444565 16.700000000005744
  endloop
endfacet
facet normal 0.43210793390858954 0.9018218967474955 -5.523754129573206e-13
  outer loop
    vertex 213.1018929826758 107.3452514641416 16.700000000006032
    vertex 212.72969437821232 107.46691485445832 31.700000000007833
    vertex 213.10189298266823 107.34525146415432 31.70000000000815
  endloop
endfacet
facet normal -0.4321079339085891 -0.9018218967474956 5.523754129573207e-13
  outer loop
    vertex 211.80556918095004 104.63978577389913 16.70000000000767
    vertex 211.47754173889223 104.85363567211415 31.700000000009474
    vertex 211.47754173889976 104.85363567210143 16.700000000007357
  endloop
endfacet
facet normal -0.6507928952754457 -0.7592552979459563 3.216825429674584e-13
  outer loop
    vertex 211.47754173889223 104.85363567211415 31.700000000009474
    vertex 211.80556918095004 104.63978577389913 16.70000000000767
    vertex 211.80556918094248 104.63978577391185 31.700000000009773
  endloop
endfacet
facet normal -0.07669450043211472 0.9970546392266917 -8.876747408140259e-13
  outer loop
    vertex 212.33868933115718 107.48810057787308 31.700000000007684
    vertex 212.7296943782199 107.46691485444565 16.700000000005744
    vertex 212.33868933116477 107.48810057786038 16.70000000000554
  endloop
endfacet
facet normal 0.18397553093798447 0.9829308236168437 -7.454248113976736e-13
  outer loop
    vertex 212.7296943782199 107.46691485444565 16.700000000005744
    vertex 212.33868933115718 107.48810057787308 31.700000000007684
    vertex 212.72969437821232 107.46691485445832 31.700000000007833
  endloop
endfacet
facet normal -0.33213792834139827 0.9432308288839398 -9.694311035957617e-13
  outer loop
    vertex 211.95552418929321 107.40736486235895 31.700000000007545
    vertex 212.33868933116477 107.48810057786038 16.70000000000554
    vertex 211.9555241893008 107.40736486234628 16.700000000005428
  endloop
endfacet
facet normal -0.07669450043210604 0.9970546392266925 -8.876747408140222e-13
  outer loop
    vertex 212.33868933116477 107.48810057786038 16.70000000000554
    vertex 211.95552418929321 107.40736486235895 31.700000000007545
    vertex 212.33868933115718 107.48810057787308 31.700000000007684
  endloop
endfacet
facet normal -0.5649467053181063 0.8251273963153912 -9.851223387280953e-13
  outer loop
    vertex 211.6063110238282 107.23020971350617 31.7000000000075
    vertex 211.9555241893008 107.40736486234628 16.700000000005428
    vertex 211.6063110238358 107.2302097134934 16.700000000005378
  endloop
endfacet
facet normal -0.33213792834140266 0.9432308288839385 -9.694311035957627e-13
  outer loop
    vertex 211.9555241893008 107.40736486234628 16.700000000005428
    vertex 211.6063110238282 107.23020971350617 31.7000000000075
    vertex 211.95552418929321 107.40736486235895 31.700000000007545
  endloop
endfacet
facet normal -0.7592552979459573 0.6507928952754446 -9.3367911446775e-13
  outer loop
    vertex 211.314848134894 106.96870796193355 16.700000000005456
    vertex 211.6063110238282 107.23020971350617 31.7000000000075
    vertex 211.6063110238358 107.2302097134934 16.700000000005378
  endloop
endfacet
facet normal -0.5649467053181063 0.8251273963153912 -9.851223387280953e-13
  outer loop
    vertex 211.6063110238282 107.23020971350617 31.7000000000075
    vertex 211.314848134894 106.96870796193355 16.700000000005456
    vertex 211.3148481348864 106.96870796194625 31.700000000007584
  endloop
endfacet
facet normal -0.901821896747499 0.43210793390858215 -8.18607201534117e-13
  outer loop
    vertex 211.10099823668412 106.64068051989597 31.700000000007776
    vertex 211.314848134894 106.96870796193355 16.700000000005456
    vertex 211.10099823669165 106.64068051988323 16.700000000005627
  endloop
endfacet
facet normal -0.7592552979459573 0.6507928952754446 -9.3367911446775e-13
  outer loop
    vertex 211.314848134894 106.96870796193355 16.700000000005456
    vertex 211.10099823668412 106.64068051989597 31.700000000007776
    vertex 211.3148481348864 106.96870796194625 31.700000000007584
  endloop
endfacet
facet normal -0.9829308236168433 0.18397553093798777 -6.477485606283058e-13
  outer loop
    vertex 210.97933484638008 106.26848191544 31.700000000008046
    vertex 211.10099823669165 106.64068051988323 16.700000000005627
    vertex 210.97933484638767 106.26848191542736 16.700000000005897
  endloop
endfacet
facet normal -0.9018218967474965 0.4321079339085871 -8.186072015341199e-13
  outer loop
    vertex 211.10099823669165 106.64068051988323 16.700000000005627
    vertex 210.97933484638008 106.26848191544 31.700000000008046
    vertex 211.10099823668412 106.64068051989597 31.700000000007776
  endloop
endfacet
facet normal -0.9970546392266927 -0.07669450043210284 -4.3274692577077505e-13
  outer loop
    vertex 210.95814912296535 105.87747686838493 31.700000000008313
    vertex 210.97933484638767 106.26848191542736 16.700000000005897
    vertex 210.95814912297288 105.87747686837221 16.700000000006202
  endloop
endfacet
facet normal -0.9829308236168439 0.18397553093798422 -6.477485606283029e-13
  outer loop
    vertex 210.97933484638767 106.26848191542736 16.700000000005897
    vertex 210.95814912296535 105.87747686838493 31.700000000008313
    vertex 210.97933484638008 106.26848191544 31.700000000008046
  endloop
endfacet
facet normal -0.9432308288839375 -0.33213792834140493 -1.8825430307006937e-13
  outer loop
    vertex 211.03888483847945 105.49431172652096 31.70000000000871
    vertex 210.95814912297288 105.87747686837221 16.700000000006202
    vertex 211.03888483848704 105.49431172650824 16.700000000006586
  endloop
endfacet
facet normal -0.9970546392266926 -0.07669450043210507 -4.327469257707731e-13
  outer loop
    vertex 210.95814912297288 105.87747686837221 16.700000000006202
    vertex 211.03888483847945 105.49431172652096 31.70000000000871
    vertex 210.95814912296535 105.87747686838493 31.700000000008313
  endloop
endfacet
facet normal -5.024043801577168e-13 8.529186765017342e-13 1.0
  outer loop
    vertex 211.03888483847945 105.49431172652096 31.70000000000871
    vertex 210.97933484638008 106.26848191544 31.700000000008046
    vertex 210.95814912296535 105.87747686838493 31.700000000008313
  endloop
endfacet
facet normal -5.024043801577168e-13 8.529186765017342e-13 1.0
  outer loop
    vertex 210.97933484638008 106.26848191544 31.700000000008046
    vertex 211.03888483847945 105.49431172652096 31.70000000000871
    vertex 211.10099823668412 106.64068051989597 31.700000000007776
  endloop
endfacet
facet normal -5.024043801577168e-13 8.529186765017342e-13 1.0
  outer loop
    vertex 211.10099823668412 106.64068051989597 31.700000000007776
    vertex 211.03888483847945 105.49431172652096 31.70000000000871
    vertex 211.21603998733227 105.14509856105593 31.70000000000909
  endloop
endfacet
facet normal -5.024043801577168e-13 8.529186765017342e-13 1.0
  outer loop
    vertex 211.10099823668412 106.64068051989597 31.700000000007776
    vertex 211.21603998733227 105.14509856105593 31.70000000000909
    vertex 211.3148481348864 106.96870796194625 31.700000000007584
  endloop
endfacet
facet normal -5.024043801577168e-13 8.529186765017342e-13 1.0
  outer loop
    vertex 211.3148481348864 106.96870796194625 31.700000000007584
    vertex 211.21603998733227 105.14509856105593 31.70000000000909
    vertex 211.47754173889223 104.85363567211415 31.700000000009474
  endloop
endfacet
facet normal -5.024043801577168e-13 8.529186765017342e-13 1.0
  outer loop
    vertex 211.3148481348864 106.96870796194625 31.700000000007584
    vertex 211.47754173889223 104.85363567211415 31.700000000009474
    vertex 211.6063110238282 107.23020971350617 31.7000000000075
  endloop
endfacet
facet normal -5.024043801577168e-13 8.529186765017342e-13 1.0
  outer loop
    vertex 211.6063110238282 107.23020971350617 31.7000000000075
    vertex 211.47754173889223 104.85363567211415 31.700000000009474
    vertex 211.80556918094248 104.63978577391185 31.700000000009773
  endloop
endfacet
facet normal -5.024043801577168e-13 8.529186765017342e-13 1.0
  outer loop
    vertex 211.6063110238282 107.23020971350617 31.7000000000075
    vertex 211.80556918094248 104.63978577391185 31.700000000009773
    vertex 211.95552418929321 107.40736486235895 31.700000000007545
  endloop
endfacet
facet normal -5.024043801577168e-13 8.529186765017342e-13 1.0
  outer loop
    vertex 211.95552418929321 107.40736486235895 31.700000000007545
    vertex 211.80556918094248 104.63978577391185 31.700000000009773
    vertex 212.17776778539837 104.51812238360783 31.700000000010128
  endloop
endfacet
facet normal -5.024043801577168e-13 8.529186765017342e-13 1.0
  outer loop
    vertex 211.95552418929321 107.40736486235895 31.700000000007545
    vertex 212.17776778539837 104.51812238360783 31.700000000010128
    vertex 212.33868933115718 107.48810057787308 31.700000000007684
  endloop
endfacet
facet normal -5.024043801577168e-13 8.529186765017342e-13 1.0
  outer loop
    vertex 212.33868933115718 107.48810057787308 31.700000000007684
    vertex 212.17776778539837 104.51812238360783 31.700000000010128
    vertex 212.5687728324535 104.49693666019301 31.700000000010338
  endloop
endfacet
facet normal -5.024043801577168e-13 8.529186765017342e-13 1.0
  outer loop
    vertex 212.33868933115718 107.48810057787308 31.700000000007684
    vertex 212.5687728324535 104.49693666019301 31.700000000010338
    vertex 212.72969437821232 107.46691485445832 31.700000000007833
  endloop
endfacet
facet normal -5.024043801577168e-13 8.529186765017342e-13 1.0
  outer loop
    vertex 212.72969437821232 107.46691485445832 31.700000000007833
    vertex 212.5687728324535 104.49693666019301 31.700000000010338
    vertex 212.95193797431747 104.57767237570717 31.700000000010462
  endloop
endfacet
facet normal -5.024043801577168e-13 8.529186765017342e-13 1.0
  outer loop
    vertex 212.72969437821232 107.46691485445832 31.700000000007833
    vertex 212.95193797431747 104.57767237570717 31.700000000010462
    vertex 213.10189298266823 107.34525146415432 31.70000000000815
  endloop
endfacet
facet normal -5.024043801577168e-13 8.529186765017342e-13 1.0
  outer loop
    vertex 213.10189298266823 107.34525146415432 31.70000000000815
    vertex 212.95193797431747 104.57767237570717 31.700000000010462
    vertex 213.30115113978252 104.75482752455997 31.700000000010483
  endloop
endfacet
facet normal -5.024043801577168e-13 8.529186765017342e-13 1.0
  outer loop
    vertex 213.10189298266823 107.34525146415432 31.70000000000815
    vertex 213.30115113978252 104.75482752455997 31.700000000010483
    vertex 213.42992042471852 107.131401565952 31.700000000008533
  endloop
endfacet
facet normal -5.024043801577168e-13 8.529186765017342e-13 1.0
  outer loop
    vertex 213.42992042471852 107.131401565952 31.700000000008533
    vertex 213.30115113978252 104.75482752455997 31.700000000010483
    vertex 213.59261402872428 105.01632927611989 31.70000000001039
  endloop
endfacet
facet normal -5.024043801577168e-13 8.529186765017342e-13 1.0
  outer loop
    vertex 213.42992042471852 107.131401565952 31.700000000008533
    vertex 213.59261402872428 105.01632927611989 31.70000000001039
    vertex 213.69142217627842 106.83993867701021 31.70000000000887
  endloop
endfacet
facet normal -5.024043801577168e-13 8.529186765017342e-13 1.0
  outer loop
    vertex 213.69142217627842 106.83993867701021 31.70000000000887
    vertex 213.59261402872428 105.01632927611989 31.70000000001039
    vertex 213.8064639269266 105.34435671817022 31.70000000001019
  endloop
endfacet
facet normal -5.024043801577168e-13 8.529186765017342e-13 1.0
  outer loop
    vertex 213.69142217627842 106.83993867701021 31.70000000000887
    vertex 213.8064639269266 105.34435671817022 31.70000000001019
    vertex 213.86857732513124 106.49072551154516 31.700000000009236
  endloop
endfacet
facet normal -5.024043801577168e-13 8.529186765017342e-13 1.0
  outer loop
    vertex 213.86857732513124 106.49072551154516 31.700000000009236
    vertex 213.8064639269266 105.34435671817022 31.70000000001019
    vertex 213.9281273172306 105.7165553226261 31.700000000009954
  endloop
endfacet
facet normal -5.024043801577168e-13 8.529186765017342e-13 1.0
  outer loop
    vertex 213.86857732513124 106.49072551154516 31.700000000009236
    vertex 213.9281273172306 105.7165553226261 31.700000000009954
    vertex 213.9493130406454 106.10756036968122 31.70000000000966
  endloop
endfacet
endsolid RatHeadPhones_FinalModel_Jan2015
