solid RatHeadPhones_FinalModel_Jan2015
facet normal -8.279715066639527e-13 -3.366852892581437e-13 -1.0
  outer loop
    vertex 216.07443405749342 110.35835301369868 -0.9999999999999759
    vertex 206.65935288767275 104.10965342371522 -0.9999999999900874
    vertex 215.08639986731012 111.48697537704633 -0.9999999999995487
  endloop
endfacet
facet normal -8.279715066639527e-13 -3.366852892581437e-13 -1.0
  outer loop
    vertex 206.65935288767275 104.10965342371522 -0.9999999999900874
    vertex 216.07443405749342 110.35835301369868 -0.9999999999999759
    vertex 207.64738707785602 102.98103106036758 -0.9999999999905312
  endloop
endfacet
facet normal 0.7524149088951508 0.6586894601193357 -8.447491571670789e-13
  outer loop
    vertex 216.07443405750686 110.35835301370412 15.199999999994237
    vertex 215.08639986731012 111.48697537704633 -0.9999999999995487
    vertex 215.08639986732356 111.48697537705182 15.199999999994688
  endloop
endfacet
facet normal 0.7524149088951508 0.6586894601193357 -8.447491571670789e-13
  outer loop
    vertex 215.08639986731012 111.48697537704633 -0.9999999999995487
    vertex 216.07443405750686 110.35835301370412 15.199999999994237
    vertex 216.07443405749342 110.35835301369868 -0.9999999999999759
  endloop
endfacet
facet normal -0.7524149088951607 -0.6586894601193244 8.367695678706887e-13
  outer loop
    vertex 208.8524201136832 104.03595773756777 9.100000000009269
    vertex 209.90632324983204 102.83209388338867 13.100000000009773
    vertex 208.85242011364463 104.03595773761695 13.10000000001024
  endloop
endfacet
facet normal -0.7524149088951607 -0.6586894601193244 8.367695678706887e-13
  outer loop
    vertex 209.90632324983204 102.83209388338867 13.100000000009773
    vertex 208.8524201136832 104.03595773756777 9.100000000009269
    vertex 209.90632324982874 102.83209388338736 9.100000000008842
  endloop
endfacet
facet normal -8.279715066639527e-13 -3.366852892581437e-13 -1.0
  outer loop
    vertex 209.90632324990978 102.83209388328441 1.1000000000085912
    vertex 210.20676694965547 105.22159876583599 1.100000000007588
    vertex 211.2606700859307 104.01773491150747 1.1000000000071184
  endloop
endfacet
facet normal -8.279715066639527e-13 -3.366852892581437e-13 -1.0
  outer loop
    vertex 210.20676694965547 105.22159876583599 1.100000000007588
    vertex 209.90632324990978 102.83209388328441 1.1000000000085912
    vertex 208.8524201136346 104.03595773761286 1.1000000000090966
  endloop
endfacet
facet normal -0.7524149088951508 -0.6586894601193357 8.447491571670792e-13
  outer loop
    vertex 210.206766949655 105.22159876583581 0.5000000000087684
    vertex 211.2606700859307 104.01773491150747 1.1000000000071184
    vertex 210.20676694965547 105.22159876583599 1.100000000007588
  endloop
endfacet
facet normal -0.7524149088951508 -0.6586894601193357 8.447491571670792e-13
  outer loop
    vertex 211.2606700859307 104.01773491150747 1.1000000000071184
    vertex 210.206766949655 105.22159876583581 0.5000000000087684
    vertex 211.2606700859302 104.01773491150726 0.5000000000083187
  endloop
endfacet
facet normal -8.279715066639527e-13 -3.366852892581437e-13 -1.0
  outer loop
    vertex 211.7121190312675 104.41294858757904 0.5000000000077766
    vertex 210.206766949655 105.22159876583581 0.5000000000087684
    vertex 210.6582158949923 105.61681244190756 0.50000000000827
  endloop
endfacet
facet normal -8.279715066639527e-13 -3.366852892581437e-13 -1.0
  outer loop
    vertex 210.206766949655 105.22159876583581 0.5000000000087684
    vertex 211.7121190312675 104.41294858757904 0.5000000000077766
    vertex 211.2606700859302 104.01773491150726 0.5000000000083187
  endloop
endfacet
facet normal 0.7524149088951508 0.6586894601193357 -8.447491571670792e-13
  outer loop
    vertex 210.65821589499254 105.61681244190758 0.8000000000084049
    vertex 211.7121190312675 104.41294858757904 0.5000000000077766
    vertex 210.6582158949923 105.61681244190756 0.50000000000827
  endloop
endfacet
facet normal 0.7524149088951508 0.6586894601193357 -8.447491571670792e-13
  outer loop
    vertex 211.7121190312675 104.41294858757904 0.5000000000077766
    vertex 210.65821589499254 105.61681244190758 0.8000000000084049
    vertex 211.71211903126772 104.41294858757912 0.8000000000079565
  endloop
endfacet
facet normal -8.279715066639527e-13 -3.366852892581437e-13 -1.0
  outer loop
    vertex 212.01308499482585 104.676424371627 0.8000000000076103
    vertex 210.65821589499254 105.61681244190758 0.8000000000084049
    vertex 210.95918185855072 105.88028822595552 0.8000000000080764
  endloop
endfacet
facet normal -8.279715066639527e-13 -3.366852892581437e-13 -1.0
  outer loop
    vertex 210.65821589499254 105.61681244190758 0.8000000000084049
    vertex 212.01308499482585 104.676424371627 0.8000000000076103
    vertex 211.71211903126772 104.41294858757912 0.8000000000079565
  endloop
endfacet
facet normal 0.7524149088951508 0.6586894601193357 -8.447491571670792e-13
  outer loop
    vertex 210.95918185855098 105.88028822595564 1.1000000000066967
    vertex 212.01308499482585 104.676424371627 0.8000000000076103
    vertex 210.95918185855072 105.88028822595552 0.8000000000080764
  endloop
endfacet
facet normal 0.7524149088951508 0.6586894601193357 -8.447491571670792e-13
  outer loop
    vertex 212.01308499482585 104.676424371627 0.8000000000076103
    vertex 210.95918185855098 105.88028822595564 1.1000000000066967
    vertex 212.01308499482613 104.67642437162718 1.1000000000062788
  endloop
endfacet
facet normal -8.279715066639527e-13 -3.366852892581437e-13 -1.0
  outer loop
    vertex 212.01308499482613 104.67642437162718 1.1000000000062788
    vertex 212.76497763987567 107.46114293022136 1.1000000000046826
    vertex 213.81888077615088 106.25727907589288 1.1000000000042534
  endloop
endfacet
facet normal -8.279715066639527e-13 -3.366852892581437e-13 -1.0
  outer loop
    vertex 212.76497763987567 107.46114293022136 1.1000000000046826
    vertex 212.01308499482613 104.67642437162718 1.1000000000062788
    vertex 210.95918185855098 105.88028822595564 1.1000000000066967
  endloop
endfacet
facet normal -0.7524149088951508 -0.6586894601193357 8.447491571670792e-13
  outer loop
    vertex 212.76497763987544 107.4611429302212 0.800000000006053
    vertex 213.81888077615088 106.25727907589288 1.1000000000042534
    vertex 212.76497763987567 107.46114293022136 1.1000000000046826
  endloop
endfacet
facet normal -0.7524149088951508 -0.6586894601193357 8.447491571670792e-13
  outer loop
    vertex 213.81888077615088 106.25727907589288 1.1000000000042534
    vertex 212.76497763987544 107.4611429302212 0.800000000006053
    vertex 213.81888077615056 106.25727907589275 0.8000000000055856
  endloop
endfacet
facet normal -8.279715066639527e-13 -3.366852892581437e-13 -1.0
  outer loop
    vertex 214.11984673973106 106.52075485996009 0.8000000000052352
    vertex 212.76497763987544 107.4611429302212 0.800000000006053
    vertex 213.06594360345588 107.72461871428854 0.8000000000056504
  endloop
endfacet
facet normal -8.279715066639527e-13 -3.366852892581437e-13 -1.0
  outer loop
    vertex 212.76497763987544 107.4611429302212 0.800000000006053
    vertex 214.11984673973106 106.52075485996009 0.8000000000052352
    vertex 213.81888077615056 106.25727907589275 0.8000000000055856
  endloop
endfacet
facet normal -0.7524149088951508 -0.6586894601193357 8.447491571670792e-13
  outer loop
    vertex 214.11984673973083 106.52075485995998 0.500000000005106
    vertex 213.06594360345588 107.72461871428854 0.8000000000056504
    vertex 213.0659436034556 107.72461871428845 0.5000000000055629
  endloop
endfacet
facet normal -0.7524149088951508 -0.6586894601193357 8.447491571670792e-13
  outer loop
    vertex 213.06594360345588 107.72461871428854 0.8000000000056504
    vertex 214.11984673973083 106.52075485995998 0.500000000005106
    vertex 214.11984673973106 106.52075485996009 0.8000000000052352
  endloop
endfacet
facet normal -8.279715066639527e-13 -3.366852892581437e-13 -1.0
  outer loop
    vertex 214.57129568506815 106.91596853603173 0.5000000000045991
    vertex 213.0659436034556 107.72461871428845 0.5000000000055629
    vertex 213.51739254879297 108.11983239036024 0.5000000000050708
  endloop
endfacet
facet normal -8.279715066639527e-13 -3.366852892581437e-13 -1.0
  outer loop
    vertex 213.0659436034556 107.72461871428845 0.5000000000055629
    vertex 214.57129568506815 106.91596853603173 0.5000000000045991
    vertex 214.11984673973083 106.52075485995998 0.500000000005106
  endloop
endfacet
facet normal 0.7524149088951508 0.6586894601193357 -8.447491571670792e-13
  outer loop
    vertex 214.57129568506863 106.91596853603195 1.1000000000033996
    vertex 213.51739254879297 108.11983239036024 0.5000000000050708
    vertex 213.51739254879345 108.11983239036047 1.1000000000038712
  endloop
endfacet
facet normal 0.7524149088951508 0.6586894601193357 -8.447491571670792e-13
  outer loop
    vertex 213.51739254879297 108.11983239036024 0.5000000000050708
    vertex 214.57129568506863 106.91596853603195 1.1000000000033996
    vertex 214.57129568506815 106.91596853603173 0.5000000000045991
  endloop
endfacet
facet normal -8.279715066639527e-13 -3.366852892581437e-13 -1.0
  outer loop
    vertex 215.92564252108053 108.1016095642473 1.100000000001881
    vertex 213.51739254879345 108.11983239036047 1.1000000000038712
    vertex 214.87173938480535 109.30547341857582 1.1000000000023027
  endloop
endfacet
facet normal -8.279715066639527e-13 -3.366852892581437e-13 -1.0
  outer loop
    vertex 213.51739254879345 108.11983239036047 1.1000000000038712
    vertex 215.92564252108053 108.1016095642473 1.100000000001881
    vertex 214.57129568506863 106.91596853603195 1.1000000000033996
  endloop
endfacet
facet normal 0.7524149088951653 0.6586894601193192 -8.424095008221861e-13
  outer loop
    vertex 214.8717393848507 109.30547341852916 5.1000000000032975
    vertex 215.92564252108053 108.1016095642473 1.100000000001881
    vertex 214.87173938480535 109.30547341857582 1.1000000000023027
  endloop
endfacet
facet normal 0.7524149088951653 0.6586894601193192 -8.424095008221861e-13
  outer loop
    vertex 215.92564252108053 108.1016095642473 1.100000000001881
    vertex 214.8717393848507 109.30547341852916 5.1000000000032975
    vertex 215.92564252108392 108.1016095642485 5.100000000002864
  endloop
endfacet
facet normal 8.279715066639527e-13 3.366852892581437e-13 1.0
  outer loop
    vertex 213.5173925488034 108.1198323903645 13.100000000004995
    vertex 215.92564252100274 108.10160956435156 13.10000000000301
    vertex 214.87173938481533 109.30547341857988 13.100000000003496
  endloop
endfacet
facet normal 8.279715066639527e-13 3.366852892581437e-13 1.0
  outer loop
    vertex 215.92564252100274 108.10160956435156 13.10000000000301
    vertex 213.5173925488034 108.1198323903645 13.100000000004995
    vertex 214.57129568499076 106.91596853613632 13.100000000004533
  endloop
endfacet
facet normal 0.7524149088951508 0.6586894601193357 -8.447491571670792e-13
  outer loop
    vertex 213.51739254880394 108.11983239036462 13.700000000005316
    vertex 214.57129568499076 106.91596853613632 13.100000000004533
    vertex 213.5173925488034 108.1198323903645 13.100000000004995
  endloop
endfacet
facet normal 0.7524149088951508 0.6586894601193357 -8.447491571670792e-13
  outer loop
    vertex 214.57129568499076 106.91596853613632 13.100000000004533
    vertex 213.51739254880394 108.11983239036462 13.700000000005316
    vertex 214.5712956849913 106.91596853613648 13.700000000004847
  endloop
endfacet
facet normal 8.279715066639527e-13 3.366852892581437e-13 1.0
  outer loop
    vertex 212.61449465810702 107.32940503820166 13.700000000006359
    vertex 214.5712956849913 106.91596853613648 13.700000000004847
    vertex 213.51739254880394 108.11983239036462 13.700000000005316
  endloop
endfacet
facet normal 8.279715066639527e-13 3.366852892581437e-13 1.0
  outer loop
    vertex 214.5712956849913 106.91596853613648 13.700000000004847
    vertex 212.61449465810702 107.32940503820166 13.700000000006359
    vertex 213.66839779429438 106.12554118397345 13.700000000005891
  endloop
endfacet
facet normal -0.7524149088951508 -0.6586894601193357 8.447491571670792e-13
  outer loop
    vertex 212.6144946581068 107.32940503820157 13.400000000006202
    vertex 213.66839779429438 106.12554118397345 13.700000000005891
    vertex 212.61449465810702 107.32940503820166 13.700000000006359
  endloop
endfacet
facet normal -0.7524149088951508 -0.6586894601193357 8.447491571670792e-13
  outer loop
    vertex 213.66839779429438 106.12554118397345 13.700000000005891
    vertex 212.6144946581068 107.32940503820157 13.400000000006202
    vertex 213.66839779429415 106.12554118397338 13.400000000005722
  endloop
endfacet
facet normal 8.279715066639527e-13 3.366852892581437e-13 1.0
  outer loop
    vertex 212.31352869455526 107.06592925415958 13.400000000006495
    vertex 213.66839779429415 106.12554118397338 13.400000000005722
    vertex 212.6144946581068 107.32940503820157 13.400000000006202
  endloop
endfacet
facet normal 8.279715066639527e-13 3.366852892581437e-13 1.0
  outer loop
    vertex 213.66839779429415 106.12554118397338 13.400000000005722
    vertex 212.31352869455526 107.06592925415958 13.400000000006495
    vertex 213.3674318307427 105.86206539993131 13.400000000006028
  endloop
endfacet
facet normal -0.7524149088951508 -0.6586894601193357 8.447491571670792e-13
  outer loop
    vertex 212.31352869455503 107.06592925415944 13.100000000006355
    vertex 213.3674318307427 105.86206539993131 13.400000000006028
    vertex 212.31352869455526 107.06592925415958 13.400000000006495
  endloop
endfacet
facet normal -0.7524149088951508 -0.6586894601193357 8.447491571670792e-13
  outer loop
    vertex 213.3674318307427 105.86206539993131 13.400000000006028
    vertex 212.31352869455503 107.06592925415944 13.100000000006355
    vertex 213.36743183074248 105.86206539993123 13.100000000005881
  endloop
endfacet
facet normal 8.279715066639527e-13 3.366852892581437e-13 1.0
  outer loop
    vertex 212.31352869455503 107.06592925415944 13.100000000006355
    vertex 212.4645339400834 105.07163804780133 13.100000000006895
    vertex 213.36743183074248 105.86206539993123 13.100000000005881
  endloop
endfacet
facet normal 8.279715066639527e-13 3.366852892581437e-13 1.0
  outer loop
    vertex 212.4645339400834 105.07163804780133 13.100000000006895
    vertex 212.31352869455503 107.06592925415944 13.100000000006355
    vertex 211.41063080389594 106.27550190202957 13.100000000007364
  endloop
endfacet
facet normal 0.7524149088951508 0.6586894601193357 -8.447491571670792e-13
  outer loop
    vertex 211.41063080389625 106.27550190202966 13.400000000007532
    vertex 212.4645339400834 105.07163804780133 13.100000000006895
    vertex 211.41063080389594 106.27550190202957 13.100000000007364
  endloop
endfacet
facet normal 0.7524149088951508 0.6586894601193357 -8.447491571670792e-13
  outer loop
    vertex 212.4645339400834 105.07163804780133 13.100000000006895
    vertex 211.41063080389625 106.27550190202966 13.400000000007532
    vertex 212.4645339400836 105.0716380478014 13.400000000007054
  endloop
endfacet
facet normal 8.279715066639527e-13 3.366852892581437e-13 1.0
  outer loop
    vertex 211.10966484034026 106.01202611798375 13.400000000007848
    vertex 212.4645339400836 105.0716380478014 13.400000000007054
    vertex 211.41063080389625 106.27550190202966 13.400000000007532
  endloop
endfacet
facet normal 8.279715066639527e-13 3.366852892581437e-13 1.0
  outer loop
    vertex 212.4645339400836 105.0716380478014 13.400000000007054
    vertex 211.10966484034026 106.01202611798375 13.400000000007848
    vertex 212.16356797652767 104.80816226375546 13.400000000007381
  endloop
endfacet
facet normal 0.7524149088951508 0.6586894601193357 -8.447491571670792e-13
  outer loop
    vertex 211.10966484034054 106.01202611798381 13.700000000008005
    vertex 212.16356797652767 104.80816226375546 13.400000000007381
    vertex 211.10966484034026 106.01202611798375 13.400000000007848
  endloop
endfacet
facet normal 0.7524149088951508 0.6586894601193357 -8.447491571670792e-13
  outer loop
    vertex 212.16356797652767 104.80816226375546 13.400000000007381
    vertex 211.10966484034054 106.01202611798381 13.700000000008005
    vertex 212.16356797652796 104.80816226375558 13.700000000007538
  endloop
endfacet
facet normal -0.7524149088951508 -0.6586894601193357 8.447491571670792e-13
  outer loop
    vertex 211.26067008585284 104.01773491161185 13.100000000008256
    vertex 210.20676694966593 105.22159876584017 13.700000000009044
    vertex 210.2067669496654 105.22159876584006 13.100000000008713
  endloop
endfacet
facet normal -0.7524149088951508 -0.6586894601193357 8.447491571670792e-13
  outer loop
    vertex 210.20676694966593 105.22159876584017 13.700000000009044
    vertex 211.26067008585284 104.01773491161185 13.100000000008256
    vertex 211.26067008585332 104.01773491161201 13.70000000000857
  endloop
endfacet
facet normal 8.279715066639527e-13 3.366852892581437e-13 1.0
  outer loop
    vertex 210.2067669496654 105.22159876584006 13.100000000008713
    vertex 209.90632324983204 102.83209388338867 13.100000000009773
    vertex 211.26067008585284 104.01773491161185 13.100000000008256
  endloop
endfacet
facet normal 8.279715066639527e-13 3.366852892581437e-13 1.0
  outer loop
    vertex 209.90632324983204 102.83209388338867 13.100000000009773
    vertex 210.2067669496654 105.22159876584006 13.100000000008713
    vertex 208.85242011364463 104.03595773761695 13.10000000001024
  endloop
endfacet
facet normal 8.279715066639527e-13 3.366852892581437e-13 1.0
  outer loop
    vertex 214.1945659668001 108.71265290446836 1.900000000003472
    vertex 210.58349666790306 103.42491439738068 1.9000000000082153
    vertex 215.24846910307525 107.50878905013995 1.9000000000029842
  endloop
endfacet
facet normal 8.279715066639527e-13 3.366852892581437e-13 1.0
  outer loop
    vertex 210.58349666790306 103.42491439738068 1.9000000000082153
    vertex 214.1945659668001 108.71265290446836 1.900000000003472
    vertex 209.529593531628 104.62877825170905 1.9000000000086827
  endloop
endfacet
facet normal -8.279715066639527e-13 -3.366852892581437e-13 -1.0
  outer loop
    vertex 215.24846910299607 107.50878905024364 12.299999999988628
    vertex 209.52959353163655 104.62877825171259 12.29999999999433
    vertex 214.19456596680868 108.71265290447188 12.2999999999891
  endloop
endfacet
facet normal -8.279715066639527e-13 -3.366852892581437e-13 -1.0
  outer loop
    vertex 209.52959353163655 104.62877825171259 12.29999999999433
    vertex 215.24846910299607 107.50878905024364 12.299999999988628
    vertex 210.583496667824 103.42491439748432 12.29999999999386
  endloop
endfacet
facet normal 0.6586894601193366 -0.7524149088951503 -2.9146758527090753e-13
  outer loop
    vertex 215.92564252100274 108.10160956435156 13.10000000000301
    vertex 215.24846910299257 107.50878905024224 8.100000000019259
    vertex 215.9256425209985 108.10160956434987 8.10000000001849
  endloop
endfacet
facet normal 0.6586894601193366 -0.7524149088951503 -2.9146758527090753e-13
  outer loop
    vertex 215.24846910299257 107.50878905024224 8.100000000019259
    vertex 215.92564252100274 108.10160956435156 13.10000000000301
    vertex 215.24846910299607 107.50878905024364 12.299999999988628
  endloop
endfacet
facet normal 0.6586894601193366 -0.7524149088951503 -2.9146758527090753e-13
  outer loop
    vertex 215.24846910299607 107.50878905024364 12.299999999988628
    vertex 215.92564252100274 108.10160956435156 13.10000000000301
    vertex 213.36743183074248 105.86206539993123 13.100000000005881
  endloop
endfacet
facet normal 0.6586894601193366 -0.7524149088951503 -2.9146758527090753e-13
  outer loop
    vertex 213.36743183074248 105.86206539993123 13.100000000005881
    vertex 215.92564252100274 108.10160956435156 13.10000000000301
    vertex 214.57129568499076 106.91596853613632 13.100000000004533
  endloop
endfacet
facet normal 0.6586894601193366 -0.7524149088951503 -2.9146758527090753e-13
  outer loop
    vertex 213.36743183074248 105.86206539993123 13.100000000005881
    vertex 214.57129568499076 106.91596853613632 13.100000000004533
    vertex 213.3674318307427 105.86206539993131 13.400000000006028
  endloop
endfacet
facet normal 0.6586894601193366 -0.7524149088951503 -2.9146758527090753e-13
  outer loop
    vertex 213.3674318307427 105.86206539993131 13.400000000006028
    vertex 214.57129568499076 106.91596853613632 13.100000000004533
    vertex 213.66839779429415 106.12554118397338 13.400000000005722
  endloop
endfacet
facet normal 0.6586894601193366 -0.7524149088951503 -2.9146758527090753e-13
  outer loop
    vertex 213.66839779429415 106.12554118397338 13.400000000005722
    vertex 214.57129568499076 106.91596853613632 13.100000000004533
    vertex 214.5712956849913 106.91596853613648 13.700000000004847
  endloop
endfacet
facet normal 0.6586894601193366 -0.7524149088951503 -2.9146758527090753e-13
  outer loop
    vertex 213.66839779429415 106.12554118397338 13.400000000005722
    vertex 214.5712956849913 106.91596853613648 13.700000000004847
    vertex 213.66839779429438 106.12554118397345 13.700000000005891
  endloop
endfacet
facet normal 0.6586894601193366 -0.7524149088951503 -2.9146758527090753e-13
  outer loop
    vertex 210.583496667824 103.42491439748432 12.29999999999386
    vertex 209.90632324982874 102.83209388338736 9.100000000008842
    vertex 210.58349666782135 103.42491439748332 9.100000000008057
  endloop
endfacet
facet normal 0.6586894601193366 -0.7524149088951503 -2.9146758527090753e-13
  outer loop
    vertex 209.90632324982874 102.83209388338736 9.100000000008842
    vertex 210.583496667824 103.42491439748432 12.29999999999386
    vertex 209.90632324983204 102.83209388338867 13.100000000009773
  endloop
endfacet
facet normal 0.6586894601193366 -0.7524149088951503 -2.9146758527090753e-13
  outer loop
    vertex 209.90632324983204 102.83209388338867 13.100000000009773
    vertex 210.583496667824 103.42491439748432 12.29999999999386
    vertex 215.24846910299607 107.50878905024364 12.299999999988628
  endloop
endfacet
facet normal 0.6586894601193366 -0.7524149088951503 -2.9146758527090753e-13
  outer loop
    vertex 209.90632324983204 102.83209388338867 13.100000000009773
    vertex 215.24846910299607 107.50878905024364 12.299999999988628
    vertex 213.36743183074248 105.86206539993123 13.100000000005881
  endloop
endfacet
facet normal 0.6586894601193366 -0.7524149088951503 -2.9146758527090753e-13
  outer loop
    vertex 209.90632324983204 102.83209388338867 13.100000000009773
    vertex 213.36743183074248 105.86206539993123 13.100000000005881
    vertex 212.4645339400834 105.07163804780133 13.100000000006895
  endloop
endfacet
facet normal 0.6586894601193366 -0.7524149088951503 -2.9146758527090753e-13
  outer loop
    vertex 209.90632324983204 102.83209388338867 13.100000000009773
    vertex 212.4645339400834 105.07163804780133 13.100000000006895
    vertex 211.26067008585284 104.01773491161185 13.100000000008256
  endloop
endfacet
facet normal 0.6586894601193366 -0.7524149088951503 -2.9146758527090753e-13
  outer loop
    vertex 211.26067008585284 104.01773491161185 13.100000000008256
    vertex 212.4645339400834 105.07163804780133 13.100000000006895
    vertex 212.4645339400836 105.0716380478014 13.400000000007054
  endloop
endfacet
facet normal 0.6586894601193366 -0.7524149088951503 -2.9146758527090753e-13
  outer loop
    vertex 211.26067008585284 104.01773491161185 13.100000000008256
    vertex 212.4645339400836 105.0716380478014 13.400000000007054
    vertex 212.16356797652767 104.80816226375546 13.400000000007381
  endloop
endfacet
facet normal 0.6586894601193366 -0.7524149088951503 -2.9146758527090753e-13
  outer loop
    vertex 212.16356797652767 104.80816226375546 13.400000000007381
    vertex 211.26067008585332 104.01773491161201 13.70000000000857
    vertex 211.26067008585284 104.01773491161185 13.100000000008256
  endloop
endfacet
facet normal 0.6586894601193366 -0.7524149088951503 -2.9146758527090753e-13
  outer loop
    vertex 211.26067008585332 104.01773491161201 13.70000000000857
    vertex 212.16356797652767 104.80816226375546 13.400000000007381
    vertex 212.16356797652796 104.80816226375558 13.700000000007538
  endloop
endfacet
facet normal 8.211875443571295e-13 3.4112040325821353e-13 1.0
  outer loop
    vertex 208.85242011368067 104.03595773756666 6.100000000010066
    vertex 210.58349666790664 103.42491439738193 6.100000000008857
    vertex 209.52959353167333 104.62877825166261 6.10000000000932
  endloop
endfacet
facet normal 8.211875443571295e-13 3.4112040325821353e-13 1.0
  outer loop
    vertex 210.58349666790664 103.42491439738193 6.100000000008857
    vertex 208.85242011368067 104.03595773756666 6.100000000010066
    vertex 209.906323249914 102.83209388328596 6.100000000009629
  endloop
endfacet
facet normal -8.238263932548199e-13 -3.416737183453333e-13 -1.0
  outer loop
    vertex 210.58349666782135 103.42491439748332 9.100000000008057
    vertex 208.8524201136832 104.03595773756777 9.100000000009269
    vertex 209.52959353167586 104.62877825166376 9.100000000008537
  endloop
endfacet
facet normal -8.238263932548199e-13 -3.416737183453333e-13 -1.0
  outer loop
    vertex 208.8524201136832 104.03595773756777 9.100000000009269
    vertex 210.58349666782135 103.42491439748332 9.100000000008057
    vertex 209.90632324982874 102.83209388338736 9.100000000008842
  endloop
endfacet
facet normal 0.6586894601193366 -0.7524149088951503 -2.923243524654712e-13
  outer loop
    vertex 212.01308499482613 104.67642437162718 1.1000000000062788
    vertex 211.71211903126772 104.41294858757912 0.8000000000079565
    vertex 212.01308499482585 104.676424371627 0.8000000000076103
  endloop
endfacet
facet normal 0.6586894601193366 -0.7524149088951503 -2.923243524654712e-13
  outer loop
    vertex 211.71211903126772 104.41294858757912 0.8000000000079565
    vertex 212.01308499482613 104.67642437162718 1.1000000000062788
    vertex 211.2606700859307 104.01773491150747 1.1000000000071184
  endloop
endfacet
facet normal 0.6586894601193366 -0.7524149088951503 -2.923243524654712e-13
  outer loop
    vertex 214.57129568506863 106.91596853603195 1.1000000000033996
    vertex 214.11984673973083 106.52075485995998 0.500000000005106
    vertex 214.57129568506815 106.91596853603173 0.5000000000045991
  endloop
endfacet
facet normal 0.6586894601193366 -0.7524149088951503 -2.923243524654712e-13
  outer loop
    vertex 214.11984673973083 106.52075485995998 0.500000000005106
    vertex 214.57129568506863 106.91596853603195 1.1000000000033996
    vertex 214.11984673973106 106.52075485996009 0.8000000000052352
  endloop
endfacet
facet normal 0.6586894601193366 -0.7524149088951503 -2.923243524654712e-13
  outer loop
    vertex 214.11984673973106 106.52075485996009 0.8000000000052352
    vertex 214.57129568506863 106.91596853603195 1.1000000000033996
    vertex 213.81888077615056 106.25727907589275 0.8000000000055856
  endloop
endfacet
facet normal 0.6586894601193366 -0.7524149088951503 -2.923243524654712e-13
  outer loop
    vertex 213.81888077615056 106.25727907589275 0.8000000000055856
    vertex 214.57129568506863 106.91596853603195 1.1000000000033996
    vertex 213.81888077615088 106.25727907589288 1.1000000000042534
  endloop
endfacet
facet normal 0.6586894601193366 -0.7524149088951503 -2.923243524654712e-13
  outer loop
    vertex 213.81888077615088 106.25727907589288 1.1000000000042534
    vertex 214.57129568506863 106.91596853603195 1.1000000000033996
    vertex 215.92564252108053 108.1016095642473 1.100000000001881
  endloop
endfacet
facet normal 0.6586894601193366 -0.7524149088951503 -2.923243524654712e-13
  outer loop
    vertex 213.81888077615088 106.25727907589288 1.1000000000042534
    vertex 215.92564252108053 108.1016095642473 1.100000000001881
    vertex 215.24846910307525 107.50878905013995 1.9000000000029842
  endloop
endfacet
facet normal 0.6586894601193366 -0.7524149088951503 -2.923243524654712e-13
  outer loop
    vertex 215.24846910307525 107.50878905013995 1.9000000000029842
    vertex 215.92564252108053 108.1016095642473 1.100000000001881
    vertex 215.92564252108392 108.1016095642485 5.100000000002864
  endloop
endfacet
facet normal 0.6586894601193366 -0.7524149088951503 -2.923243524654712e-13
  outer loop
    vertex 213.81888077615088 106.25727907589288 1.1000000000042534
    vertex 215.24846910307525 107.50878905013995 1.9000000000029842
    vertex 210.58349666790306 103.42491439738068 1.9000000000082153
  endloop
endfacet
facet normal 0.6586894601193366 -0.7524149088951503 -2.923243524654712e-13
  outer loop
    vertex 215.24846910307525 107.50878905013995 1.9000000000029842
    vertex 215.92564252108392 108.1016095642485 5.100000000002864
    vertex 215.2484691030779 107.50878905014096 5.100000000003607
  endloop
endfacet
facet normal 0.6586894601193366 -0.7524149088951503 -2.923243524654712e-13
  outer loop
    vertex 209.90632324990978 102.83209388328441 1.1000000000085912
    vertex 210.58349666790306 103.42491439738068 1.9000000000082153
    vertex 209.906323249914 102.83209388328596 6.100000000009629
  endloop
endfacet
facet normal 0.6586894601193366 -0.7524149088951503 -2.923243524654712e-13
  outer loop
    vertex 210.58349666790306 103.42491439738068 1.9000000000082153
    vertex 209.90632324990978 102.83209388328441 1.1000000000085912
    vertex 211.2606700859307 104.01773491150747 1.1000000000071184
  endloop
endfacet
facet normal 0.6586894601193366 -0.7524149088951503 -2.923243524654712e-13
  outer loop
    vertex 210.58349666790306 103.42491439738068 1.9000000000082153
    vertex 211.2606700859307 104.01773491150747 1.1000000000071184
    vertex 212.01308499482613 104.67642437162718 1.1000000000062788
  endloop
endfacet
facet normal 0.6586894601193366 -0.7524149088951503 -2.923243524654712e-13
  outer loop
    vertex 210.58349666790306 103.42491439738068 1.9000000000082153
    vertex 212.01308499482613 104.67642437162718 1.1000000000062788
    vertex 213.81888077615088 106.25727907589288 1.1000000000042534
  endloop
endfacet
facet normal 0.6586894601193366 -0.7524149088951503 -2.923243524654712e-13
  outer loop
    vertex 209.906323249914 102.83209388328596 6.100000000009629
    vertex 210.58349666790306 103.42491439738068 1.9000000000082153
    vertex 210.58349666790664 103.42491439738193 6.100000000008857
  endloop
endfacet
facet normal 0.6586894601193366 -0.7524149088951503 -2.923243524654712e-13
  outer loop
    vertex 211.71211903126772 104.41294858757912 0.8000000000079565
    vertex 211.2606700859302 104.01773491150726 0.5000000000083187
    vertex 211.7121190312675 104.41294858757904 0.5000000000077766
  endloop
endfacet
facet normal 0.6586894601193366 -0.7524149088951503 -2.923243524654712e-13
  outer loop
    vertex 211.2606700859302 104.01773491150726 0.5000000000083187
    vertex 211.71211903126772 104.41294858757912 0.8000000000079565
    vertex 211.2606700859307 104.01773491150747 1.1000000000071184
  endloop
endfacet
facet normal 7.942364361320628e-13 3.3860835911807426e-13 1.0
  outer loop
    vertex 214.19456596684472 108.71265290442155 5.100000000004032
    vertex 215.92564252108392 108.1016095642485 5.100000000002864
    vertex 214.8717393848507 109.30547341852916 5.1000000000032975
  endloop
endfacet
facet normal 7.942364361320628e-13 3.3860835911807426e-13 1.0
  outer loop
    vertex 215.92564252108392 108.1016095642485 5.100000000002864
    vertex 214.19456596684472 108.71265290442155 5.100000000004032
    vertex 215.2484691030779 107.50878905014096 5.100000000003607
  endloop
endfacet
facet normal -8.302650172353474e-13 -3.414542332266177e-13 -1.0
  outer loop
    vertex 215.9256425209985 108.10160956434987 8.10000000001849
    vertex 214.19456596684708 108.71265290442261 8.100000000019712
    vertex 214.87173938485304 109.30547341853027 8.10000000001896
  endloop
endfacet
facet normal -8.302650172353474e-13 -3.414542332266177e-13 -1.0
  outer loop
    vertex 214.19456596684708 108.71265290442261 8.100000000019712
    vertex 215.9256425209985 108.10160956434987 8.10000000001849
    vertex 215.24846910299257 107.50878905024224 8.100000000019259
  endloop
endfacet
facet normal -0.7524149088945168 -0.6586894601200598 7.766443062675267e-13
  outer loop
    vertex 207.64738707785602 102.98103106036758 -0.9999999999905312
    vertex 206.6593528876862 104.10965342372069 15.20000000000415
    vertex 206.65935288767275 104.10965342371522 -0.9999999999900874
  endloop
endfacet
facet normal -0.7524149088945168 -0.6586894601200598 7.766443062675267e-13
  outer loop
    vertex 206.6593528876862 104.10965342372069 15.20000000000415
    vertex 207.64738707785602 102.98103106036758 -0.9999999999905312
    vertex 207.64738707786952 102.98103106037301 15.2000000000052
  endloop
endfacet
facet normal 7.639523132763173e-13 5.566955862735266e-13 1.0
  outer loop
    vertex 206.6593528876862 104.10965342372069 15.20000000000415
    vertex 216.07443405750686 110.35835301370412 15.199999999994237
    vertex 215.08639986732356 111.48697537705182 15.199999999994688
  endloop
endfacet
facet normal 7.639523132763173e-13 5.566955862735266e-13 1.0
  outer loop
    vertex 216.07443405750686 110.35835301370412 15.199999999994237
    vertex 206.6593528876862 104.10965342372069 15.20000000000415
    vertex 207.64738707786952 102.98103106037301 15.2000000000052
  endloop
endfacet
facet normal -0.6586894601185447 0.7524149088958434 2.9156540689401404e-13
  outer loop
    vertex 206.6593528876862 104.10965342372069 15.20000000000415
    vertex 215.08639986731012 111.48697537704633 -0.9999999999995487
    vertex 206.65935288767275 104.10965342371522 -0.9999999999900874
  endloop
endfacet
facet normal -0.6586894601185447 0.7524149088958434 2.9156540689401404e-13
  outer loop
    vertex 215.08639986731012 111.48697537704633 -0.9999999999995487
    vertex 206.6593528876862 104.10965342372069 15.20000000000415
    vertex 209.89546073955583 106.94265169187611 9.449999999998997
  endloop
endfacet
facet normal -0.6586894601185447 0.7524149088958434 2.9156540689401404e-13
  outer loop
    vertex 215.08639986731012 111.48697537704633 -0.9999999999995487
    vertex 209.89546073955583 106.94265169187611 9.449999999998997
    vertex 210.0748198509713 107.09966872445865 9.139339828218981
  endloop
endfacet
facet normal -0.6586894601185447 0.7524149088958434 2.9156540689401404e-13
  outer loop
    vertex 215.08639986731012 111.48697537704633 -0.9999999999995487
    vertex 210.0748198509713 107.09966872445865 9.139339828218981
    vertex 210.3085651958184 107.30429730528857 8.90096189432188
  endloop
endfacet
facet normal -0.6586894601185447 0.7524149088958434 2.9156540689401404e-13
  outer loop
    vertex 215.08639986731012 111.48697537704633 -0.9999999999995487
    vertex 210.3085651958184 107.30429730528857 8.90096189432188
    vertex 210.58076741512818 107.54259233474696 8.751111260564626
  endloop
endfacet
facet normal -0.6586894601185447 0.7524149088958434 2.9156540689401404e-13
  outer loop
    vertex 215.08639986731012 111.48697537704633 -0.9999999999995487
    vertex 210.58076741512818 107.54259233474696 8.751111260564626
    vertex 210.87287637749012 107.7983144003774 8.699999999997898
  endloop
endfacet
facet normal -0.6586894601185447 0.7524149088958434 2.9156540689401404e-13
  outer loop
    vertex 209.89546073955583 106.94265169187611 9.449999999998997
    vertex 206.6593528876862 104.10965342372069 15.20000000000415
    vertex 209.78271088860993 106.84394665882844 9.811771432345342
  endloop
endfacet
facet normal -0.6586894601185447 0.7524149088958434 2.9156540689401404e-13
  outer loop
    vertex 209.78271088860993 106.84394665882844 9.811771432345342
    vertex 206.6593528876862 104.10965342372069 15.20000000000415
    vertex 209.74425401414763 106.81028021020009 10.199999999999168
  endloop
endfacet
facet normal -0.6586894601185447 0.7524149088958434 2.9156540689401404e-13
  outer loop
    vertex 209.74425401414763 106.81028021020009 10.199999999999168
    vertex 206.6593528876862 104.10965342372069 15.20000000000415
    vertex 209.78271088861055 106.8439466588287 10.58822856765291
  endloop
endfacet
facet normal -0.6586894601185447 0.7524149088958434 2.9156540689401404e-13
  outer loop
    vertex 209.78271088861055 106.8439466588287 10.58822856765291
    vertex 206.6593528876862 104.10965342372069 15.20000000000415
    vertex 209.89546073955705 106.94265169187659 10.949999999999
  endloop
endfacet
facet normal -0.6586894601185447 0.7524149088958434 2.9156540689401404e-13
  outer loop
    vertex 209.89546073955705 106.94265169187659 10.949999999999
    vertex 206.6593528876862 104.10965342372069 15.20000000000415
    vertex 210.0748198509731 107.09966872445939 11.260660171778614
  endloop
endfacet
facet normal -0.6586894601185447 0.7524149088958434 2.9156540689401404e-13
  outer loop
    vertex 210.0748198509731 107.09966872445939 11.260660171778614
    vertex 206.6593528876862 104.10965342372069 15.20000000000415
    vertex 210.30856519582056 107.30429730528945 11.49903810567519
  endloop
endfacet
facet normal -0.6586894601185447 0.7524149088958434 2.9156540689401404e-13
  outer loop
    vertex 210.30856519582056 107.30429730528945 11.49903810567519
    vertex 206.6593528876862 104.10965342372069 15.20000000000415
    vertex 210.58076741513057 107.54259233474792 11.648888739431822
  endloop
endfacet
facet normal -0.6586894601185447 0.7524149088958434 2.9156540689401404e-13
  outer loop
    vertex 210.58076741513057 107.54259233474792 11.648888739431822
    vertex 206.6593528876862 104.10965342372069 15.20000000000415
    vertex 210.87287637749262 107.79831440037843 11.699999999997893
  endloop
endfacet
facet normal -0.6586894601185447 0.7524149088958434 2.9156540689401404e-13
  outer loop
    vertex 215.08639986731012 111.48697537704633 -0.9999999999995487
    vertex 211.85029201542568 108.65397710887923 9.449999999996795
    vertex 215.08639986732356 111.48697537705182 15.199999999994688
  endloop
endfacet
facet normal -0.6586894601185447 0.7524149088958434 2.9156540689401404e-13
  outer loop
    vertex 211.85029201542568 108.65397710887923 9.449999999996795
    vertex 215.08639986731012 111.48697537704633 -0.9999999999995487
    vertex 211.67093290400962 108.49696007629643 9.139339828217182
  endloop
endfacet
facet normal -0.6586894601185447 0.7524149088958434 2.9156540689401404e-13
  outer loop
    vertex 211.67093290400962 108.49696007629643 9.139339828217182
    vertex 215.08639986731012 111.48697537704633 -0.9999999999995487
    vertex 211.43718755916217 108.29233149546636 8.900961894320607
  endloop
endfacet
facet normal -0.6586894601185447 0.7524149088958434 2.9156540689401404e-13
  outer loop
    vertex 211.43718755916217 108.29233149546636 8.900961894320607
    vertex 215.08639986731012 111.48697537704633 -0.9999999999995487
    vertex 211.16498533985217 108.05403646600791 8.751111260563968
  endloop
endfacet
facet normal -0.6586894601185447 0.7524149088958434 2.9156540689401404e-13
  outer loop
    vertex 211.16498533985217 108.05403646600791 8.751111260563968
    vertex 215.08639986731012 111.48697537704633 -0.9999999999995487
    vertex 210.87287637749012 107.7983144003774 8.699999999997898
  endloop
endfacet
facet normal -0.6586894601185447 0.7524149088958434 2.9156540689401404e-13
  outer loop
    vertex 215.08639986732356 111.48697537705182 15.199999999994688
    vertex 211.85029201542568 108.65397710887923 9.449999999996795
    vertex 211.96304186637218 108.75268214192714 9.811771432342885
  endloop
endfacet
facet normal -0.6586894601185447 0.7524149088958434 2.9156540689401404e-13
  outer loop
    vertex 215.08639986732356 111.48697537705182 15.199999999994688
    vertex 211.96304186637218 108.75268214192714 9.811771432342885
    vertex 212.0014987408351 108.78634859055572 10.19999999999662
  endloop
endfacet
facet normal -0.6586894601185447 0.7524149088958434 2.9156540689401404e-13
  outer loop
    vertex 215.08639986732356 111.48697537705182 15.199999999994688
    vertex 212.0014987408351 108.78634859055572 10.19999999999662
    vertex 211.96304186637286 108.75268214192741 10.588228567650441
  endloop
endfacet
facet normal -0.6586894601185447 0.7524149088958434 2.9156540689401404e-13
  outer loop
    vertex 215.08639986732356 111.48697537705182 15.199999999994688
    vertex 211.96304186637286 108.75268214192741 10.588228567650441
    vertex 211.85029201542693 108.65397710887976 10.949999999996798
  endloop
endfacet
facet normal -0.6586894601185447 0.7524149088958434 2.9156540689401404e-13
  outer loop
    vertex 215.08639986732356 111.48697537705182 15.199999999994688
    vertex 211.85029201542693 108.65397710887976 10.949999999996798
    vertex 211.67093290401144 108.49696007629719 11.260660171776811
  endloop
endfacet
facet normal -0.6586894601185447 0.7524149088958434 2.9156540689401404e-13
  outer loop
    vertex 215.08639986732356 111.48697537705182 15.199999999994688
    vertex 211.67093290401144 108.49696007629719 11.260660171776811
    vertex 211.43718755916433 108.29233149546727 11.499038105673915
  endloop
endfacet
facet normal -0.6586894601185447 0.7524149088958434 2.9156540689401404e-13
  outer loop
    vertex 215.08639986732356 111.48697537705182 15.199999999994688
    vertex 211.43718755916433 108.29233149546727 11.499038105673915
    vertex 211.16498533985455 108.05403646600885 11.648888739431166
  endloop
endfacet
facet normal -0.6586894601185447 0.7524149088958434 2.9156540689401404e-13
  outer loop
    vertex 215.08639986732356 111.48697537705182 15.199999999994688
    vertex 211.16498533985455 108.05403646600885 11.648888739431166
    vertex 210.87287637749262 107.79831440037843 11.699999999997893
  endloop
endfacet
facet normal -0.6586894601185447 0.7524149088958434 2.9156540689401404e-13
  outer loop
    vertex 215.08639986732356 111.48697537705182 15.199999999994688
    vertex 210.87287637749262 107.79831440037843 11.699999999997893
    vertex 206.6593528876862 104.10965342372069 15.20000000000415
  endloop
endfacet
facet normal 0.7524149088951559 0.6586894601193298 -8.334073001293707e-13
  outer loop
    vertex 209.52959353167333 104.62877825166261 6.10000000000932
    vertex 210.58349666790306 103.42491439738068 1.9000000000082153
    vertex 209.529593531628 104.62877825170905 1.9000000000086827
  endloop
endfacet
facet normal 0.7524149088951559 0.6586894601193298 -8.334073001293707e-13
  outer loop
    vertex 210.58349666790306 103.42491439738068 1.9000000000082153
    vertex 209.52959353167333 104.62877825166261 6.10000000000932
    vertex 210.58349666790664 103.42491439738193 6.100000000008857
  endloop
endfacet
facet normal -0.7524149088951628 -0.658689460119322 8.409995175917061e-13
  outer loop
    vertex 214.19456596684708 108.71265290442261 8.100000000019712
    vertex 215.24846910299607 107.50878905024364 12.299999999988628
    vertex 214.19456596680868 108.71265290447188 12.2999999999891
  endloop
endfacet
facet normal -0.7524149088951628 -0.658689460119322 8.409995175917061e-13
  outer loop
    vertex 215.24846910299607 107.50878905024364 12.299999999988628
    vertex 214.19456596684708 108.71265290442261 8.100000000019712
    vertex 215.24846910299257 107.50878905024224 8.100000000019259
  endloop
endfacet
facet normal 0.7524149088951723 0.6586894601193111 -8.485194282117413e-13
  outer loop
    vertex 215.92564252100274 108.10160956435156 13.10000000000301
    vertex 214.87173938485304 109.30547341853027 8.10000000001896
    vertex 214.87173938481533 109.30547341857988 13.100000000003496
  endloop
endfacet
facet normal 0.7524149088951723 0.6586894601193111 -8.485194282117413e-13
  outer loop
    vertex 214.87173938485304 109.30547341853027 8.10000000001896
    vertex 215.92564252100274 108.10160956435156 13.10000000000301
    vertex 215.9256425209985 108.10160956434987 8.10000000001849
  endloop
endfacet
facet normal -0.7524149088951628 -0.658689460119322 8.374745594760135e-13
  outer loop
    vertex 215.24846910307525 107.50878905013995 1.9000000000029842
    vertex 214.19456596684472 108.71265290442155 5.100000000004032
    vertex 214.1945659668001 108.71265290446836 1.900000000003472
  endloop
endfacet
facet normal -0.7524149088951628 -0.658689460119322 8.374745594760135e-13
  outer loop
    vertex 214.19456596684472 108.71265290442155 5.100000000004032
    vertex 215.24846910307525 107.50878905013995 1.9000000000029842
    vertex 215.2484691030779 107.50878905014096 5.100000000003607
  endloop
endfacet
facet normal 0.7524149088951628 0.658689460119322 -8.233747270792397e-13
  outer loop
    vertex 210.583496667824 103.42491439748432 12.29999999999386
    vertex 209.52959353167586 104.62877825166376 9.100000000008537
    vertex 209.52959353163655 104.62877825171259 12.29999999999433
  endloop
endfacet
facet normal 0.7524149088951628 0.658689460119322 -8.233747270792397e-13
  outer loop
    vertex 209.52959353167586 104.62877825166376 9.100000000008537
    vertex 210.583496667824 103.42491439748432 12.29999999999386
    vertex 210.58349666782135 103.42491439748332 9.100000000008057
  endloop
endfacet
facet normal -0.7524149088951535 -0.6586894601193325 8.391195399280441e-13
  outer loop
    vertex 209.90632324990978 102.83209388328441 1.1000000000085912
    vertex 208.85242011368067 104.03595773756666 6.100000000010066
    vertex 208.8524201136346 104.03595773761286 1.1000000000090966
  endloop
endfacet
facet normal -0.7524149088951535 -0.6586894601193325 8.391195399280441e-13
  outer loop
    vertex 208.85242011368067 104.03595773756666 6.100000000010066
    vertex 209.90632324990978 102.83209388328441 1.1000000000085912
    vertex 209.906323249914 102.83209388328596 6.100000000009629
  endloop
endfacet
facet normal 0.6586894601185426 -0.7524149088958454 -2.9491629299202094e-13
  outer loop
    vertex 216.07443405749342 110.35835301369868 -0.9999999999999759
    vertex 212.15301953003507 106.92541410265832 8.751111260563526
    vertex 211.86091056767302 106.6696920370278 8.69999999999746
  endloop
endfacet
facet normal 0.6586894601185426 -0.7524149088958454 -2.9491629299202094e-13
  outer loop
    vertex 212.15301953003507 106.92541410265832 8.751111260563526
    vertex 216.07443405749342 110.35835301369868 -0.9999999999999759
    vertex 212.42522174934507 107.1637091321168 8.900961894320167
  endloop
endfacet
facet normal 0.6586894601185426 -0.7524149088958454 -2.9491629299202094e-13
  outer loop
    vertex 212.42522174934507 107.1637091321168 8.900961894320167
    vertex 216.07443405749342 110.35835301369868 -0.9999999999999759
    vertex 212.65896709419252 107.36833771294685 9.13933982821674
  endloop
endfacet
facet normal 0.6586894601185426 -0.7524149088958454 -2.9491629299202094e-13
  outer loop
    vertex 212.65896709419252 107.36833771294685 9.13933982821674
    vertex 216.07443405749342 110.35835301369868 -0.9999999999999759
    vertex 212.83832620560858 107.52535474552965 9.449999999996358
  endloop
endfacet
facet normal 0.6586894601185426 -0.7524149088958454 -2.9491629299202094e-13
  outer loop
    vertex 212.83832620560858 107.52535474552965 9.449999999996358
    vertex 216.07443405749342 110.35835301369868 -0.9999999999999759
    vertex 216.07443405750686 110.35835301370412 15.199999999994237
  endloop
endfacet
facet normal 0.6586894601185426 -0.7524149088958454 -2.9491629299202094e-13
  outer loop
    vertex 212.83832620560858 107.52535474552965 9.449999999996358
    vertex 216.07443405750686 110.35835301370412 15.199999999994237
    vertex 212.95107605655508 107.62405977857756 9.811771432342445
  endloop
endfacet
facet normal 0.6586894601185426 -0.7524149088958454 -2.9491629299202094e-13
  outer loop
    vertex 212.95107605655508 107.62405977857756 9.811771432342445
    vertex 216.07443405750686 110.35835301370412 15.199999999994237
    vertex 212.98953293101806 107.65772622720613 10.199999999996178
  endloop
endfacet
facet normal 0.6586894601185426 -0.7524149088958454 -2.9491629299202094e-13
  outer loop
    vertex 212.98953293101806 107.65772622720613 10.199999999996178
    vertex 216.07443405750686 110.35835301370412 15.199999999994237
    vertex 212.95107605655576 107.62405977857783 10.588228567650003
  endloop
endfacet
facet normal 0.6586894601185426 -0.7524149088958454 -2.9491629299202094e-13
  outer loop
    vertex 212.95107605655576 107.62405977857783 10.588228567650003
    vertex 216.07443405750686 110.35835301370412 15.199999999994237
    vertex 212.83832620560986 107.52535474553018 10.949999999996358
  endloop
endfacet
facet normal 0.6586894601185426 -0.7524149088958454 -2.9491629299202094e-13
  outer loop
    vertex 212.83832620560986 107.52535474553018 10.949999999996358
    vertex 216.07443405750686 110.35835301370412 15.199999999994237
    vertex 212.65896709419434 107.36833771294759 11.260660171776372
  endloop
endfacet
facet normal 0.6586894601185426 -0.7524149088958454 -2.9491629299202094e-13
  outer loop
    vertex 212.65896709419434 107.36833771294759 11.260660171776372
    vertex 216.07443405750686 110.35835301370412 15.199999999994237
    vertex 212.42522174934726 107.16370913211767 11.499038105673474
  endloop
endfacet
facet normal 0.6586894601185426 -0.7524149088958454 -2.9491629299202094e-13
  outer loop
    vertex 212.42522174934726 107.16370913211767 11.499038105673474
    vertex 216.07443405750686 110.35835301370412 15.199999999994237
    vertex 212.15301953003745 106.92541410265927 11.648888739430728
  endloop
endfacet
facet normal 0.6586894601185426 -0.7524149088958454 -2.9491629299202094e-13
  outer loop
    vertex 212.15301953003745 106.92541410265927 11.648888739430728
    vertex 216.07443405750686 110.35835301370412 15.199999999994237
    vertex 211.86091056767555 106.66969203702884 11.699999999997456
  endloop
endfacet
facet normal 0.6586894601185426 -0.7524149088958454 -2.9491629299202094e-13
  outer loop
    vertex 216.07443405749342 110.35835301369868 -0.9999999999999759
    vertex 207.64738707786952 102.98103106037301 15.2000000000052
    vertex 207.64738707785602 102.98103106036758 -0.9999999999905312
  endloop
endfacet
facet normal 0.6586894601185426 -0.7524149088958454 -2.9491629299202094e-13
  outer loop
    vertex 207.64738707786952 102.98103106037301 15.2000000000052
    vertex 216.07443405749342 110.35835301369868 -0.9999999999999759
    vertex 210.88349492973873 105.81402932852652 9.449999999998557
  endloop
endfacet
facet normal 0.6586894601185426 -0.7524149088958454 -2.9491629299202094e-13
  outer loop
    vertex 210.88349492973873 105.81402932852652 9.449999999998557
    vertex 216.07443405749342 110.35835301369868 -0.9999999999999759
    vertex 211.06285404115422 105.97104636110907 9.13933982821854
  endloop
endfacet
facet normal 0.6586894601185426 -0.7524149088958454 -2.9491629299202094e-13
  outer loop
    vertex 211.06285404115422 105.97104636110907 9.13933982821854
    vertex 216.07443405749342 110.35835301369868 -0.9999999999999759
    vertex 211.2965993860013 106.175674941939 8.900961894321437
  endloop
endfacet
facet normal 0.6586894601185426 -0.7524149088958454 -2.9491629299202094e-13
  outer loop
    vertex 211.2965993860013 106.175674941939 8.900961894321437
    vertex 216.07443405749342 110.35835301369868 -0.9999999999999759
    vertex 211.56880160531108 106.41396997139738 8.751111260564185
  endloop
endfacet
facet normal 0.6586894601185426 -0.7524149088958454 -2.9491629299202094e-13
  outer loop
    vertex 211.56880160531108 106.41396997139738 8.751111260564185
    vertex 216.07443405749342 110.35835301369868 -0.9999999999999759
    vertex 211.86091056767302 106.6696920370278 8.69999999999746
  endloop
endfacet
facet normal 0.6586894601185426 -0.7524149088958454 -2.9491629299202094e-13
  outer loop
    vertex 207.64738707786952 102.98103106037301 15.2000000000052
    vertex 210.88349492973873 105.81402932852652 9.449999999998557
    vertex 210.77074507879283 105.71532429547887 9.811771432344901
  endloop
endfacet
facet normal 0.6586894601185426 -0.7524149088958454 -2.9491629299202094e-13
  outer loop
    vertex 207.64738707786952 102.98103106037301 15.2000000000052
    vertex 210.77074507879283 105.71532429547887 9.811771432344901
    vertex 210.73228820433053 105.68165784685051 10.199999999998727
  endloop
endfacet
facet normal 0.6586894601185426 -0.7524149088958454 -2.9491629299202094e-13
  outer loop
    vertex 207.64738707786952 102.98103106037301 15.2000000000052
    vertex 210.73228820433053 105.68165784685051 10.199999999998727
    vertex 210.77074507879345 105.7153242954791 10.58822856765247
  endloop
endfacet
facet normal 0.6586894601185426 -0.7524149088958454 -2.9491629299202094e-13
  outer loop
    vertex 207.64738707786952 102.98103106037301 15.2000000000052
    vertex 210.77074507879345 105.7153242954791 10.58822856765247
    vertex 210.88349492973995 105.81402932852701 10.949999999998562
  endloop
endfacet
facet normal 0.6586894601185426 -0.7524149088958454 -2.9491629299202094e-13
  outer loop
    vertex 207.64738707786952 102.98103106037301 15.2000000000052
    vertex 210.88349492973995 105.81402932852701 10.949999999998562
    vertex 211.06285404115602 105.97104636110981 11.260660171778177
  endloop
endfacet
facet normal 0.6586894601185426 -0.7524149088958454 -2.9491629299202094e-13
  outer loop
    vertex 207.64738707786952 102.98103106037301 15.2000000000052
    vertex 211.06285404115602 105.97104636110981 11.260660171778177
    vertex 211.29659938600346 106.17567494193987 11.49903810567475
  endloop
endfacet
facet normal 0.6586894601185426 -0.7524149088958454 -2.9491629299202094e-13
  outer loop
    vertex 207.64738707786952 102.98103106037301 15.2000000000052
    vertex 211.29659938600346 106.17567494193987 11.49903810567475
    vertex 211.56880160531347 106.41396997139834 11.648888739431383
  endloop
endfacet
facet normal 0.6586894601185426 -0.7524149088958454 -2.9491629299202094e-13
  outer loop
    vertex 207.64738707786952 102.98103106037301 15.2000000000052
    vertex 211.56880160531347 106.41396997139834 11.648888739431383
    vertex 211.86091056767555 106.66969203702884 11.699999999997456
  endloop
endfacet
facet normal 0.6586894601185426 -0.7524149088958454 -2.9491629299202094e-13
  outer loop
    vertex 207.64738707786952 102.98103106037301 15.2000000000052
    vertex 211.86091056767555 106.66969203702884 11.699999999997456
    vertex 216.07443405750686 110.35835301370412 15.199999999994237
  endloop
endfacet
facet normal -8.35369853906183e-13 -3.440896798348155e-13 -1.0
  outer loop
    vertex 211.86091056767555 106.66969203702884 11.699999999997456
    vertex 210.58076741513057 107.54259233474792 11.648888739431822
    vertex 210.87287637749262 107.79831440037843 11.699999999997893
  endloop
endfacet
facet normal 0.1947393082405263 0.170481377086654 -0.9659258262892857
  outer loop
    vertex 210.58076741513057 107.54259233474792 11.648888739431822
    vertex 211.86091056767555 106.66969203702884 11.699999999997456
    vertex 211.56880160531347 106.41396997139834 11.648888739431383
  endloop
endfacet
facet normal -0.19473930824212368 -0.17048137708730435 -0.9659258262888488
  outer loop
    vertex 212.15301953003745 106.92541410265927 11.648888739430728
    vertex 210.87287637749262 107.79831440037843 11.699999999997893
    vertex 211.16498533985455 108.05403646600885 11.648888739431166
  endloop
endfacet
facet normal -8.361275021754362e-13 -3.447529507555984e-13 -1.0
  outer loop
    vertex 210.87287637749262 107.79831440037843 11.699999999997893
    vertex 212.15301953003745 106.92541410265927 11.648888739430728
    vertex 211.86091056767555 106.66969203702884 11.699999999997456
  endloop
endfacet
facet normal -0.37620745444863213 -0.3293447300595594 -0.8660254037840207
  outer loop
    vertex 212.42522174934726 107.16370913211767 11.499038105673474
    vertex 211.16498533985455 108.05403646600885 11.648888739431166
    vertex 211.43718755916433 108.29233149546727 11.499038105673915
  endloop
endfacet
facet normal -0.1947393082421243 -0.1704813770873049 -0.9659258262888486
  outer loop
    vertex 211.16498533985455 108.05403646600885 11.648888739431166
    vertex 212.42522174934726 107.16370913211767 11.499038105673474
    vertex 212.15301953003745 106.92541410265927 11.648888739430728
  endloop
endfacet
facet normal -0.5320376843466874 -0.4657637839461619 -0.707106781185959
  outer loop
    vertex 212.65896709419434 107.36833771294759 11.260660171776372
    vertex 211.43718755916433 108.29233149546727 11.499038105673915
    vertex 211.67093290401144 108.49696007629719 11.260660171776811
  endloop
endfacet
facet normal -0.3762074544486324 -0.3293447300595596 -0.8660254037840205
  outer loop
    vertex 211.43718755916433 108.29233149546727 11.499038105673915
    vertex 212.65896709419434 107.36833771294759 11.260660171776372
    vertex 212.42522174934726 107.16370913211767 11.499038105673474
  endloop
endfacet
facet normal -0.651610425290374 -0.5704418056678912 -0.49999999999925365
  outer loop
    vertex 211.85029201542693 108.65397710887976 10.949999999996798
    vertex 212.65896709419434 107.36833771294759 11.260660171776372
    vertex 211.67093290401144 108.49696007629719 11.260660171776811
  endloop
endfacet
facet normal -0.5320376843466874 -0.4657637839461619 -0.707106781185959
  outer loop
    vertex 212.65896709419434 107.36833771294759 11.260660171776372
    vertex 211.85029201542693 108.65397710887976 10.949999999996798
    vertex 212.83832620560986 107.52535474553018 10.949999999996358
  endloop
endfacet
facet normal -0.7267769925876527 -0.6362451610329994 -0.2588190451016685
  outer loop
    vertex 211.96304186637286 108.75268214192741 10.588228567650441
    vertex 212.83832620560986 107.52535474553018 10.949999999996358
    vertex 211.85029201542693 108.65397710887976 10.949999999996798
  endloop
endfacet
facet normal -0.6516104252903745 -0.5704418056678916 -0.49999999999925254
  outer loop
    vertex 212.83832620560986 107.52535474553018 10.949999999996358
    vertex 211.96304186637286 108.75268214192741 10.588228567650441
    vertex 212.95107605655576 107.62405977857783 10.588228567650003
  endloop
endfacet
facet normal -0.752414908895843 -0.658689460118545 8.458630459043422e-13
  outer loop
    vertex 212.0014987408351 108.78634859055572 10.19999999999662
    vertex 212.95107605655576 107.62405977857783 10.588228567650003
    vertex 211.96304186637286 108.75268214192741 10.588228567650441
  endloop
endfacet
facet normal -0.7267769925876532 -0.6362451610329999 -0.2588190451016668
  outer loop
    vertex 212.95107605655576 107.62405977857783 10.588228567650003
    vertex 212.0014987408351 108.78634859055572 10.19999999999662
    vertex 212.98953293101806 107.65772622720613 10.199999999996178
  endloop
endfacet
facet normal -0.7267769925872218 -0.6362451610328231 0.2588190451033113
  outer loop
    vertex 212.95107605655508 107.62405977857756 9.811771432342445
    vertex 212.0014987408351 108.78634859055572 10.19999999999662
    vertex 211.96304186637218 108.75268214192714 9.811771432342885
  endloop
endfacet
facet normal -0.752414908895843 -0.658689460118545 8.458630459043422e-13
  outer loop
    vertex 212.0014987408351 108.78634859055572 10.19999999999662
    vertex 212.95107605655508 107.62405977857756 9.811771432342445
    vertex 212.98953293101806 107.65772622720613 10.199999999996178
  endloop
endfacet
facet normal -0.6516104252895298 -0.5704418056675391 0.5000000000007557
  outer loop
    vertex 212.83832620560858 107.52535474552965 9.449999999996358
    vertex 211.96304186637218 108.75268214192714 9.811771432342885
    vertex 211.85029201542568 108.65397710887923 9.449999999996795
  endloop
endfacet
facet normal -0.7267769925872217 -0.636245161032823 0.258819045103312
  outer loop
    vertex 211.96304186637218 108.75268214192714 9.811771432342885
    vertex 212.83832620560858 107.52535474552965 9.449999999996358
    vertex 212.95107605655508 107.62405977857756 9.811771432342445
  endloop
endfacet
facet normal -0.5320376843455035 -0.46576378394567297 0.707106781187172
  outer loop
    vertex 212.65896709419252 107.36833771294685 9.13933982821674
    vertex 211.85029201542568 108.65397710887923 9.449999999996795
    vertex 211.67093290400962 108.49696007629643 9.139339828217182
  endloop
endfacet
facet normal -0.6516104252895302 -0.5704418056675395 0.5000000000007546
  outer loop
    vertex 211.85029201542568 108.65397710887923 9.449999999996795
    vertex 212.65896709419252 107.36833771294685 9.13933982821674
    vertex 212.83832620560858 107.52535474552965 9.449999999996358
  endloop
endfacet
facet normal -0.37620745444721737 -0.3293447300589915 0.8660254037848513
  outer loop
    vertex 211.43718755916217 108.29233149546636 8.900961894320607
    vertex 212.65896709419252 107.36833771294685 9.13933982821674
    vertex 211.67093290400962 108.49696007629643 9.139339828217182
  endloop
endfacet
facet normal -0.5320376843455035 -0.46576378394567297 0.707106781187172
  outer loop
    vertex 212.65896709419252 107.36833771294685 9.13933982821674
    vertex 211.43718755916217 108.29233149546636 8.900961894320607
    vertex 212.42522174934507 107.1637091321168 8.900961894320167
  endloop
endfacet
facet normal -0.19473930824053048 -0.17048137708665773 0.9659258262892841
  outer loop
    vertex 211.16498533985217 108.05403646600791 8.751111260563968
    vertex 212.42522174934507 107.1637091321168 8.900961894320167
    vertex 211.43718755916217 108.29233149546636 8.900961894320607
  endloop
endfacet
facet normal -0.3762074544472174 -0.32934473005899156 0.8660254037848513
  outer loop
    vertex 212.42522174934507 107.1637091321168 8.900961894320167
    vertex 211.16498533985217 108.05403646600791 8.751111260563968
    vertex 212.15301953003507 106.92541410265832 8.751111260563526
  endloop
endfacet
facet normal 8.350748404208107e-13 3.4383141505150117e-13 1.0
  outer loop
    vertex 210.87287637749012 107.7983144003774 8.699999999997898
    vertex 212.15301953003507 106.92541410265832 8.751111260563526
    vertex 211.16498533985217 108.05403646600791 8.751111260563968
  endloop
endfacet
facet normal -0.19473930824053015 -0.1704813770866574 0.9659258262892843
  outer loop
    vertex 212.15301953003507 106.92541410265832 8.751111260563526
    vertex 210.87287637749012 107.7983144003774 8.699999999997898
    vertex 211.86091056767302 106.6696920370278 8.69999999999746
  endloop
endfacet
facet normal 0.19473930824212754 0.17048137708730773 0.9659258262888475
  outer loop
    vertex 210.58076741512818 107.54259233474696 8.751111260564626
    vertex 211.86091056767302 106.6696920370278 8.69999999999746
    vertex 210.87287637749012 107.7983144003774 8.699999999997898
  endloop
endfacet
facet normal 8.352625762751389e-13 3.4399576536815535e-13 1.0
  outer loop
    vertex 211.86091056767302 106.6696920370278 8.69999999999746
    vertex 210.58076741512818 107.54259233474696 8.751111260564626
    vertex 211.56880160531108 106.41396997139738 8.751111260564185
  endloop
endfacet
facet normal 0.3762074544486378 0.32934473005956433 0.8660254037840166
  outer loop
    vertex 210.3085651958184 107.30429730528857 8.90096189432188
    vertex 211.56880160531108 106.41396997139738 8.751111260564185
    vertex 210.58076741512818 107.54259233474696 8.751111260564626
  endloop
endfacet
facet normal 0.19473930824212698 0.17048137708730726 0.9659258262888478
  outer loop
    vertex 211.56880160531108 106.41396997139738 8.751111260564185
    vertex 210.3085651958184 107.30429730528857 8.90096189432188
    vertex 211.2965993860013 106.175674941939 8.900961894321437
  endloop
endfacet
facet normal 0.5320376843467006 0.4657637839461734 0.7071067811859413
  outer loop
    vertex 210.0748198509713 107.09966872445865 9.139339828218981
    vertex 211.2965993860013 106.175674941939 8.900961894321437
    vertex 210.3085651958184 107.30429730528857 8.90096189432188
  endloop
endfacet
facet normal 0.37620745444863757 0.32934473005956416 0.8660254037840167
  outer loop
    vertex 211.2965993860013 106.175674941939 8.900961894321437
    vertex 210.0748198509713 107.09966872445865 9.139339828218981
    vertex 211.06285404115422 105.97104636110907 9.13933982821854
  endloop
endfacet
facet normal 0.6516104252903765 0.5704418056678932 0.4999999999992484
  outer loop
    vertex 210.88349492973873 105.81402932852652 9.449999999998557
    vertex 210.0748198509713 107.09966872445865 9.139339828218981
    vertex 209.89546073955583 106.94265169187611 9.449999999998997
  endloop
endfacet
facet normal 0.5320376843467006 0.4657637839461734 0.7071067811859413
  outer loop
    vertex 210.0748198509713 107.09966872445865 9.139339828218981
    vertex 210.88349492973873 105.81402932852652 9.449999999998557
    vertex 211.06285404115422 105.97104636110907 9.13933982821854
  endloop
endfacet
facet normal 0.7267769925876462 0.636245161032994 0.25881904510170023
  outer loop
    vertex 210.77074507879283 105.71532429547887 9.811771432344901
    vertex 209.89546073955583 106.94265169187611 9.449999999998997
    vertex 209.78271088860993 106.84394665882844 9.811771432345342
  endloop
endfacet
facet normal 0.6516104252903769 0.5704418056678936 0.4999999999992472
  outer loop
    vertex 209.89546073955583 106.94265169187611 9.449999999998997
    vertex 210.77074507879283 105.71532429547887 9.811771432344901
    vertex 210.88349492973873 105.81402932852652 9.449999999998557
  endloop
endfacet
facet normal 0.752414908895843 0.6586894601185451 -8.462284014100635e-13
  outer loop
    vertex 210.73228820433053 105.68165784685051 10.199999999998727
    vertex 209.78271088860993 106.84394665882844 9.811771432345342
    vertex 209.74425401414763 106.81028021020009 10.199999999999168
  endloop
endfacet
facet normal 0.7267769925876459 0.6362451610329938 0.2588190451017012
  outer loop
    vertex 209.78271088860993 106.84394665882844 9.811771432345342
    vertex 210.73228820433053 105.68165784685051 10.199999999998727
    vertex 210.77074507879283 105.71532429547887 9.811771432344901
  endloop
endfacet
facet normal 0.726776992587216 0.6362451610328179 -0.2588190451033416
  outer loop
    vertex 209.78271088861055 106.8439466588287 10.58822856765291
    vertex 210.73228820433053 105.68165784685051 10.199999999998727
    vertex 209.74425401414763 106.81028021020009 10.199999999999168
  endloop
endfacet
facet normal 0.752414908895843 0.6586894601185451 -8.462284014100635e-13
  outer loop
    vertex 210.73228820433053 105.68165784685051 10.199999999998727
    vertex 209.78271088861055 106.8439466588287 10.58822856765291
    vertex 210.77074507879345 105.7153242954791 10.58822856765247
  endloop
endfacet
facet normal 0.651610425289536 0.5704418056675448 -0.5000000000007412
  outer loop
    vertex 209.89546073955705 106.94265169187659 10.949999999999
    vertex 210.77074507879345 105.7153242954791 10.58822856765247
    vertex 209.78271088861055 106.8439466588287 10.58822856765291
  endloop
endfacet
facet normal 0.7267769925872162 0.6362451610328183 -0.2588190451033395
  outer loop
    vertex 210.77074507879345 105.7153242954791 10.58822856765247
    vertex 209.89546073955705 106.94265169187659 10.949999999999
    vertex 210.88349492973995 105.81402932852701 10.949999999998562
  endloop
endfacet
facet normal 0.5320376843455216 0.46576378394568885 -0.7071067811871476
  outer loop
    vertex 210.0748198509731 107.09966872445939 11.260660171778614
    vertex 210.88349492973995 105.81402932852701 10.949999999998562
    vertex 209.89546073955705 106.94265169187659 10.949999999999
  endloop
endfacet
facet normal 0.6516104252895359 0.5704418056675447 -0.5000000000007414
  outer loop
    vertex 210.88349492973995 105.81402932852701 10.949999999998562
    vertex 210.0748198509731 107.09966872445939 11.260660171778614
    vertex 211.06285404115602 105.97104636110981 11.260660171778177
  endloop
endfacet
facet normal 0.3762074544472144 0.3293447300589889 -0.8660254037848536
  outer loop
    vertex 211.29659938600346 106.17567494193987 11.49903810567475
    vertex 210.0748198509731 107.09966872445939 11.260660171778614
    vertex 210.30856519582056 107.30429730528945 11.49903810567519
  endloop
endfacet
facet normal 0.5320376843455216 0.46576378394568885 -0.7071067811871476
  outer loop
    vertex 210.0748198509731 107.09966872445939 11.260660171778614
    vertex 211.29659938600346 106.17567494193987 11.49903810567475
    vertex 211.06285404115602 105.97104636110981 11.260660171778177
  endloop
endfacet
facet normal 0.19473930824052552 0.17048137708665334 -0.9659258262892859
  outer loop
    vertex 211.56880160531347 106.41396997139834 11.648888739431383
    vertex 210.30856519582056 107.30429730528945 11.49903810567519
    vertex 210.58076741513057 107.54259233474792 11.648888739431822
  endloop
endfacet
facet normal 0.3762074544472138 0.3293447300589884 -0.8660254037848542
  outer loop
    vertex 210.30856519582056 107.30429730528945 11.49903810567519
    vertex 211.56880160531347 106.41396997139834 11.648888739431383
    vertex 211.29659938600346 106.17567494193987 11.49903810567475
  endloop
endfacet
facet normal 8.279715066639527e-13 3.366852892581437e-13 1.0
  outer loop
    vertex 211.10966484034054 106.01202611798381 13.700000000008005
    vertex 211.26067008585332 104.01773491161201 13.70000000000857
    vertex 212.16356797652796 104.80816226375558 13.700000000007538
  endloop
endfacet
facet normal 8.279715066639527e-13 3.366852892581437e-13 1.0
  outer loop
    vertex 211.26067008585332 104.01773491161201 13.70000000000857
    vertex 211.10966484034054 106.01202611798381 13.700000000008005
    vertex 210.20676694966593 105.22159876584017 13.700000000009044
  endloop
endfacet
endsolid RatHeadPhones_FinalModel_Jan2015
